%TF.GenerationSoftware,KiCad,Pcbnew,7.0.7-2.fc38*%
%TF.CreationDate,2023-11-16T23:20:59-08:00*%
%TF.ProjectId,TinySparrow,54696e79-5370-4617-9272-6f772e6b6963,rev?*%
%TF.SameCoordinates,Original*%
%TF.FileFunction,Copper,L6,Bot*%
%TF.FilePolarity,Positive*%
%FSLAX46Y46*%
G04 Gerber Fmt 4.6, Leading zero omitted, Abs format (unit mm)*
G04 Created by KiCad (PCBNEW 7.0.7-2.fc38) date 2023-11-16 23:20:59*
%MOMM*%
%LPD*%
G01*
G04 APERTURE LIST*
%TA.AperFunction,ComponentPad*%
%ADD10R,1.700000X1.700000*%
%TD*%
%TA.AperFunction,ComponentPad*%
%ADD11O,1.700000X1.700000*%
%TD*%
%TA.AperFunction,ViaPad*%
%ADD12C,0.800000*%
%TD*%
G04 APERTURE END LIST*
D10*
%TO.P,J1,1,Pin_1*%
%TO.N,/CANL*%
X172450000Y-84620000D03*
D11*
%TO.P,J1,2,Pin_2*%
%TO.N,GND*%
X169910000Y-84620000D03*
%TO.P,J1,3,Pin_3*%
%TO.N,/CANH*%
X172450000Y-87160000D03*
%TO.P,J1,4,Pin_4*%
%TO.N,/PA0*%
X169910000Y-87160000D03*
%TO.P,J1,5,Pin_5*%
%TO.N,GND*%
X172450000Y-89700000D03*
%TO.P,J1,6,Pin_6*%
%TO.N,/~{RESET}*%
X169910000Y-89700000D03*
%TO.P,J1,7,Pin_7*%
%TO.N,/SWDIO*%
X172450000Y-92240000D03*
%TO.P,J1,8,Pin_8*%
%TO.N,/SWCLK*%
X169910000Y-92240000D03*
%TO.P,J1,9,Pin_9*%
%TO.N,/PA15*%
X172450000Y-94780000D03*
%TO.P,J1,10,Pin_10*%
%TO.N,/PB3*%
X169910000Y-94780000D03*
%TO.P,J1,11,Pin_11*%
%TO.N,/PB4*%
X172450000Y-97320000D03*
%TO.P,J1,12,Pin_12*%
%TO.N,/PB5*%
X169910000Y-97320000D03*
%TO.P,J1,13,Pin_13*%
%TO.N,/PB6*%
X172450000Y-99860000D03*
%TO.P,J1,14,Pin_14*%
%TO.N,/PB7*%
X169910000Y-99860000D03*
%TO.P,J1,15,Pin_15*%
%TO.N,/PD0*%
X172450000Y-102400000D03*
%TO.P,J1,16,Pin_16*%
%TO.N,/PD1*%
X169910000Y-102400000D03*
%TD*%
D10*
%TO.P,J2,1,Pin_1*%
%TO.N,/PA8*%
X197850000Y-84620000D03*
D11*
%TO.P,J2,2,Pin_2*%
%TO.N,+3V3*%
X195310000Y-84620000D03*
%TO.P,J2,3,Pin_3*%
%TO.N,/PA9*%
X197850000Y-87160000D03*
%TO.P,J2,4,Pin_4*%
%TO.N,/PA10*%
X195310000Y-87160000D03*
%TO.P,J2,5,Pin_5*%
%TO.N,/PB1*%
X197850000Y-89700000D03*
%TO.P,J2,6,Pin_6*%
%TO.N,/PB2*%
X195310000Y-89700000D03*
%TO.P,J2,7,Pin_7*%
%TO.N,/PA7*%
X197850000Y-92240000D03*
%TO.P,J2,8,Pin_8*%
%TO.N,/PB0*%
X195310000Y-92240000D03*
%TO.P,J2,9,Pin_9*%
%TO.N,/PA2*%
X197850000Y-94780000D03*
%TO.P,J2,10,Pin_10*%
%TO.N,/PA1*%
X195310000Y-94780000D03*
%TO.P,J2,11,Pin_11*%
%TO.N,/PA4*%
X197850000Y-97320000D03*
%TO.P,J2,12,Pin_12*%
%TO.N,/PA3*%
X195310000Y-97320000D03*
%TO.P,J2,13,Pin_13*%
%TO.N,/PA6*%
X197850000Y-99860000D03*
%TO.P,J2,14,Pin_14*%
%TO.N,/PA5*%
X195310000Y-99860000D03*
%TO.P,J2,15,Pin_15*%
%TO.N,VDC*%
X197850000Y-102400000D03*
%TO.P,J2,16,Pin_16*%
X195310000Y-102400000D03*
%TD*%
D12*
%TO.N,GND*%
X175000000Y-91200000D03*
X183800000Y-92600000D03*
X200400000Y-96200000D03*
X172200000Y-105200000D03*
X169200000Y-105200000D03*
X171200000Y-105200000D03*
X200400000Y-97200000D03*
X177000000Y-91200000D03*
X181200000Y-97800000D03*
X181200000Y-98800000D03*
X177000000Y-90200000D03*
X176600000Y-98800000D03*
X200400000Y-95200000D03*
X181200000Y-99800000D03*
X175000000Y-89200000D03*
X182200000Y-98800000D03*
X175000000Y-90200000D03*
X170200000Y-105200000D03*
X176000000Y-90200000D03*
X200400000Y-98200000D03*
X200400000Y-100200000D03*
X180200000Y-98800000D03*
X177000000Y-89200000D03*
X176000000Y-91200000D03*
X200400000Y-102200000D03*
X176000000Y-89200000D03*
X200400000Y-99200000D03*
X200400000Y-101200000D03*
%TO.N,+3V3*%
X190000000Y-88200000D03*
X184200000Y-85000000D03*
X178400000Y-104800000D03*
X187400000Y-97000000D03*
X174400000Y-101400000D03*
X187000000Y-88200000D03*
X188000000Y-87200000D03*
X188000000Y-88200000D03*
X189000000Y-87200000D03*
X184200000Y-84000000D03*
X190000000Y-87200000D03*
X187000000Y-87200000D03*
X189000000Y-88200000D03*
X182000000Y-90800000D03*
%TO.N,/~{RESET}*%
X175600000Y-104000000D03*
%TO.N,/PA0*%
X178200497Y-103400000D03*
%TO.N,/PA1*%
X179200000Y-103400000D03*
%TO.N,/PA2*%
X180200000Y-103400000D03*
%TO.N,/PA3*%
X183388000Y-104648000D03*
%TO.N,/PA4*%
X184387503Y-104648000D03*
%TO.N,/PA5*%
X185420000Y-104648000D03*
%TO.N,/PA6*%
X186418306Y-104599103D03*
%TO.N,/PA7*%
X189152966Y-102632142D03*
%TO.N,/PB0*%
X188157582Y-102541500D03*
%TO.N,/PB1*%
X189213503Y-101092000D03*
%TO.N,/PB2*%
X188214000Y-101092000D03*
%TO.N,/PA8*%
X186000000Y-97200000D03*
%TO.N,/PA9*%
X188800000Y-97000000D03*
%TO.N,/PA10*%
X188812299Y-95987701D03*
%TO.N,/CANRX*%
X179800000Y-83800000D03*
X185200000Y-95263201D03*
%TO.N,/CANTX*%
X179800000Y-87600000D03*
X184200000Y-94600000D03*
%TO.N,/SWDIO*%
X183200000Y-94400000D03*
%TO.N,/PB7*%
X176400000Y-96524500D03*
%TD*%
%TA.AperFunction,Conductor*%
%TO.N,GND*%
G36*
X199002019Y-81800633D02*
G01*
X199037198Y-81802938D01*
X199083708Y-81805986D01*
X199265459Y-81818985D01*
X199273100Y-81820015D01*
X199366738Y-81838641D01*
X199389420Y-81843153D01*
X199415023Y-81848722D01*
X199533666Y-81874531D01*
X199540383Y-81876395D01*
X199659437Y-81916809D01*
X199756671Y-81953076D01*
X199791741Y-81966157D01*
X199797499Y-81968643D01*
X199912952Y-82025578D01*
X200034906Y-82092170D01*
X200039634Y-82095032D01*
X200096571Y-82133076D01*
X200146649Y-82166537D01*
X200149358Y-82168454D01*
X200258652Y-82250271D01*
X200262345Y-82253265D01*
X200359502Y-82338469D01*
X200362448Y-82341228D01*
X200458769Y-82437549D01*
X200461526Y-82440492D01*
X200546729Y-82537648D01*
X200549732Y-82541353D01*
X200601564Y-82610592D01*
X200631543Y-82650639D01*
X200633461Y-82653349D01*
X200704962Y-82760357D01*
X200707828Y-82765091D01*
X200774421Y-82887047D01*
X200831355Y-83002499D01*
X200833841Y-83008257D01*
X200870212Y-83105768D01*
X200883196Y-83140578D01*
X200888289Y-83155581D01*
X200923597Y-83259596D01*
X200925472Y-83266352D01*
X200956846Y-83410579D01*
X200979980Y-83526880D01*
X200981015Y-83534560D01*
X200994017Y-83716350D01*
X200999367Y-83797966D01*
X200999500Y-83802023D01*
X200999500Y-103797975D01*
X200999367Y-103802032D01*
X200994017Y-103883648D01*
X200981015Y-104065438D01*
X200979980Y-104073118D01*
X200956846Y-104189420D01*
X200925472Y-104333646D01*
X200923597Y-104340401D01*
X200883197Y-104459418D01*
X200878893Y-104470956D01*
X200833841Y-104591741D01*
X200831355Y-104597499D01*
X200774421Y-104712952D01*
X200707828Y-104834907D01*
X200704961Y-104839641D01*
X200633461Y-104946649D01*
X200631543Y-104949359D01*
X200549744Y-105058631D01*
X200546723Y-105062357D01*
X200461529Y-105159502D01*
X200458755Y-105162464D01*
X200362464Y-105258755D01*
X200359502Y-105261529D01*
X200262357Y-105346723D01*
X200258631Y-105349744D01*
X200149359Y-105431543D01*
X200146649Y-105433461D01*
X200039641Y-105504961D01*
X200034907Y-105507828D01*
X199912952Y-105574421D01*
X199797499Y-105631355D01*
X199791741Y-105633841D01*
X199670956Y-105678893D01*
X199659418Y-105683197D01*
X199540401Y-105723597D01*
X199533646Y-105725472D01*
X199389420Y-105756846D01*
X199273118Y-105779980D01*
X199265438Y-105781015D01*
X199083648Y-105794017D01*
X199032582Y-105797364D01*
X199002025Y-105799367D01*
X198997976Y-105799500D01*
X178937961Y-105799500D01*
X178870922Y-105779815D01*
X178825167Y-105727011D01*
X178815223Y-105657853D01*
X178844248Y-105594297D01*
X178865076Y-105575182D01*
X178941306Y-105519796D01*
X179005871Y-105472888D01*
X179132533Y-105332216D01*
X179227179Y-105168284D01*
X179285674Y-104988256D01*
X179305460Y-104800000D01*
X179289485Y-104648000D01*
X182482540Y-104648000D01*
X182502326Y-104836256D01*
X182502327Y-104836259D01*
X182560818Y-105016277D01*
X182560821Y-105016284D01*
X182655467Y-105180216D01*
X182726184Y-105258755D01*
X182782129Y-105320888D01*
X182935265Y-105432148D01*
X182935270Y-105432151D01*
X183108192Y-105509142D01*
X183108197Y-105509144D01*
X183293354Y-105548500D01*
X183293355Y-105548500D01*
X183482644Y-105548500D01*
X183482646Y-105548500D01*
X183667803Y-105509144D01*
X183837316Y-105433670D01*
X183906564Y-105424386D01*
X183938187Y-105433671D01*
X184107695Y-105509142D01*
X184107700Y-105509144D01*
X184292857Y-105548500D01*
X184292858Y-105548500D01*
X184482147Y-105548500D01*
X184482149Y-105548500D01*
X184667306Y-105509144D01*
X184840233Y-105432151D01*
X184840243Y-105432143D01*
X184841742Y-105431279D01*
X184842731Y-105431038D01*
X184846170Y-105429508D01*
X184846449Y-105430136D01*
X184909640Y-105414801D01*
X184961149Y-105429922D01*
X184961334Y-105429508D01*
X184964422Y-105430883D01*
X184965747Y-105431272D01*
X184967268Y-105432149D01*
X184967270Y-105432151D01*
X185058766Y-105472888D01*
X185140192Y-105509142D01*
X185140197Y-105509144D01*
X185325354Y-105548500D01*
X185325355Y-105548500D01*
X185514644Y-105548500D01*
X185514646Y-105548500D01*
X185699803Y-105509144D01*
X185872730Y-105432151D01*
X185891818Y-105418282D01*
X185957620Y-105394802D01*
X186015138Y-105405320D01*
X186138503Y-105460247D01*
X186323660Y-105499603D01*
X186323661Y-105499603D01*
X186512950Y-105499603D01*
X186512952Y-105499603D01*
X186698109Y-105460247D01*
X186871036Y-105383254D01*
X187024177Y-105271991D01*
X187150839Y-105131319D01*
X187245485Y-104967387D01*
X187303980Y-104787359D01*
X187323766Y-104599103D01*
X187303980Y-104410847D01*
X187245485Y-104230819D01*
X187150839Y-104066887D01*
X187024177Y-103926215D01*
X187001855Y-103909997D01*
X186871040Y-103814954D01*
X186871035Y-103814951D01*
X186698113Y-103737960D01*
X186698108Y-103737958D01*
X186552306Y-103706968D01*
X186512952Y-103698603D01*
X186323660Y-103698603D01*
X186291203Y-103705501D01*
X186138503Y-103737958D01*
X186138498Y-103737960D01*
X185965574Y-103814952D01*
X185946484Y-103828822D01*
X185880677Y-103852300D01*
X185823166Y-103841781D01*
X185699807Y-103786857D01*
X185699802Y-103786855D01*
X185553031Y-103755659D01*
X185514646Y-103747500D01*
X185325354Y-103747500D01*
X185292897Y-103754398D01*
X185140197Y-103786855D01*
X185140192Y-103786857D01*
X184967266Y-103863850D01*
X184965736Y-103864734D01*
X184964740Y-103864975D01*
X184961334Y-103866492D01*
X184961056Y-103865868D01*
X184897834Y-103881197D01*
X184846352Y-103866079D01*
X184846169Y-103866492D01*
X184843088Y-103865120D01*
X184841759Y-103864730D01*
X184840232Y-103863848D01*
X184667310Y-103786857D01*
X184667305Y-103786855D01*
X184520534Y-103755659D01*
X184482149Y-103747500D01*
X184292857Y-103747500D01*
X184260400Y-103754398D01*
X184107700Y-103786855D01*
X184107695Y-103786857D01*
X183938187Y-103862328D01*
X183868937Y-103871613D01*
X183837315Y-103862328D01*
X183667807Y-103786857D01*
X183667802Y-103786855D01*
X183521031Y-103755659D01*
X183482646Y-103747500D01*
X183293354Y-103747500D01*
X183260897Y-103754398D01*
X183108197Y-103786855D01*
X183108192Y-103786857D01*
X182935270Y-103863848D01*
X182935265Y-103863851D01*
X182782129Y-103975111D01*
X182655466Y-104115785D01*
X182560821Y-104279715D01*
X182560818Y-104279722D01*
X182502432Y-104459418D01*
X182502326Y-104459744D01*
X182482540Y-104648000D01*
X179289485Y-104648000D01*
X179285674Y-104611744D01*
X179234212Y-104453364D01*
X179232218Y-104383525D01*
X179268298Y-104323692D01*
X179326363Y-104293758D01*
X179479803Y-104261144D01*
X179649566Y-104185559D01*
X179718812Y-104176274D01*
X179750433Y-104185559D01*
X179920197Y-104261144D01*
X180105354Y-104300500D01*
X180105355Y-104300500D01*
X180294644Y-104300500D01*
X180294646Y-104300500D01*
X180479803Y-104261144D01*
X180652730Y-104184151D01*
X180805871Y-104072888D01*
X180932533Y-103932216D01*
X181027179Y-103768284D01*
X181085674Y-103588256D01*
X181105460Y-103400000D01*
X181085674Y-103211744D01*
X181027179Y-103031716D01*
X180932533Y-102867784D01*
X180805871Y-102727112D01*
X180805870Y-102727111D01*
X180652734Y-102615851D01*
X180652729Y-102615848D01*
X180485743Y-102541500D01*
X187252122Y-102541500D01*
X187271908Y-102729756D01*
X187271909Y-102729759D01*
X187330400Y-102909777D01*
X187330403Y-102909784D01*
X187425049Y-103073716D01*
X187506662Y-103164356D01*
X187551711Y-103214388D01*
X187704847Y-103325648D01*
X187704852Y-103325651D01*
X187877774Y-103402642D01*
X187877779Y-103402644D01*
X188062936Y-103442000D01*
X188062937Y-103442000D01*
X188252226Y-103442000D01*
X188252228Y-103442000D01*
X188437385Y-103402644D01*
X188523313Y-103364385D01*
X188592558Y-103355100D01*
X188646630Y-103377346D01*
X188677811Y-103400000D01*
X188700236Y-103416293D01*
X188873158Y-103493284D01*
X188873163Y-103493286D01*
X189058320Y-103532642D01*
X189058321Y-103532642D01*
X189247610Y-103532642D01*
X189247612Y-103532642D01*
X189432769Y-103493286D01*
X189605696Y-103416293D01*
X189758837Y-103305030D01*
X189885499Y-103164358D01*
X189980145Y-103000426D01*
X190038640Y-102820398D01*
X190058426Y-102632142D01*
X190038640Y-102443886D01*
X190024380Y-102400000D01*
X193954341Y-102400000D01*
X193974936Y-102635403D01*
X193974938Y-102635413D01*
X194036094Y-102863655D01*
X194036096Y-102863659D01*
X194036097Y-102863663D01*
X194116004Y-103035023D01*
X194135965Y-103077830D01*
X194135967Y-103077834D01*
X194229730Y-103211740D01*
X194271505Y-103271401D01*
X194438599Y-103438495D01*
X194516846Y-103493284D01*
X194632165Y-103574032D01*
X194632167Y-103574033D01*
X194632170Y-103574035D01*
X194846337Y-103673903D01*
X195074592Y-103735063D01*
X195262918Y-103751539D01*
X195309999Y-103755659D01*
X195310000Y-103755659D01*
X195310001Y-103755659D01*
X195349234Y-103752226D01*
X195545408Y-103735063D01*
X195773663Y-103673903D01*
X195987830Y-103574035D01*
X196181401Y-103438495D01*
X196348495Y-103271401D01*
X196462891Y-103108026D01*
X196478425Y-103085842D01*
X196533002Y-103042217D01*
X196602500Y-103035023D01*
X196664855Y-103066546D01*
X196681575Y-103085842D01*
X196811500Y-103271395D01*
X196811505Y-103271401D01*
X196978599Y-103438495D01*
X197056846Y-103493284D01*
X197172165Y-103574032D01*
X197172167Y-103574033D01*
X197172170Y-103574035D01*
X197386337Y-103673903D01*
X197614592Y-103735063D01*
X197802918Y-103751539D01*
X197849999Y-103755659D01*
X197850000Y-103755659D01*
X197850001Y-103755659D01*
X197889234Y-103752226D01*
X198085408Y-103735063D01*
X198313663Y-103673903D01*
X198527830Y-103574035D01*
X198721401Y-103438495D01*
X198888495Y-103271401D01*
X199024035Y-103077830D01*
X199123903Y-102863663D01*
X199185063Y-102635408D01*
X199205659Y-102400000D01*
X199185063Y-102164592D01*
X199123903Y-101936337D01*
X199024035Y-101722171D01*
X199018425Y-101714158D01*
X198888494Y-101528597D01*
X198721402Y-101361506D01*
X198721396Y-101361501D01*
X198535842Y-101231575D01*
X198492217Y-101176998D01*
X198485023Y-101107500D01*
X198516546Y-101045145D01*
X198535842Y-101028425D01*
X198665940Y-100937329D01*
X198721401Y-100898495D01*
X198888495Y-100731401D01*
X199024035Y-100537830D01*
X199123903Y-100323663D01*
X199185063Y-100095408D01*
X199205659Y-99860000D01*
X199185063Y-99624592D01*
X199123903Y-99396337D01*
X199024035Y-99182171D01*
X199018425Y-99174158D01*
X198888494Y-98988597D01*
X198721402Y-98821506D01*
X198721401Y-98821505D01*
X198535842Y-98691575D01*
X198535841Y-98691574D01*
X198492216Y-98636997D01*
X198485024Y-98567498D01*
X198516546Y-98505144D01*
X198535836Y-98488428D01*
X198721401Y-98358495D01*
X198888495Y-98191401D01*
X199024035Y-97997830D01*
X199123903Y-97783663D01*
X199185063Y-97555408D01*
X199205659Y-97320000D01*
X199185063Y-97084592D01*
X199123903Y-96856337D01*
X199024035Y-96642171D01*
X199018425Y-96634158D01*
X198888494Y-96448597D01*
X198721402Y-96281506D01*
X198721396Y-96281501D01*
X198535842Y-96151575D01*
X198492217Y-96096998D01*
X198485023Y-96027500D01*
X198516546Y-95965145D01*
X198535842Y-95948425D01*
X198674106Y-95851611D01*
X198721401Y-95818495D01*
X198888495Y-95651401D01*
X199024035Y-95457830D01*
X199123903Y-95243663D01*
X199185063Y-95015408D01*
X199205659Y-94780000D01*
X199185063Y-94544592D01*
X199123903Y-94316337D01*
X199024035Y-94102171D01*
X199018425Y-94094158D01*
X198888494Y-93908597D01*
X198721402Y-93741506D01*
X198721401Y-93741505D01*
X198541946Y-93615849D01*
X198535841Y-93611574D01*
X198492216Y-93556997D01*
X198485024Y-93487498D01*
X198516546Y-93425144D01*
X198535836Y-93408428D01*
X198721401Y-93278495D01*
X198888495Y-93111401D01*
X199024035Y-92917830D01*
X199123903Y-92703663D01*
X199185063Y-92475408D01*
X199205659Y-92240000D01*
X199185063Y-92004592D01*
X199123903Y-91776337D01*
X199024035Y-91562171D01*
X199018425Y-91554158D01*
X198888494Y-91368597D01*
X198721402Y-91201506D01*
X198721396Y-91201501D01*
X198535842Y-91071575D01*
X198492217Y-91016998D01*
X198485023Y-90947500D01*
X198516546Y-90885145D01*
X198535842Y-90868425D01*
X198633563Y-90800000D01*
X198721401Y-90738495D01*
X198888495Y-90571401D01*
X199024035Y-90377830D01*
X199123903Y-90163663D01*
X199185063Y-89935408D01*
X199205659Y-89700000D01*
X199185063Y-89464592D01*
X199123903Y-89236337D01*
X199024035Y-89022171D01*
X199018425Y-89014158D01*
X198888494Y-88828597D01*
X198721402Y-88661506D01*
X198721401Y-88661505D01*
X198535842Y-88531575D01*
X198535841Y-88531574D01*
X198492216Y-88476997D01*
X198485024Y-88407498D01*
X198516546Y-88345144D01*
X198535836Y-88328428D01*
X198721401Y-88198495D01*
X198888495Y-88031401D01*
X199024035Y-87837830D01*
X199123903Y-87623663D01*
X199185063Y-87395408D01*
X199205659Y-87160000D01*
X199185063Y-86924592D01*
X199123903Y-86696337D01*
X199024035Y-86482171D01*
X199018424Y-86474158D01*
X198888496Y-86288600D01*
X198888493Y-86288597D01*
X198766567Y-86166671D01*
X198733084Y-86105351D01*
X198738068Y-86035659D01*
X198779939Y-85979725D01*
X198810915Y-85962810D01*
X198942331Y-85913796D01*
X199057546Y-85827546D01*
X199143796Y-85712331D01*
X199194091Y-85577483D01*
X199200500Y-85517873D01*
X199200499Y-83722128D01*
X199194091Y-83662517D01*
X199192810Y-83659083D01*
X199143797Y-83527671D01*
X199143793Y-83527664D01*
X199057547Y-83412455D01*
X199057544Y-83412452D01*
X198942335Y-83326206D01*
X198942328Y-83326202D01*
X198807482Y-83275908D01*
X198807483Y-83275908D01*
X198747883Y-83269501D01*
X198747881Y-83269500D01*
X198747873Y-83269500D01*
X198747864Y-83269500D01*
X196952129Y-83269500D01*
X196952123Y-83269501D01*
X196892516Y-83275908D01*
X196757671Y-83326202D01*
X196757664Y-83326206D01*
X196642455Y-83412452D01*
X196642452Y-83412455D01*
X196556206Y-83527664D01*
X196556203Y-83527669D01*
X196507189Y-83659083D01*
X196465317Y-83715016D01*
X196399853Y-83739433D01*
X196331580Y-83724581D01*
X196303326Y-83703430D01*
X196181402Y-83581506D01*
X196181395Y-83581501D01*
X195987834Y-83445967D01*
X195987830Y-83445965D01*
X195957271Y-83431715D01*
X195773663Y-83346097D01*
X195773659Y-83346096D01*
X195773655Y-83346094D01*
X195545413Y-83284938D01*
X195545403Y-83284936D01*
X195310001Y-83264341D01*
X195309999Y-83264341D01*
X195074596Y-83284936D01*
X195074586Y-83284938D01*
X194846344Y-83346094D01*
X194846335Y-83346098D01*
X194632171Y-83445964D01*
X194632169Y-83445965D01*
X194438597Y-83581505D01*
X194271505Y-83748597D01*
X194135965Y-83942169D01*
X194135964Y-83942171D01*
X194036098Y-84156335D01*
X194036094Y-84156344D01*
X193974938Y-84384586D01*
X193974936Y-84384596D01*
X193954341Y-84619999D01*
X193954341Y-84620000D01*
X193974936Y-84855403D01*
X193974938Y-84855413D01*
X194036094Y-85083655D01*
X194036096Y-85083659D01*
X194036097Y-85083663D01*
X194084870Y-85188256D01*
X194135965Y-85297830D01*
X194135967Y-85297834D01*
X194271501Y-85491395D01*
X194271506Y-85491402D01*
X194438597Y-85658493D01*
X194438603Y-85658498D01*
X194624158Y-85788425D01*
X194667783Y-85843002D01*
X194674977Y-85912500D01*
X194643454Y-85974855D01*
X194624158Y-85991575D01*
X194438597Y-86121505D01*
X194271505Y-86288597D01*
X194135965Y-86482169D01*
X194135964Y-86482171D01*
X194036098Y-86696335D01*
X194036094Y-86696344D01*
X193974938Y-86924586D01*
X193974936Y-86924596D01*
X193954341Y-87159999D01*
X193954341Y-87160000D01*
X193974936Y-87395403D01*
X193974938Y-87395413D01*
X194036094Y-87623655D01*
X194036096Y-87623659D01*
X194036097Y-87623663D01*
X194112848Y-87788256D01*
X194135965Y-87837830D01*
X194135967Y-87837834D01*
X194227305Y-87968277D01*
X194271504Y-88031400D01*
X194271506Y-88031402D01*
X194438597Y-88198493D01*
X194438603Y-88198498D01*
X194624158Y-88328425D01*
X194667783Y-88383002D01*
X194674977Y-88452500D01*
X194643454Y-88514855D01*
X194624158Y-88531575D01*
X194438597Y-88661505D01*
X194271505Y-88828597D01*
X194135965Y-89022169D01*
X194135964Y-89022171D01*
X194036098Y-89236335D01*
X194036094Y-89236344D01*
X193974938Y-89464586D01*
X193974936Y-89464596D01*
X193954341Y-89699999D01*
X193954341Y-89700000D01*
X193974936Y-89935403D01*
X193974938Y-89935413D01*
X194036094Y-90163655D01*
X194036096Y-90163659D01*
X194036097Y-90163663D01*
X194040000Y-90172032D01*
X194135965Y-90377830D01*
X194135967Y-90377834D01*
X194244281Y-90532521D01*
X194271501Y-90571396D01*
X194271506Y-90571402D01*
X194438597Y-90738493D01*
X194438603Y-90738498D01*
X194624158Y-90868425D01*
X194667783Y-90923002D01*
X194674977Y-90992500D01*
X194643454Y-91054855D01*
X194624158Y-91071575D01*
X194438597Y-91201505D01*
X194271505Y-91368597D01*
X194135965Y-91562169D01*
X194135964Y-91562171D01*
X194036098Y-91776335D01*
X194036094Y-91776344D01*
X193974938Y-92004586D01*
X193974936Y-92004596D01*
X193954341Y-92239999D01*
X193954341Y-92240000D01*
X193974936Y-92475403D01*
X193974938Y-92475413D01*
X194036094Y-92703655D01*
X194036096Y-92703659D01*
X194036097Y-92703663D01*
X194040000Y-92712032D01*
X194135965Y-92917830D01*
X194135967Y-92917834D01*
X194244281Y-93072521D01*
X194271501Y-93111396D01*
X194271506Y-93111402D01*
X194438597Y-93278493D01*
X194438603Y-93278498D01*
X194624158Y-93408425D01*
X194667783Y-93463002D01*
X194674977Y-93532500D01*
X194643454Y-93594855D01*
X194624158Y-93611575D01*
X194438597Y-93741505D01*
X194271505Y-93908597D01*
X194135965Y-94102169D01*
X194135964Y-94102171D01*
X194036098Y-94316335D01*
X194036094Y-94316344D01*
X193974938Y-94544586D01*
X193974936Y-94544596D01*
X193954341Y-94779999D01*
X193954341Y-94780000D01*
X193974936Y-95015403D01*
X193974938Y-95015413D01*
X194036094Y-95243655D01*
X194036096Y-95243659D01*
X194036097Y-95243663D01*
X194101608Y-95384151D01*
X194135965Y-95457830D01*
X194135967Y-95457834D01*
X194179626Y-95520185D01*
X194271501Y-95651396D01*
X194271506Y-95651402D01*
X194438597Y-95818493D01*
X194438603Y-95818498D01*
X194624158Y-95948425D01*
X194667783Y-96003002D01*
X194674977Y-96072500D01*
X194643454Y-96134855D01*
X194624158Y-96151575D01*
X194438597Y-96281505D01*
X194271505Y-96448597D01*
X194135965Y-96642169D01*
X194135964Y-96642171D01*
X194036098Y-96856335D01*
X194036094Y-96856344D01*
X193974938Y-97084586D01*
X193974936Y-97084596D01*
X193954341Y-97319999D01*
X193954341Y-97320000D01*
X193974936Y-97555403D01*
X193974938Y-97555413D01*
X194036094Y-97783655D01*
X194036096Y-97783659D01*
X194036097Y-97783663D01*
X194090579Y-97900500D01*
X194135965Y-97997830D01*
X194135967Y-97997834D01*
X194180298Y-98061144D01*
X194271504Y-98191400D01*
X194271506Y-98191402D01*
X194438597Y-98358493D01*
X194438603Y-98358498D01*
X194624158Y-98488425D01*
X194667783Y-98543002D01*
X194674977Y-98612500D01*
X194643454Y-98674855D01*
X194624158Y-98691575D01*
X194438597Y-98821505D01*
X194271505Y-98988597D01*
X194135965Y-99182169D01*
X194135964Y-99182171D01*
X194036098Y-99396335D01*
X194036094Y-99396344D01*
X193974938Y-99624586D01*
X193974936Y-99624596D01*
X193954341Y-99859999D01*
X193954341Y-99860000D01*
X193974936Y-100095403D01*
X193974938Y-100095413D01*
X194036094Y-100323655D01*
X194036096Y-100323659D01*
X194036097Y-100323663D01*
X194080606Y-100419112D01*
X194135965Y-100537830D01*
X194135967Y-100537834D01*
X194190596Y-100615851D01*
X194271504Y-100731400D01*
X194271506Y-100731402D01*
X194438597Y-100898493D01*
X194438603Y-100898498D01*
X194624158Y-101028425D01*
X194667783Y-101083002D01*
X194674977Y-101152500D01*
X194643454Y-101214855D01*
X194624158Y-101231575D01*
X194438597Y-101361505D01*
X194271505Y-101528597D01*
X194135965Y-101722169D01*
X194135964Y-101722171D01*
X194036098Y-101936335D01*
X194036094Y-101936344D01*
X193974938Y-102164586D01*
X193974936Y-102164596D01*
X193954341Y-102399999D01*
X193954341Y-102400000D01*
X190024380Y-102400000D01*
X189980145Y-102263858D01*
X189885499Y-102099926D01*
X189769130Y-101970685D01*
X189738900Y-101907694D01*
X189747525Y-101838358D01*
X189788394Y-101787395D01*
X189819374Y-101764888D01*
X189946036Y-101624216D01*
X190040682Y-101460284D01*
X190099177Y-101280256D01*
X190118963Y-101092000D01*
X190099177Y-100903744D01*
X190040682Y-100723716D01*
X189946036Y-100559784D01*
X189819374Y-100419112D01*
X189819373Y-100419111D01*
X189666237Y-100307851D01*
X189666232Y-100307848D01*
X189493310Y-100230857D01*
X189493305Y-100230855D01*
X189347503Y-100199865D01*
X189308149Y-100191500D01*
X189118857Y-100191500D01*
X189086400Y-100198398D01*
X188933700Y-100230855D01*
X188933695Y-100230857D01*
X188764187Y-100306328D01*
X188694937Y-100315613D01*
X188663315Y-100306328D01*
X188493807Y-100230857D01*
X188493802Y-100230855D01*
X188348000Y-100199865D01*
X188308646Y-100191500D01*
X188119354Y-100191500D01*
X188086897Y-100198398D01*
X187934197Y-100230855D01*
X187934192Y-100230857D01*
X187761270Y-100307848D01*
X187761265Y-100307851D01*
X187608129Y-100419111D01*
X187481466Y-100559785D01*
X187386821Y-100723715D01*
X187386818Y-100723722D01*
X187328327Y-100903740D01*
X187328326Y-100903744D01*
X187308540Y-101092000D01*
X187328326Y-101280256D01*
X187328327Y-101280259D01*
X187386818Y-101460277D01*
X187386821Y-101460284D01*
X187481464Y-101624212D01*
X187481465Y-101624214D01*
X187481467Y-101624216D01*
X187551909Y-101702450D01*
X187582138Y-101765439D01*
X187573513Y-101834774D01*
X187551908Y-101868392D01*
X187425048Y-102009285D01*
X187330403Y-102173215D01*
X187330400Y-102173222D01*
X187271909Y-102353240D01*
X187271908Y-102353244D01*
X187252122Y-102541500D01*
X180485743Y-102541500D01*
X180479807Y-102538857D01*
X180479802Y-102538855D01*
X180334000Y-102507865D01*
X180294646Y-102499500D01*
X180105354Y-102499500D01*
X180072897Y-102506398D01*
X179920197Y-102538855D01*
X179920192Y-102538857D01*
X179750436Y-102614439D01*
X179681186Y-102623724D01*
X179649564Y-102614439D01*
X179479807Y-102538857D01*
X179479802Y-102538855D01*
X179334000Y-102507865D01*
X179294646Y-102499500D01*
X179105354Y-102499500D01*
X179072897Y-102506398D01*
X178920197Y-102538855D01*
X178920192Y-102538857D01*
X178750684Y-102614328D01*
X178681434Y-102623613D01*
X178649812Y-102614328D01*
X178480304Y-102538857D01*
X178480299Y-102538855D01*
X178334497Y-102507865D01*
X178295143Y-102499500D01*
X178105851Y-102499500D01*
X178073394Y-102506398D01*
X177920694Y-102538855D01*
X177920689Y-102538857D01*
X177747767Y-102615848D01*
X177747762Y-102615851D01*
X177594626Y-102727111D01*
X177467963Y-102867785D01*
X177373318Y-103031715D01*
X177373315Y-103031722D01*
X177314824Y-103211740D01*
X177314823Y-103211744D01*
X177295037Y-103400000D01*
X177314823Y-103588256D01*
X177314824Y-103588259D01*
X177373315Y-103768277D01*
X177373318Y-103768284D01*
X177467964Y-103932216D01*
X177583910Y-104060987D01*
X177594626Y-104072888D01*
X177594630Y-104072891D01*
X177634884Y-104102137D01*
X177677550Y-104157466D01*
X177683531Y-104227079D01*
X177669388Y-104264455D01*
X177572820Y-104431718D01*
X177572818Y-104431722D01*
X177518433Y-104599103D01*
X177514326Y-104611744D01*
X177494540Y-104800000D01*
X177514326Y-104988256D01*
X177514327Y-104988259D01*
X177572818Y-105168277D01*
X177572821Y-105168284D01*
X177667467Y-105332216D01*
X177757449Y-105432151D01*
X177794129Y-105472888D01*
X177934924Y-105575182D01*
X177977590Y-105630512D01*
X177983569Y-105700125D01*
X177950963Y-105761920D01*
X177890124Y-105796278D01*
X177862039Y-105799500D01*
X169002024Y-105799500D01*
X168997974Y-105799367D01*
X168959954Y-105796875D01*
X168916350Y-105794017D01*
X168734560Y-105781015D01*
X168726880Y-105779980D01*
X168610579Y-105756846D01*
X168466352Y-105725472D01*
X168459596Y-105723597D01*
X168391554Y-105700500D01*
X168340578Y-105683196D01*
X168305768Y-105670212D01*
X168208257Y-105633841D01*
X168202499Y-105631355D01*
X168087047Y-105574421D01*
X167965091Y-105507828D01*
X167960357Y-105504962D01*
X167853349Y-105433461D01*
X167850639Y-105431543D01*
X167786128Y-105383251D01*
X167741353Y-105349732D01*
X167737648Y-105346729D01*
X167640492Y-105261526D01*
X167637549Y-105258769D01*
X167541228Y-105162448D01*
X167538469Y-105159502D01*
X167453265Y-105062345D01*
X167450271Y-105058652D01*
X167368454Y-104949358D01*
X167366537Y-104946649D01*
X167295036Y-104839641D01*
X167292170Y-104834906D01*
X167225578Y-104712952D01*
X167168643Y-104597499D01*
X167166157Y-104591741D01*
X167143954Y-104532214D01*
X167116809Y-104459437D01*
X167076395Y-104340383D01*
X167074531Y-104333666D01*
X167043153Y-104189420D01*
X167035273Y-104149807D01*
X167020015Y-104073100D01*
X167018985Y-104065459D01*
X167014303Y-104000000D01*
X174694540Y-104000000D01*
X174714326Y-104188256D01*
X174714327Y-104188259D01*
X174772818Y-104368277D01*
X174772821Y-104368284D01*
X174867467Y-104532216D01*
X174939071Y-104611740D01*
X174994129Y-104672888D01*
X175147265Y-104784148D01*
X175147270Y-104784151D01*
X175320192Y-104861142D01*
X175320197Y-104861144D01*
X175505354Y-104900500D01*
X175505355Y-104900500D01*
X175694644Y-104900500D01*
X175694646Y-104900500D01*
X175879803Y-104861144D01*
X176052730Y-104784151D01*
X176205871Y-104672888D01*
X176332533Y-104532216D01*
X176427179Y-104368284D01*
X176485674Y-104188256D01*
X176505460Y-104000000D01*
X176485674Y-103811744D01*
X176427179Y-103631716D01*
X176332533Y-103467784D01*
X176205871Y-103327112D01*
X176175478Y-103305030D01*
X176052734Y-103215851D01*
X176052729Y-103215848D01*
X175879807Y-103138857D01*
X175879802Y-103138855D01*
X175734001Y-103107865D01*
X175694646Y-103099500D01*
X175505354Y-103099500D01*
X175472897Y-103106398D01*
X175320197Y-103138855D01*
X175320192Y-103138857D01*
X175147270Y-103215848D01*
X175147265Y-103215851D01*
X174994129Y-103327111D01*
X174867466Y-103467785D01*
X174772821Y-103631715D01*
X174772818Y-103631722D01*
X174714327Y-103811740D01*
X174714326Y-103811744D01*
X174694540Y-104000000D01*
X167014303Y-104000000D01*
X167005986Y-103883708D01*
X167002389Y-103828822D01*
X167000633Y-103802019D01*
X167000500Y-103797964D01*
X167000500Y-102400000D01*
X168554341Y-102400000D01*
X168574936Y-102635403D01*
X168574938Y-102635413D01*
X168636094Y-102863655D01*
X168636096Y-102863659D01*
X168636097Y-102863663D01*
X168716004Y-103035023D01*
X168735965Y-103077830D01*
X168735967Y-103077834D01*
X168829730Y-103211740D01*
X168871505Y-103271401D01*
X169038599Y-103438495D01*
X169116846Y-103493284D01*
X169232165Y-103574032D01*
X169232167Y-103574033D01*
X169232170Y-103574035D01*
X169446337Y-103673903D01*
X169674592Y-103735063D01*
X169862918Y-103751539D01*
X169909999Y-103755659D01*
X169910000Y-103755659D01*
X169910001Y-103755659D01*
X169949234Y-103752226D01*
X170145408Y-103735063D01*
X170373663Y-103673903D01*
X170587830Y-103574035D01*
X170781401Y-103438495D01*
X170948495Y-103271401D01*
X171078426Y-103085840D01*
X171133001Y-103042217D01*
X171202499Y-103035023D01*
X171264854Y-103066546D01*
X171281574Y-103085841D01*
X171318695Y-103138855D01*
X171411505Y-103271401D01*
X171578599Y-103438495D01*
X171656846Y-103493284D01*
X171772165Y-103574032D01*
X171772167Y-103574033D01*
X171772170Y-103574035D01*
X171986337Y-103673903D01*
X172214592Y-103735063D01*
X172402918Y-103751539D01*
X172449999Y-103755659D01*
X172450000Y-103755659D01*
X172450001Y-103755659D01*
X172489234Y-103752226D01*
X172685408Y-103735063D01*
X172913663Y-103673903D01*
X173127830Y-103574035D01*
X173321401Y-103438495D01*
X173488495Y-103271401D01*
X173624035Y-103077830D01*
X173723903Y-102863663D01*
X173785063Y-102635408D01*
X173805659Y-102400000D01*
X173798616Y-102319505D01*
X173812382Y-102251007D01*
X173860997Y-102200824D01*
X173929025Y-102184890D01*
X173972580Y-102195420D01*
X174120192Y-102261142D01*
X174120197Y-102261144D01*
X174305354Y-102300500D01*
X174305355Y-102300500D01*
X174494644Y-102300500D01*
X174494646Y-102300500D01*
X174679803Y-102261144D01*
X174852730Y-102184151D01*
X175005871Y-102072888D01*
X175132533Y-101932216D01*
X175227179Y-101768284D01*
X175285674Y-101588256D01*
X175305460Y-101400000D01*
X175285674Y-101211744D01*
X175231112Y-101043823D01*
X175227181Y-101031722D01*
X175227180Y-101031721D01*
X175227179Y-101031716D01*
X175132533Y-100867784D01*
X175005871Y-100727112D01*
X175001197Y-100723716D01*
X174852734Y-100615851D01*
X174852729Y-100615848D01*
X174679807Y-100538857D01*
X174679802Y-100538855D01*
X174534000Y-100507865D01*
X174494646Y-100499500D01*
X174305354Y-100499500D01*
X174272897Y-100506398D01*
X174120197Y-100538855D01*
X174120192Y-100538857D01*
X173947270Y-100615848D01*
X173947265Y-100615851D01*
X173794129Y-100727111D01*
X173789596Y-100732146D01*
X173730107Y-100768791D01*
X173660250Y-100767458D01*
X173602204Y-100728568D01*
X173574398Y-100664470D01*
X173585660Y-100595514D01*
X173595871Y-100578051D01*
X173624035Y-100537830D01*
X173723903Y-100323663D01*
X173785063Y-100095408D01*
X173805659Y-99860000D01*
X173785063Y-99624592D01*
X173723903Y-99396337D01*
X173624035Y-99182171D01*
X173618425Y-99174158D01*
X173488494Y-98988597D01*
X173321402Y-98821506D01*
X173321401Y-98821505D01*
X173135842Y-98691575D01*
X173135841Y-98691574D01*
X173092216Y-98636997D01*
X173085024Y-98567498D01*
X173116546Y-98505144D01*
X173135836Y-98488428D01*
X173321401Y-98358495D01*
X173488495Y-98191401D01*
X173624035Y-97997830D01*
X173723903Y-97783663D01*
X173785063Y-97555408D01*
X173805659Y-97320000D01*
X173785063Y-97084592D01*
X173723903Y-96856337D01*
X173624035Y-96642171D01*
X173618425Y-96634158D01*
X173541642Y-96524500D01*
X175494540Y-96524500D01*
X175514326Y-96712756D01*
X175514327Y-96712759D01*
X175572818Y-96892777D01*
X175572821Y-96892784D01*
X175667467Y-97056716D01*
X175785909Y-97188259D01*
X175794129Y-97197388D01*
X175947265Y-97308648D01*
X175947270Y-97308651D01*
X176120192Y-97385642D01*
X176120197Y-97385644D01*
X176305354Y-97425000D01*
X176305355Y-97425000D01*
X176494644Y-97425000D01*
X176494646Y-97425000D01*
X176679803Y-97385644D01*
X176852730Y-97308651D01*
X177002276Y-97200000D01*
X185094540Y-97200000D01*
X185114326Y-97388256D01*
X185114327Y-97388259D01*
X185172818Y-97568277D01*
X185172821Y-97568284D01*
X185267467Y-97732216D01*
X185314227Y-97784148D01*
X185394129Y-97872888D01*
X185547265Y-97984148D01*
X185547270Y-97984151D01*
X185720192Y-98061142D01*
X185720197Y-98061144D01*
X185905354Y-98100500D01*
X185905355Y-98100500D01*
X186094644Y-98100500D01*
X186094646Y-98100500D01*
X186279803Y-98061144D01*
X186452730Y-97984151D01*
X186605871Y-97872888D01*
X186714477Y-97752268D01*
X186773964Y-97715620D01*
X186843821Y-97716951D01*
X186879512Y-97734923D01*
X186947265Y-97784148D01*
X186947270Y-97784151D01*
X187120192Y-97861142D01*
X187120197Y-97861144D01*
X187305354Y-97900500D01*
X187305355Y-97900500D01*
X187494644Y-97900500D01*
X187494646Y-97900500D01*
X187679803Y-97861144D01*
X187852730Y-97784151D01*
X188005871Y-97672888D01*
X188005875Y-97672884D01*
X188007849Y-97670692D01*
X188009309Y-97669792D01*
X188010706Y-97668535D01*
X188010935Y-97668790D01*
X188067335Y-97634043D01*
X188137192Y-97635372D01*
X188189110Y-97668738D01*
X188189294Y-97668535D01*
X188190539Y-97669656D01*
X188192151Y-97670692D01*
X188194124Y-97672884D01*
X188194130Y-97672889D01*
X188347265Y-97784148D01*
X188347270Y-97784151D01*
X188520192Y-97861142D01*
X188520197Y-97861144D01*
X188705354Y-97900500D01*
X188705355Y-97900500D01*
X188894644Y-97900500D01*
X188894646Y-97900500D01*
X189079803Y-97861144D01*
X189252730Y-97784151D01*
X189405871Y-97672888D01*
X189532533Y-97532216D01*
X189627179Y-97368284D01*
X189685674Y-97188256D01*
X189705460Y-97000000D01*
X189685674Y-96811744D01*
X189627179Y-96631716D01*
X189589527Y-96566501D01*
X189573054Y-96498601D01*
X189589526Y-96442502D01*
X189639478Y-96355985D01*
X189697973Y-96175957D01*
X189717759Y-95987701D01*
X189697973Y-95799445D01*
X189639478Y-95619417D01*
X189544832Y-95455485D01*
X189418170Y-95314813D01*
X189364922Y-95276126D01*
X189265033Y-95203552D01*
X189265028Y-95203549D01*
X189092106Y-95126558D01*
X189092101Y-95126556D01*
X188946300Y-95095566D01*
X188906945Y-95087201D01*
X188717653Y-95087201D01*
X188685196Y-95094099D01*
X188532496Y-95126556D01*
X188532491Y-95126558D01*
X188359569Y-95203549D01*
X188359564Y-95203552D01*
X188206428Y-95314812D01*
X188079765Y-95455486D01*
X187985120Y-95619416D01*
X187985117Y-95619423D01*
X187926626Y-95799441D01*
X187926625Y-95799445D01*
X187912264Y-95936089D01*
X187906839Y-95987701D01*
X187912202Y-96038725D01*
X187899632Y-96107455D01*
X187851900Y-96158478D01*
X187784160Y-96175596D01*
X187738445Y-96164965D01*
X187679807Y-96138857D01*
X187679802Y-96138855D01*
X187532072Y-96107455D01*
X187494646Y-96099500D01*
X187305354Y-96099500D01*
X187272897Y-96106398D01*
X187120197Y-96138855D01*
X187120192Y-96138857D01*
X186947270Y-96215848D01*
X186947265Y-96215851D01*
X186794132Y-96327109D01*
X186794129Y-96327111D01*
X186794129Y-96327112D01*
X186783556Y-96338855D01*
X186685522Y-96447732D01*
X186626035Y-96484380D01*
X186556178Y-96483049D01*
X186520488Y-96465078D01*
X186452730Y-96415849D01*
X186452729Y-96415848D01*
X186279807Y-96338857D01*
X186279802Y-96338855D01*
X186134001Y-96307865D01*
X186094646Y-96299500D01*
X185905354Y-96299500D01*
X185872897Y-96306398D01*
X185720197Y-96338855D01*
X185720192Y-96338857D01*
X185547270Y-96415848D01*
X185547265Y-96415851D01*
X185394129Y-96527111D01*
X185267466Y-96667785D01*
X185172821Y-96831715D01*
X185172818Y-96831722D01*
X185118142Y-97000000D01*
X185114326Y-97011744D01*
X185094540Y-97200000D01*
X177002276Y-97200000D01*
X177005871Y-97197388D01*
X177132533Y-97056716D01*
X177227179Y-96892784D01*
X177285674Y-96712756D01*
X177305460Y-96524500D01*
X177285674Y-96336244D01*
X177227179Y-96156216D01*
X177132533Y-95992284D01*
X177005871Y-95851612D01*
X177005870Y-95851611D01*
X176852734Y-95740351D01*
X176852729Y-95740348D01*
X176679807Y-95663357D01*
X176679802Y-95663355D01*
X176529832Y-95631479D01*
X176494646Y-95624000D01*
X176305354Y-95624000D01*
X176272897Y-95630898D01*
X176120197Y-95663355D01*
X176120192Y-95663357D01*
X175947270Y-95740348D01*
X175947265Y-95740351D01*
X175794129Y-95851611D01*
X175667466Y-95992285D01*
X175572821Y-96156215D01*
X175572818Y-96156222D01*
X175517294Y-96327109D01*
X175514326Y-96336244D01*
X175494540Y-96524500D01*
X173541642Y-96524500D01*
X173488494Y-96448597D01*
X173321402Y-96281506D01*
X173321396Y-96281501D01*
X173135842Y-96151575D01*
X173092217Y-96096998D01*
X173085023Y-96027500D01*
X173116546Y-95965145D01*
X173135842Y-95948425D01*
X173274106Y-95851611D01*
X173321401Y-95818495D01*
X173488495Y-95651401D01*
X173624035Y-95457830D01*
X173723903Y-95243663D01*
X173785063Y-95015408D01*
X173805659Y-94780000D01*
X173785063Y-94544592D01*
X173746320Y-94400000D01*
X182294540Y-94400000D01*
X182314326Y-94588256D01*
X182314327Y-94588259D01*
X182372818Y-94768277D01*
X182372821Y-94768284D01*
X182467467Y-94932216D01*
X182542369Y-95015403D01*
X182594129Y-95072888D01*
X182747265Y-95184148D01*
X182747270Y-95184151D01*
X182920192Y-95261142D01*
X182920197Y-95261144D01*
X183105354Y-95300500D01*
X183105355Y-95300500D01*
X183294644Y-95300500D01*
X183294646Y-95300500D01*
X183479803Y-95261144D01*
X183479805Y-95261142D01*
X183485987Y-95259135D01*
X183486796Y-95261626D01*
X183544473Y-95253873D01*
X183598585Y-95276126D01*
X183747265Y-95384148D01*
X183747270Y-95384151D01*
X183920192Y-95461142D01*
X183920197Y-95461144D01*
X184105354Y-95500500D01*
X184105355Y-95500500D01*
X184240170Y-95500500D01*
X184307209Y-95520185D01*
X184352964Y-95572989D01*
X184358101Y-95586182D01*
X184372818Y-95631479D01*
X184372821Y-95631485D01*
X184467467Y-95795417D01*
X184594129Y-95936088D01*
X184594129Y-95936089D01*
X184747265Y-96047349D01*
X184747270Y-96047352D01*
X184920192Y-96124343D01*
X184920197Y-96124345D01*
X185105354Y-96163701D01*
X185105355Y-96163701D01*
X185294644Y-96163701D01*
X185294646Y-96163701D01*
X185479803Y-96124345D01*
X185652730Y-96047352D01*
X185805871Y-95936089D01*
X185932533Y-95795417D01*
X186027179Y-95631485D01*
X186085674Y-95451457D01*
X186105460Y-95263201D01*
X186085674Y-95074945D01*
X186027179Y-94894917D01*
X185932533Y-94730985D01*
X185805871Y-94590313D01*
X185742947Y-94544596D01*
X185652734Y-94479052D01*
X185652729Y-94479049D01*
X185479807Y-94402058D01*
X185479802Y-94402056D01*
X185327960Y-94369782D01*
X185294646Y-94362701D01*
X185159830Y-94362701D01*
X185092791Y-94343016D01*
X185047036Y-94290212D01*
X185041899Y-94277019D01*
X185027178Y-94231714D01*
X185027177Y-94231712D01*
X184932534Y-94067785D01*
X184805870Y-93927111D01*
X184652734Y-93815851D01*
X184652729Y-93815848D01*
X184479807Y-93738857D01*
X184479802Y-93738855D01*
X184334000Y-93707865D01*
X184294646Y-93699500D01*
X184105354Y-93699500D01*
X184065999Y-93707865D01*
X183920198Y-93738855D01*
X183914014Y-93740865D01*
X183913208Y-93738385D01*
X183855461Y-93746117D01*
X183801415Y-93723875D01*
X183652730Y-93615849D01*
X183652729Y-93615848D01*
X183479807Y-93538857D01*
X183479802Y-93538855D01*
X183334001Y-93507865D01*
X183294646Y-93499500D01*
X183105354Y-93499500D01*
X183072897Y-93506398D01*
X182920197Y-93538855D01*
X182920192Y-93538857D01*
X182747270Y-93615848D01*
X182747265Y-93615851D01*
X182594129Y-93727111D01*
X182467466Y-93867785D01*
X182372821Y-94031715D01*
X182372818Y-94031722D01*
X182314327Y-94211740D01*
X182314326Y-94211744D01*
X182294540Y-94400000D01*
X173746320Y-94400000D01*
X173723903Y-94316337D01*
X173624035Y-94102171D01*
X173618425Y-94094158D01*
X173488494Y-93908597D01*
X173321402Y-93741506D01*
X173321401Y-93741505D01*
X173141946Y-93615849D01*
X173135841Y-93611574D01*
X173092216Y-93556997D01*
X173085024Y-93487498D01*
X173116546Y-93425144D01*
X173135836Y-93408428D01*
X173321401Y-93278495D01*
X173488495Y-93111401D01*
X173624035Y-92917830D01*
X173723903Y-92703663D01*
X173785063Y-92475408D01*
X173805659Y-92240000D01*
X173785063Y-92004592D01*
X173723903Y-91776337D01*
X173624035Y-91562171D01*
X173618425Y-91554158D01*
X173488494Y-91368597D01*
X173321402Y-91201506D01*
X173321395Y-91201501D01*
X173127834Y-91065967D01*
X173127830Y-91065965D01*
X173127829Y-91065964D01*
X172913663Y-90966097D01*
X172913659Y-90966096D01*
X172913655Y-90966094D01*
X172685413Y-90904938D01*
X172685403Y-90904936D01*
X172450001Y-90884341D01*
X172449999Y-90884341D01*
X172214596Y-90904936D01*
X172214586Y-90904938D01*
X171986344Y-90966094D01*
X171986335Y-90966098D01*
X171772171Y-91065964D01*
X171772169Y-91065965D01*
X171578597Y-91201505D01*
X171411505Y-91368597D01*
X171281575Y-91554158D01*
X171226998Y-91597783D01*
X171157500Y-91604977D01*
X171095145Y-91573454D01*
X171078425Y-91554158D01*
X170948494Y-91368597D01*
X170781402Y-91201506D01*
X170781396Y-91201501D01*
X170595842Y-91071575D01*
X170552217Y-91016998D01*
X170545023Y-90947500D01*
X170576546Y-90885145D01*
X170595842Y-90868425D01*
X170693563Y-90800000D01*
X181094540Y-90800000D01*
X181114326Y-90988256D01*
X181114327Y-90988259D01*
X181172818Y-91168277D01*
X181172821Y-91168284D01*
X181267467Y-91332216D01*
X181394129Y-91472888D01*
X181547265Y-91584148D01*
X181547270Y-91584151D01*
X181720192Y-91661142D01*
X181720197Y-91661144D01*
X181905354Y-91700500D01*
X181905355Y-91700500D01*
X182094644Y-91700500D01*
X182094646Y-91700500D01*
X182279803Y-91661144D01*
X182452730Y-91584151D01*
X182605871Y-91472888D01*
X182732533Y-91332216D01*
X182827179Y-91168284D01*
X182885674Y-90988256D01*
X182905460Y-90800000D01*
X182885674Y-90611744D01*
X182827179Y-90431716D01*
X182732533Y-90267784D01*
X182605871Y-90127112D01*
X182605870Y-90127111D01*
X182452734Y-90015851D01*
X182452729Y-90015848D01*
X182279807Y-89938857D01*
X182279802Y-89938855D01*
X182134001Y-89907865D01*
X182094646Y-89899500D01*
X181905354Y-89899500D01*
X181872897Y-89906398D01*
X181720197Y-89938855D01*
X181720192Y-89938857D01*
X181547270Y-90015848D01*
X181547265Y-90015851D01*
X181394129Y-90127111D01*
X181267466Y-90267785D01*
X181172821Y-90431715D01*
X181172818Y-90431722D01*
X181127434Y-90571401D01*
X181114326Y-90611744D01*
X181094540Y-90800000D01*
X170693563Y-90800000D01*
X170781401Y-90738495D01*
X170948495Y-90571401D01*
X171084035Y-90377830D01*
X171183903Y-90163663D01*
X171245063Y-89935408D01*
X171265659Y-89700000D01*
X171245063Y-89464592D01*
X171183903Y-89236337D01*
X171084035Y-89022171D01*
X171078425Y-89014158D01*
X170948494Y-88828597D01*
X170781402Y-88661506D01*
X170781401Y-88661505D01*
X170595842Y-88531575D01*
X170595841Y-88531574D01*
X170552216Y-88476997D01*
X170545024Y-88407498D01*
X170576546Y-88345144D01*
X170595836Y-88328428D01*
X170781401Y-88198495D01*
X170948495Y-88031401D01*
X171078426Y-87845840D01*
X171133001Y-87802217D01*
X171202499Y-87795023D01*
X171264854Y-87826546D01*
X171281574Y-87845841D01*
X171411505Y-88031401D01*
X171578599Y-88198495D01*
X171675384Y-88266265D01*
X171772165Y-88334032D01*
X171772167Y-88334033D01*
X171772170Y-88334035D01*
X171986337Y-88433903D01*
X172214592Y-88495063D01*
X172402918Y-88511539D01*
X172449999Y-88515659D01*
X172450000Y-88515659D01*
X172450001Y-88515659D01*
X172489234Y-88512226D01*
X172685408Y-88495063D01*
X172913663Y-88433903D01*
X173127830Y-88334035D01*
X173321401Y-88198495D01*
X173488495Y-88031401D01*
X173624035Y-87837830D01*
X173723903Y-87623663D01*
X173730243Y-87600000D01*
X178894540Y-87600000D01*
X178914326Y-87788256D01*
X178914327Y-87788259D01*
X178972818Y-87968277D01*
X178972821Y-87968284D01*
X179067467Y-88132216D01*
X179194129Y-88272888D01*
X179347265Y-88384148D01*
X179347270Y-88384151D01*
X179520192Y-88461142D01*
X179520197Y-88461144D01*
X179705354Y-88500500D01*
X179705355Y-88500500D01*
X179894644Y-88500500D01*
X179894646Y-88500500D01*
X180079803Y-88461144D01*
X180252730Y-88384151D01*
X180405871Y-88272888D01*
X180471500Y-88200000D01*
X186094540Y-88200000D01*
X186114326Y-88388256D01*
X186114327Y-88388259D01*
X186172818Y-88568277D01*
X186172821Y-88568284D01*
X186267467Y-88732216D01*
X186354249Y-88828597D01*
X186394129Y-88872888D01*
X186547265Y-88984148D01*
X186547270Y-88984151D01*
X186720192Y-89061142D01*
X186720197Y-89061144D01*
X186905354Y-89100500D01*
X186905355Y-89100500D01*
X187094644Y-89100500D01*
X187094646Y-89100500D01*
X187279803Y-89061144D01*
X187449566Y-88985559D01*
X187518813Y-88976275D01*
X187550430Y-88985557D01*
X187720197Y-89061144D01*
X187905354Y-89100500D01*
X187905355Y-89100500D01*
X188094644Y-89100500D01*
X188094646Y-89100500D01*
X188279803Y-89061144D01*
X188449566Y-88985559D01*
X188518813Y-88976275D01*
X188550430Y-88985557D01*
X188720197Y-89061144D01*
X188905354Y-89100500D01*
X188905355Y-89100500D01*
X189094644Y-89100500D01*
X189094646Y-89100500D01*
X189279803Y-89061144D01*
X189449566Y-88985559D01*
X189518813Y-88976275D01*
X189550430Y-88985557D01*
X189720197Y-89061144D01*
X189905354Y-89100500D01*
X189905355Y-89100500D01*
X190094644Y-89100500D01*
X190094646Y-89100500D01*
X190279803Y-89061144D01*
X190452730Y-88984151D01*
X190605871Y-88872888D01*
X190732533Y-88732216D01*
X190827179Y-88568284D01*
X190885674Y-88388256D01*
X190905460Y-88200000D01*
X190885674Y-88011744D01*
X190827179Y-87831716D01*
X190786928Y-87761999D01*
X190770455Y-87694098D01*
X190786929Y-87637998D01*
X190827179Y-87568284D01*
X190827181Y-87568277D01*
X190885674Y-87388256D01*
X190905460Y-87200000D01*
X190885674Y-87011744D01*
X190827179Y-86831716D01*
X190732533Y-86667784D01*
X190605871Y-86527112D01*
X190605870Y-86527111D01*
X190452734Y-86415851D01*
X190452729Y-86415848D01*
X190279807Y-86338857D01*
X190279802Y-86338855D01*
X190134001Y-86307865D01*
X190094646Y-86299500D01*
X189905354Y-86299500D01*
X189872897Y-86306398D01*
X189720197Y-86338855D01*
X189720192Y-86338857D01*
X189550436Y-86414439D01*
X189481186Y-86423724D01*
X189449564Y-86414439D01*
X189279807Y-86338857D01*
X189279802Y-86338855D01*
X189134001Y-86307865D01*
X189094646Y-86299500D01*
X188905354Y-86299500D01*
X188872897Y-86306398D01*
X188720197Y-86338855D01*
X188720192Y-86338857D01*
X188550436Y-86414439D01*
X188481186Y-86423724D01*
X188449564Y-86414439D01*
X188279807Y-86338857D01*
X188279802Y-86338855D01*
X188134001Y-86307865D01*
X188094646Y-86299500D01*
X187905354Y-86299500D01*
X187872897Y-86306398D01*
X187720197Y-86338855D01*
X187720192Y-86338857D01*
X187550436Y-86414439D01*
X187481186Y-86423724D01*
X187449564Y-86414439D01*
X187279807Y-86338857D01*
X187279802Y-86338855D01*
X187134000Y-86307865D01*
X187094646Y-86299500D01*
X186905354Y-86299500D01*
X186872897Y-86306398D01*
X186720197Y-86338855D01*
X186720192Y-86338857D01*
X186547270Y-86415848D01*
X186547265Y-86415851D01*
X186394129Y-86527111D01*
X186267466Y-86667785D01*
X186172821Y-86831715D01*
X186172818Y-86831722D01*
X186114327Y-87011740D01*
X186114326Y-87011744D01*
X186094540Y-87200000D01*
X186114326Y-87388256D01*
X186114327Y-87388259D01*
X186172818Y-87568277D01*
X186172820Y-87568281D01*
X186172821Y-87568284D01*
X186204794Y-87623663D01*
X186213072Y-87638001D01*
X186229543Y-87705901D01*
X186213072Y-87761999D01*
X186172820Y-87831718D01*
X186172818Y-87831722D01*
X186128449Y-87968277D01*
X186114326Y-88011744D01*
X186094540Y-88200000D01*
X180471500Y-88200000D01*
X180532533Y-88132216D01*
X180627179Y-87968284D01*
X180685674Y-87788256D01*
X180705460Y-87600000D01*
X180685674Y-87411744D01*
X180627179Y-87231716D01*
X180532533Y-87067784D01*
X180405871Y-86927112D01*
X180402403Y-86924592D01*
X180252734Y-86815851D01*
X180252729Y-86815848D01*
X180079807Y-86738857D01*
X180079802Y-86738855D01*
X179934000Y-86707865D01*
X179894646Y-86699500D01*
X179705354Y-86699500D01*
X179672897Y-86706398D01*
X179520197Y-86738855D01*
X179520192Y-86738857D01*
X179347270Y-86815848D01*
X179347265Y-86815851D01*
X179194129Y-86927111D01*
X179067466Y-87067785D01*
X178972821Y-87231715D01*
X178972818Y-87231722D01*
X178919634Y-87395408D01*
X178914326Y-87411744D01*
X178894540Y-87600000D01*
X173730243Y-87600000D01*
X173785063Y-87395408D01*
X173805659Y-87160000D01*
X173785063Y-86924592D01*
X173723903Y-86696337D01*
X173624035Y-86482171D01*
X173618424Y-86474158D01*
X173488496Y-86288600D01*
X173488493Y-86288597D01*
X173366567Y-86166671D01*
X173333084Y-86105351D01*
X173338068Y-86035659D01*
X173379939Y-85979725D01*
X173410915Y-85962810D01*
X173542331Y-85913796D01*
X173657546Y-85827546D01*
X173743796Y-85712331D01*
X173794091Y-85577483D01*
X173800500Y-85517873D01*
X173800500Y-85000000D01*
X183294540Y-85000000D01*
X183314326Y-85188256D01*
X183314327Y-85188259D01*
X183372818Y-85368277D01*
X183372821Y-85368284D01*
X183467467Y-85532216D01*
X183581172Y-85658498D01*
X183594129Y-85672888D01*
X183747265Y-85784148D01*
X183747270Y-85784151D01*
X183920192Y-85861142D01*
X183920197Y-85861144D01*
X184105354Y-85900500D01*
X184105355Y-85900500D01*
X184294644Y-85900500D01*
X184294646Y-85900500D01*
X184479803Y-85861144D01*
X184652730Y-85784151D01*
X184805871Y-85672888D01*
X184932533Y-85532216D01*
X185027179Y-85368284D01*
X185085674Y-85188256D01*
X185105460Y-85000000D01*
X185085674Y-84811744D01*
X185027179Y-84631716D01*
X184986928Y-84561999D01*
X184970455Y-84494098D01*
X184986929Y-84437998D01*
X185027179Y-84368284D01*
X185038899Y-84332214D01*
X185085674Y-84188256D01*
X185105460Y-84000000D01*
X185085674Y-83811744D01*
X185027179Y-83631716D01*
X184932533Y-83467784D01*
X184805871Y-83327112D01*
X184804624Y-83326206D01*
X184652734Y-83215851D01*
X184652729Y-83215848D01*
X184479807Y-83138857D01*
X184479802Y-83138855D01*
X184324135Y-83105768D01*
X184294646Y-83099500D01*
X184105354Y-83099500D01*
X184075865Y-83105768D01*
X183920197Y-83138855D01*
X183920192Y-83138857D01*
X183747270Y-83215848D01*
X183747265Y-83215851D01*
X183594129Y-83327111D01*
X183467466Y-83467785D01*
X183372821Y-83631715D01*
X183372818Y-83631722D01*
X183317480Y-83802036D01*
X183314326Y-83811744D01*
X183294540Y-84000000D01*
X183314326Y-84188256D01*
X183314327Y-84188259D01*
X183372818Y-84368277D01*
X183372820Y-84368281D01*
X183372821Y-84368284D01*
X183382239Y-84384596D01*
X183413072Y-84438001D01*
X183429543Y-84505901D01*
X183413072Y-84561999D01*
X183372820Y-84631718D01*
X183372818Y-84631722D01*
X183314327Y-84811740D01*
X183314326Y-84811744D01*
X183294540Y-85000000D01*
X173800500Y-85000000D01*
X173800499Y-83800000D01*
X178894540Y-83800000D01*
X178914326Y-83988256D01*
X178914327Y-83988259D01*
X178972818Y-84168277D01*
X178972821Y-84168284D01*
X179067467Y-84332216D01*
X179162714Y-84437998D01*
X179194129Y-84472888D01*
X179347265Y-84584148D01*
X179347270Y-84584151D01*
X179520192Y-84661142D01*
X179520197Y-84661144D01*
X179705354Y-84700500D01*
X179705355Y-84700500D01*
X179894644Y-84700500D01*
X179894646Y-84700500D01*
X180079803Y-84661144D01*
X180252730Y-84584151D01*
X180405871Y-84472888D01*
X180532533Y-84332216D01*
X180627179Y-84168284D01*
X180685674Y-83988256D01*
X180705460Y-83800000D01*
X180685674Y-83611744D01*
X180627179Y-83431716D01*
X180532533Y-83267784D01*
X180405871Y-83127112D01*
X180405870Y-83127111D01*
X180252734Y-83015851D01*
X180252729Y-83015848D01*
X180079807Y-82938857D01*
X180079802Y-82938855D01*
X179934000Y-82907865D01*
X179894646Y-82899500D01*
X179705354Y-82899500D01*
X179672897Y-82906398D01*
X179520197Y-82938855D01*
X179520192Y-82938857D01*
X179347270Y-83015848D01*
X179347265Y-83015851D01*
X179194129Y-83127111D01*
X179067466Y-83267785D01*
X178972821Y-83431715D01*
X178972818Y-83431722D01*
X178924151Y-83581505D01*
X178914326Y-83611744D01*
X178894540Y-83800000D01*
X173800499Y-83800000D01*
X173800499Y-83722128D01*
X173794091Y-83662517D01*
X173792810Y-83659083D01*
X173743797Y-83527671D01*
X173743793Y-83527664D01*
X173657547Y-83412455D01*
X173657544Y-83412452D01*
X173542335Y-83326206D01*
X173542328Y-83326202D01*
X173407482Y-83275908D01*
X173407483Y-83275908D01*
X173347883Y-83269501D01*
X173347881Y-83269500D01*
X173347873Y-83269500D01*
X173347864Y-83269500D01*
X171552129Y-83269500D01*
X171552123Y-83269501D01*
X171492516Y-83275908D01*
X171357671Y-83326202D01*
X171357664Y-83326206D01*
X171242455Y-83412452D01*
X171242452Y-83412455D01*
X171156206Y-83527664D01*
X171156202Y-83527671D01*
X171105908Y-83662517D01*
X171100121Y-83716350D01*
X171099501Y-83722123D01*
X171099500Y-83722135D01*
X171099500Y-85517870D01*
X171099501Y-85517876D01*
X171105908Y-85577483D01*
X171156202Y-85712328D01*
X171156206Y-85712335D01*
X171242452Y-85827544D01*
X171242455Y-85827547D01*
X171357664Y-85913793D01*
X171357671Y-85913797D01*
X171489081Y-85962810D01*
X171545015Y-86004681D01*
X171569432Y-86070145D01*
X171554580Y-86138418D01*
X171533430Y-86166673D01*
X171411503Y-86288600D01*
X171281575Y-86474158D01*
X171226998Y-86517783D01*
X171157500Y-86524977D01*
X171095145Y-86493454D01*
X171078425Y-86474158D01*
X170948494Y-86288597D01*
X170781402Y-86121506D01*
X170781395Y-86121501D01*
X170587834Y-85985967D01*
X170587830Y-85985965D01*
X170574448Y-85979725D01*
X170373663Y-85886097D01*
X170373659Y-85886096D01*
X170373655Y-85886094D01*
X170145413Y-85824938D01*
X170145403Y-85824936D01*
X169910001Y-85804341D01*
X169909999Y-85804341D01*
X169674596Y-85824936D01*
X169674586Y-85824938D01*
X169446344Y-85886094D01*
X169446335Y-85886098D01*
X169232171Y-85985964D01*
X169232169Y-85985965D01*
X169038597Y-86121505D01*
X168871505Y-86288597D01*
X168735965Y-86482169D01*
X168735964Y-86482171D01*
X168636098Y-86696335D01*
X168636094Y-86696344D01*
X168574938Y-86924586D01*
X168574936Y-86924596D01*
X168554341Y-87159999D01*
X168554341Y-87160000D01*
X168574936Y-87395403D01*
X168574938Y-87395413D01*
X168636094Y-87623655D01*
X168636096Y-87623659D01*
X168636097Y-87623663D01*
X168712848Y-87788256D01*
X168735965Y-87837830D01*
X168735967Y-87837834D01*
X168827305Y-87968277D01*
X168871504Y-88031400D01*
X168871506Y-88031402D01*
X169038597Y-88198493D01*
X169038603Y-88198498D01*
X169224158Y-88328425D01*
X169267783Y-88383002D01*
X169274977Y-88452500D01*
X169243454Y-88514855D01*
X169224158Y-88531575D01*
X169038597Y-88661505D01*
X168871505Y-88828597D01*
X168735965Y-89022169D01*
X168735964Y-89022171D01*
X168636098Y-89236335D01*
X168636094Y-89236344D01*
X168574938Y-89464586D01*
X168574936Y-89464596D01*
X168554341Y-89699999D01*
X168554341Y-89700000D01*
X168574936Y-89935403D01*
X168574938Y-89935413D01*
X168636094Y-90163655D01*
X168636096Y-90163659D01*
X168636097Y-90163663D01*
X168640000Y-90172032D01*
X168735965Y-90377830D01*
X168735967Y-90377834D01*
X168844281Y-90532521D01*
X168871501Y-90571396D01*
X168871506Y-90571402D01*
X169038597Y-90738493D01*
X169038603Y-90738498D01*
X169224158Y-90868425D01*
X169267783Y-90923002D01*
X169274977Y-90992500D01*
X169243454Y-91054855D01*
X169224158Y-91071575D01*
X169038597Y-91201505D01*
X168871505Y-91368597D01*
X168735965Y-91562169D01*
X168735964Y-91562171D01*
X168636098Y-91776335D01*
X168636094Y-91776344D01*
X168574938Y-92004586D01*
X168574936Y-92004596D01*
X168554341Y-92239999D01*
X168554341Y-92240000D01*
X168574936Y-92475403D01*
X168574938Y-92475413D01*
X168636094Y-92703655D01*
X168636096Y-92703659D01*
X168636097Y-92703663D01*
X168640000Y-92712032D01*
X168735965Y-92917830D01*
X168735967Y-92917834D01*
X168844281Y-93072521D01*
X168871501Y-93111396D01*
X168871506Y-93111402D01*
X169038597Y-93278493D01*
X169038603Y-93278498D01*
X169224158Y-93408425D01*
X169267783Y-93463002D01*
X169274977Y-93532500D01*
X169243454Y-93594855D01*
X169224158Y-93611575D01*
X169038597Y-93741505D01*
X168871505Y-93908597D01*
X168735965Y-94102169D01*
X168735964Y-94102171D01*
X168636098Y-94316335D01*
X168636094Y-94316344D01*
X168574938Y-94544586D01*
X168574936Y-94544596D01*
X168554341Y-94779999D01*
X168554341Y-94780000D01*
X168574936Y-95015403D01*
X168574938Y-95015413D01*
X168636094Y-95243655D01*
X168636096Y-95243659D01*
X168636097Y-95243663D01*
X168701608Y-95384151D01*
X168735965Y-95457830D01*
X168735967Y-95457834D01*
X168779626Y-95520185D01*
X168871501Y-95651396D01*
X168871506Y-95651402D01*
X169038597Y-95818493D01*
X169038603Y-95818498D01*
X169224158Y-95948425D01*
X169267783Y-96003002D01*
X169274977Y-96072500D01*
X169243454Y-96134855D01*
X169224158Y-96151575D01*
X169038597Y-96281505D01*
X168871505Y-96448597D01*
X168735965Y-96642169D01*
X168735964Y-96642171D01*
X168636098Y-96856335D01*
X168636094Y-96856344D01*
X168574938Y-97084586D01*
X168574936Y-97084596D01*
X168554341Y-97319999D01*
X168554341Y-97320000D01*
X168574936Y-97555403D01*
X168574938Y-97555413D01*
X168636094Y-97783655D01*
X168636096Y-97783659D01*
X168636097Y-97783663D01*
X168690579Y-97900500D01*
X168735965Y-97997830D01*
X168735967Y-97997834D01*
X168780298Y-98061144D01*
X168871504Y-98191400D01*
X168871506Y-98191402D01*
X169038597Y-98358493D01*
X169038603Y-98358498D01*
X169224158Y-98488425D01*
X169267783Y-98543002D01*
X169274977Y-98612500D01*
X169243454Y-98674855D01*
X169224158Y-98691575D01*
X169038597Y-98821505D01*
X168871505Y-98988597D01*
X168735965Y-99182169D01*
X168735964Y-99182171D01*
X168636098Y-99396335D01*
X168636094Y-99396344D01*
X168574938Y-99624586D01*
X168574936Y-99624596D01*
X168554341Y-99859999D01*
X168554341Y-99860000D01*
X168574936Y-100095403D01*
X168574938Y-100095413D01*
X168636094Y-100323655D01*
X168636096Y-100323659D01*
X168636097Y-100323663D01*
X168680606Y-100419112D01*
X168735965Y-100537830D01*
X168735967Y-100537834D01*
X168790596Y-100615851D01*
X168871504Y-100731400D01*
X168871506Y-100731402D01*
X169038597Y-100898493D01*
X169038603Y-100898498D01*
X169224158Y-101028425D01*
X169267783Y-101083002D01*
X169274977Y-101152500D01*
X169243454Y-101214855D01*
X169224158Y-101231575D01*
X169038597Y-101361505D01*
X168871505Y-101528597D01*
X168735965Y-101722169D01*
X168735964Y-101722171D01*
X168636098Y-101936335D01*
X168636094Y-101936344D01*
X168574938Y-102164586D01*
X168574936Y-102164596D01*
X168554341Y-102399999D01*
X168554341Y-102400000D01*
X167000500Y-102400000D01*
X167000500Y-83802036D01*
X167000633Y-83797981D01*
X167005982Y-83716360D01*
X167006907Y-83703430D01*
X167018986Y-83534536D01*
X167020014Y-83526903D01*
X167043153Y-83410579D01*
X167044118Y-83406141D01*
X167074533Y-83266323D01*
X167076392Y-83259625D01*
X167116815Y-83140543D01*
X167166159Y-83008251D01*
X167168633Y-83002520D01*
X167225583Y-82887036D01*
X167292179Y-82765076D01*
X167295019Y-82760384D01*
X167366563Y-82653311D01*
X167368428Y-82650676D01*
X167450291Y-82541321D01*
X167453244Y-82537678D01*
X167538503Y-82440459D01*
X167541198Y-82437581D01*
X167637581Y-82341198D01*
X167640459Y-82338503D01*
X167737678Y-82253244D01*
X167741321Y-82250291D01*
X167850676Y-82168428D01*
X167853311Y-82166563D01*
X167960384Y-82095019D01*
X167965076Y-82092179D01*
X168087036Y-82025583D01*
X168202520Y-81968633D01*
X168208251Y-81966159D01*
X168340543Y-81916815D01*
X168459625Y-81876392D01*
X168466323Y-81874533D01*
X168610548Y-81843158D01*
X168726903Y-81820014D01*
X168734536Y-81818986D01*
X168916244Y-81805989D01*
X168969211Y-81802517D01*
X168997981Y-81800633D01*
X169002036Y-81800500D01*
X198997964Y-81800500D01*
X199002019Y-81800633D01*
G37*
%TD.AperFunction*%
%TD*%
M02*
