%TF.GenerationSoftware,KiCad,Pcbnew,7.0.7-2.fc38*%
%TF.CreationDate,2023-11-16T23:21:04-08:00*%
%TF.ProjectId,TinySparrow,54696e79-5370-4617-9272-6f772e6b6963,rev?*%
%TF.SameCoordinates,Original*%
%TF.FileFunction,Drillmap*%
%TF.FilePolarity,Positive*%
%FSLAX45Y45*%
G04 Gerber Fmt 4.5, Leading zero omitted, Abs format (unit mm)*
G04 Created by KiCad (PCBNEW 7.0.7-2.fc38) date 2023-11-16 23:21:04*
%MOMM*%
%LPD*%
G01*
G04 APERTURE LIST*
%ADD10C,0.100000*%
%ADD11C,0.200000*%
%ADD12C,0.040000*%
G04 APERTURE END LIST*
D10*
X16900000Y-8180000D02*
G75*
G03*
X16700000Y-8380000I0J-200000D01*
G01*
X16900000Y-8180000D02*
X19900000Y-8180000D01*
X16700000Y-10380000D02*
X16700000Y-8380000D01*
X16900000Y-10580000D02*
X19900000Y-10580000D01*
X19900000Y-10580000D02*
G75*
G03*
X20100000Y-10380000I0J200000D01*
G01*
X20100000Y-10380000D02*
X20100000Y-8380000D01*
X20100000Y-8380000D02*
G75*
G03*
X19900000Y-8180000I-200000J0D01*
G01*
X16700000Y-10380000D02*
G75*
G03*
X16900000Y-10580000I200000J0D01*
G01*
D11*
D12*
X16900000Y-10500000D02*
X16940000Y-10540000D01*
X16940000Y-10500000D02*
X16900000Y-10540000D01*
X17000000Y-10500000D02*
X17040000Y-10540000D01*
X17040000Y-10500000D02*
X17000000Y-10540000D01*
X17100000Y-10500000D02*
X17140000Y-10540000D01*
X17140000Y-10500000D02*
X17100000Y-10540000D01*
X17200000Y-10500000D02*
X17240000Y-10540000D01*
X17240000Y-10500000D02*
X17200000Y-10540000D01*
X17420000Y-10120000D02*
X17460000Y-10160000D01*
X17460000Y-10120000D02*
X17420000Y-10160000D01*
X17480000Y-8900000D02*
X17520000Y-8940000D01*
X17520000Y-8900000D02*
X17480000Y-8940000D01*
X17480000Y-9000000D02*
X17520000Y-9040000D01*
X17520000Y-9000000D02*
X17480000Y-9040000D01*
X17480000Y-9100000D02*
X17520000Y-9140000D01*
X17520000Y-9100000D02*
X17480000Y-9140000D01*
X17540000Y-10380000D02*
X17580000Y-10420000D01*
X17580000Y-10380000D02*
X17540000Y-10420000D01*
X17580000Y-8900000D02*
X17620000Y-8940000D01*
X17620000Y-8900000D02*
X17580000Y-8940000D01*
X17580000Y-9000000D02*
X17620000Y-9040000D01*
X17620000Y-9000000D02*
X17580000Y-9040000D01*
X17580000Y-9100000D02*
X17620000Y-9140000D01*
X17620000Y-9100000D02*
X17580000Y-9140000D01*
X17620000Y-9632450D02*
X17660000Y-9672450D01*
X17660000Y-9632450D02*
X17620000Y-9672450D01*
X17640000Y-9860000D02*
X17680000Y-9900000D01*
X17680000Y-9860000D02*
X17640000Y-9900000D01*
X17680000Y-8900000D02*
X17720000Y-8940000D01*
X17720000Y-8900000D02*
X17680000Y-8940000D01*
X17680000Y-9000000D02*
X17720000Y-9040000D01*
X17720000Y-9000000D02*
X17680000Y-9040000D01*
X17680000Y-9100000D02*
X17720000Y-9140000D01*
X17720000Y-9100000D02*
X17680000Y-9140000D01*
X17800050Y-10320000D02*
X17840050Y-10360000D01*
X17840050Y-10320000D02*
X17800050Y-10360000D01*
X17820000Y-10460000D02*
X17860000Y-10500000D01*
X17860000Y-10460000D02*
X17820000Y-10500000D01*
X17900000Y-10320000D02*
X17940000Y-10360000D01*
X17940000Y-10320000D02*
X17900000Y-10360000D01*
X17960000Y-8360000D02*
X18000000Y-8400000D01*
X18000000Y-8360000D02*
X17960000Y-8400000D01*
X17960000Y-8740000D02*
X18000000Y-8780000D01*
X18000000Y-8740000D02*
X17960000Y-8780000D01*
X18000000Y-9860000D02*
X18040000Y-9900000D01*
X18040000Y-9860000D02*
X18000000Y-9900000D01*
X18000000Y-10320000D02*
X18040000Y-10360000D01*
X18040000Y-10320000D02*
X18000000Y-10360000D01*
X18100000Y-9760000D02*
X18140000Y-9800000D01*
X18140000Y-9760000D02*
X18100000Y-9800000D01*
X18100000Y-9860000D02*
X18140000Y-9900000D01*
X18140000Y-9860000D02*
X18100000Y-9900000D01*
X18100000Y-9960000D02*
X18140000Y-10000000D01*
X18140000Y-9960000D02*
X18100000Y-10000000D01*
X18180000Y-9060000D02*
X18220000Y-9100000D01*
X18220000Y-9060000D02*
X18180000Y-9100000D01*
X18200000Y-9860000D02*
X18240000Y-9900000D01*
X18240000Y-9860000D02*
X18200000Y-9900000D01*
X18300000Y-9420000D02*
X18340000Y-9460000D01*
X18340000Y-9420000D02*
X18300000Y-9460000D01*
X18318800Y-10444800D02*
X18358800Y-10484800D01*
X18358800Y-10444800D02*
X18318800Y-10484800D01*
X18360000Y-9240000D02*
X18400000Y-9280000D01*
X18400000Y-9240000D02*
X18360000Y-9280000D01*
X18400000Y-8380000D02*
X18440000Y-8420000D01*
X18440000Y-8380000D02*
X18400000Y-8420000D01*
X18400000Y-8480000D02*
X18440000Y-8520000D01*
X18440000Y-8480000D02*
X18400000Y-8520000D01*
X18400000Y-9440000D02*
X18440000Y-9480000D01*
X18440000Y-9440000D02*
X18400000Y-9480000D01*
X18418750Y-10444800D02*
X18458750Y-10484800D01*
X18458750Y-10444800D02*
X18418750Y-10484800D01*
X18500000Y-9506320D02*
X18540000Y-9546320D01*
X18540000Y-9506320D02*
X18500000Y-9546320D01*
X18522000Y-10444800D02*
X18562000Y-10484800D01*
X18562000Y-10444800D02*
X18522000Y-10484800D01*
X18580000Y-9700000D02*
X18620000Y-9740000D01*
X18620000Y-9700000D02*
X18580000Y-9740000D01*
X18621831Y-10439910D02*
X18661831Y-10479910D01*
X18661831Y-10439910D02*
X18621831Y-10479910D01*
X18680000Y-8700000D02*
X18720000Y-8740000D01*
X18720000Y-8700000D02*
X18680000Y-8740000D01*
X18680000Y-8800000D02*
X18720000Y-8840000D01*
X18720000Y-8800000D02*
X18680000Y-8840000D01*
X18720000Y-9680000D02*
X18760000Y-9720000D01*
X18760000Y-9680000D02*
X18720000Y-9720000D01*
X18780000Y-8700000D02*
X18820000Y-8740000D01*
X18820000Y-8700000D02*
X18780000Y-8740000D01*
X18780000Y-8800000D02*
X18820000Y-8840000D01*
X18820000Y-8800000D02*
X18780000Y-8840000D01*
X18795758Y-10234150D02*
X18835758Y-10274150D01*
X18835758Y-10234150D02*
X18795758Y-10274150D01*
X18801400Y-10089200D02*
X18841400Y-10129200D01*
X18841400Y-10089200D02*
X18801400Y-10129200D01*
X18860000Y-9680000D02*
X18900000Y-9720000D01*
X18900000Y-9680000D02*
X18860000Y-9720000D01*
X18861230Y-9578770D02*
X18901230Y-9618770D01*
X18901230Y-9578770D02*
X18861230Y-9618770D01*
X18880000Y-8700000D02*
X18920000Y-8740000D01*
X18920000Y-8700000D02*
X18880000Y-8740000D01*
X18880000Y-8800000D02*
X18920000Y-8840000D01*
X18920000Y-8800000D02*
X18880000Y-8840000D01*
X18895297Y-10243214D02*
X18935297Y-10283214D01*
X18935297Y-10243214D02*
X18895297Y-10283214D01*
X18901350Y-10089200D02*
X18941350Y-10129200D01*
X18941350Y-10089200D02*
X18901350Y-10129200D01*
X18980000Y-8700000D02*
X19020000Y-8740000D01*
X19020000Y-8700000D02*
X18980000Y-8740000D01*
X18980000Y-8800000D02*
X19020000Y-8840000D01*
X19020000Y-8800000D02*
X18980000Y-8840000D01*
X20020000Y-9500000D02*
X20060000Y-9540000D01*
X20060000Y-9500000D02*
X20020000Y-9540000D01*
X20020000Y-9600000D02*
X20060000Y-9640000D01*
X20060000Y-9600000D02*
X20020000Y-9640000D01*
X20020000Y-9700000D02*
X20060000Y-9740000D01*
X20060000Y-9700000D02*
X20020000Y-9740000D01*
X20020000Y-9800000D02*
X20060000Y-9840000D01*
X20060000Y-9800000D02*
X20020000Y-9840000D01*
X20020000Y-9900000D02*
X20060000Y-9940000D01*
X20060000Y-9900000D02*
X20020000Y-9940000D01*
X20020000Y-10000000D02*
X20060000Y-10040000D01*
X20060000Y-10000000D02*
X20020000Y-10040000D01*
X20020000Y-10100000D02*
X20060000Y-10140000D01*
X20060000Y-10100000D02*
X20020000Y-10140000D01*
X20020000Y-10200000D02*
X20060000Y-10240000D01*
X20060000Y-10200000D02*
X20020000Y-10240000D01*
D10*
X17041000Y-8462000D02*
G75*
G03*
X17041000Y-8462000I-50000J0D01*
G01*
X17041000Y-8716000D02*
G75*
G03*
X17041000Y-8716000I-50000J0D01*
G01*
X17041000Y-8970000D02*
G75*
G03*
X17041000Y-8970000I-50000J0D01*
G01*
X17041000Y-9224000D02*
G75*
G03*
X17041000Y-9224000I-50000J0D01*
G01*
X17041000Y-9478000D02*
G75*
G03*
X17041000Y-9478000I-50000J0D01*
G01*
X17041000Y-9732000D02*
G75*
G03*
X17041000Y-9732000I-50000J0D01*
G01*
X17041000Y-9986000D02*
G75*
G03*
X17041000Y-9986000I-50000J0D01*
G01*
X17041000Y-10240000D02*
G75*
G03*
X17041000Y-10240000I-50000J0D01*
G01*
X17295000Y-8462000D02*
G75*
G03*
X17295000Y-8462000I-50000J0D01*
G01*
X17295000Y-8716000D02*
G75*
G03*
X17295000Y-8716000I-50000J0D01*
G01*
X17295000Y-8970000D02*
G75*
G03*
X17295000Y-8970000I-50000J0D01*
G01*
X17295000Y-9224000D02*
G75*
G03*
X17295000Y-9224000I-50000J0D01*
G01*
X17295000Y-9478000D02*
G75*
G03*
X17295000Y-9478000I-50000J0D01*
G01*
X17295000Y-9732000D02*
G75*
G03*
X17295000Y-9732000I-50000J0D01*
G01*
X17295000Y-9986000D02*
G75*
G03*
X17295000Y-9986000I-50000J0D01*
G01*
X17295000Y-10240000D02*
G75*
G03*
X17295000Y-10240000I-50000J0D01*
G01*
X19581000Y-8462000D02*
G75*
G03*
X19581000Y-8462000I-50000J0D01*
G01*
X19581000Y-8716000D02*
G75*
G03*
X19581000Y-8716000I-50000J0D01*
G01*
X19581000Y-8970000D02*
G75*
G03*
X19581000Y-8970000I-50000J0D01*
G01*
X19581000Y-9224000D02*
G75*
G03*
X19581000Y-9224000I-50000J0D01*
G01*
X19581000Y-9478000D02*
G75*
G03*
X19581000Y-9478000I-50000J0D01*
G01*
X19581000Y-9732000D02*
G75*
G03*
X19581000Y-9732000I-50000J0D01*
G01*
X19581000Y-9986000D02*
G75*
G03*
X19581000Y-9986000I-50000J0D01*
G01*
X19581000Y-10240000D02*
G75*
G03*
X19581000Y-10240000I-50000J0D01*
G01*
X19835000Y-8462000D02*
G75*
G03*
X19835000Y-8462000I-50000J0D01*
G01*
X19835000Y-8716000D02*
G75*
G03*
X19835000Y-8716000I-50000J0D01*
G01*
X19835000Y-8970000D02*
G75*
G03*
X19835000Y-8970000I-50000J0D01*
G01*
X19835000Y-9224000D02*
G75*
G03*
X19835000Y-9224000I-50000J0D01*
G01*
X19835000Y-9478000D02*
G75*
G03*
X19835000Y-9478000I-50000J0D01*
G01*
X19835000Y-9732000D02*
G75*
G03*
X19835000Y-9732000I-50000J0D01*
G01*
X19835000Y-9986000D02*
G75*
G03*
X19835000Y-9986000I-50000J0D01*
G01*
X19835000Y-10240000D02*
G75*
G03*
X19835000Y-10240000I-50000J0D01*
G01*
D11*
X16955777Y-10896484D02*
X16955777Y-10696484D01*
X16955777Y-10696484D02*
X17003396Y-10696484D01*
X17003396Y-10696484D02*
X17031967Y-10706008D01*
X17031967Y-10706008D02*
X17051015Y-10725055D01*
X17051015Y-10725055D02*
X17060539Y-10744103D01*
X17060539Y-10744103D02*
X17070063Y-10782198D01*
X17070063Y-10782198D02*
X17070063Y-10810770D01*
X17070063Y-10810770D02*
X17060539Y-10848865D01*
X17060539Y-10848865D02*
X17051015Y-10867912D01*
X17051015Y-10867912D02*
X17031967Y-10886960D01*
X17031967Y-10886960D02*
X17003396Y-10896484D01*
X17003396Y-10896484D02*
X16955777Y-10896484D01*
X17155777Y-10896484D02*
X17155777Y-10763150D01*
X17155777Y-10801246D02*
X17165301Y-10782198D01*
X17165301Y-10782198D02*
X17174824Y-10772674D01*
X17174824Y-10772674D02*
X17193872Y-10763150D01*
X17193872Y-10763150D02*
X17212920Y-10763150D01*
X17279586Y-10896484D02*
X17279586Y-10763150D01*
X17279586Y-10696484D02*
X17270063Y-10706008D01*
X17270063Y-10706008D02*
X17279586Y-10715531D01*
X17279586Y-10715531D02*
X17289110Y-10706008D01*
X17289110Y-10706008D02*
X17279586Y-10696484D01*
X17279586Y-10696484D02*
X17279586Y-10715531D01*
X17403396Y-10896484D02*
X17384348Y-10886960D01*
X17384348Y-10886960D02*
X17374824Y-10867912D01*
X17374824Y-10867912D02*
X17374824Y-10696484D01*
X17508158Y-10896484D02*
X17489110Y-10886960D01*
X17489110Y-10886960D02*
X17479586Y-10867912D01*
X17479586Y-10867912D02*
X17479586Y-10696484D01*
X17736729Y-10896484D02*
X17736729Y-10696484D01*
X17736729Y-10696484D02*
X17803396Y-10839341D01*
X17803396Y-10839341D02*
X17870063Y-10696484D01*
X17870063Y-10696484D02*
X17870063Y-10896484D01*
X18051015Y-10896484D02*
X18051015Y-10791722D01*
X18051015Y-10791722D02*
X18041491Y-10772674D01*
X18041491Y-10772674D02*
X18022444Y-10763150D01*
X18022444Y-10763150D02*
X17984348Y-10763150D01*
X17984348Y-10763150D02*
X17965301Y-10772674D01*
X18051015Y-10886960D02*
X18031967Y-10896484D01*
X18031967Y-10896484D02*
X17984348Y-10896484D01*
X17984348Y-10896484D02*
X17965301Y-10886960D01*
X17965301Y-10886960D02*
X17955777Y-10867912D01*
X17955777Y-10867912D02*
X17955777Y-10848865D01*
X17955777Y-10848865D02*
X17965301Y-10829817D01*
X17965301Y-10829817D02*
X17984348Y-10820293D01*
X17984348Y-10820293D02*
X18031967Y-10820293D01*
X18031967Y-10820293D02*
X18051015Y-10810770D01*
X18146253Y-10763150D02*
X18146253Y-10963150D01*
X18146253Y-10772674D02*
X18165301Y-10763150D01*
X18165301Y-10763150D02*
X18203396Y-10763150D01*
X18203396Y-10763150D02*
X18222444Y-10772674D01*
X18222444Y-10772674D02*
X18231967Y-10782198D01*
X18231967Y-10782198D02*
X18241491Y-10801246D01*
X18241491Y-10801246D02*
X18241491Y-10858389D01*
X18241491Y-10858389D02*
X18231967Y-10877436D01*
X18231967Y-10877436D02*
X18222444Y-10886960D01*
X18222444Y-10886960D02*
X18203396Y-10896484D01*
X18203396Y-10896484D02*
X18165301Y-10896484D01*
X18165301Y-10896484D02*
X18146253Y-10886960D01*
X18327205Y-10877436D02*
X18336729Y-10886960D01*
X18336729Y-10886960D02*
X18327205Y-10896484D01*
X18327205Y-10896484D02*
X18317682Y-10886960D01*
X18317682Y-10886960D02*
X18327205Y-10877436D01*
X18327205Y-10877436D02*
X18327205Y-10896484D01*
X18327205Y-10772674D02*
X18336729Y-10782198D01*
X18336729Y-10782198D02*
X18327205Y-10791722D01*
X18327205Y-10791722D02*
X18317682Y-10782198D01*
X18317682Y-10782198D02*
X18327205Y-10772674D01*
X18327205Y-10772674D02*
X18327205Y-10791722D01*
D12*
X16655000Y-11205000D02*
X16695000Y-11245000D01*
X16695000Y-11205000D02*
X16655000Y-11245000D01*
D11*
X16993872Y-11116484D02*
X17012920Y-11116484D01*
X17012920Y-11116484D02*
X17031967Y-11126008D01*
X17031967Y-11126008D02*
X17041491Y-11135531D01*
X17041491Y-11135531D02*
X17051015Y-11154579D01*
X17051015Y-11154579D02*
X17060539Y-11192674D01*
X17060539Y-11192674D02*
X17060539Y-11240293D01*
X17060539Y-11240293D02*
X17051015Y-11278388D01*
X17051015Y-11278388D02*
X17041491Y-11297436D01*
X17041491Y-11297436D02*
X17031967Y-11306960D01*
X17031967Y-11306960D02*
X17012920Y-11316484D01*
X17012920Y-11316484D02*
X16993872Y-11316484D01*
X16993872Y-11316484D02*
X16974824Y-11306960D01*
X16974824Y-11306960D02*
X16965301Y-11297436D01*
X16965301Y-11297436D02*
X16955777Y-11278388D01*
X16955777Y-11278388D02*
X16946253Y-11240293D01*
X16946253Y-11240293D02*
X16946253Y-11192674D01*
X16946253Y-11192674D02*
X16955777Y-11154579D01*
X16955777Y-11154579D02*
X16965301Y-11135531D01*
X16965301Y-11135531D02*
X16974824Y-11126008D01*
X16974824Y-11126008D02*
X16993872Y-11116484D01*
X17146253Y-11297436D02*
X17155777Y-11306960D01*
X17155777Y-11306960D02*
X17146253Y-11316484D01*
X17146253Y-11316484D02*
X17136729Y-11306960D01*
X17136729Y-11306960D02*
X17146253Y-11297436D01*
X17146253Y-11297436D02*
X17146253Y-11316484D01*
X17327205Y-11183150D02*
X17327205Y-11316484D01*
X17279586Y-11106960D02*
X17231967Y-11249817D01*
X17231967Y-11249817D02*
X17355777Y-11249817D01*
X17470063Y-11116484D02*
X17489110Y-11116484D01*
X17489110Y-11116484D02*
X17508158Y-11126008D01*
X17508158Y-11126008D02*
X17517682Y-11135531D01*
X17517682Y-11135531D02*
X17527205Y-11154579D01*
X17527205Y-11154579D02*
X17536729Y-11192674D01*
X17536729Y-11192674D02*
X17536729Y-11240293D01*
X17536729Y-11240293D02*
X17527205Y-11278388D01*
X17527205Y-11278388D02*
X17517682Y-11297436D01*
X17517682Y-11297436D02*
X17508158Y-11306960D01*
X17508158Y-11306960D02*
X17489110Y-11316484D01*
X17489110Y-11316484D02*
X17470063Y-11316484D01*
X17470063Y-11316484D02*
X17451015Y-11306960D01*
X17451015Y-11306960D02*
X17441491Y-11297436D01*
X17441491Y-11297436D02*
X17431967Y-11278388D01*
X17431967Y-11278388D02*
X17422444Y-11240293D01*
X17422444Y-11240293D02*
X17422444Y-11192674D01*
X17422444Y-11192674D02*
X17431967Y-11154579D01*
X17431967Y-11154579D02*
X17441491Y-11135531D01*
X17441491Y-11135531D02*
X17451015Y-11126008D01*
X17451015Y-11126008D02*
X17470063Y-11116484D01*
X17660539Y-11116484D02*
X17679586Y-11116484D01*
X17679586Y-11116484D02*
X17698634Y-11126008D01*
X17698634Y-11126008D02*
X17708158Y-11135531D01*
X17708158Y-11135531D02*
X17717682Y-11154579D01*
X17717682Y-11154579D02*
X17727205Y-11192674D01*
X17727205Y-11192674D02*
X17727205Y-11240293D01*
X17727205Y-11240293D02*
X17717682Y-11278388D01*
X17717682Y-11278388D02*
X17708158Y-11297436D01*
X17708158Y-11297436D02*
X17698634Y-11306960D01*
X17698634Y-11306960D02*
X17679586Y-11316484D01*
X17679586Y-11316484D02*
X17660539Y-11316484D01*
X17660539Y-11316484D02*
X17641491Y-11306960D01*
X17641491Y-11306960D02*
X17631967Y-11297436D01*
X17631967Y-11297436D02*
X17622444Y-11278388D01*
X17622444Y-11278388D02*
X17612920Y-11240293D01*
X17612920Y-11240293D02*
X17612920Y-11192674D01*
X17612920Y-11192674D02*
X17622444Y-11154579D01*
X17622444Y-11154579D02*
X17631967Y-11135531D01*
X17631967Y-11135531D02*
X17641491Y-11126008D01*
X17641491Y-11126008D02*
X17660539Y-11116484D01*
X17812920Y-11316484D02*
X17812920Y-11183150D01*
X17812920Y-11202198D02*
X17822444Y-11192674D01*
X17822444Y-11192674D02*
X17841491Y-11183150D01*
X17841491Y-11183150D02*
X17870063Y-11183150D01*
X17870063Y-11183150D02*
X17889110Y-11192674D01*
X17889110Y-11192674D02*
X17898634Y-11211722D01*
X17898634Y-11211722D02*
X17898634Y-11316484D01*
X17898634Y-11211722D02*
X17908158Y-11192674D01*
X17908158Y-11192674D02*
X17927205Y-11183150D01*
X17927205Y-11183150D02*
X17955777Y-11183150D01*
X17955777Y-11183150D02*
X17974825Y-11192674D01*
X17974825Y-11192674D02*
X17984348Y-11211722D01*
X17984348Y-11211722D02*
X17984348Y-11316484D01*
X18079586Y-11316484D02*
X18079586Y-11183150D01*
X18079586Y-11202198D02*
X18089110Y-11192674D01*
X18089110Y-11192674D02*
X18108158Y-11183150D01*
X18108158Y-11183150D02*
X18136729Y-11183150D01*
X18136729Y-11183150D02*
X18155777Y-11192674D01*
X18155777Y-11192674D02*
X18165301Y-11211722D01*
X18165301Y-11211722D02*
X18165301Y-11316484D01*
X18165301Y-11211722D02*
X18174825Y-11192674D01*
X18174825Y-11192674D02*
X18193872Y-11183150D01*
X18193872Y-11183150D02*
X18222444Y-11183150D01*
X18222444Y-11183150D02*
X18241491Y-11192674D01*
X18241491Y-11192674D02*
X18251015Y-11211722D01*
X18251015Y-11211722D02*
X18251015Y-11316484D01*
X18641491Y-11106960D02*
X18470063Y-11364103D01*
X18898634Y-11116484D02*
X18917682Y-11116484D01*
X18917682Y-11116484D02*
X18936729Y-11126008D01*
X18936729Y-11126008D02*
X18946253Y-11135531D01*
X18946253Y-11135531D02*
X18955777Y-11154579D01*
X18955777Y-11154579D02*
X18965301Y-11192674D01*
X18965301Y-11192674D02*
X18965301Y-11240293D01*
X18965301Y-11240293D02*
X18955777Y-11278388D01*
X18955777Y-11278388D02*
X18946253Y-11297436D01*
X18946253Y-11297436D02*
X18936729Y-11306960D01*
X18936729Y-11306960D02*
X18917682Y-11316484D01*
X18917682Y-11316484D02*
X18898634Y-11316484D01*
X18898634Y-11316484D02*
X18879587Y-11306960D01*
X18879587Y-11306960D02*
X18870063Y-11297436D01*
X18870063Y-11297436D02*
X18860539Y-11278388D01*
X18860539Y-11278388D02*
X18851015Y-11240293D01*
X18851015Y-11240293D02*
X18851015Y-11192674D01*
X18851015Y-11192674D02*
X18860539Y-11154579D01*
X18860539Y-11154579D02*
X18870063Y-11135531D01*
X18870063Y-11135531D02*
X18879587Y-11126008D01*
X18879587Y-11126008D02*
X18898634Y-11116484D01*
X19051015Y-11297436D02*
X19060539Y-11306960D01*
X19060539Y-11306960D02*
X19051015Y-11316484D01*
X19051015Y-11316484D02*
X19041491Y-11306960D01*
X19041491Y-11306960D02*
X19051015Y-11297436D01*
X19051015Y-11297436D02*
X19051015Y-11316484D01*
X19184348Y-11116484D02*
X19203396Y-11116484D01*
X19203396Y-11116484D02*
X19222444Y-11126008D01*
X19222444Y-11126008D02*
X19231968Y-11135531D01*
X19231968Y-11135531D02*
X19241491Y-11154579D01*
X19241491Y-11154579D02*
X19251015Y-11192674D01*
X19251015Y-11192674D02*
X19251015Y-11240293D01*
X19251015Y-11240293D02*
X19241491Y-11278388D01*
X19241491Y-11278388D02*
X19231968Y-11297436D01*
X19231968Y-11297436D02*
X19222444Y-11306960D01*
X19222444Y-11306960D02*
X19203396Y-11316484D01*
X19203396Y-11316484D02*
X19184348Y-11316484D01*
X19184348Y-11316484D02*
X19165301Y-11306960D01*
X19165301Y-11306960D02*
X19155777Y-11297436D01*
X19155777Y-11297436D02*
X19146253Y-11278388D01*
X19146253Y-11278388D02*
X19136729Y-11240293D01*
X19136729Y-11240293D02*
X19136729Y-11192674D01*
X19136729Y-11192674D02*
X19146253Y-11154579D01*
X19146253Y-11154579D02*
X19155777Y-11135531D01*
X19155777Y-11135531D02*
X19165301Y-11126008D01*
X19165301Y-11126008D02*
X19184348Y-11116484D01*
X19441491Y-11316484D02*
X19327206Y-11316484D01*
X19384348Y-11316484D02*
X19384348Y-11116484D01*
X19384348Y-11116484D02*
X19365301Y-11145055D01*
X19365301Y-11145055D02*
X19346253Y-11164103D01*
X19346253Y-11164103D02*
X19327206Y-11173627D01*
X19622444Y-11116484D02*
X19527206Y-11116484D01*
X19527206Y-11116484D02*
X19517682Y-11211722D01*
X19517682Y-11211722D02*
X19527206Y-11202198D01*
X19527206Y-11202198D02*
X19546253Y-11192674D01*
X19546253Y-11192674D02*
X19593872Y-11192674D01*
X19593872Y-11192674D02*
X19612920Y-11202198D01*
X19612920Y-11202198D02*
X19622444Y-11211722D01*
X19622444Y-11211722D02*
X19631968Y-11230769D01*
X19631968Y-11230769D02*
X19631968Y-11278388D01*
X19631968Y-11278388D02*
X19622444Y-11297436D01*
X19622444Y-11297436D02*
X19612920Y-11306960D01*
X19612920Y-11306960D02*
X19593872Y-11316484D01*
X19593872Y-11316484D02*
X19546253Y-11316484D01*
X19546253Y-11316484D02*
X19527206Y-11306960D01*
X19527206Y-11306960D02*
X19517682Y-11297436D01*
X19698634Y-11116484D02*
X19831968Y-11116484D01*
X19831968Y-11116484D02*
X19746253Y-11316484D01*
X19898634Y-11116484D02*
X19898634Y-11154579D01*
X19974825Y-11116484D02*
X19974825Y-11154579D01*
X20270063Y-11392674D02*
X20260539Y-11383150D01*
X20260539Y-11383150D02*
X20241491Y-11354579D01*
X20241491Y-11354579D02*
X20231968Y-11335531D01*
X20231968Y-11335531D02*
X20222444Y-11306960D01*
X20222444Y-11306960D02*
X20212920Y-11259341D01*
X20212920Y-11259341D02*
X20212920Y-11221246D01*
X20212920Y-11221246D02*
X20222444Y-11173627D01*
X20222444Y-11173627D02*
X20231968Y-11145055D01*
X20231968Y-11145055D02*
X20241491Y-11126008D01*
X20241491Y-11126008D02*
X20260539Y-11097436D01*
X20260539Y-11097436D02*
X20270063Y-11087912D01*
X20431968Y-11116484D02*
X20393872Y-11116484D01*
X20393872Y-11116484D02*
X20374825Y-11126008D01*
X20374825Y-11126008D02*
X20365301Y-11135531D01*
X20365301Y-11135531D02*
X20346253Y-11164103D01*
X20346253Y-11164103D02*
X20336730Y-11202198D01*
X20336730Y-11202198D02*
X20336730Y-11278388D01*
X20336730Y-11278388D02*
X20346253Y-11297436D01*
X20346253Y-11297436D02*
X20355777Y-11306960D01*
X20355777Y-11306960D02*
X20374825Y-11316484D01*
X20374825Y-11316484D02*
X20412920Y-11316484D01*
X20412920Y-11316484D02*
X20431968Y-11306960D01*
X20431968Y-11306960D02*
X20441491Y-11297436D01*
X20441491Y-11297436D02*
X20451015Y-11278388D01*
X20451015Y-11278388D02*
X20451015Y-11230769D01*
X20451015Y-11230769D02*
X20441491Y-11211722D01*
X20441491Y-11211722D02*
X20431968Y-11202198D01*
X20431968Y-11202198D02*
X20412920Y-11192674D01*
X20412920Y-11192674D02*
X20374825Y-11192674D01*
X20374825Y-11192674D02*
X20355777Y-11202198D01*
X20355777Y-11202198D02*
X20346253Y-11211722D01*
X20346253Y-11211722D02*
X20336730Y-11230769D01*
X20517682Y-11116484D02*
X20641491Y-11116484D01*
X20641491Y-11116484D02*
X20574825Y-11192674D01*
X20574825Y-11192674D02*
X20603396Y-11192674D01*
X20603396Y-11192674D02*
X20622444Y-11202198D01*
X20622444Y-11202198D02*
X20631968Y-11211722D01*
X20631968Y-11211722D02*
X20641491Y-11230769D01*
X20641491Y-11230769D02*
X20641491Y-11278388D01*
X20641491Y-11278388D02*
X20631968Y-11297436D01*
X20631968Y-11297436D02*
X20622444Y-11306960D01*
X20622444Y-11306960D02*
X20603396Y-11316484D01*
X20603396Y-11316484D02*
X20546253Y-11316484D01*
X20546253Y-11316484D02*
X20527206Y-11306960D01*
X20527206Y-11306960D02*
X20517682Y-11297436D01*
X20879587Y-11316484D02*
X20879587Y-11116484D01*
X20965301Y-11316484D02*
X20965301Y-11211722D01*
X20965301Y-11211722D02*
X20955777Y-11192674D01*
X20955777Y-11192674D02*
X20936730Y-11183150D01*
X20936730Y-11183150D02*
X20908158Y-11183150D01*
X20908158Y-11183150D02*
X20889111Y-11192674D01*
X20889111Y-11192674D02*
X20879587Y-11202198D01*
X21089111Y-11316484D02*
X21070063Y-11306960D01*
X21070063Y-11306960D02*
X21060539Y-11297436D01*
X21060539Y-11297436D02*
X21051015Y-11278388D01*
X21051015Y-11278388D02*
X21051015Y-11221246D01*
X21051015Y-11221246D02*
X21060539Y-11202198D01*
X21060539Y-11202198D02*
X21070063Y-11192674D01*
X21070063Y-11192674D02*
X21089111Y-11183150D01*
X21089111Y-11183150D02*
X21117682Y-11183150D01*
X21117682Y-11183150D02*
X21136730Y-11192674D01*
X21136730Y-11192674D02*
X21146253Y-11202198D01*
X21146253Y-11202198D02*
X21155777Y-11221246D01*
X21155777Y-11221246D02*
X21155777Y-11278388D01*
X21155777Y-11278388D02*
X21146253Y-11297436D01*
X21146253Y-11297436D02*
X21136730Y-11306960D01*
X21136730Y-11306960D02*
X21117682Y-11316484D01*
X21117682Y-11316484D02*
X21089111Y-11316484D01*
X21270063Y-11316484D02*
X21251015Y-11306960D01*
X21251015Y-11306960D02*
X21241492Y-11287912D01*
X21241492Y-11287912D02*
X21241492Y-11116484D01*
X21422444Y-11306960D02*
X21403396Y-11316484D01*
X21403396Y-11316484D02*
X21365301Y-11316484D01*
X21365301Y-11316484D02*
X21346253Y-11306960D01*
X21346253Y-11306960D02*
X21336730Y-11287912D01*
X21336730Y-11287912D02*
X21336730Y-11211722D01*
X21336730Y-11211722D02*
X21346253Y-11192674D01*
X21346253Y-11192674D02*
X21365301Y-11183150D01*
X21365301Y-11183150D02*
X21403396Y-11183150D01*
X21403396Y-11183150D02*
X21422444Y-11192674D01*
X21422444Y-11192674D02*
X21431968Y-11211722D01*
X21431968Y-11211722D02*
X21431968Y-11230769D01*
X21431968Y-11230769D02*
X21336730Y-11249817D01*
X21508158Y-11306960D02*
X21527206Y-11316484D01*
X21527206Y-11316484D02*
X21565301Y-11316484D01*
X21565301Y-11316484D02*
X21584349Y-11306960D01*
X21584349Y-11306960D02*
X21593873Y-11287912D01*
X21593873Y-11287912D02*
X21593873Y-11278388D01*
X21593873Y-11278388D02*
X21584349Y-11259341D01*
X21584349Y-11259341D02*
X21565301Y-11249817D01*
X21565301Y-11249817D02*
X21536730Y-11249817D01*
X21536730Y-11249817D02*
X21517682Y-11240293D01*
X21517682Y-11240293D02*
X21508158Y-11221246D01*
X21508158Y-11221246D02*
X21508158Y-11211722D01*
X21508158Y-11211722D02*
X21517682Y-11192674D01*
X21517682Y-11192674D02*
X21536730Y-11183150D01*
X21536730Y-11183150D02*
X21565301Y-11183150D01*
X21565301Y-11183150D02*
X21584349Y-11192674D01*
X21660539Y-11392674D02*
X21670063Y-11383150D01*
X21670063Y-11383150D02*
X21689111Y-11354579D01*
X21689111Y-11354579D02*
X21698634Y-11335531D01*
X21698634Y-11335531D02*
X21708158Y-11306960D01*
X21708158Y-11306960D02*
X21717682Y-11259341D01*
X21717682Y-11259341D02*
X21717682Y-11221246D01*
X21717682Y-11221246D02*
X21708158Y-11173627D01*
X21708158Y-11173627D02*
X21698634Y-11145055D01*
X21698634Y-11145055D02*
X21689111Y-11126008D01*
X21689111Y-11126008D02*
X21670063Y-11097436D01*
X21670063Y-11097436D02*
X21660539Y-11087912D01*
D10*
X16695000Y-11489000D02*
G75*
G03*
X16695000Y-11489000I-50000J0D01*
G01*
D11*
X17060539Y-11580484D02*
X16946253Y-11580484D01*
X17003396Y-11580484D02*
X17003396Y-11380484D01*
X17003396Y-11380484D02*
X16984348Y-11409055D01*
X16984348Y-11409055D02*
X16965301Y-11428103D01*
X16965301Y-11428103D02*
X16946253Y-11437627D01*
X17146253Y-11561436D02*
X17155777Y-11570960D01*
X17155777Y-11570960D02*
X17146253Y-11580484D01*
X17146253Y-11580484D02*
X17136729Y-11570960D01*
X17136729Y-11570960D02*
X17146253Y-11561436D01*
X17146253Y-11561436D02*
X17146253Y-11580484D01*
X17279586Y-11380484D02*
X17298634Y-11380484D01*
X17298634Y-11380484D02*
X17317682Y-11390008D01*
X17317682Y-11390008D02*
X17327205Y-11399531D01*
X17327205Y-11399531D02*
X17336729Y-11418579D01*
X17336729Y-11418579D02*
X17346253Y-11456674D01*
X17346253Y-11456674D02*
X17346253Y-11504293D01*
X17346253Y-11504293D02*
X17336729Y-11542388D01*
X17336729Y-11542388D02*
X17327205Y-11561436D01*
X17327205Y-11561436D02*
X17317682Y-11570960D01*
X17317682Y-11570960D02*
X17298634Y-11580484D01*
X17298634Y-11580484D02*
X17279586Y-11580484D01*
X17279586Y-11580484D02*
X17260539Y-11570960D01*
X17260539Y-11570960D02*
X17251015Y-11561436D01*
X17251015Y-11561436D02*
X17241491Y-11542388D01*
X17241491Y-11542388D02*
X17231967Y-11504293D01*
X17231967Y-11504293D02*
X17231967Y-11456674D01*
X17231967Y-11456674D02*
X17241491Y-11418579D01*
X17241491Y-11418579D02*
X17251015Y-11399531D01*
X17251015Y-11399531D02*
X17260539Y-11390008D01*
X17260539Y-11390008D02*
X17279586Y-11380484D01*
X17470063Y-11380484D02*
X17489110Y-11380484D01*
X17489110Y-11380484D02*
X17508158Y-11390008D01*
X17508158Y-11390008D02*
X17517682Y-11399531D01*
X17517682Y-11399531D02*
X17527205Y-11418579D01*
X17527205Y-11418579D02*
X17536729Y-11456674D01*
X17536729Y-11456674D02*
X17536729Y-11504293D01*
X17536729Y-11504293D02*
X17527205Y-11542388D01*
X17527205Y-11542388D02*
X17517682Y-11561436D01*
X17517682Y-11561436D02*
X17508158Y-11570960D01*
X17508158Y-11570960D02*
X17489110Y-11580484D01*
X17489110Y-11580484D02*
X17470063Y-11580484D01*
X17470063Y-11580484D02*
X17451015Y-11570960D01*
X17451015Y-11570960D02*
X17441491Y-11561436D01*
X17441491Y-11561436D02*
X17431967Y-11542388D01*
X17431967Y-11542388D02*
X17422444Y-11504293D01*
X17422444Y-11504293D02*
X17422444Y-11456674D01*
X17422444Y-11456674D02*
X17431967Y-11418579D01*
X17431967Y-11418579D02*
X17441491Y-11399531D01*
X17441491Y-11399531D02*
X17451015Y-11390008D01*
X17451015Y-11390008D02*
X17470063Y-11380484D01*
X17660539Y-11380484D02*
X17679586Y-11380484D01*
X17679586Y-11380484D02*
X17698634Y-11390008D01*
X17698634Y-11390008D02*
X17708158Y-11399531D01*
X17708158Y-11399531D02*
X17717682Y-11418579D01*
X17717682Y-11418579D02*
X17727205Y-11456674D01*
X17727205Y-11456674D02*
X17727205Y-11504293D01*
X17727205Y-11504293D02*
X17717682Y-11542388D01*
X17717682Y-11542388D02*
X17708158Y-11561436D01*
X17708158Y-11561436D02*
X17698634Y-11570960D01*
X17698634Y-11570960D02*
X17679586Y-11580484D01*
X17679586Y-11580484D02*
X17660539Y-11580484D01*
X17660539Y-11580484D02*
X17641491Y-11570960D01*
X17641491Y-11570960D02*
X17631967Y-11561436D01*
X17631967Y-11561436D02*
X17622444Y-11542388D01*
X17622444Y-11542388D02*
X17612920Y-11504293D01*
X17612920Y-11504293D02*
X17612920Y-11456674D01*
X17612920Y-11456674D02*
X17622444Y-11418579D01*
X17622444Y-11418579D02*
X17631967Y-11399531D01*
X17631967Y-11399531D02*
X17641491Y-11390008D01*
X17641491Y-11390008D02*
X17660539Y-11380484D01*
X17812920Y-11580484D02*
X17812920Y-11447150D01*
X17812920Y-11466198D02*
X17822444Y-11456674D01*
X17822444Y-11456674D02*
X17841491Y-11447150D01*
X17841491Y-11447150D02*
X17870063Y-11447150D01*
X17870063Y-11447150D02*
X17889110Y-11456674D01*
X17889110Y-11456674D02*
X17898634Y-11475722D01*
X17898634Y-11475722D02*
X17898634Y-11580484D01*
X17898634Y-11475722D02*
X17908158Y-11456674D01*
X17908158Y-11456674D02*
X17927205Y-11447150D01*
X17927205Y-11447150D02*
X17955777Y-11447150D01*
X17955777Y-11447150D02*
X17974825Y-11456674D01*
X17974825Y-11456674D02*
X17984348Y-11475722D01*
X17984348Y-11475722D02*
X17984348Y-11580484D01*
X18079586Y-11580484D02*
X18079586Y-11447150D01*
X18079586Y-11466198D02*
X18089110Y-11456674D01*
X18089110Y-11456674D02*
X18108158Y-11447150D01*
X18108158Y-11447150D02*
X18136729Y-11447150D01*
X18136729Y-11447150D02*
X18155777Y-11456674D01*
X18155777Y-11456674D02*
X18165301Y-11475722D01*
X18165301Y-11475722D02*
X18165301Y-11580484D01*
X18165301Y-11475722D02*
X18174825Y-11456674D01*
X18174825Y-11456674D02*
X18193872Y-11447150D01*
X18193872Y-11447150D02*
X18222444Y-11447150D01*
X18222444Y-11447150D02*
X18241491Y-11456674D01*
X18241491Y-11456674D02*
X18251015Y-11475722D01*
X18251015Y-11475722D02*
X18251015Y-11580484D01*
X18641491Y-11370960D02*
X18470063Y-11628103D01*
X18898634Y-11380484D02*
X18917682Y-11380484D01*
X18917682Y-11380484D02*
X18936729Y-11390008D01*
X18936729Y-11390008D02*
X18946253Y-11399531D01*
X18946253Y-11399531D02*
X18955777Y-11418579D01*
X18955777Y-11418579D02*
X18965301Y-11456674D01*
X18965301Y-11456674D02*
X18965301Y-11504293D01*
X18965301Y-11504293D02*
X18955777Y-11542388D01*
X18955777Y-11542388D02*
X18946253Y-11561436D01*
X18946253Y-11561436D02*
X18936729Y-11570960D01*
X18936729Y-11570960D02*
X18917682Y-11580484D01*
X18917682Y-11580484D02*
X18898634Y-11580484D01*
X18898634Y-11580484D02*
X18879587Y-11570960D01*
X18879587Y-11570960D02*
X18870063Y-11561436D01*
X18870063Y-11561436D02*
X18860539Y-11542388D01*
X18860539Y-11542388D02*
X18851015Y-11504293D01*
X18851015Y-11504293D02*
X18851015Y-11456674D01*
X18851015Y-11456674D02*
X18860539Y-11418579D01*
X18860539Y-11418579D02*
X18870063Y-11399531D01*
X18870063Y-11399531D02*
X18879587Y-11390008D01*
X18879587Y-11390008D02*
X18898634Y-11380484D01*
X19051015Y-11561436D02*
X19060539Y-11570960D01*
X19060539Y-11570960D02*
X19051015Y-11580484D01*
X19051015Y-11580484D02*
X19041491Y-11570960D01*
X19041491Y-11570960D02*
X19051015Y-11561436D01*
X19051015Y-11561436D02*
X19051015Y-11580484D01*
X19184348Y-11380484D02*
X19203396Y-11380484D01*
X19203396Y-11380484D02*
X19222444Y-11390008D01*
X19222444Y-11390008D02*
X19231968Y-11399531D01*
X19231968Y-11399531D02*
X19241491Y-11418579D01*
X19241491Y-11418579D02*
X19251015Y-11456674D01*
X19251015Y-11456674D02*
X19251015Y-11504293D01*
X19251015Y-11504293D02*
X19241491Y-11542388D01*
X19241491Y-11542388D02*
X19231968Y-11561436D01*
X19231968Y-11561436D02*
X19222444Y-11570960D01*
X19222444Y-11570960D02*
X19203396Y-11580484D01*
X19203396Y-11580484D02*
X19184348Y-11580484D01*
X19184348Y-11580484D02*
X19165301Y-11570960D01*
X19165301Y-11570960D02*
X19155777Y-11561436D01*
X19155777Y-11561436D02*
X19146253Y-11542388D01*
X19146253Y-11542388D02*
X19136729Y-11504293D01*
X19136729Y-11504293D02*
X19136729Y-11456674D01*
X19136729Y-11456674D02*
X19146253Y-11418579D01*
X19146253Y-11418579D02*
X19155777Y-11399531D01*
X19155777Y-11399531D02*
X19165301Y-11390008D01*
X19165301Y-11390008D02*
X19184348Y-11380484D01*
X19317682Y-11380484D02*
X19441491Y-11380484D01*
X19441491Y-11380484D02*
X19374825Y-11456674D01*
X19374825Y-11456674D02*
X19403396Y-11456674D01*
X19403396Y-11456674D02*
X19422444Y-11466198D01*
X19422444Y-11466198D02*
X19431968Y-11475722D01*
X19431968Y-11475722D02*
X19441491Y-11494769D01*
X19441491Y-11494769D02*
X19441491Y-11542388D01*
X19441491Y-11542388D02*
X19431968Y-11561436D01*
X19431968Y-11561436D02*
X19422444Y-11570960D01*
X19422444Y-11570960D02*
X19403396Y-11580484D01*
X19403396Y-11580484D02*
X19346253Y-11580484D01*
X19346253Y-11580484D02*
X19327206Y-11570960D01*
X19327206Y-11570960D02*
X19317682Y-11561436D01*
X19536729Y-11580484D02*
X19574825Y-11580484D01*
X19574825Y-11580484D02*
X19593872Y-11570960D01*
X19593872Y-11570960D02*
X19603396Y-11561436D01*
X19603396Y-11561436D02*
X19622444Y-11532865D01*
X19622444Y-11532865D02*
X19631968Y-11494769D01*
X19631968Y-11494769D02*
X19631968Y-11418579D01*
X19631968Y-11418579D02*
X19622444Y-11399531D01*
X19622444Y-11399531D02*
X19612920Y-11390008D01*
X19612920Y-11390008D02*
X19593872Y-11380484D01*
X19593872Y-11380484D02*
X19555777Y-11380484D01*
X19555777Y-11380484D02*
X19536729Y-11390008D01*
X19536729Y-11390008D02*
X19527206Y-11399531D01*
X19527206Y-11399531D02*
X19517682Y-11418579D01*
X19517682Y-11418579D02*
X19517682Y-11466198D01*
X19517682Y-11466198D02*
X19527206Y-11485246D01*
X19527206Y-11485246D02*
X19536729Y-11494769D01*
X19536729Y-11494769D02*
X19555777Y-11504293D01*
X19555777Y-11504293D02*
X19593872Y-11504293D01*
X19593872Y-11504293D02*
X19612920Y-11494769D01*
X19612920Y-11494769D02*
X19622444Y-11485246D01*
X19622444Y-11485246D02*
X19631968Y-11466198D01*
X19803396Y-11447150D02*
X19803396Y-11580484D01*
X19755777Y-11370960D02*
X19708158Y-11513817D01*
X19708158Y-11513817D02*
X19831968Y-11513817D01*
X19898634Y-11380484D02*
X19898634Y-11418579D01*
X19974825Y-11380484D02*
X19974825Y-11418579D01*
X20270063Y-11656674D02*
X20260539Y-11647150D01*
X20260539Y-11647150D02*
X20241491Y-11618579D01*
X20241491Y-11618579D02*
X20231968Y-11599531D01*
X20231968Y-11599531D02*
X20222444Y-11570960D01*
X20222444Y-11570960D02*
X20212920Y-11523341D01*
X20212920Y-11523341D02*
X20212920Y-11485246D01*
X20212920Y-11485246D02*
X20222444Y-11437627D01*
X20222444Y-11437627D02*
X20231968Y-11409055D01*
X20231968Y-11409055D02*
X20241491Y-11390008D01*
X20241491Y-11390008D02*
X20260539Y-11361436D01*
X20260539Y-11361436D02*
X20270063Y-11351912D01*
X20327206Y-11380484D02*
X20451015Y-11380484D01*
X20451015Y-11380484D02*
X20384349Y-11456674D01*
X20384349Y-11456674D02*
X20412920Y-11456674D01*
X20412920Y-11456674D02*
X20431968Y-11466198D01*
X20431968Y-11466198D02*
X20441491Y-11475722D01*
X20441491Y-11475722D02*
X20451015Y-11494769D01*
X20451015Y-11494769D02*
X20451015Y-11542388D01*
X20451015Y-11542388D02*
X20441491Y-11561436D01*
X20441491Y-11561436D02*
X20431968Y-11570960D01*
X20431968Y-11570960D02*
X20412920Y-11580484D01*
X20412920Y-11580484D02*
X20355777Y-11580484D01*
X20355777Y-11580484D02*
X20336730Y-11570960D01*
X20336730Y-11570960D02*
X20327206Y-11561436D01*
X20527206Y-11399531D02*
X20536730Y-11390008D01*
X20536730Y-11390008D02*
X20555777Y-11380484D01*
X20555777Y-11380484D02*
X20603396Y-11380484D01*
X20603396Y-11380484D02*
X20622444Y-11390008D01*
X20622444Y-11390008D02*
X20631968Y-11399531D01*
X20631968Y-11399531D02*
X20641491Y-11418579D01*
X20641491Y-11418579D02*
X20641491Y-11437627D01*
X20641491Y-11437627D02*
X20631968Y-11466198D01*
X20631968Y-11466198D02*
X20517682Y-11580484D01*
X20517682Y-11580484D02*
X20641491Y-11580484D01*
X20879587Y-11580484D02*
X20879587Y-11380484D01*
X20965301Y-11580484D02*
X20965301Y-11475722D01*
X20965301Y-11475722D02*
X20955777Y-11456674D01*
X20955777Y-11456674D02*
X20936730Y-11447150D01*
X20936730Y-11447150D02*
X20908158Y-11447150D01*
X20908158Y-11447150D02*
X20889111Y-11456674D01*
X20889111Y-11456674D02*
X20879587Y-11466198D01*
X21089111Y-11580484D02*
X21070063Y-11570960D01*
X21070063Y-11570960D02*
X21060539Y-11561436D01*
X21060539Y-11561436D02*
X21051015Y-11542388D01*
X21051015Y-11542388D02*
X21051015Y-11485246D01*
X21051015Y-11485246D02*
X21060539Y-11466198D01*
X21060539Y-11466198D02*
X21070063Y-11456674D01*
X21070063Y-11456674D02*
X21089111Y-11447150D01*
X21089111Y-11447150D02*
X21117682Y-11447150D01*
X21117682Y-11447150D02*
X21136730Y-11456674D01*
X21136730Y-11456674D02*
X21146253Y-11466198D01*
X21146253Y-11466198D02*
X21155777Y-11485246D01*
X21155777Y-11485246D02*
X21155777Y-11542388D01*
X21155777Y-11542388D02*
X21146253Y-11561436D01*
X21146253Y-11561436D02*
X21136730Y-11570960D01*
X21136730Y-11570960D02*
X21117682Y-11580484D01*
X21117682Y-11580484D02*
X21089111Y-11580484D01*
X21270063Y-11580484D02*
X21251015Y-11570960D01*
X21251015Y-11570960D02*
X21241492Y-11551912D01*
X21241492Y-11551912D02*
X21241492Y-11380484D01*
X21422444Y-11570960D02*
X21403396Y-11580484D01*
X21403396Y-11580484D02*
X21365301Y-11580484D01*
X21365301Y-11580484D02*
X21346253Y-11570960D01*
X21346253Y-11570960D02*
X21336730Y-11551912D01*
X21336730Y-11551912D02*
X21336730Y-11475722D01*
X21336730Y-11475722D02*
X21346253Y-11456674D01*
X21346253Y-11456674D02*
X21365301Y-11447150D01*
X21365301Y-11447150D02*
X21403396Y-11447150D01*
X21403396Y-11447150D02*
X21422444Y-11456674D01*
X21422444Y-11456674D02*
X21431968Y-11475722D01*
X21431968Y-11475722D02*
X21431968Y-11494769D01*
X21431968Y-11494769D02*
X21336730Y-11513817D01*
X21508158Y-11570960D02*
X21527206Y-11580484D01*
X21527206Y-11580484D02*
X21565301Y-11580484D01*
X21565301Y-11580484D02*
X21584349Y-11570960D01*
X21584349Y-11570960D02*
X21593873Y-11551912D01*
X21593873Y-11551912D02*
X21593873Y-11542388D01*
X21593873Y-11542388D02*
X21584349Y-11523341D01*
X21584349Y-11523341D02*
X21565301Y-11513817D01*
X21565301Y-11513817D02*
X21536730Y-11513817D01*
X21536730Y-11513817D02*
X21517682Y-11504293D01*
X21517682Y-11504293D02*
X21508158Y-11485246D01*
X21508158Y-11485246D02*
X21508158Y-11475722D01*
X21508158Y-11475722D02*
X21517682Y-11456674D01*
X21517682Y-11456674D02*
X21536730Y-11447150D01*
X21536730Y-11447150D02*
X21565301Y-11447150D01*
X21565301Y-11447150D02*
X21584349Y-11456674D01*
X21660539Y-11656674D02*
X21670063Y-11647150D01*
X21670063Y-11647150D02*
X21689111Y-11618579D01*
X21689111Y-11618579D02*
X21698634Y-11599531D01*
X21698634Y-11599531D02*
X21708158Y-11570960D01*
X21708158Y-11570960D02*
X21717682Y-11523341D01*
X21717682Y-11523341D02*
X21717682Y-11485246D01*
X21717682Y-11485246D02*
X21708158Y-11437627D01*
X21708158Y-11437627D02*
X21698634Y-11409055D01*
X21698634Y-11409055D02*
X21689111Y-11390008D01*
X21689111Y-11390008D02*
X21670063Y-11361436D01*
X21670063Y-11361436D02*
X21660539Y-11351912D01*
M02*
