%TF.GenerationSoftware,KiCad,Pcbnew,7.0.7-2.fc38*%
%TF.CreationDate,2023-11-16T23:20:59-08:00*%
%TF.ProjectId,TinySparrow,54696e79-5370-4617-9272-6f772e6b6963,rev?*%
%TF.SameCoordinates,Original*%
%TF.FileFunction,Legend,Bot*%
%TF.FilePolarity,Positive*%
%FSLAX46Y46*%
G04 Gerber Fmt 4.6, Leading zero omitted, Abs format (unit mm)*
G04 Created by KiCad (PCBNEW 7.0.7-2.fc38) date 2023-11-16 23:20:59*
%MOMM*%
%LPD*%
G01*
G04 APERTURE LIST*
%ADD10C,0.150000*%
G04 APERTURE END LIST*
D10*
X185400000Y-91000000D02*
X193400000Y-91000000D01*
X193400000Y-93800000D01*
X185400000Y-93800000D01*
X185400000Y-91000000D01*
X192734649Y-92606533D02*
X192734649Y-93106533D01*
X192734649Y-93106533D02*
X192767982Y-93206533D01*
X192767982Y-93206533D02*
X192834649Y-93273200D01*
X192834649Y-93273200D02*
X192934649Y-93306533D01*
X192934649Y-93306533D02*
X193001316Y-93306533D01*
X192067983Y-93306533D02*
X192401316Y-93306533D01*
X192401316Y-93306533D02*
X192401316Y-92606533D01*
X191434649Y-93239866D02*
X191467982Y-93273200D01*
X191467982Y-93273200D02*
X191567982Y-93306533D01*
X191567982Y-93306533D02*
X191634649Y-93306533D01*
X191634649Y-93306533D02*
X191734649Y-93273200D01*
X191734649Y-93273200D02*
X191801316Y-93206533D01*
X191801316Y-93206533D02*
X191834649Y-93139866D01*
X191834649Y-93139866D02*
X191867982Y-93006533D01*
X191867982Y-93006533D02*
X191867982Y-92906533D01*
X191867982Y-92906533D02*
X191834649Y-92773200D01*
X191834649Y-92773200D02*
X191801316Y-92706533D01*
X191801316Y-92706533D02*
X191734649Y-92639866D01*
X191734649Y-92639866D02*
X191634649Y-92606533D01*
X191634649Y-92606533D02*
X191567982Y-92606533D01*
X191567982Y-92606533D02*
X191467982Y-92639866D01*
X191467982Y-92639866D02*
X191434649Y-92673200D01*
X190934649Y-92606533D02*
X190934649Y-93106533D01*
X190934649Y-93106533D02*
X190967982Y-93206533D01*
X190967982Y-93206533D02*
X191034649Y-93273200D01*
X191034649Y-93273200D02*
X191134649Y-93306533D01*
X191134649Y-93306533D02*
X191201316Y-93306533D01*
X190267983Y-93306533D02*
X190601316Y-93306533D01*
X190601316Y-93306533D02*
X190601316Y-92606533D01*
X189634649Y-93239866D02*
X189667982Y-93273200D01*
X189667982Y-93273200D02*
X189767982Y-93306533D01*
X189767982Y-93306533D02*
X189834649Y-93306533D01*
X189834649Y-93306533D02*
X189934649Y-93273200D01*
X189934649Y-93273200D02*
X190001316Y-93206533D01*
X190001316Y-93206533D02*
X190034649Y-93139866D01*
X190034649Y-93139866D02*
X190067982Y-93006533D01*
X190067982Y-93006533D02*
X190067982Y-92906533D01*
X190067982Y-92906533D02*
X190034649Y-92773200D01*
X190034649Y-92773200D02*
X190001316Y-92706533D01*
X190001316Y-92706533D02*
X189934649Y-92639866D01*
X189934649Y-92639866D02*
X189834649Y-92606533D01*
X189834649Y-92606533D02*
X189767982Y-92606533D01*
X189767982Y-92606533D02*
X189667982Y-92639866D01*
X189667982Y-92639866D02*
X189634649Y-92673200D01*
X189134649Y-92606533D02*
X189134649Y-93106533D01*
X189134649Y-93106533D02*
X189167982Y-93206533D01*
X189167982Y-93206533D02*
X189234649Y-93273200D01*
X189234649Y-93273200D02*
X189334649Y-93306533D01*
X189334649Y-93306533D02*
X189401316Y-93306533D01*
X188467983Y-93306533D02*
X188801316Y-93306533D01*
X188801316Y-93306533D02*
X188801316Y-92606533D01*
X187834649Y-93239866D02*
X187867982Y-93273200D01*
X187867982Y-93273200D02*
X187967982Y-93306533D01*
X187967982Y-93306533D02*
X188034649Y-93306533D01*
X188034649Y-93306533D02*
X188134649Y-93273200D01*
X188134649Y-93273200D02*
X188201316Y-93206533D01*
X188201316Y-93206533D02*
X188234649Y-93139866D01*
X188234649Y-93139866D02*
X188267982Y-93006533D01*
X188267982Y-93006533D02*
X188267982Y-92906533D01*
X188267982Y-92906533D02*
X188234649Y-92773200D01*
X188234649Y-92773200D02*
X188201316Y-92706533D01*
X188201316Y-92706533D02*
X188134649Y-92639866D01*
X188134649Y-92639866D02*
X188034649Y-92606533D01*
X188034649Y-92606533D02*
X187967982Y-92606533D01*
X187967982Y-92606533D02*
X187867982Y-92639866D01*
X187867982Y-92639866D02*
X187834649Y-92673200D01*
X187334649Y-92606533D02*
X187334649Y-93106533D01*
X187334649Y-93106533D02*
X187367982Y-93206533D01*
X187367982Y-93206533D02*
X187434649Y-93273200D01*
X187434649Y-93273200D02*
X187534649Y-93306533D01*
X187534649Y-93306533D02*
X187601316Y-93306533D01*
X186667983Y-93306533D02*
X187001316Y-93306533D01*
X187001316Y-93306533D02*
X187001316Y-92606533D01*
X186034649Y-93239866D02*
X186067982Y-93273200D01*
X186067982Y-93273200D02*
X186167982Y-93306533D01*
X186167982Y-93306533D02*
X186234649Y-93306533D01*
X186234649Y-93306533D02*
X186334649Y-93273200D01*
X186334649Y-93273200D02*
X186401316Y-93206533D01*
X186401316Y-93206533D02*
X186434649Y-93139866D01*
X186434649Y-93139866D02*
X186467982Y-93006533D01*
X186467982Y-93006533D02*
X186467982Y-92906533D01*
X186467982Y-92906533D02*
X186434649Y-92773200D01*
X186434649Y-92773200D02*
X186401316Y-92706533D01*
X186401316Y-92706533D02*
X186334649Y-92639866D01*
X186334649Y-92639866D02*
X186234649Y-92606533D01*
X186234649Y-92606533D02*
X186167982Y-92606533D01*
X186167982Y-92606533D02*
X186067982Y-92639866D01*
X186067982Y-92639866D02*
X186034649Y-92673200D01*
X183001316Y-95079533D02*
X182867982Y-95079533D01*
X182867982Y-95079533D02*
X182801316Y-95112866D01*
X182801316Y-95112866D02*
X182734649Y-95179533D01*
X182734649Y-95179533D02*
X182701316Y-95312866D01*
X182701316Y-95312866D02*
X182701316Y-95546200D01*
X182701316Y-95546200D02*
X182734649Y-95679533D01*
X182734649Y-95679533D02*
X182801316Y-95746200D01*
X182801316Y-95746200D02*
X182867982Y-95779533D01*
X182867982Y-95779533D02*
X183001316Y-95779533D01*
X183001316Y-95779533D02*
X183067982Y-95746200D01*
X183067982Y-95746200D02*
X183134649Y-95679533D01*
X183134649Y-95679533D02*
X183167982Y-95546200D01*
X183167982Y-95546200D02*
X183167982Y-95312866D01*
X183167982Y-95312866D02*
X183134649Y-95179533D01*
X183134649Y-95179533D02*
X183067982Y-95112866D01*
X183067982Y-95112866D02*
X183001316Y-95079533D01*
X182301316Y-95779533D02*
X182367983Y-95746200D01*
X182367983Y-95746200D02*
X182401316Y-95712866D01*
X182401316Y-95712866D02*
X182434649Y-95646200D01*
X182434649Y-95646200D02*
X182434649Y-95446200D01*
X182434649Y-95446200D02*
X182401316Y-95379533D01*
X182401316Y-95379533D02*
X182367983Y-95346200D01*
X182367983Y-95346200D02*
X182301316Y-95312866D01*
X182301316Y-95312866D02*
X182201316Y-95312866D01*
X182201316Y-95312866D02*
X182134649Y-95346200D01*
X182134649Y-95346200D02*
X182101316Y-95379533D01*
X182101316Y-95379533D02*
X182067983Y-95446200D01*
X182067983Y-95446200D02*
X182067983Y-95646200D01*
X182067983Y-95646200D02*
X182101316Y-95712866D01*
X182101316Y-95712866D02*
X182134649Y-95746200D01*
X182134649Y-95746200D02*
X182201316Y-95779533D01*
X182201316Y-95779533D02*
X182301316Y-95779533D01*
X181767983Y-95779533D02*
X181767983Y-95079533D01*
X181467983Y-95779533D02*
X181467983Y-95412866D01*
X181467983Y-95412866D02*
X181501316Y-95346200D01*
X181501316Y-95346200D02*
X181567983Y-95312866D01*
X181567983Y-95312866D02*
X181667983Y-95312866D01*
X181667983Y-95312866D02*
X181734650Y-95346200D01*
X181734650Y-95346200D02*
X181767983Y-95379533D01*
X180501317Y-95779533D02*
X180567984Y-95746200D01*
X180567984Y-95746200D02*
X180601317Y-95679533D01*
X180601317Y-95679533D02*
X180601317Y-95079533D01*
X180134650Y-95779533D02*
X180201317Y-95746200D01*
X180201317Y-95746200D02*
X180234650Y-95712866D01*
X180234650Y-95712866D02*
X180267983Y-95646200D01*
X180267983Y-95646200D02*
X180267983Y-95446200D01*
X180267983Y-95446200D02*
X180234650Y-95379533D01*
X180234650Y-95379533D02*
X180201317Y-95346200D01*
X180201317Y-95346200D02*
X180134650Y-95312866D01*
X180134650Y-95312866D02*
X180034650Y-95312866D01*
X180034650Y-95312866D02*
X179967983Y-95346200D01*
X179967983Y-95346200D02*
X179934650Y-95379533D01*
X179934650Y-95379533D02*
X179901317Y-95446200D01*
X179901317Y-95446200D02*
X179901317Y-95646200D01*
X179901317Y-95646200D02*
X179934650Y-95712866D01*
X179934650Y-95712866D02*
X179967983Y-95746200D01*
X179967983Y-95746200D02*
X180034650Y-95779533D01*
X180034650Y-95779533D02*
X180134650Y-95779533D01*
X179501317Y-95779533D02*
X179567984Y-95746200D01*
X179567984Y-95746200D02*
X179601317Y-95712866D01*
X179601317Y-95712866D02*
X179634650Y-95646200D01*
X179634650Y-95646200D02*
X179634650Y-95446200D01*
X179634650Y-95446200D02*
X179601317Y-95379533D01*
X179601317Y-95379533D02*
X179567984Y-95346200D01*
X179567984Y-95346200D02*
X179501317Y-95312866D01*
X179501317Y-95312866D02*
X179401317Y-95312866D01*
X179401317Y-95312866D02*
X179334650Y-95346200D01*
X179334650Y-95346200D02*
X179301317Y-95379533D01*
X179301317Y-95379533D02*
X179267984Y-95446200D01*
X179267984Y-95446200D02*
X179267984Y-95646200D01*
X179267984Y-95646200D02*
X179301317Y-95712866D01*
X179301317Y-95712866D02*
X179334650Y-95746200D01*
X179334650Y-95746200D02*
X179401317Y-95779533D01*
X179401317Y-95779533D02*
X179501317Y-95779533D01*
X178967984Y-95779533D02*
X178967984Y-95079533D01*
X178901317Y-95512866D02*
X178701317Y-95779533D01*
X178701317Y-95312866D02*
X178967984Y-95579533D01*
X183201316Y-96439866D02*
X183034649Y-96906533D01*
X183034649Y-96906533D02*
X182867982Y-96439866D01*
X182601316Y-96906533D02*
X182601316Y-96439866D01*
X182601316Y-96206533D02*
X182634649Y-96239866D01*
X182634649Y-96239866D02*
X182601316Y-96273200D01*
X182601316Y-96273200D02*
X182567983Y-96239866D01*
X182567983Y-96239866D02*
X182601316Y-96206533D01*
X182601316Y-96206533D02*
X182601316Y-96273200D01*
X181967983Y-96906533D02*
X181967983Y-96539866D01*
X181967983Y-96539866D02*
X182001316Y-96473200D01*
X182001316Y-96473200D02*
X182067983Y-96439866D01*
X182067983Y-96439866D02*
X182201316Y-96439866D01*
X182201316Y-96439866D02*
X182267983Y-96473200D01*
X181967983Y-96873200D02*
X182034650Y-96906533D01*
X182034650Y-96906533D02*
X182201316Y-96906533D01*
X182201316Y-96906533D02*
X182267983Y-96873200D01*
X182267983Y-96873200D02*
X182301316Y-96806533D01*
X182301316Y-96806533D02*
X182301316Y-96739866D01*
X182301316Y-96739866D02*
X182267983Y-96673200D01*
X182267983Y-96673200D02*
X182201316Y-96639866D01*
X182201316Y-96639866D02*
X182034650Y-96639866D01*
X182034650Y-96639866D02*
X181967983Y-96606533D01*
X181101317Y-96906533D02*
X181101317Y-96439866D01*
X181101317Y-96206533D02*
X181134650Y-96239866D01*
X181134650Y-96239866D02*
X181101317Y-96273200D01*
X181101317Y-96273200D02*
X181067984Y-96239866D01*
X181067984Y-96239866D02*
X181101317Y-96206533D01*
X181101317Y-96206533D02*
X181101317Y-96273200D01*
X180767984Y-96439866D02*
X180767984Y-96906533D01*
X180767984Y-96506533D02*
X180734651Y-96473200D01*
X180734651Y-96473200D02*
X180667984Y-96439866D01*
X180667984Y-96439866D02*
X180567984Y-96439866D01*
X180567984Y-96439866D02*
X180501317Y-96473200D01*
X180501317Y-96473200D02*
X180467984Y-96539866D01*
X180467984Y-96539866D02*
X180467984Y-96906533D01*
X179601318Y-96439866D02*
X179601318Y-97139866D01*
X179601318Y-96473200D02*
X179534651Y-96439866D01*
X179534651Y-96439866D02*
X179401318Y-96439866D01*
X179401318Y-96439866D02*
X179334651Y-96473200D01*
X179334651Y-96473200D02*
X179301318Y-96506533D01*
X179301318Y-96506533D02*
X179267985Y-96573200D01*
X179267985Y-96573200D02*
X179267985Y-96773200D01*
X179267985Y-96773200D02*
X179301318Y-96839866D01*
X179301318Y-96839866D02*
X179334651Y-96873200D01*
X179334651Y-96873200D02*
X179401318Y-96906533D01*
X179401318Y-96906533D02*
X179534651Y-96906533D01*
X179534651Y-96906533D02*
X179601318Y-96873200D01*
X178667985Y-96906533D02*
X178667985Y-96539866D01*
X178667985Y-96539866D02*
X178701318Y-96473200D01*
X178701318Y-96473200D02*
X178767985Y-96439866D01*
X178767985Y-96439866D02*
X178901318Y-96439866D01*
X178901318Y-96439866D02*
X178967985Y-96473200D01*
X178667985Y-96873200D02*
X178734652Y-96906533D01*
X178734652Y-96906533D02*
X178901318Y-96906533D01*
X178901318Y-96906533D02*
X178967985Y-96873200D01*
X178967985Y-96873200D02*
X179001318Y-96806533D01*
X179001318Y-96806533D02*
X179001318Y-96739866D01*
X179001318Y-96739866D02*
X178967985Y-96673200D01*
X178967985Y-96673200D02*
X178901318Y-96639866D01*
X178901318Y-96639866D02*
X178734652Y-96639866D01*
X178734652Y-96639866D02*
X178667985Y-96606533D01*
X178034652Y-96906533D02*
X178034652Y-96206533D01*
X178034652Y-96873200D02*
X178101319Y-96906533D01*
X178101319Y-96906533D02*
X178234652Y-96906533D01*
X178234652Y-96906533D02*
X178301319Y-96873200D01*
X178301319Y-96873200D02*
X178334652Y-96839866D01*
X178334652Y-96839866D02*
X178367985Y-96773200D01*
X178367985Y-96773200D02*
X178367985Y-96573200D01*
X178367985Y-96573200D02*
X178334652Y-96506533D01*
X178334652Y-96506533D02*
X178301319Y-96473200D01*
X178301319Y-96473200D02*
X178234652Y-96439866D01*
X178234652Y-96439866D02*
X178101319Y-96439866D01*
X178101319Y-96439866D02*
X178034652Y-96473200D01*
X177701319Y-96839866D02*
X177667986Y-96873200D01*
X177667986Y-96873200D02*
X177701319Y-96906533D01*
X177701319Y-96906533D02*
X177734652Y-96873200D01*
X177734652Y-96873200D02*
X177701319Y-96839866D01*
X177701319Y-96839866D02*
X177701319Y-96906533D01*
X177701319Y-96639866D02*
X177734652Y-96239866D01*
X177734652Y-96239866D02*
X177701319Y-96206533D01*
X177701319Y-96206533D02*
X177667986Y-96239866D01*
X177667986Y-96239866D02*
X177701319Y-96639866D01*
X177701319Y-96639866D02*
X177701319Y-96206533D01*
X192701316Y-91739866D02*
X192934649Y-91739866D01*
X192934649Y-92106533D02*
X192934649Y-91406533D01*
X192934649Y-91406533D02*
X192601316Y-91406533D01*
X192367982Y-91906533D02*
X192034649Y-91906533D01*
X192434649Y-92106533D02*
X192201316Y-91406533D01*
X192201316Y-91406533D02*
X191967982Y-92106533D01*
X191501316Y-91739866D02*
X191401316Y-91773200D01*
X191401316Y-91773200D02*
X191367982Y-91806533D01*
X191367982Y-91806533D02*
X191334649Y-91873200D01*
X191334649Y-91873200D02*
X191334649Y-91973200D01*
X191334649Y-91973200D02*
X191367982Y-92039866D01*
X191367982Y-92039866D02*
X191401316Y-92073200D01*
X191401316Y-92073200D02*
X191467982Y-92106533D01*
X191467982Y-92106533D02*
X191734649Y-92106533D01*
X191734649Y-92106533D02*
X191734649Y-91406533D01*
X191734649Y-91406533D02*
X191501316Y-91406533D01*
X191501316Y-91406533D02*
X191434649Y-91439866D01*
X191434649Y-91439866D02*
X191401316Y-91473200D01*
X191401316Y-91473200D02*
X191367982Y-91539866D01*
X191367982Y-91539866D02*
X191367982Y-91606533D01*
X191367982Y-91606533D02*
X191401316Y-91673200D01*
X191401316Y-91673200D02*
X191434649Y-91706533D01*
X191434649Y-91706533D02*
X191501316Y-91739866D01*
X191501316Y-91739866D02*
X191734649Y-91739866D01*
X190501316Y-92106533D02*
X190501316Y-91406533D01*
X190167983Y-92106533D02*
X190167983Y-91406533D01*
X190167983Y-91406533D02*
X190001316Y-91406533D01*
X190001316Y-91406533D02*
X189901316Y-91439866D01*
X189901316Y-91439866D02*
X189834650Y-91506533D01*
X189834650Y-91506533D02*
X189801316Y-91573200D01*
X189801316Y-91573200D02*
X189767983Y-91706533D01*
X189767983Y-91706533D02*
X189767983Y-91806533D01*
X189767983Y-91806533D02*
X189801316Y-91939866D01*
X189801316Y-91939866D02*
X189834650Y-92006533D01*
X189834650Y-92006533D02*
X189901316Y-92073200D01*
X189901316Y-92073200D02*
X190001316Y-92106533D01*
X190001316Y-92106533D02*
X190167983Y-92106533D01*
M02*
