%TF.GenerationSoftware,KiCad,Pcbnew,7.0.7-2.fc38*%
%TF.CreationDate,2023-11-16T23:20:57-08:00*%
%TF.ProjectId,TinySparrow,54696e79-5370-4617-9272-6f772e6b6963,rev?*%
%TF.SameCoordinates,Original*%
%TF.FileFunction,Copper,L1,Top*%
%TF.FilePolarity,Positive*%
%FSLAX46Y46*%
G04 Gerber Fmt 4.6, Leading zero omitted, Abs format (unit mm)*
G04 Created by KiCad (PCBNEW 7.0.7-2.fc38) date 2023-11-16 23:20:57*
%MOMM*%
%LPD*%
G01*
G04 APERTURE LIST*
G04 Aperture macros list*
%AMRoundRect*
0 Rectangle with rounded corners*
0 $1 Rounding radius*
0 $2 $3 $4 $5 $6 $7 $8 $9 X,Y pos of 4 corners*
0 Add a 4 corners polygon primitive as box body*
4,1,4,$2,$3,$4,$5,$6,$7,$8,$9,$2,$3,0*
0 Add four circle primitives for the rounded corners*
1,1,$1+$1,$2,$3*
1,1,$1+$1,$4,$5*
1,1,$1+$1,$6,$7*
1,1,$1+$1,$8,$9*
0 Add four rect primitives between the rounded corners*
20,1,$1+$1,$2,$3,$4,$5,0*
20,1,$1+$1,$4,$5,$6,$7,0*
20,1,$1+$1,$6,$7,$8,$9,0*
20,1,$1+$1,$8,$9,$2,$3,0*%
%AMRotRect*
0 Rectangle, with rotation*
0 The origin of the aperture is its center*
0 $1 length*
0 $2 width*
0 $3 Rotation angle, in degrees counterclockwise*
0 Add horizontal line*
21,1,$1,$2,0,0,$3*%
G04 Aperture macros list end*
%TA.AperFunction,SMDPad,CuDef*%
%ADD10RoundRect,0.250000X0.250000X0.475000X-0.250000X0.475000X-0.250000X-0.475000X0.250000X-0.475000X0*%
%TD*%
%TA.AperFunction,SMDPad,CuDef*%
%ADD11RoundRect,0.062500X-0.291682X-0.380070X0.380070X0.291682X0.291682X0.380070X-0.380070X-0.291682X0*%
%TD*%
%TA.AperFunction,SMDPad,CuDef*%
%ADD12RoundRect,0.062500X0.291682X-0.380070X0.380070X-0.291682X-0.291682X0.380070X-0.380070X0.291682X0*%
%TD*%
%TA.AperFunction,SMDPad,CuDef*%
%ADD13RotRect,4.100000X4.100000X45.000000*%
%TD*%
%TA.AperFunction,SMDPad,CuDef*%
%ADD14R,2.000000X2.000000*%
%TD*%
%TA.AperFunction,SMDPad,CuDef*%
%ADD15RoundRect,0.225000X0.225000X0.250000X-0.225000X0.250000X-0.225000X-0.250000X0.225000X-0.250000X0*%
%TD*%
%TA.AperFunction,SMDPad,CuDef*%
%ADD16RoundRect,0.225000X-0.250000X0.225000X-0.250000X-0.225000X0.250000X-0.225000X0.250000X0.225000X0*%
%TD*%
%TA.AperFunction,SMDPad,CuDef*%
%ADD17RoundRect,0.225000X0.250000X-0.225000X0.250000X0.225000X-0.250000X0.225000X-0.250000X-0.225000X0*%
%TD*%
%TA.AperFunction,SMDPad,CuDef*%
%ADD18RoundRect,0.225000X-0.225000X-0.250000X0.225000X-0.250000X0.225000X0.250000X-0.225000X0.250000X0*%
%TD*%
%TA.AperFunction,SMDPad,CuDef*%
%ADD19R,1.500000X2.000000*%
%TD*%
%TA.AperFunction,SMDPad,CuDef*%
%ADD20R,3.800000X2.000000*%
%TD*%
%TA.AperFunction,ComponentPad*%
%ADD21R,1.700000X1.700000*%
%TD*%
%TA.AperFunction,ComponentPad*%
%ADD22O,1.700000X1.700000*%
%TD*%
%TA.AperFunction,SMDPad,CuDef*%
%ADD23RoundRect,0.150000X0.825000X0.150000X-0.825000X0.150000X-0.825000X-0.150000X0.825000X-0.150000X0*%
%TD*%
%TA.AperFunction,ViaPad*%
%ADD24C,0.800000*%
%TD*%
%TA.AperFunction,Conductor*%
%ADD25C,0.250000*%
%TD*%
%TA.AperFunction,Conductor*%
%ADD26C,1.500000*%
%TD*%
%TA.AperFunction,Conductor*%
%ADD27C,0.400000*%
%TD*%
%TA.AperFunction,Conductor*%
%ADD28C,1.000000*%
%TD*%
%TA.AperFunction,Conductor*%
%ADD29C,2.000000*%
%TD*%
G04 APERTURE END LIST*
D10*
%TO.P,C6,1*%
%TO.N,+3V3*%
X187400000Y-93200000D03*
%TO.P,C6,2*%
%TO.N,GND*%
X185500000Y-93200000D03*
%TD*%
D11*
%TO.P,U1,1,VDD*%
%TO.N,+3V3*%
X177748107Y-99360938D03*
%TO.P,U1,2,PD0*%
%TO.N,/PD0*%
X178101660Y-99714491D03*
%TO.P,U1,3,PD1*%
%TO.N,/PD1*%
X178455214Y-100068045D03*
%TO.P,U1,4,NRST*%
%TO.N,/~{RESET}*%
X178808767Y-100421598D03*
%TO.P,U1,5,VSSA*%
%TO.N,GND*%
X179162321Y-100775151D03*
%TO.P,U1,6,VDDA*%
%TO.N,+3V3*%
X179515874Y-101128705D03*
%TO.P,U1,7,PA0*%
%TO.N,/PA0*%
X179869427Y-101482258D03*
%TO.P,U1,8,PA1*%
%TO.N,/PA1*%
X180222981Y-101835812D03*
%TO.P,U1,9,PA2*%
%TO.N,/PA2*%
X180576534Y-102189365D03*
D12*
%TO.P,U1,10,PA3*%
%TO.N,/PA3*%
X181760938Y-102189365D03*
%TO.P,U1,11,PA4*%
%TO.N,/PA4*%
X182114491Y-101835812D03*
%TO.P,U1,12,PA5*%
%TO.N,/PA5*%
X182468045Y-101482258D03*
%TO.P,U1,13,PA6*%
%TO.N,/PA6*%
X182821598Y-101128705D03*
%TO.P,U1,14,PA7*%
%TO.N,/PA7*%
X183175151Y-100775151D03*
%TO.P,U1,15,PB0*%
%TO.N,/PB0*%
X183528705Y-100421598D03*
%TO.P,U1,16,PB1*%
%TO.N,/PB1*%
X183882258Y-100068045D03*
%TO.P,U1,17,PB2*%
%TO.N,/PB2*%
X184235812Y-99714491D03*
%TO.P,U1,18,VSS*%
%TO.N,GND*%
X184589365Y-99360938D03*
D11*
%TO.P,U1,19,VDD*%
%TO.N,+3V3*%
X184589365Y-98176534D03*
%TO.P,U1,20,PA8*%
%TO.N,/PA8*%
X184235812Y-97822981D03*
%TO.P,U1,21,PA9*%
%TO.N,/PA9*%
X183882258Y-97469427D03*
%TO.P,U1,22,PA10*%
%TO.N,/PA10*%
X183528705Y-97115874D03*
%TO.P,U1,23,PA11*%
%TO.N,/CANRX*%
X183175151Y-96762321D03*
%TO.P,U1,24,PA12*%
%TO.N,/CANTX*%
X182821598Y-96408767D03*
%TO.P,U1,25,PA13*%
%TO.N,/SWDIO*%
X182468045Y-96055214D03*
%TO.P,U1,26,VSS*%
%TO.N,GND*%
X182114491Y-95701660D03*
%TO.P,U1,27,VDD*%
%TO.N,+3V3*%
X181760938Y-95348107D03*
D12*
%TO.P,U1,28,PA14*%
%TO.N,/SWCLK*%
X180576534Y-95348107D03*
%TO.P,U1,29,PA15*%
%TO.N,/PA15*%
X180222981Y-95701660D03*
%TO.P,U1,30,PB3*%
%TO.N,/PB3*%
X179869427Y-96055214D03*
%TO.P,U1,31,PB4*%
%TO.N,/PB4*%
X179515874Y-96408767D03*
%TO.P,U1,32,PB5*%
%TO.N,/PB5*%
X179162321Y-96762321D03*
%TO.P,U1,33,PB6*%
%TO.N,/PB6*%
X178808767Y-97115874D03*
%TO.P,U1,34,PB7*%
%TO.N,/PB7*%
X178455214Y-97469427D03*
%TO.P,U1,35,BOOT0*%
%TO.N,GND*%
X178101660Y-97822981D03*
%TO.P,U1,36,VSS*%
X177748107Y-98176534D03*
D13*
%TO.P,U1,37,VSS*%
X181168736Y-98768736D03*
%TD*%
D14*
%TO.P,D1,1,K*%
%TO.N,/VDC_AFD*%
X191600000Y-97800102D03*
%TO.P,D1,2,A*%
%TO.N,VDC*%
X191600000Y-102199898D03*
%TD*%
D15*
%TO.P,C5,1*%
%TO.N,+3V3*%
X182200000Y-89200000D03*
%TO.P,C5,2*%
%TO.N,GND*%
X180650000Y-89200000D03*
%TD*%
%TO.P,C2,1*%
%TO.N,GND*%
X182000000Y-104800000D03*
%TO.P,C2,2*%
%TO.N,+3V3*%
X180450000Y-104800000D03*
%TD*%
D16*
%TO.P,C4,1*%
%TO.N,GND*%
X175200000Y-98825000D03*
%TO.P,C4,2*%
%TO.N,+3V3*%
X175200000Y-100375000D03*
%TD*%
D17*
%TO.P,C3,1*%
%TO.N,GND*%
X187400000Y-99550000D03*
%TO.P,C3,2*%
%TO.N,+3V3*%
X187400000Y-98000000D03*
%TD*%
D10*
%TO.P,C7,1*%
%TO.N,GND*%
X191700000Y-93200000D03*
%TO.P,C7,2*%
%TO.N,/VDC_AFD*%
X189800000Y-93200000D03*
%TD*%
D18*
%TO.P,C1,1*%
%TO.N,GND*%
X180450000Y-92600000D03*
%TO.P,C1,2*%
%TO.N,+3V3*%
X182000000Y-92600000D03*
%TD*%
D19*
%TO.P,U2,1,GND*%
%TO.N,GND*%
X186100000Y-90550000D03*
%TO.P,U2,2,VO*%
%TO.N,+3V3*%
X188400000Y-90550000D03*
D20*
X188400000Y-84250000D03*
D19*
%TO.P,U2,3,VI*%
%TO.N,/VDC_AFD*%
X190700000Y-90550000D03*
%TD*%
D21*
%TO.P,J1,1,Pin_1*%
%TO.N,/CANL*%
X172450000Y-84620000D03*
D22*
%TO.P,J1,2,Pin_2*%
%TO.N,GND*%
X169910000Y-84620000D03*
%TO.P,J1,3,Pin_3*%
%TO.N,/CANH*%
X172450000Y-87160000D03*
%TO.P,J1,4,Pin_4*%
%TO.N,/PA0*%
X169910000Y-87160000D03*
%TO.P,J1,5,Pin_5*%
%TO.N,GND*%
X172450000Y-89700000D03*
%TO.P,J1,6,Pin_6*%
%TO.N,/~{RESET}*%
X169910000Y-89700000D03*
%TO.P,J1,7,Pin_7*%
%TO.N,/SWDIO*%
X172450000Y-92240000D03*
%TO.P,J1,8,Pin_8*%
%TO.N,/SWCLK*%
X169910000Y-92240000D03*
%TO.P,J1,9,Pin_9*%
%TO.N,/PA15*%
X172450000Y-94780000D03*
%TO.P,J1,10,Pin_10*%
%TO.N,/PB3*%
X169910000Y-94780000D03*
%TO.P,J1,11,Pin_11*%
%TO.N,/PB4*%
X172450000Y-97320000D03*
%TO.P,J1,12,Pin_12*%
%TO.N,/PB5*%
X169910000Y-97320000D03*
%TO.P,J1,13,Pin_13*%
%TO.N,/PB6*%
X172450000Y-99860000D03*
%TO.P,J1,14,Pin_14*%
%TO.N,/PB7*%
X169910000Y-99860000D03*
%TO.P,J1,15,Pin_15*%
%TO.N,/PD0*%
X172450000Y-102400000D03*
%TO.P,J1,16,Pin_16*%
%TO.N,/PD1*%
X169910000Y-102400000D03*
%TD*%
D23*
%TO.P,U3,1,D*%
%TO.N,/CANTX*%
X181675000Y-87505000D03*
%TO.P,U3,2,GND*%
%TO.N,GND*%
X181675000Y-86235000D03*
%TO.P,U3,3,VCC*%
%TO.N,+3V3*%
X181675000Y-84965000D03*
%TO.P,U3,4,R*%
%TO.N,/CANRX*%
X181675000Y-83695000D03*
%TO.P,U3,5,Vref*%
%TO.N,unconnected-(U3-Vref-Pad5)*%
X176725000Y-83695000D03*
%TO.P,U3,6,CANL*%
%TO.N,/CANL*%
X176725000Y-84965000D03*
%TO.P,U3,7,CANH*%
%TO.N,/CANH*%
X176725000Y-86235000D03*
%TO.P,U3,8,Rs*%
%TO.N,GND*%
X176725000Y-87505000D03*
%TD*%
D21*
%TO.P,J2,1,Pin_1*%
%TO.N,/PA8*%
X197850000Y-84620000D03*
D22*
%TO.P,J2,2,Pin_2*%
%TO.N,+3V3*%
X195310000Y-84620000D03*
%TO.P,J2,3,Pin_3*%
%TO.N,/PA9*%
X197850000Y-87160000D03*
%TO.P,J2,4,Pin_4*%
%TO.N,/PA10*%
X195310000Y-87160000D03*
%TO.P,J2,5,Pin_5*%
%TO.N,/PB1*%
X197850000Y-89700000D03*
%TO.P,J2,6,Pin_6*%
%TO.N,/PB2*%
X195310000Y-89700000D03*
%TO.P,J2,7,Pin_7*%
%TO.N,/PA7*%
X197850000Y-92240000D03*
%TO.P,J2,8,Pin_8*%
%TO.N,/PB0*%
X195310000Y-92240000D03*
%TO.P,J2,9,Pin_9*%
%TO.N,/PA2*%
X197850000Y-94780000D03*
%TO.P,J2,10,Pin_10*%
%TO.N,/PA1*%
X195310000Y-94780000D03*
%TO.P,J2,11,Pin_11*%
%TO.N,/PA4*%
X197850000Y-97320000D03*
%TO.P,J2,12,Pin_12*%
%TO.N,/PA3*%
X195310000Y-97320000D03*
%TO.P,J2,13,Pin_13*%
%TO.N,/PA6*%
X197850000Y-99860000D03*
%TO.P,J2,14,Pin_14*%
%TO.N,/PA5*%
X195310000Y-99860000D03*
%TO.P,J2,15,Pin_15*%
%TO.N,VDC*%
X197850000Y-102400000D03*
%TO.P,J2,16,Pin_16*%
X195310000Y-102400000D03*
%TD*%
D24*
%TO.N,GND*%
X175000000Y-91200000D03*
X183800000Y-92600000D03*
X200400000Y-96200000D03*
X172200000Y-105200000D03*
X169200000Y-105200000D03*
X171200000Y-105200000D03*
X200400000Y-97200000D03*
X177000000Y-91200000D03*
X181200000Y-97800000D03*
X181200000Y-98800000D03*
X177000000Y-90200000D03*
X176600000Y-98800000D03*
X200400000Y-95200000D03*
X181200000Y-99800000D03*
X175000000Y-89200000D03*
X182200000Y-98800000D03*
X175000000Y-90200000D03*
X170200000Y-105200000D03*
X176000000Y-90200000D03*
X200400000Y-98200000D03*
X200400000Y-100200000D03*
X180200000Y-98800000D03*
X177000000Y-89200000D03*
X176000000Y-91200000D03*
X200400000Y-102200000D03*
X176000000Y-89200000D03*
X200400000Y-99200000D03*
X200400000Y-101200000D03*
%TO.N,+3V3*%
X190000000Y-88200000D03*
X184200000Y-85000000D03*
X178400000Y-104800000D03*
X187400000Y-97000000D03*
X174400000Y-101400000D03*
X187000000Y-88200000D03*
X188000000Y-87200000D03*
X188000000Y-88200000D03*
X189000000Y-87200000D03*
X184200000Y-84000000D03*
X190000000Y-87200000D03*
X187000000Y-87200000D03*
X189000000Y-88200000D03*
X182000000Y-90800000D03*
%TO.N,/~{RESET}*%
X175600000Y-104000000D03*
%TO.N,/PA0*%
X178200497Y-103400000D03*
%TO.N,/PA1*%
X179200000Y-103400000D03*
%TO.N,/PA2*%
X180200000Y-103400000D03*
%TO.N,/PA3*%
X183388000Y-104648000D03*
%TO.N,/PA4*%
X184387503Y-104648000D03*
%TO.N,/PA5*%
X185420000Y-104648000D03*
%TO.N,/PA6*%
X186418306Y-104599103D03*
%TO.N,/PA7*%
X189152966Y-102632142D03*
%TO.N,/PB0*%
X188157582Y-102541500D03*
%TO.N,/PB1*%
X189213503Y-101092000D03*
%TO.N,/PB2*%
X188214000Y-101092000D03*
%TO.N,/PA8*%
X186000000Y-97200000D03*
%TO.N,/PA9*%
X188800000Y-97000000D03*
%TO.N,/PA10*%
X188812299Y-95987701D03*
%TO.N,/CANRX*%
X179800000Y-83800000D03*
X185200000Y-95263201D03*
%TO.N,/CANTX*%
X179800000Y-87600000D03*
X184200000Y-94600000D03*
%TO.N,/SWDIO*%
X183200000Y-94400000D03*
%TO.N,/PB7*%
X176400000Y-96524500D03*
%TD*%
D25*
%TO.N,GND*%
X181344104Y-98944104D02*
X182055896Y-98944104D01*
X181200000Y-98800000D02*
X181344104Y-98944104D01*
X181168736Y-97831264D02*
X181168736Y-98768736D01*
X176800000Y-104600000D02*
X176200000Y-105200000D01*
X179162321Y-100775151D02*
X181168736Y-98768736D01*
X175200000Y-98825000D02*
X176575000Y-98825000D01*
X181168736Y-96647415D02*
X181168736Y-97768736D01*
X181168736Y-98768736D02*
X181200000Y-98800000D01*
X176800000Y-103137472D02*
X176800000Y-104600000D01*
X181168736Y-98768736D02*
X180231264Y-98768736D01*
D26*
X186100000Y-90550000D02*
X185500000Y-91150000D01*
D25*
X182055896Y-98944104D02*
X182200000Y-98800000D01*
X182200000Y-98800000D02*
X182344104Y-98944104D01*
X176200000Y-105200000D02*
X172200000Y-105200000D01*
D27*
X178000000Y-89200000D02*
X177000000Y-90200000D01*
D25*
X182344104Y-98944104D02*
X184172531Y-98944104D01*
D27*
X179165000Y-86235000D02*
X181675000Y-86235000D01*
X180650000Y-89200000D02*
X178000000Y-89200000D01*
D25*
X179047415Y-98768736D02*
X178101660Y-97822981D01*
X181168736Y-98768736D02*
X180993368Y-98593368D01*
X181200000Y-97800000D02*
X181168736Y-97831264D01*
X181168736Y-97768736D02*
X181200000Y-97800000D01*
X182114491Y-95701660D02*
X181168736Y-96647415D01*
X180168736Y-98768736D02*
X179047415Y-98768736D01*
X180231264Y-98768736D02*
X180200000Y-98800000D01*
D27*
X176725000Y-87505000D02*
X177895000Y-87505000D01*
D25*
X180993368Y-98593368D02*
X178164941Y-98593368D01*
X180200000Y-98800000D02*
X180168736Y-98768736D01*
X184172531Y-98944104D02*
X184589365Y-99360938D01*
X176575000Y-98825000D02*
X176600000Y-98800000D01*
D26*
X185500000Y-91150000D02*
X185500000Y-93200000D01*
D25*
X179162321Y-100775151D02*
X176800000Y-103137472D01*
D27*
X177895000Y-87505000D02*
X179165000Y-86235000D01*
D25*
X178164941Y-98593368D02*
X177748107Y-98176534D01*
%TO.N,+3V3*%
X181975000Y-92400000D02*
X181975000Y-95134045D01*
D28*
X188400000Y-92200000D02*
X188400000Y-90550000D01*
D25*
X181975000Y-92400000D02*
X181975000Y-90825000D01*
X184765899Y-98000000D02*
X184589365Y-98176534D01*
X178217547Y-102357645D02*
X177475497Y-103099695D01*
X179515874Y-101128705D02*
X179515874Y-101199415D01*
X178400000Y-104800000D02*
X180450000Y-104800000D01*
X177475497Y-103875497D02*
X178400000Y-104800000D01*
X181975000Y-95134045D02*
X181760938Y-95348107D01*
X181975000Y-90825000D02*
X182000000Y-90800000D01*
X182000000Y-89400000D02*
X182200000Y-89200000D01*
X175200000Y-100375000D02*
X176734045Y-100375000D01*
X176734045Y-100375000D02*
X177748107Y-99360938D01*
X187400000Y-98000000D02*
X187400000Y-97000000D01*
X175200000Y-100375000D02*
X175200000Y-100600000D01*
X177475497Y-103099695D02*
X177475497Y-103875497D01*
X179515874Y-101199415D02*
X178357644Y-102357645D01*
X175200000Y-100600000D02*
X174400000Y-101400000D01*
X187400000Y-98000000D02*
X184765899Y-98000000D01*
D28*
X187400000Y-93200000D02*
X188400000Y-92200000D01*
D25*
X178357644Y-102357645D02*
X178217547Y-102357645D01*
X182000000Y-90800000D02*
X182000000Y-89400000D01*
%TO.N,/PD0*%
X178101660Y-99714491D02*
X175416151Y-102400000D01*
X175416151Y-102400000D02*
X172450000Y-102400000D01*
%TO.N,/PD1*%
X178455214Y-100068045D02*
X174948259Y-103575000D01*
X171085000Y-103575000D02*
X169910000Y-102400000D01*
X174948259Y-103575000D02*
X171085000Y-103575000D01*
%TO.N,/~{RESET}*%
X175600000Y-103630365D02*
X175600000Y-104000000D01*
X178808767Y-100421598D02*
X175600000Y-103630365D01*
%TO.N,/PA0*%
X179869427Y-101482258D02*
X178200497Y-103151188D01*
X178200497Y-103151188D02*
X178200497Y-103400000D01*
%TO.N,/PA1*%
X180222981Y-101835812D02*
X179200000Y-102858793D01*
X179200000Y-102858793D02*
X179200000Y-103400000D01*
%TO.N,/PA2*%
X180576534Y-103023466D02*
X180200000Y-103400000D01*
X180576534Y-102189365D02*
X180576534Y-103023466D01*
%TO.N,/PA3*%
X183388000Y-103816427D02*
X183388000Y-104648000D01*
X181760938Y-102189365D02*
X183388000Y-103816427D01*
%TO.N,/PA4*%
X184387503Y-104108824D02*
X184387503Y-104648000D01*
X182114491Y-101835812D02*
X184387503Y-104108824D01*
%TO.N,/PA5*%
X185420000Y-104434213D02*
X185420000Y-104648000D01*
X182468045Y-101482258D02*
X185420000Y-104434213D01*
%TO.N,/PA6*%
X185409393Y-103716500D02*
X185535703Y-103716500D01*
X185535703Y-103716500D02*
X186418306Y-104599103D01*
X182821598Y-101128705D02*
X185409393Y-103716500D01*
%TO.N,/PA7*%
X185666500Y-103266500D02*
X188518608Y-103266500D01*
X183175151Y-100775151D02*
X185666500Y-103266500D01*
X188518608Y-103266500D02*
X189152966Y-102632142D01*
%TO.N,/PB0*%
X185648607Y-102541500D02*
X188157582Y-102541500D01*
X183528705Y-100421598D02*
X185648607Y-102541500D01*
%TO.N,/PB1*%
X189213503Y-101356779D02*
X189213503Y-101092000D01*
X185631213Y-101817000D02*
X188753282Y-101817000D01*
X183882258Y-100068045D02*
X185631213Y-101817000D01*
X188753282Y-101817000D02*
X189213503Y-101356779D01*
%TO.N,/PB2*%
X185613321Y-101092000D02*
X188214000Y-101092000D01*
X184235812Y-99714491D02*
X185613321Y-101092000D01*
%TO.N,/PA8*%
X184858793Y-97200000D02*
X186000000Y-97200000D01*
X184235812Y-97822981D02*
X184858793Y-97200000D01*
%TO.N,/PA9*%
X185961396Y-96475000D02*
X186586396Y-95850000D01*
X184876685Y-96475000D02*
X185961396Y-96475000D01*
X183882258Y-97469427D02*
X184876685Y-96475000D01*
X186586396Y-95850000D02*
X187650000Y-95850000D01*
X187650000Y-95850000D02*
X188800000Y-97000000D01*
%TO.N,/PA10*%
X188224598Y-95400000D02*
X188812299Y-95987701D01*
X184656878Y-95987701D02*
X185812299Y-95987701D01*
X183528705Y-97115874D02*
X184656878Y-95987701D01*
X186400000Y-95400000D02*
X188224598Y-95400000D01*
X185812299Y-95987701D02*
X186400000Y-95400000D01*
%TO.N,/CANRX*%
X179800000Y-83800000D02*
X181570000Y-83800000D01*
X184674271Y-95263201D02*
X185200000Y-95263201D01*
X183175151Y-96762321D02*
X184674271Y-95263201D01*
X181570000Y-83800000D02*
X181675000Y-83695000D01*
%TO.N,/CANTX*%
X179800000Y-87600000D02*
X181580000Y-87600000D01*
X181580000Y-87600000D02*
X181675000Y-87505000D01*
X182821598Y-96408767D02*
X184200000Y-95030365D01*
X184200000Y-95030365D02*
X184200000Y-94600000D01*
%TO.N,/SWDIO*%
X183200000Y-95323259D02*
X183200000Y-94400000D01*
X182468045Y-96055214D02*
X183200000Y-95323259D01*
%TO.N,/SWCLK*%
X178643427Y-93415000D02*
X171085000Y-93415000D01*
X171085000Y-93415000D02*
X169910000Y-92240000D01*
X180576534Y-95348107D02*
X178643427Y-93415000D01*
%TO.N,/PA15*%
X174600000Y-94000000D02*
X173820000Y-94780000D01*
X180222981Y-95701660D02*
X178521321Y-94000000D01*
X173820000Y-94780000D02*
X172450000Y-94780000D01*
X178521321Y-94000000D02*
X174600000Y-94000000D01*
%TO.N,/PB3*%
X171085000Y-95955000D02*
X169910000Y-94780000D01*
X173281396Y-95955000D02*
X171085000Y-95955000D01*
X179869427Y-96055214D02*
X178264213Y-94450000D01*
X178264213Y-94450000D02*
X174786396Y-94450000D01*
X174786396Y-94450000D02*
X173281396Y-95955000D01*
%TO.N,/PB4*%
X179515874Y-96408767D02*
X178007107Y-94900000D01*
X172552792Y-97320000D02*
X172450000Y-97320000D01*
X174972792Y-94900000D02*
X172552792Y-97320000D01*
X178007107Y-94900000D02*
X174972792Y-94900000D01*
%TO.N,/PB5*%
X179162321Y-96762321D02*
X177750000Y-95350000D01*
X171190000Y-98600000D02*
X169910000Y-97320000D01*
X175400000Y-95350000D02*
X174000000Y-96750000D01*
X174000000Y-96750000D02*
X174000000Y-97431701D01*
X172831701Y-98600000D02*
X171190000Y-98600000D01*
X177750000Y-95350000D02*
X175400000Y-95350000D01*
X174000000Y-97431701D02*
X172831701Y-98600000D01*
%TO.N,/PB6*%
X175600000Y-95800000D02*
X174450000Y-96950000D01*
X178808767Y-97045163D02*
X177563604Y-95800000D01*
X174450000Y-97860000D02*
X172450000Y-99860000D01*
X177563604Y-95800000D02*
X175600000Y-95800000D01*
X178808767Y-97115874D02*
X178808767Y-97045163D01*
X174450000Y-96950000D02*
X174450000Y-97860000D01*
%TO.N,/PB7*%
X178455214Y-97469427D02*
X177510287Y-96524500D01*
X177510287Y-96524500D02*
X176400000Y-96524500D01*
D27*
%TO.N,/CANL*%
X174000000Y-84620000D02*
X172450000Y-84620000D01*
X174345000Y-84965000D02*
X174000000Y-84620000D01*
X176725000Y-84965000D02*
X174345000Y-84965000D01*
%TO.N,/CANH*%
X176725000Y-86235000D02*
X174365000Y-86235000D01*
X174365000Y-86235000D02*
X173440000Y-87160000D01*
X173440000Y-87160000D02*
X172450000Y-87160000D01*
D29*
%TO.N,VDC*%
X197850000Y-102400000D02*
X195310000Y-102400000D01*
X191800102Y-102400000D02*
X191600000Y-102199898D01*
X195310000Y-102400000D02*
X191800102Y-102400000D01*
D28*
%TO.N,/VDC_AFD*%
X190500000Y-90750000D02*
X190500000Y-92500000D01*
X190700000Y-90550000D02*
X190500000Y-90750000D01*
X190500000Y-92500000D02*
X189800000Y-93200000D01*
X189800000Y-94000102D02*
X189800000Y-93200000D01*
X191600000Y-97800102D02*
X191600000Y-95800102D01*
X191600000Y-95800102D02*
X189800000Y-94000102D01*
%TD*%
%TA.AperFunction,Conductor*%
%TO.N,GND*%
G36*
X178973566Y-81817813D02*
G01*
X178998876Y-81861650D01*
X179000000Y-81874499D01*
X179000000Y-91600000D01*
X181475500Y-91600000D01*
X181523066Y-91617313D01*
X181548376Y-91661150D01*
X181549500Y-91674000D01*
X181549500Y-91824964D01*
X181532187Y-91872530D01*
X181518519Y-91883867D01*
X181519058Y-91884577D01*
X181399924Y-91974919D01*
X181312634Y-92090027D01*
X181259641Y-92224409D01*
X181249500Y-92308854D01*
X181249500Y-92891145D01*
X181259641Y-92975590D01*
X181312634Y-93109972D01*
X181312635Y-93109974D01*
X181312636Y-93109975D01*
X181399922Y-93225078D01*
X181515025Y-93312364D01*
X181515028Y-93312365D01*
X181519059Y-93315422D01*
X181517606Y-93317337D01*
X181544737Y-93348916D01*
X181549500Y-93375035D01*
X181549500Y-94927144D01*
X181532187Y-94974710D01*
X181527826Y-94979470D01*
X181436384Y-95070913D01*
X181436381Y-95070916D01*
X181221061Y-95286235D01*
X181175184Y-95307627D01*
X181126290Y-95294526D01*
X181116409Y-95286235D01*
X180698103Y-94867929D01*
X178931030Y-93100855D01*
X178931026Y-93100849D01*
X178896647Y-93066472D01*
X178871625Y-93053723D01*
X178861724Y-93047655D01*
X178839009Y-93031151D01*
X178824566Y-93026458D01*
X178812298Y-93022472D01*
X178801578Y-93018032D01*
X178776553Y-93005281D01*
X178776552Y-93005280D01*
X178776551Y-93005280D01*
X178748816Y-93000888D01*
X178737524Y-92998177D01*
X178710821Y-92989500D01*
X178710820Y-92989500D01*
X178676915Y-92989500D01*
X173474315Y-92989500D01*
X173426749Y-92972187D01*
X173401439Y-92928350D01*
X173410229Y-92878500D01*
X173415262Y-92870905D01*
X173432363Y-92848259D01*
X173432363Y-92848258D01*
X173432366Y-92848255D01*
X173527405Y-92657389D01*
X173585756Y-92452310D01*
X173589695Y-92409806D01*
X173605429Y-92240003D01*
X173605429Y-92239996D01*
X173585757Y-92027696D01*
X173585756Y-92027690D01*
X173549901Y-91901676D01*
X173527405Y-91822611D01*
X173517244Y-91802205D01*
X173432367Y-91631747D01*
X173432363Y-91631741D01*
X173404515Y-91594865D01*
X173303872Y-91461593D01*
X173146302Y-91317948D01*
X172965019Y-91205702D01*
X172766198Y-91128679D01*
X172674150Y-91111472D01*
X172556613Y-91089500D01*
X172556610Y-91089500D01*
X172343390Y-91089500D01*
X172343386Y-91089500D01*
X172186669Y-91118796D01*
X172133802Y-91128679D01*
X172133800Y-91128679D01*
X172133798Y-91128680D01*
X171934986Y-91205700D01*
X171934981Y-91205702D01*
X171934976Y-91205704D01*
X171934976Y-91205705D01*
X171753700Y-91317946D01*
X171596130Y-91461590D01*
X171467636Y-91631741D01*
X171467632Y-91631747D01*
X171372596Y-91822606D01*
X171372593Y-91822616D01*
X171314243Y-92027690D01*
X171314242Y-92027696D01*
X171294571Y-92239996D01*
X171294571Y-92240003D01*
X171314242Y-92452303D01*
X171314243Y-92452309D01*
X171372593Y-92657383D01*
X171372596Y-92657393D01*
X171467632Y-92848252D01*
X171467636Y-92848259D01*
X171484738Y-92870905D01*
X171499588Y-92919297D01*
X171479857Y-92965912D01*
X171434779Y-92988939D01*
X171425685Y-92989500D01*
X171291900Y-92989500D01*
X171244334Y-92972187D01*
X171239574Y-92967826D01*
X171005230Y-92733482D01*
X170983838Y-92687606D01*
X170987660Y-92661018D01*
X170986469Y-92660680D01*
X171045756Y-92452309D01*
X171045757Y-92452303D01*
X171065429Y-92240003D01*
X171065429Y-92239996D01*
X171045757Y-92027696D01*
X171045756Y-92027690D01*
X171009901Y-91901676D01*
X170987405Y-91822611D01*
X170977244Y-91802205D01*
X170892367Y-91631747D01*
X170892363Y-91631741D01*
X170864515Y-91594865D01*
X170763872Y-91461593D01*
X170606302Y-91317948D01*
X170425019Y-91205702D01*
X170226198Y-91128679D01*
X170134149Y-91111472D01*
X170016613Y-91089500D01*
X170016610Y-91089500D01*
X169803390Y-91089500D01*
X169803386Y-91089500D01*
X169646669Y-91118796D01*
X169593802Y-91128679D01*
X169593800Y-91128679D01*
X169593798Y-91128680D01*
X169394986Y-91205700D01*
X169394981Y-91205702D01*
X169394976Y-91205704D01*
X169394976Y-91205705D01*
X169213700Y-91317946D01*
X169056130Y-91461590D01*
X168927636Y-91631741D01*
X168927632Y-91631747D01*
X168832596Y-91822606D01*
X168832593Y-91822616D01*
X168774243Y-92027690D01*
X168774242Y-92027696D01*
X168754571Y-92239996D01*
X168754571Y-92240003D01*
X168774242Y-92452303D01*
X168774243Y-92452309D01*
X168832593Y-92657383D01*
X168832596Y-92657393D01*
X168927632Y-92848252D01*
X168927636Y-92848258D01*
X168960023Y-92891145D01*
X169056128Y-93018407D01*
X169213698Y-93162052D01*
X169394981Y-93274298D01*
X169593802Y-93351321D01*
X169803390Y-93390500D01*
X170016610Y-93390500D01*
X170226198Y-93351321D01*
X170320616Y-93314742D01*
X170371222Y-93313703D01*
X170399672Y-93331420D01*
X170736472Y-93668220D01*
X170831780Y-93763528D01*
X170856802Y-93776276D01*
X170866699Y-93782342D01*
X170889417Y-93798848D01*
X170889418Y-93798848D01*
X170889419Y-93798849D01*
X170889421Y-93798849D01*
X170889422Y-93798850D01*
X170916123Y-93807526D01*
X170926853Y-93811970D01*
X170938657Y-93817984D01*
X170951874Y-93824719D01*
X170979603Y-93829110D01*
X170990898Y-93831821D01*
X171017607Y-93840500D01*
X171051512Y-93840500D01*
X171581822Y-93840500D01*
X171629388Y-93857813D01*
X171654698Y-93901650D01*
X171645908Y-93951500D01*
X171631677Y-93969185D01*
X171631371Y-93969465D01*
X171596128Y-94001593D01*
X171467636Y-94171741D01*
X171467632Y-94171747D01*
X171372596Y-94362606D01*
X171372593Y-94362616D01*
X171314243Y-94567690D01*
X171314242Y-94567696D01*
X171294571Y-94779996D01*
X171294571Y-94780003D01*
X171314242Y-94992303D01*
X171314243Y-94992309D01*
X171372593Y-95197383D01*
X171372596Y-95197393D01*
X171467632Y-95388252D01*
X171467636Y-95388259D01*
X171484738Y-95410905D01*
X171499588Y-95459297D01*
X171479857Y-95505912D01*
X171434779Y-95528939D01*
X171425685Y-95529500D01*
X171291900Y-95529500D01*
X171244334Y-95512187D01*
X171239574Y-95507826D01*
X171005230Y-95273482D01*
X170983838Y-95227606D01*
X170987660Y-95201018D01*
X170986469Y-95200680D01*
X171028923Y-95051471D01*
X171045756Y-94992310D01*
X171046436Y-94984977D01*
X171065429Y-94780003D01*
X171065429Y-94779996D01*
X171045757Y-94567696D01*
X171045756Y-94567690D01*
X170998043Y-94400000D01*
X170987405Y-94362611D01*
X170983366Y-94354500D01*
X170892367Y-94171747D01*
X170892363Y-94171741D01*
X170865721Y-94136462D01*
X170763872Y-94001593D01*
X170754393Y-93992952D01*
X170704361Y-93947341D01*
X170606302Y-93857948D01*
X170425019Y-93745702D01*
X170226198Y-93668679D01*
X170134149Y-93651472D01*
X170016613Y-93629500D01*
X170016610Y-93629500D01*
X169803390Y-93629500D01*
X169803386Y-93629500D01*
X169646670Y-93658796D01*
X169593802Y-93668679D01*
X169593800Y-93668679D01*
X169593798Y-93668680D01*
X169394986Y-93745700D01*
X169394981Y-93745702D01*
X169394976Y-93745704D01*
X169394976Y-93745705D01*
X169213700Y-93857946D01*
X169056130Y-94001590D01*
X168927636Y-94171741D01*
X168927632Y-94171747D01*
X168832596Y-94362606D01*
X168832593Y-94362616D01*
X168774243Y-94567690D01*
X168774242Y-94567696D01*
X168754571Y-94779996D01*
X168754571Y-94780003D01*
X168774242Y-94992303D01*
X168774243Y-94992309D01*
X168832593Y-95197383D01*
X168832596Y-95197393D01*
X168927632Y-95388252D01*
X168927636Y-95388258D01*
X168945770Y-95412271D01*
X169056128Y-95558407D01*
X169213698Y-95702052D01*
X169394981Y-95814298D01*
X169593802Y-95891321D01*
X169803390Y-95930500D01*
X170016610Y-95930500D01*
X170226198Y-95891321D01*
X170320616Y-95854742D01*
X170371222Y-95853703D01*
X170399672Y-95871419D01*
X170736472Y-96208220D01*
X170831780Y-96303528D01*
X170856802Y-96316276D01*
X170866699Y-96322342D01*
X170889417Y-96338848D01*
X170889418Y-96338848D01*
X170889419Y-96338849D01*
X170889421Y-96338849D01*
X170889422Y-96338850D01*
X170916123Y-96347526D01*
X170926853Y-96351970D01*
X170938657Y-96357984D01*
X170951874Y-96364719D01*
X170979603Y-96369110D01*
X170990898Y-96371821D01*
X171017607Y-96380500D01*
X171051512Y-96380500D01*
X171581822Y-96380500D01*
X171629388Y-96397813D01*
X171654698Y-96441650D01*
X171645908Y-96491500D01*
X171631677Y-96509185D01*
X171614878Y-96524500D01*
X171596128Y-96541593D01*
X171467636Y-96711741D01*
X171467632Y-96711747D01*
X171372596Y-96902606D01*
X171372593Y-96902616D01*
X171314243Y-97107690D01*
X171314242Y-97107696D01*
X171294571Y-97319996D01*
X171294571Y-97320003D01*
X171314242Y-97532303D01*
X171314243Y-97532309D01*
X171372593Y-97737383D01*
X171372596Y-97737393D01*
X171467632Y-97928252D01*
X171467636Y-97928258D01*
X171511815Y-97986760D01*
X171543619Y-98028875D01*
X171564032Y-98055905D01*
X171578882Y-98104296D01*
X171559151Y-98150912D01*
X171514073Y-98173939D01*
X171504979Y-98174500D01*
X171396900Y-98174500D01*
X171349334Y-98157187D01*
X171344574Y-98152826D01*
X171005230Y-97813482D01*
X170983838Y-97767606D01*
X170987660Y-97741018D01*
X170986469Y-97740680D01*
X171031414Y-97582715D01*
X171045756Y-97532310D01*
X171045963Y-97530084D01*
X171065429Y-97320003D01*
X171065429Y-97319996D01*
X171045757Y-97107696D01*
X171045756Y-97107690D01*
X171044869Y-97104573D01*
X170987405Y-96902611D01*
X170983413Y-96894594D01*
X170892367Y-96711747D01*
X170892363Y-96711741D01*
X170868289Y-96679862D01*
X170763872Y-96541593D01*
X170606302Y-96397948D01*
X170425019Y-96285702D01*
X170226198Y-96208679D01*
X170134149Y-96191472D01*
X170016613Y-96169500D01*
X170016610Y-96169500D01*
X169803390Y-96169500D01*
X169803386Y-96169500D01*
X169646669Y-96198796D01*
X169593802Y-96208679D01*
X169593800Y-96208679D01*
X169593798Y-96208680D01*
X169394986Y-96285700D01*
X169394981Y-96285702D01*
X169394976Y-96285704D01*
X169394976Y-96285705D01*
X169213700Y-96397946D01*
X169056130Y-96541590D01*
X168927636Y-96711741D01*
X168927632Y-96711747D01*
X168832596Y-96902606D01*
X168832593Y-96902616D01*
X168774243Y-97107690D01*
X168774242Y-97107696D01*
X168754571Y-97319996D01*
X168754571Y-97320003D01*
X168774242Y-97532303D01*
X168774243Y-97532309D01*
X168832593Y-97737383D01*
X168832596Y-97737393D01*
X168927632Y-97928252D01*
X168927636Y-97928258D01*
X168972813Y-97988082D01*
X169056128Y-98098407D01*
X169213698Y-98242052D01*
X169394981Y-98354298D01*
X169593802Y-98431321D01*
X169803390Y-98470500D01*
X170016610Y-98470500D01*
X170226198Y-98431321D01*
X170320616Y-98394742D01*
X170371222Y-98393703D01*
X170399672Y-98411420D01*
X170831063Y-98842810D01*
X170831064Y-98842812D01*
X170841472Y-98853220D01*
X170936780Y-98948528D01*
X170961806Y-98961279D01*
X170971693Y-98967338D01*
X170994419Y-98983849D01*
X170994420Y-98983849D01*
X170994421Y-98983850D01*
X171021123Y-98992526D01*
X171031853Y-98996970D01*
X171043657Y-99002984D01*
X171056874Y-99009719D01*
X171084603Y-99014110D01*
X171095898Y-99016821D01*
X171122607Y-99025500D01*
X171156512Y-99025500D01*
X171489875Y-99025500D01*
X171537441Y-99042813D01*
X171562751Y-99086650D01*
X171553961Y-99136500D01*
X171548928Y-99144095D01*
X171467636Y-99251741D01*
X171467632Y-99251747D01*
X171372596Y-99442606D01*
X171372593Y-99442616D01*
X171314243Y-99647690D01*
X171314242Y-99647696D01*
X171294571Y-99859996D01*
X171294571Y-99860003D01*
X171314242Y-100072303D01*
X171314243Y-100072309D01*
X171372593Y-100277383D01*
X171372596Y-100277393D01*
X171467632Y-100468252D01*
X171467634Y-100468255D01*
X171596128Y-100638407D01*
X171753698Y-100782052D01*
X171934981Y-100894298D01*
X172133802Y-100971321D01*
X172343390Y-101010500D01*
X172556610Y-101010500D01*
X172766198Y-100971321D01*
X172965019Y-100894298D01*
X173146302Y-100782052D01*
X173303872Y-100638407D01*
X173432366Y-100468255D01*
X173527405Y-100277389D01*
X173585756Y-100072310D01*
X173588602Y-100041603D01*
X173605429Y-99860003D01*
X173605429Y-99859996D01*
X173585757Y-99647696D01*
X173585756Y-99647690D01*
X173526469Y-99439320D01*
X173528390Y-99438773D01*
X173527544Y-99394877D01*
X173545228Y-99366517D01*
X174703218Y-98208529D01*
X174703220Y-98208528D01*
X174798528Y-98113220D01*
X174811280Y-98088189D01*
X174817339Y-98078303D01*
X174833849Y-98055581D01*
X174842527Y-98028869D01*
X174846964Y-98018156D01*
X174859719Y-97993126D01*
X174864113Y-97965374D01*
X174866818Y-97954108D01*
X174875500Y-97927393D01*
X174875500Y-97792607D01*
X174875500Y-97156899D01*
X174892813Y-97109333D01*
X174897163Y-97104584D01*
X175572725Y-96429021D01*
X175618601Y-96407630D01*
X175667496Y-96420731D01*
X175696530Y-96462195D01*
X175698511Y-96490267D01*
X175694355Y-96524495D01*
X175694355Y-96524503D01*
X175714859Y-96693371D01*
X175775181Y-96852429D01*
X175871816Y-96992428D01*
X175998401Y-97104573D01*
X175999148Y-97105234D01*
X176149775Y-97184290D01*
X176314944Y-97225000D01*
X176314948Y-97225000D01*
X176485052Y-97225000D01*
X176485056Y-97225000D01*
X176650225Y-97184290D01*
X176800852Y-97105234D01*
X176928183Y-96992429D01*
X176935407Y-96981962D01*
X176976676Y-96952652D01*
X176996308Y-96950000D01*
X177303387Y-96950000D01*
X177350953Y-96967313D01*
X177355713Y-96971674D01*
X178179151Y-97795112D01*
X178179161Y-97795121D01*
X178514573Y-98130532D01*
X178514585Y-98130542D01*
X178571735Y-98173159D01*
X178571736Y-98173160D01*
X178686321Y-98212497D01*
X178807469Y-98212497D01*
X178807470Y-98212497D01*
X178922054Y-98173160D01*
X178979216Y-98130536D01*
X179116321Y-97993429D01*
X179158947Y-97936267D01*
X179177015Y-97883635D01*
X179208834Y-97844270D01*
X179222977Y-97837675D01*
X179233885Y-97833929D01*
X179275607Y-97819607D01*
X179332769Y-97776983D01*
X179469874Y-97639876D01*
X179512500Y-97582714D01*
X179530568Y-97530082D01*
X179562387Y-97490717D01*
X179576526Y-97484123D01*
X179629161Y-97466054D01*
X179686323Y-97423430D01*
X179823428Y-97286323D01*
X179866054Y-97229161D01*
X179884121Y-97176529D01*
X179915941Y-97137163D01*
X179930084Y-97130568D01*
X179942667Y-97126248D01*
X179982714Y-97112500D01*
X180039876Y-97069876D01*
X180176981Y-96932769D01*
X180219607Y-96875607D01*
X180237675Y-96822975D01*
X180269494Y-96783610D01*
X180283637Y-96777015D01*
X180294545Y-96773269D01*
X180336267Y-96758947D01*
X180393429Y-96716323D01*
X180530534Y-96579216D01*
X180573160Y-96522054D01*
X180591227Y-96469422D01*
X180623047Y-96430056D01*
X180637186Y-96423462D01*
X180689821Y-96405393D01*
X180746983Y-96362769D01*
X180884088Y-96225662D01*
X180926714Y-96168500D01*
X180944782Y-96115868D01*
X180976601Y-96076503D01*
X180990744Y-96069908D01*
X181001652Y-96066162D01*
X181043374Y-96051840D01*
X181100536Y-96009216D01*
X181116409Y-95993341D01*
X181162282Y-95971948D01*
X181211177Y-95985046D01*
X181221062Y-95993340D01*
X181236934Y-96009212D01*
X181236946Y-96009222D01*
X181294096Y-96051839D01*
X181294097Y-96051840D01*
X181408682Y-96091177D01*
X181529830Y-96091177D01*
X181529831Y-96091177D01*
X181644415Y-96051840D01*
X181701577Y-96009216D01*
X182033913Y-95676877D01*
X182033920Y-95676872D01*
X182038130Y-95672662D01*
X182038132Y-95672661D01*
X182299553Y-95411240D01*
X182299552Y-95411239D01*
X182311540Y-95399252D01*
X182323528Y-95387265D01*
X182323528Y-95387263D01*
X182330636Y-95380156D01*
X182330643Y-95380147D01*
X182373014Y-95337777D01*
X182422045Y-95288746D01*
X182464671Y-95231584D01*
X182504008Y-95117000D01*
X182504008Y-94995851D01*
X182464671Y-94881267D01*
X182422047Y-94824105D01*
X182422045Y-94824103D01*
X182420291Y-94822075D01*
X182420916Y-94821534D01*
X182400782Y-94778356D01*
X182400500Y-94771906D01*
X182400500Y-94671135D01*
X182417813Y-94623569D01*
X182461650Y-94598259D01*
X182511500Y-94607049D01*
X182543691Y-94644895D01*
X182575180Y-94727928D01*
X182641567Y-94824105D01*
X182671817Y-94867929D01*
X182747831Y-94935271D01*
X182749571Y-94936812D01*
X182773694Y-94981313D01*
X182774500Y-94992202D01*
X182774500Y-95116358D01*
X182757187Y-95163924D01*
X182752826Y-95168684D01*
X182143491Y-95778020D01*
X182143488Y-95778023D01*
X181806939Y-96114573D01*
X181806929Y-96114585D01*
X181764312Y-96171735D01*
X181764311Y-96171736D01*
X181724975Y-96286321D01*
X181724975Y-96407469D01*
X181724974Y-96407469D01*
X181764311Y-96522053D01*
X181806937Y-96579217D01*
X181806940Y-96579220D01*
X181944041Y-96716319D01*
X181944053Y-96716329D01*
X181996231Y-96755238D01*
X182001205Y-96758947D01*
X182053835Y-96777015D01*
X182093201Y-96808832D01*
X182099796Y-96822976D01*
X182117863Y-96875602D01*
X182117865Y-96875607D01*
X182117866Y-96875608D01*
X182160485Y-96932764D01*
X182160493Y-96932773D01*
X182297594Y-97069872D01*
X182297606Y-97069882D01*
X182350511Y-97109333D01*
X182354758Y-97112500D01*
X182407388Y-97130568D01*
X182446754Y-97162385D01*
X182453349Y-97176529D01*
X182469989Y-97225000D01*
X182471418Y-97229161D01*
X182492026Y-97256798D01*
X182514038Y-97286318D01*
X182514046Y-97286327D01*
X182651147Y-97423426D01*
X182651159Y-97423436D01*
X182706554Y-97464743D01*
X182708311Y-97466054D01*
X182760942Y-97484122D01*
X182800308Y-97515941D01*
X182806903Y-97530083D01*
X182807668Y-97532310D01*
X182824972Y-97582714D01*
X182824973Y-97582715D01*
X182867592Y-97639871D01*
X182867600Y-97639880D01*
X183004701Y-97776979D01*
X183004713Y-97776989D01*
X183053651Y-97813482D01*
X183061865Y-97819607D01*
X183114495Y-97837675D01*
X183153861Y-97869492D01*
X183160456Y-97883636D01*
X183175477Y-97927390D01*
X183178525Y-97936267D01*
X183178526Y-97936268D01*
X183221145Y-97993424D01*
X183221153Y-97993433D01*
X183358254Y-98130532D01*
X183358266Y-98130542D01*
X183385583Y-98150912D01*
X183415418Y-98173160D01*
X183468049Y-98191228D01*
X183507415Y-98223047D01*
X183514010Y-98237190D01*
X183523951Y-98266145D01*
X183532079Y-98289821D01*
X183532080Y-98289822D01*
X183574699Y-98346978D01*
X183574707Y-98346987D01*
X183711808Y-98484086D01*
X183711820Y-98484096D01*
X183740254Y-98505299D01*
X183768972Y-98526714D01*
X183821602Y-98544782D01*
X183860968Y-98576599D01*
X183867563Y-98590743D01*
X183885630Y-98643369D01*
X183885632Y-98643374D01*
X183885633Y-98643375D01*
X183928252Y-98700531D01*
X183928260Y-98700540D01*
X184065361Y-98837639D01*
X184065364Y-98837642D01*
X184069975Y-98841080D01*
X184097757Y-98883393D01*
X184091842Y-98933665D01*
X184054996Y-98968374D01*
X184011005Y-98970901D01*
X184010750Y-98972430D01*
X184004705Y-98971421D01*
X183883556Y-98971421D01*
X183768972Y-99010757D01*
X183711808Y-99053383D01*
X183711805Y-99053386D01*
X183574706Y-99190487D01*
X183574696Y-99190499D01*
X183532079Y-99247649D01*
X183514010Y-99300282D01*
X183482190Y-99339649D01*
X183468049Y-99346243D01*
X183415420Y-99364311D01*
X183415416Y-99364313D01*
X183358260Y-99406932D01*
X183358251Y-99406940D01*
X183221152Y-99544041D01*
X183221142Y-99544053D01*
X183178525Y-99601203D01*
X183160456Y-99653835D01*
X183128636Y-99693202D01*
X183114495Y-99699796D01*
X183061867Y-99717864D01*
X183061863Y-99717866D01*
X183004707Y-99760485D01*
X183004698Y-99760493D01*
X182867599Y-99897594D01*
X182867589Y-99897606D01*
X182824972Y-99954756D01*
X182806903Y-100007388D01*
X182775083Y-100046755D01*
X182760942Y-100053349D01*
X182708313Y-100071417D01*
X182708309Y-100071419D01*
X182651153Y-100114038D01*
X182651144Y-100114046D01*
X182514045Y-100251147D01*
X182514035Y-100251159D01*
X182471418Y-100308309D01*
X182453349Y-100360942D01*
X182421529Y-100400309D01*
X182407388Y-100406903D01*
X182354760Y-100424971D01*
X182354756Y-100424973D01*
X182297600Y-100467592D01*
X182297591Y-100467600D01*
X182160492Y-100604701D01*
X182160482Y-100604713D01*
X182117865Y-100661863D01*
X182099796Y-100714495D01*
X182067976Y-100753862D01*
X182053835Y-100760456D01*
X182001207Y-100778524D01*
X182001203Y-100778526D01*
X181944047Y-100821145D01*
X181944038Y-100821153D01*
X181806939Y-100958254D01*
X181806929Y-100958266D01*
X181764312Y-101015416D01*
X181746243Y-101068049D01*
X181714423Y-101107416D01*
X181700282Y-101114010D01*
X181647653Y-101132078D01*
X181647649Y-101132080D01*
X181590493Y-101174699D01*
X181590484Y-101174707D01*
X181453385Y-101311808D01*
X181453375Y-101311820D01*
X181410758Y-101368970D01*
X181392689Y-101421602D01*
X181360869Y-101460969D01*
X181346728Y-101467563D01*
X181294100Y-101485631D01*
X181294096Y-101485633D01*
X181236940Y-101528252D01*
X181236923Y-101528267D01*
X181221058Y-101544132D01*
X181175181Y-101565524D01*
X181126288Y-101552421D01*
X181116407Y-101544129D01*
X181100544Y-101528265D01*
X181100525Y-101528249D01*
X181043375Y-101485632D01*
X181043374Y-101485631D01*
X180990743Y-101467563D01*
X180951375Y-101435744D01*
X180944784Y-101421610D01*
X180926714Y-101368972D01*
X180884090Y-101311810D01*
X180746983Y-101174705D01*
X180746981Y-101174703D01*
X180746972Y-101174696D01*
X180689822Y-101132079D01*
X180689821Y-101132078D01*
X180637190Y-101114010D01*
X180597822Y-101082191D01*
X180591228Y-101068048D01*
X180581032Y-101038350D01*
X180573160Y-101015418D01*
X180530536Y-100958256D01*
X180393429Y-100821151D01*
X180393427Y-100821149D01*
X180393418Y-100821142D01*
X180336268Y-100778525D01*
X180336267Y-100778524D01*
X180283636Y-100760456D01*
X180244268Y-100728637D01*
X180237677Y-100714503D01*
X180219607Y-100661865D01*
X180176983Y-100604703D01*
X180039876Y-100467598D01*
X180039874Y-100467596D01*
X180039865Y-100467589D01*
X179982715Y-100424972D01*
X179982714Y-100424971D01*
X179868130Y-100385635D01*
X179746981Y-100385635D01*
X179632397Y-100424971D01*
X179575233Y-100467597D01*
X179575230Y-100467600D01*
X179167344Y-100875487D01*
X178854768Y-101188064D01*
X178854758Y-101188076D01*
X178812141Y-101245226D01*
X178788333Y-101314573D01*
X178770669Y-101342870D01*
X178203070Y-101910471D01*
X178157194Y-101931863D01*
X178150744Y-101932145D01*
X178150154Y-101932145D01*
X178140398Y-101935315D01*
X178123448Y-101940822D01*
X178112160Y-101943532D01*
X178084420Y-101947926D01*
X178080955Y-101949052D01*
X178030367Y-101947282D01*
X177992752Y-101913409D01*
X177985710Y-101863282D01*
X178005765Y-101826347D01*
X179133321Y-100698792D01*
X179133322Y-100698790D01*
X179137532Y-100694580D01*
X179137538Y-100694573D01*
X179469874Y-100362237D01*
X179512500Y-100305075D01*
X179551837Y-100190491D01*
X179551837Y-100069342D01*
X179512500Y-99954758D01*
X179469876Y-99897596D01*
X179332769Y-99760491D01*
X179332767Y-99760489D01*
X179332758Y-99760482D01*
X179275608Y-99717865D01*
X179275607Y-99717864D01*
X179222976Y-99699796D01*
X179183608Y-99667977D01*
X179177017Y-99653843D01*
X179158947Y-99601205D01*
X179116323Y-99544043D01*
X178979216Y-99406938D01*
X178979214Y-99406936D01*
X178979205Y-99406929D01*
X178922055Y-99364312D01*
X178922054Y-99364311D01*
X178869423Y-99346243D01*
X178830055Y-99314424D01*
X178823461Y-99300281D01*
X178806797Y-99251741D01*
X178805393Y-99247651D01*
X178762769Y-99190489D01*
X178625662Y-99053384D01*
X178625657Y-99053380D01*
X178625651Y-99053375D01*
X178568501Y-99010758D01*
X178568500Y-99010757D01*
X178515869Y-98992689D01*
X178476501Y-98960870D01*
X178469910Y-98946736D01*
X178451840Y-98894098D01*
X178409216Y-98836936D01*
X178272109Y-98699831D01*
X178272107Y-98699829D01*
X178272098Y-98699822D01*
X178214948Y-98657205D01*
X178214947Y-98657204D01*
X178100363Y-98617868D01*
X177979214Y-98617868D01*
X177864630Y-98657204D01*
X177807466Y-98699830D01*
X177807463Y-98699833D01*
X176579471Y-99927826D01*
X176533595Y-99949218D01*
X176527145Y-99949500D01*
X175986182Y-99949500D01*
X175938616Y-99932187D01*
X175917341Y-99902646D01*
X175912364Y-99890025D01*
X175825078Y-99774922D01*
X175709975Y-99687636D01*
X175709974Y-99687635D01*
X175709972Y-99687634D01*
X175575590Y-99634641D01*
X175491145Y-99624500D01*
X175491144Y-99624500D01*
X174908856Y-99624500D01*
X174908855Y-99624500D01*
X174824409Y-99634641D01*
X174690027Y-99687634D01*
X174574922Y-99774922D01*
X174487634Y-99890027D01*
X174434641Y-100024409D01*
X174424500Y-100108854D01*
X174424500Y-100625500D01*
X174407187Y-100673066D01*
X174363350Y-100698376D01*
X174350500Y-100699500D01*
X174314941Y-100699500D01*
X174149777Y-100740209D01*
X173999146Y-100819267D01*
X173999143Y-100819269D01*
X173871816Y-100932071D01*
X173775181Y-101072070D01*
X173714859Y-101231128D01*
X173694355Y-101399996D01*
X173694355Y-101400003D01*
X173714859Y-101568871D01*
X173775181Y-101727929D01*
X173865283Y-101858463D01*
X173878055Y-101907444D01*
X173856356Y-101953176D01*
X173810337Y-101974260D01*
X173804382Y-101974500D01*
X173569185Y-101974500D01*
X173521619Y-101957187D01*
X173502943Y-101933484D01*
X173432367Y-101791747D01*
X173432363Y-101791741D01*
X173398772Y-101747260D01*
X173303872Y-101621593D01*
X173146302Y-101477948D01*
X172965019Y-101365702D01*
X172766198Y-101288679D01*
X172674150Y-101271472D01*
X172556613Y-101249500D01*
X172556610Y-101249500D01*
X172343390Y-101249500D01*
X172343386Y-101249500D01*
X172186669Y-101278796D01*
X172133802Y-101288679D01*
X172133800Y-101288679D01*
X172133798Y-101288680D01*
X171934986Y-101365700D01*
X171934981Y-101365702D01*
X171934976Y-101365704D01*
X171934976Y-101365705D01*
X171753700Y-101477946D01*
X171596130Y-101621590D01*
X171467636Y-101791741D01*
X171467632Y-101791747D01*
X171372596Y-101982606D01*
X171372593Y-101982616D01*
X171314243Y-102187690D01*
X171314242Y-102187696D01*
X171294571Y-102399996D01*
X171294571Y-102400003D01*
X171314242Y-102612303D01*
X171314243Y-102612309D01*
X171372593Y-102817383D01*
X171372596Y-102817393D01*
X171467632Y-103008252D01*
X171467636Y-103008259D01*
X171484738Y-103030905D01*
X171499588Y-103079297D01*
X171479857Y-103125912D01*
X171434779Y-103148939D01*
X171425685Y-103149500D01*
X171291900Y-103149500D01*
X171244334Y-103132187D01*
X171239574Y-103127826D01*
X171005230Y-102893482D01*
X170983838Y-102847606D01*
X170987660Y-102821018D01*
X170986469Y-102820680D01*
X171045756Y-102612309D01*
X171045757Y-102612303D01*
X171065429Y-102400003D01*
X171065429Y-102399996D01*
X171045757Y-102187696D01*
X171045756Y-102187690D01*
X171022065Y-102104426D01*
X170987405Y-101982611D01*
X170983366Y-101974500D01*
X170892367Y-101791747D01*
X170892363Y-101791741D01*
X170858772Y-101747260D01*
X170763872Y-101621593D01*
X170606302Y-101477948D01*
X170425019Y-101365702D01*
X170226198Y-101288679D01*
X170134149Y-101271472D01*
X170016613Y-101249500D01*
X170016610Y-101249500D01*
X169803390Y-101249500D01*
X169803386Y-101249500D01*
X169646669Y-101278796D01*
X169593802Y-101288679D01*
X169593800Y-101288679D01*
X169593798Y-101288680D01*
X169394986Y-101365700D01*
X169394981Y-101365702D01*
X169394976Y-101365704D01*
X169394976Y-101365705D01*
X169213700Y-101477946D01*
X169056130Y-101621590D01*
X168927636Y-101791741D01*
X168927632Y-101791747D01*
X168832596Y-101982606D01*
X168832593Y-101982616D01*
X168774243Y-102187690D01*
X168774242Y-102187696D01*
X168754571Y-102399996D01*
X168754571Y-102400003D01*
X168774242Y-102612303D01*
X168774243Y-102612309D01*
X168832593Y-102817383D01*
X168832596Y-102817393D01*
X168927632Y-103008252D01*
X168927636Y-103008258D01*
X168950474Y-103038500D01*
X169056128Y-103178407D01*
X169213698Y-103322052D01*
X169394981Y-103434298D01*
X169593802Y-103511321D01*
X169803390Y-103550500D01*
X170016610Y-103550500D01*
X170226198Y-103511321D01*
X170320616Y-103474742D01*
X170371222Y-103473703D01*
X170399672Y-103491420D01*
X170726063Y-103817810D01*
X170726064Y-103817812D01*
X170736472Y-103828219D01*
X170736472Y-103828220D01*
X170831780Y-103923528D01*
X170856802Y-103936276D01*
X170866699Y-103942342D01*
X170889417Y-103958848D01*
X170889418Y-103958848D01*
X170889419Y-103958849D01*
X170889421Y-103958849D01*
X170889422Y-103958850D01*
X170916123Y-103967526D01*
X170926853Y-103971970D01*
X170933063Y-103975134D01*
X170951874Y-103984719D01*
X170979603Y-103989110D01*
X170990898Y-103991821D01*
X171017607Y-104000500D01*
X171051512Y-104000500D01*
X174828858Y-104000500D01*
X174876424Y-104017813D01*
X174901734Y-104061650D01*
X174902318Y-104065581D01*
X174914859Y-104168871D01*
X174975181Y-104327929D01*
X175071816Y-104467928D01*
X175181586Y-104565176D01*
X175199148Y-104580734D01*
X175349775Y-104659790D01*
X175514944Y-104700500D01*
X175514948Y-104700500D01*
X175685052Y-104700500D01*
X175685056Y-104700500D01*
X175850225Y-104659790D01*
X176000852Y-104580734D01*
X176128183Y-104467929D01*
X176224818Y-104327930D01*
X176285140Y-104168872D01*
X176296954Y-104071578D01*
X176305645Y-104000003D01*
X176305645Y-103999996D01*
X176285140Y-103831128D01*
X176272873Y-103798783D01*
X176224818Y-103672070D01*
X176224816Y-103672067D01*
X176223972Y-103669841D01*
X176223292Y-103619226D01*
X176240835Y-103591276D01*
X176944198Y-102887913D01*
X176990075Y-102866522D01*
X177038969Y-102879623D01*
X177068003Y-102921087D01*
X177066904Y-102963103D01*
X177065778Y-102966568D01*
X177061384Y-102994308D01*
X177058674Y-103005596D01*
X177049997Y-103032302D01*
X177049997Y-103066207D01*
X177049997Y-103808104D01*
X177049997Y-103942890D01*
X177058586Y-103969325D01*
X177058674Y-103969594D01*
X177061385Y-103980886D01*
X177065777Y-104008621D01*
X177065777Y-104008622D01*
X177065778Y-104008623D01*
X177070745Y-104018372D01*
X177078527Y-104033643D01*
X177082971Y-104044372D01*
X177091648Y-104071079D01*
X177108152Y-104093794D01*
X177114220Y-104103695D01*
X177126969Y-104128717D01*
X177680126Y-104681874D01*
X177701518Y-104727750D01*
X177701261Y-104743118D01*
X177694386Y-104799750D01*
X177694355Y-104800002D01*
X177694355Y-104800003D01*
X177714859Y-104968871D01*
X177775181Y-105127929D01*
X177871816Y-105267928D01*
X177916237Y-105307282D01*
X177999148Y-105380734D01*
X178149775Y-105459790D01*
X178314944Y-105500500D01*
X178314948Y-105500500D01*
X178485052Y-105500500D01*
X178485056Y-105500500D01*
X178650225Y-105459790D01*
X178800852Y-105380734D01*
X178928183Y-105267929D01*
X178935407Y-105257462D01*
X178976676Y-105228152D01*
X178996308Y-105225500D01*
X179678959Y-105225500D01*
X179726525Y-105242813D01*
X179747800Y-105272353D01*
X179762634Y-105309972D01*
X179762635Y-105309974D01*
X179762636Y-105309975D01*
X179849922Y-105425078D01*
X179965025Y-105512364D01*
X179965026Y-105512364D01*
X179965027Y-105512365D01*
X179998368Y-105525513D01*
X180099410Y-105565359D01*
X180173713Y-105574282D01*
X180183855Y-105575500D01*
X180183856Y-105575500D01*
X180716145Y-105575500D01*
X180725198Y-105574412D01*
X180800590Y-105565359D01*
X180934975Y-105512364D01*
X181050078Y-105425078D01*
X181137364Y-105309975D01*
X181190359Y-105175590D01*
X181200500Y-105091144D01*
X181200500Y-104508856D01*
X181190359Y-104424410D01*
X181137364Y-104290025D01*
X181050078Y-104174922D01*
X180934975Y-104087636D01*
X180934974Y-104087635D01*
X180934972Y-104087634D01*
X180800590Y-104034641D01*
X180734644Y-104026721D01*
X180689481Y-104003860D01*
X180669580Y-103957317D01*
X180684251Y-103908871D01*
X180694389Y-103897867D01*
X180728183Y-103867929D01*
X180824818Y-103727930D01*
X180885140Y-103568872D01*
X180893454Y-103500398D01*
X180905645Y-103400003D01*
X180905645Y-103399998D01*
X180903863Y-103385328D01*
X180898738Y-103343122D01*
X180910190Y-103293818D01*
X180919879Y-103281871D01*
X180925058Y-103276693D01*
X180925062Y-103276686D01*
X180937815Y-103251655D01*
X180943873Y-103241769D01*
X180960383Y-103219047D01*
X180969061Y-103192335D01*
X180973498Y-103181622D01*
X180986253Y-103156592D01*
X180990647Y-103128840D01*
X180993352Y-103117574D01*
X181002034Y-103090859D01*
X181002034Y-102956073D01*
X181002034Y-102396262D01*
X181019347Y-102348696D01*
X181023698Y-102343946D01*
X181116409Y-102251234D01*
X181162285Y-102229843D01*
X181211180Y-102242944D01*
X181221061Y-102251235D01*
X181435391Y-102465565D01*
X181435405Y-102465580D01*
X181436383Y-102466558D01*
X181436384Y-102466559D01*
X182188872Y-103219047D01*
X182940826Y-103971000D01*
X182962218Y-104016876D01*
X182962500Y-104023326D01*
X182962500Y-104055797D01*
X182945187Y-104103363D01*
X182937571Y-104111187D01*
X182859816Y-104180071D01*
X182763181Y-104320070D01*
X182702859Y-104479128D01*
X182682355Y-104647996D01*
X182682355Y-104648003D01*
X182702859Y-104816871D01*
X182763181Y-104975929D01*
X182842710Y-105091145D01*
X182859817Y-105115929D01*
X182873362Y-105127929D01*
X182983497Y-105225500D01*
X182987148Y-105228734D01*
X183137775Y-105307790D01*
X183302944Y-105348500D01*
X183302948Y-105348500D01*
X183473052Y-105348500D01*
X183473056Y-105348500D01*
X183638225Y-105307790D01*
X183788852Y-105228734D01*
X183838681Y-105184589D01*
X183885763Y-105166006D01*
X183933777Y-105182034D01*
X183936806Y-105184575D01*
X183986651Y-105228734D01*
X184137278Y-105307790D01*
X184302447Y-105348500D01*
X184302451Y-105348500D01*
X184472555Y-105348500D01*
X184472559Y-105348500D01*
X184637728Y-105307790D01*
X184788355Y-105228734D01*
X184854681Y-105169974D01*
X184901763Y-105151391D01*
X184949778Y-105167420D01*
X184952805Y-105169960D01*
X185019148Y-105228734D01*
X185169775Y-105307790D01*
X185334944Y-105348500D01*
X185334948Y-105348500D01*
X185505052Y-105348500D01*
X185505056Y-105348500D01*
X185670225Y-105307790D01*
X185820852Y-105228734D01*
X185897677Y-105160671D01*
X185944762Y-105142088D01*
X185992776Y-105158117D01*
X185995820Y-105160671D01*
X186017454Y-105179837D01*
X186168081Y-105258893D01*
X186333250Y-105299603D01*
X186333254Y-105299603D01*
X186503358Y-105299603D01*
X186503362Y-105299603D01*
X186668531Y-105258893D01*
X186819158Y-105179837D01*
X186946489Y-105067032D01*
X187043124Y-104927033D01*
X187103446Y-104767975D01*
X187116582Y-104659790D01*
X187123951Y-104599106D01*
X187123951Y-104599099D01*
X187103446Y-104430231D01*
X187043124Y-104271173D01*
X186946489Y-104131174D01*
X186819162Y-104018372D01*
X186819159Y-104018370D01*
X186819158Y-104018369D01*
X186668531Y-103939313D01*
X186668528Y-103939312D01*
X186503364Y-103898603D01*
X186503362Y-103898603D01*
X186350205Y-103898603D01*
X186302639Y-103881290D01*
X186297879Y-103876929D01*
X186239276Y-103818326D01*
X186217884Y-103772450D01*
X186230985Y-103723555D01*
X186272449Y-103694521D01*
X186291602Y-103692000D01*
X188585999Y-103692000D01*
X188586001Y-103692000D01*
X188612716Y-103683318D01*
X188623982Y-103680613D01*
X188651734Y-103676219D01*
X188676764Y-103663464D01*
X188687477Y-103659027D01*
X188714189Y-103650349D01*
X188726380Y-103641491D01*
X188736902Y-103633846D01*
X188746807Y-103627776D01*
X188751221Y-103625526D01*
X188771828Y-103615028D01*
X188867136Y-103519720D01*
X188867135Y-103519720D01*
X188902087Y-103484768D01*
X189032538Y-103354316D01*
X189078416Y-103332924D01*
X189084865Y-103332642D01*
X189238018Y-103332642D01*
X189238022Y-103332642D01*
X189403191Y-103291932D01*
X189553818Y-103212876D01*
X189681149Y-103100071D01*
X189777784Y-102960072D01*
X189838106Y-102801014D01*
X189858611Y-102632142D01*
X189857949Y-102626692D01*
X189838106Y-102463270D01*
X189781802Y-102314806D01*
X190299499Y-102314806D01*
X190299500Y-102314839D01*
X190299500Y-103244761D01*
X190302414Y-103269884D01*
X190302415Y-103269890D01*
X190334751Y-103343124D01*
X190347794Y-103372663D01*
X190427235Y-103452104D01*
X190530009Y-103497483D01*
X190555135Y-103500398D01*
X191080947Y-103500397D01*
X191123391Y-103513779D01*
X191147368Y-103530568D01*
X191180117Y-103545839D01*
X191197551Y-103553969D01*
X191200415Y-103555460D01*
X191228212Y-103571507D01*
X191248387Y-103583156D01*
X191300457Y-103602107D01*
X191303398Y-103603325D01*
X191353606Y-103626739D01*
X191407117Y-103641076D01*
X191410179Y-103642042D01*
X191462222Y-103660985D01*
X191516787Y-103670605D01*
X191519905Y-103671297D01*
X191573410Y-103685635D01*
X191628596Y-103690463D01*
X191631762Y-103690880D01*
X191686323Y-103700501D01*
X191686327Y-103700501D01*
X191915388Y-103700501D01*
X191915412Y-103700500D01*
X197906782Y-103700500D01*
X197906784Y-103700500D01*
X198076692Y-103685635D01*
X198085325Y-103683322D01*
X198159406Y-103663472D01*
X198296496Y-103626739D01*
X198502734Y-103530568D01*
X198689139Y-103400047D01*
X198850047Y-103239139D01*
X198980568Y-103052734D01*
X199076739Y-102846496D01*
X199135635Y-102626692D01*
X199149645Y-102466555D01*
X199155468Y-102400005D01*
X199155468Y-102399994D01*
X199135635Y-102173311D01*
X199135634Y-102173303D01*
X199076741Y-101953511D01*
X199076740Y-101953510D01*
X199076739Y-101953504D01*
X198980568Y-101747266D01*
X198850047Y-101560861D01*
X198689139Y-101399953D01*
X198644890Y-101368970D01*
X198502739Y-101269435D01*
X198502736Y-101269434D01*
X198502734Y-101269432D01*
X198296496Y-101173261D01*
X198296492Y-101173260D01*
X198296488Y-101173258D01*
X198113773Y-101124300D01*
X198072309Y-101095266D01*
X198059208Y-101046372D01*
X198080600Y-101000496D01*
X198119327Y-100980082D01*
X198166198Y-100971321D01*
X198365019Y-100894298D01*
X198546302Y-100782052D01*
X198703872Y-100638407D01*
X198832366Y-100468255D01*
X198927405Y-100277389D01*
X198985756Y-100072310D01*
X198988602Y-100041603D01*
X199005429Y-99860003D01*
X199005429Y-99859996D01*
X198985757Y-99647696D01*
X198985756Y-99647690D01*
X198927406Y-99442616D01*
X198927405Y-99442611D01*
X198925766Y-99439320D01*
X198832367Y-99251747D01*
X198832363Y-99251741D01*
X198828842Y-99247079D01*
X198703872Y-99081593D01*
X198546302Y-98937948D01*
X198365019Y-98825702D01*
X198166198Y-98748679D01*
X198074149Y-98731472D01*
X197956613Y-98709500D01*
X197956610Y-98709500D01*
X197743390Y-98709500D01*
X197743386Y-98709500D01*
X197586670Y-98738796D01*
X197533802Y-98748679D01*
X197533800Y-98748679D01*
X197533798Y-98748680D01*
X197334986Y-98825700D01*
X197334981Y-98825702D01*
X197334976Y-98825704D01*
X197334976Y-98825705D01*
X197153700Y-98937946D01*
X196996130Y-99081590D01*
X196867636Y-99251741D01*
X196867632Y-99251747D01*
X196772596Y-99442606D01*
X196772593Y-99442616D01*
X196714243Y-99647690D01*
X196714242Y-99647696D01*
X196694571Y-99859996D01*
X196694571Y-99860003D01*
X196714242Y-100072303D01*
X196714243Y-100072309D01*
X196772593Y-100277383D01*
X196772596Y-100277393D01*
X196867632Y-100468252D01*
X196867634Y-100468255D01*
X196996128Y-100638407D01*
X197153698Y-100782052D01*
X197334981Y-100894298D01*
X197467382Y-100945590D01*
X197495536Y-100956497D01*
X197533636Y-100989824D01*
X197541401Y-101039843D01*
X197515196Y-101083152D01*
X197468804Y-101099500D01*
X195691196Y-101099500D01*
X195643630Y-101082187D01*
X195618320Y-101038350D01*
X195627110Y-100988500D01*
X195664464Y-100956497D01*
X195687192Y-100947692D01*
X195825019Y-100894298D01*
X196006302Y-100782052D01*
X196163872Y-100638407D01*
X196292366Y-100468255D01*
X196387405Y-100277389D01*
X196445756Y-100072310D01*
X196448602Y-100041603D01*
X196465429Y-99860003D01*
X196465429Y-99859996D01*
X196445757Y-99647696D01*
X196445756Y-99647690D01*
X196387406Y-99442616D01*
X196387405Y-99442611D01*
X196385766Y-99439320D01*
X196292367Y-99251747D01*
X196292363Y-99251741D01*
X196288842Y-99247079D01*
X196163872Y-99081593D01*
X196006302Y-98937948D01*
X195825019Y-98825702D01*
X195626198Y-98748679D01*
X195534149Y-98731472D01*
X195416613Y-98709500D01*
X195416610Y-98709500D01*
X195203390Y-98709500D01*
X195203386Y-98709500D01*
X195046670Y-98738796D01*
X194993802Y-98748679D01*
X194993800Y-98748679D01*
X194993798Y-98748680D01*
X194794986Y-98825700D01*
X194794981Y-98825702D01*
X194794976Y-98825704D01*
X194794976Y-98825705D01*
X194613700Y-98937946D01*
X194456130Y-99081590D01*
X194327636Y-99251741D01*
X194327632Y-99251747D01*
X194232596Y-99442606D01*
X194232593Y-99442616D01*
X194174243Y-99647690D01*
X194174242Y-99647696D01*
X194154571Y-99859996D01*
X194154571Y-99860003D01*
X194174242Y-100072303D01*
X194174243Y-100072309D01*
X194232593Y-100277383D01*
X194232596Y-100277393D01*
X194327632Y-100468252D01*
X194327634Y-100468255D01*
X194456128Y-100638407D01*
X194613698Y-100782052D01*
X194794981Y-100894298D01*
X194927382Y-100945590D01*
X194955536Y-100956497D01*
X194993636Y-100989824D01*
X195001401Y-101039843D01*
X194975196Y-101083152D01*
X194928804Y-101099500D01*
X192932378Y-101099500D01*
X192884812Y-101082187D01*
X192864684Y-101055391D01*
X192852206Y-101027133D01*
X192772765Y-100947692D01*
X192772764Y-100947691D01*
X192669991Y-100902313D01*
X192669990Y-100902312D01*
X192669988Y-100902312D01*
X192644865Y-100899398D01*
X191714941Y-100899398D01*
X191714909Y-100899397D01*
X191713779Y-100899397D01*
X191486221Y-100899397D01*
X191485165Y-100899397D01*
X191485127Y-100899398D01*
X190555136Y-100899398D01*
X190530013Y-100902312D01*
X190530007Y-100902313D01*
X190427234Y-100947692D01*
X190347794Y-101027132D01*
X190302414Y-101129909D01*
X190299500Y-101155033D01*
X190299500Y-102085025D01*
X190299499Y-102085063D01*
X190299499Y-102314806D01*
X189781802Y-102314806D01*
X189777784Y-102304212D01*
X189681149Y-102164213D01*
X189553822Y-102051411D01*
X189553819Y-102051409D01*
X189553818Y-102051408D01*
X189403191Y-101972352D01*
X189367309Y-101963507D01*
X189325271Y-101935315D01*
X189311188Y-101886695D01*
X189331652Y-101840397D01*
X189332645Y-101839383D01*
X189391429Y-101780599D01*
X189426045Y-101761077D01*
X189463728Y-101751790D01*
X189614355Y-101672734D01*
X189741686Y-101559929D01*
X189838321Y-101419930D01*
X189898643Y-101260872D01*
X189907484Y-101188064D01*
X189919148Y-101092003D01*
X189919148Y-101091996D01*
X189898643Y-100923128D01*
X189838321Y-100764070D01*
X189741686Y-100624071D01*
X189614359Y-100511269D01*
X189614356Y-100511267D01*
X189614355Y-100511266D01*
X189463728Y-100432210D01*
X189463725Y-100432209D01*
X189298561Y-100391500D01*
X189298559Y-100391500D01*
X189128447Y-100391500D01*
X189128444Y-100391500D01*
X188963280Y-100432209D01*
X188812652Y-100511265D01*
X188762821Y-100555410D01*
X188715736Y-100573992D01*
X188667722Y-100557962D01*
X188664681Y-100555410D01*
X188656226Y-100547920D01*
X188614852Y-100511266D01*
X188464225Y-100432210D01*
X188464222Y-100432209D01*
X188299058Y-100391500D01*
X188299056Y-100391500D01*
X188128944Y-100391500D01*
X188128941Y-100391500D01*
X187963777Y-100432209D01*
X187813146Y-100511267D01*
X187813143Y-100511269D01*
X187685817Y-100624071D01*
X187678593Y-100634537D01*
X187637324Y-100663848D01*
X187617692Y-100666500D01*
X185820221Y-100666500D01*
X185772655Y-100649187D01*
X185767895Y-100644826D01*
X184512027Y-99388958D01*
X184512012Y-99388944D01*
X184176452Y-99053385D01*
X184176446Y-99053380D01*
X184171837Y-99049943D01*
X184144055Y-99007629D01*
X184149972Y-98957357D01*
X184186818Y-98922650D01*
X184230808Y-98920122D01*
X184231064Y-98918595D01*
X184237109Y-98919604D01*
X184358257Y-98919604D01*
X184358258Y-98919604D01*
X184472842Y-98880267D01*
X184530004Y-98837643D01*
X184862340Y-98505304D01*
X184862347Y-98505299D01*
X184866557Y-98501088D01*
X184866559Y-98501088D01*
X184920473Y-98447173D01*
X184966349Y-98425782D01*
X184972799Y-98425500D01*
X186613818Y-98425500D01*
X186661384Y-98442813D01*
X186682658Y-98472353D01*
X186687636Y-98484975D01*
X186774922Y-98600078D01*
X186890025Y-98687364D01*
X186890026Y-98687364D01*
X186890027Y-98687365D01*
X186921616Y-98699822D01*
X187024410Y-98740359D01*
X187093701Y-98748680D01*
X187108855Y-98750500D01*
X187108856Y-98750500D01*
X187691145Y-98750500D01*
X187706299Y-98748680D01*
X187775590Y-98740359D01*
X187909975Y-98687364D01*
X188025078Y-98600078D01*
X188112364Y-98484975D01*
X188165359Y-98350590D01*
X188175500Y-98266144D01*
X188175500Y-97733856D01*
X188165359Y-97649410D01*
X188112364Y-97515025D01*
X188031005Y-97407738D01*
X188016060Y-97359378D01*
X188023474Y-97332208D01*
X188023231Y-97332116D01*
X188024188Y-97329590D01*
X188024452Y-97328626D01*
X188024813Y-97327937D01*
X188024818Y-97327930D01*
X188027824Y-97320003D01*
X188030809Y-97312134D01*
X188063863Y-97273797D01*
X188113827Y-97265677D01*
X188157320Y-97291573D01*
X188169191Y-97312134D01*
X188175180Y-97327928D01*
X188271816Y-97467928D01*
X188341974Y-97530083D01*
X188399148Y-97580734D01*
X188549775Y-97659790D01*
X188714944Y-97700500D01*
X188714948Y-97700500D01*
X188885052Y-97700500D01*
X188885056Y-97700500D01*
X189050225Y-97659790D01*
X189200852Y-97580734D01*
X189328183Y-97467929D01*
X189424818Y-97327930D01*
X189485140Y-97168872D01*
X189497160Y-97069882D01*
X189505645Y-97000003D01*
X189505645Y-96999996D01*
X189485140Y-96831128D01*
X189424818Y-96672070D01*
X189336846Y-96544621D01*
X189324074Y-96495640D01*
X189339406Y-96460326D01*
X189337939Y-96459314D01*
X189354579Y-96435207D01*
X189437117Y-96315631D01*
X189497439Y-96156573D01*
X189517259Y-95993343D01*
X189517944Y-95987704D01*
X189517944Y-95987697D01*
X189497439Y-95818829D01*
X189437117Y-95659771D01*
X189340482Y-95519772D01*
X189213155Y-95406970D01*
X189213152Y-95406968D01*
X189213151Y-95406967D01*
X189062524Y-95327911D01*
X189062521Y-95327910D01*
X188897357Y-95287201D01*
X188897355Y-95287201D01*
X188744199Y-95287201D01*
X188696633Y-95269888D01*
X188691873Y-95265527D01*
X188477818Y-95051472D01*
X188452796Y-95038723D01*
X188442895Y-95032655D01*
X188420180Y-95016151D01*
X188405737Y-95011458D01*
X188393469Y-95007472D01*
X188382749Y-95003032D01*
X188357724Y-94990281D01*
X188357723Y-94990280D01*
X188357722Y-94990280D01*
X188329987Y-94985888D01*
X188318695Y-94983177D01*
X188291992Y-94974500D01*
X188291991Y-94974500D01*
X188258086Y-94974500D01*
X186467393Y-94974500D01*
X186332607Y-94974500D01*
X186332606Y-94974500D01*
X186305896Y-94983178D01*
X186294608Y-94985888D01*
X186266872Y-94990281D01*
X186241852Y-95003029D01*
X186231125Y-95007472D01*
X186204424Y-95016147D01*
X186204420Y-95016149D01*
X186181693Y-95032660D01*
X186171798Y-95038723D01*
X186146784Y-95051469D01*
X186146781Y-95051471D01*
X186112400Y-95085849D01*
X186112396Y-95085855D01*
X186016295Y-95181955D01*
X185970418Y-95203347D01*
X185921524Y-95190246D01*
X185892490Y-95148781D01*
X185890511Y-95138564D01*
X185885140Y-95094329D01*
X185885139Y-95094327D01*
X185885139Y-95094325D01*
X185824818Y-94935271D01*
X185728183Y-94795272D01*
X185600856Y-94682470D01*
X185600853Y-94682468D01*
X185600852Y-94682467D01*
X185450225Y-94603411D01*
X185450222Y-94603410D01*
X185285058Y-94562701D01*
X185285056Y-94562701D01*
X185114944Y-94562701D01*
X185114941Y-94562701D01*
X184988430Y-94593883D01*
X184938103Y-94588456D01*
X184903038Y-94551949D01*
X184897261Y-94530952D01*
X184885140Y-94431128D01*
X184824818Y-94272070D01*
X184728183Y-94132071D01*
X184600856Y-94019269D01*
X184600853Y-94019267D01*
X184600852Y-94019266D01*
X184450225Y-93940210D01*
X184450222Y-93940209D01*
X184285058Y-93899500D01*
X184285056Y-93899500D01*
X184114944Y-93899500D01*
X184114941Y-93899500D01*
X183949777Y-93940209D01*
X183849285Y-93992952D01*
X183799121Y-93999727D01*
X183756338Y-93972673D01*
X183753994Y-93969465D01*
X183753802Y-93969187D01*
X183728183Y-93932071D01*
X183628751Y-93843982D01*
X183600856Y-93819269D01*
X183600853Y-93819267D01*
X183600852Y-93819266D01*
X183450225Y-93740210D01*
X183450222Y-93740209D01*
X183285058Y-93699500D01*
X183285056Y-93699500D01*
X183114944Y-93699500D01*
X183114941Y-93699500D01*
X182949777Y-93740209D01*
X182799146Y-93819267D01*
X182799143Y-93819269D01*
X182671816Y-93932071D01*
X182575181Y-94072070D01*
X182543691Y-94155105D01*
X182510636Y-94193441D01*
X182460673Y-94201561D01*
X182417179Y-94175665D01*
X182400500Y-94128864D01*
X182400500Y-93396040D01*
X182417813Y-93348474D01*
X182447352Y-93327200D01*
X182484975Y-93312364D01*
X182600078Y-93225078D01*
X182687364Y-93109975D01*
X182740359Y-92975590D01*
X182750500Y-92891144D01*
X182750500Y-92308856D01*
X182749559Y-92301024D01*
X182748259Y-92290194D01*
X182740359Y-92224410D01*
X182687364Y-92090025D01*
X182600078Y-91974922D01*
X182484975Y-91887636D01*
X182484974Y-91887635D01*
X182484972Y-91887634D01*
X182450498Y-91874040D01*
X182447352Y-91872799D01*
X182409454Y-91839244D01*
X182400500Y-91803959D01*
X182400500Y-91674000D01*
X182417813Y-91626434D01*
X182461650Y-91601124D01*
X182474500Y-91600000D01*
X187295370Y-91600000D01*
X187342936Y-91617313D01*
X187363063Y-91644108D01*
X187397794Y-91722765D01*
X187477235Y-91802206D01*
X187509162Y-91816303D01*
X187545682Y-91851351D01*
X187551129Y-91901676D01*
X187531598Y-91936323D01*
X187315096Y-92152826D01*
X187269220Y-92174218D01*
X187262770Y-92174500D01*
X187106896Y-92174500D01*
X187018436Y-92185123D01*
X186877658Y-92240638D01*
X186757078Y-92332077D01*
X186757077Y-92332078D01*
X186665638Y-92452658D01*
X186610123Y-92593436D01*
X186599818Y-92679254D01*
X186599500Y-92681898D01*
X186599500Y-93718102D01*
X186599500Y-93718104D01*
X186599499Y-93718104D01*
X186606485Y-93776273D01*
X186610123Y-93806564D01*
X186619014Y-93829110D01*
X186665638Y-93947341D01*
X186720182Y-94019267D01*
X186757078Y-94067922D01*
X186877658Y-94159361D01*
X187018436Y-94214877D01*
X187089764Y-94223442D01*
X187106896Y-94225500D01*
X187106898Y-94225500D01*
X187693104Y-94225500D01*
X187708722Y-94223624D01*
X187781564Y-94214877D01*
X187922342Y-94159361D01*
X188042922Y-94067922D01*
X188134361Y-93947342D01*
X188189877Y-93806564D01*
X188200500Y-93718102D01*
X188200500Y-93562230D01*
X188217813Y-93514664D01*
X188222174Y-93509904D01*
X188507001Y-93225077D01*
X188873175Y-92858902D01*
X188919050Y-92837511D01*
X188967945Y-92850612D01*
X188996978Y-92892076D01*
X188999500Y-92911229D01*
X188999500Y-94090298D01*
X189009102Y-94132371D01*
X189009797Y-94136462D01*
X189014631Y-94179355D01*
X189014632Y-94179357D01*
X189028887Y-94220098D01*
X189030036Y-94224087D01*
X189039637Y-94266154D01*
X189039640Y-94266164D01*
X189058367Y-94305051D01*
X189059956Y-94308886D01*
X189074209Y-94349622D01*
X189074210Y-94349624D01*
X189097175Y-94386172D01*
X189099183Y-94389806D01*
X189117909Y-94428689D01*
X189117910Y-94428690D01*
X189144814Y-94462428D01*
X189147216Y-94465814D01*
X189170182Y-94502361D01*
X189170184Y-94502364D01*
X189198772Y-94530952D01*
X189202174Y-94534354D01*
X190777826Y-96110006D01*
X190799218Y-96155882D01*
X190799500Y-96162332D01*
X190799500Y-96425602D01*
X190782187Y-96473168D01*
X190738350Y-96498478D01*
X190725500Y-96499602D01*
X190555136Y-96499602D01*
X190530013Y-96502516D01*
X190530007Y-96502517D01*
X190427234Y-96547896D01*
X190347794Y-96627336D01*
X190302414Y-96730113D01*
X190299500Y-96755237D01*
X190299500Y-98844965D01*
X190302414Y-98870088D01*
X190302415Y-98870094D01*
X190324276Y-98919604D01*
X190347794Y-98972867D01*
X190427235Y-99052308D01*
X190530009Y-99097687D01*
X190555135Y-99100602D01*
X192644864Y-99100601D01*
X192669991Y-99097687D01*
X192772765Y-99052308D01*
X192852206Y-98972867D01*
X192897585Y-98870093D01*
X192900500Y-98844967D01*
X192900499Y-97320003D01*
X194154571Y-97320003D01*
X194174242Y-97532303D01*
X194174243Y-97532309D01*
X194232593Y-97737383D01*
X194232596Y-97737393D01*
X194327632Y-97928252D01*
X194327636Y-97928258D01*
X194372814Y-97988082D01*
X194456128Y-98098407D01*
X194613698Y-98242052D01*
X194794981Y-98354298D01*
X194993802Y-98431321D01*
X195203390Y-98470500D01*
X195416610Y-98470500D01*
X195626198Y-98431321D01*
X195825019Y-98354298D01*
X196006302Y-98242052D01*
X196163872Y-98098407D01*
X196292366Y-97928255D01*
X196387405Y-97737389D01*
X196445756Y-97532310D01*
X196445963Y-97530084D01*
X196465429Y-97320003D01*
X196694571Y-97320003D01*
X196714242Y-97532303D01*
X196714243Y-97532309D01*
X196772593Y-97737383D01*
X196772596Y-97737393D01*
X196867632Y-97928252D01*
X196867636Y-97928258D01*
X196912814Y-97988082D01*
X196996128Y-98098407D01*
X197153698Y-98242052D01*
X197334981Y-98354298D01*
X197533802Y-98431321D01*
X197743390Y-98470500D01*
X197956610Y-98470500D01*
X198166198Y-98431321D01*
X198365019Y-98354298D01*
X198546302Y-98242052D01*
X198703872Y-98098407D01*
X198832366Y-97928255D01*
X198927405Y-97737389D01*
X198985756Y-97532310D01*
X198985963Y-97530084D01*
X199005429Y-97320003D01*
X199005429Y-97319996D01*
X198985757Y-97107696D01*
X198985756Y-97107690D01*
X198984869Y-97104573D01*
X198927405Y-96902611D01*
X198923413Y-96894594D01*
X198832367Y-96711747D01*
X198832363Y-96711741D01*
X198808289Y-96679862D01*
X198703872Y-96541593D01*
X198546302Y-96397948D01*
X198365019Y-96285702D01*
X198166198Y-96208679D01*
X198074149Y-96191472D01*
X197956613Y-96169500D01*
X197956610Y-96169500D01*
X197743390Y-96169500D01*
X197743386Y-96169500D01*
X197586670Y-96198796D01*
X197533802Y-96208679D01*
X197533800Y-96208679D01*
X197533798Y-96208680D01*
X197334986Y-96285700D01*
X197334981Y-96285702D01*
X197334976Y-96285704D01*
X197334976Y-96285705D01*
X197153700Y-96397946D01*
X196996130Y-96541590D01*
X196867636Y-96711741D01*
X196867632Y-96711747D01*
X196772596Y-96902606D01*
X196772593Y-96902616D01*
X196714243Y-97107690D01*
X196714242Y-97107696D01*
X196694571Y-97319996D01*
X196694571Y-97320003D01*
X196465429Y-97320003D01*
X196465429Y-97319996D01*
X196445757Y-97107696D01*
X196445756Y-97107690D01*
X196444869Y-97104573D01*
X196387405Y-96902611D01*
X196383413Y-96894594D01*
X196292367Y-96711747D01*
X196292363Y-96711741D01*
X196268289Y-96679862D01*
X196163872Y-96541593D01*
X196006302Y-96397948D01*
X195825019Y-96285702D01*
X195626198Y-96208679D01*
X195534149Y-96191472D01*
X195416613Y-96169500D01*
X195416610Y-96169500D01*
X195203390Y-96169500D01*
X195203386Y-96169500D01*
X195046669Y-96198796D01*
X194993802Y-96208679D01*
X194993800Y-96208679D01*
X194993798Y-96208680D01*
X194794986Y-96285700D01*
X194794981Y-96285702D01*
X194794976Y-96285704D01*
X194794976Y-96285705D01*
X194613700Y-96397946D01*
X194456130Y-96541590D01*
X194327636Y-96711741D01*
X194327632Y-96711747D01*
X194232596Y-96902606D01*
X194232593Y-96902616D01*
X194174243Y-97107690D01*
X194174242Y-97107696D01*
X194154571Y-97319996D01*
X194154571Y-97320003D01*
X192900499Y-97320003D01*
X192900499Y-96755238D01*
X192897585Y-96730111D01*
X192852206Y-96627337D01*
X192772765Y-96547896D01*
X192669991Y-96502517D01*
X192669990Y-96502516D01*
X192669988Y-96502516D01*
X192644865Y-96499602D01*
X192474500Y-96499602D01*
X192426934Y-96482289D01*
X192401624Y-96438452D01*
X192400500Y-96425602D01*
X192400500Y-95709909D01*
X192392959Y-95676872D01*
X192390894Y-95667823D01*
X192390200Y-95663734D01*
X192389753Y-95659771D01*
X192385368Y-95620847D01*
X192371110Y-95580102D01*
X192369965Y-95576123D01*
X192360360Y-95534047D01*
X192360359Y-95534041D01*
X192341624Y-95495138D01*
X192340048Y-95491331D01*
X192325789Y-95450580D01*
X192302824Y-95414031D01*
X192300815Y-95410396D01*
X192282093Y-95371518D01*
X192282091Y-95371515D01*
X192255179Y-95337769D01*
X192252781Y-95334389D01*
X192229817Y-95297841D01*
X192102262Y-95170286D01*
X191711979Y-94780003D01*
X194154571Y-94780003D01*
X194174242Y-94992303D01*
X194174243Y-94992309D01*
X194232593Y-95197383D01*
X194232596Y-95197393D01*
X194327632Y-95388252D01*
X194327636Y-95388258D01*
X194345770Y-95412271D01*
X194456128Y-95558407D01*
X194613698Y-95702052D01*
X194794981Y-95814298D01*
X194993802Y-95891321D01*
X195203390Y-95930500D01*
X195416610Y-95930500D01*
X195626198Y-95891321D01*
X195825019Y-95814298D01*
X196006302Y-95702052D01*
X196163872Y-95558407D01*
X196292366Y-95388255D01*
X196387405Y-95197389D01*
X196445756Y-94992310D01*
X196446436Y-94984977D01*
X196465429Y-94780003D01*
X196694571Y-94780003D01*
X196714242Y-94992303D01*
X196714243Y-94992309D01*
X196772593Y-95197383D01*
X196772596Y-95197393D01*
X196867632Y-95388252D01*
X196867636Y-95388258D01*
X196885770Y-95412271D01*
X196996128Y-95558407D01*
X197153698Y-95702052D01*
X197334981Y-95814298D01*
X197533802Y-95891321D01*
X197743390Y-95930500D01*
X197956610Y-95930500D01*
X198166198Y-95891321D01*
X198365019Y-95814298D01*
X198546302Y-95702052D01*
X198703872Y-95558407D01*
X198832366Y-95388255D01*
X198927405Y-95197389D01*
X198985756Y-94992310D01*
X198986436Y-94984977D01*
X199005429Y-94780003D01*
X199005429Y-94779996D01*
X198985757Y-94567696D01*
X198985756Y-94567690D01*
X198938043Y-94400000D01*
X198927405Y-94362611D01*
X198923366Y-94354500D01*
X198832367Y-94171747D01*
X198832363Y-94171741D01*
X198805721Y-94136462D01*
X198703872Y-94001593D01*
X198694393Y-93992952D01*
X198644361Y-93947341D01*
X198546302Y-93857948D01*
X198365019Y-93745702D01*
X198166198Y-93668679D01*
X198074149Y-93651472D01*
X197956613Y-93629500D01*
X197956610Y-93629500D01*
X197743390Y-93629500D01*
X197743386Y-93629500D01*
X197586670Y-93658796D01*
X197533802Y-93668679D01*
X197533800Y-93668679D01*
X197533798Y-93668680D01*
X197334986Y-93745700D01*
X197334981Y-93745702D01*
X197334976Y-93745704D01*
X197334976Y-93745705D01*
X197153700Y-93857946D01*
X196996130Y-94001590D01*
X196867636Y-94171741D01*
X196867632Y-94171747D01*
X196772596Y-94362606D01*
X196772593Y-94362616D01*
X196714243Y-94567690D01*
X196714242Y-94567696D01*
X196694571Y-94779996D01*
X196694571Y-94780003D01*
X196465429Y-94780003D01*
X196465429Y-94779996D01*
X196445757Y-94567696D01*
X196445756Y-94567690D01*
X196398043Y-94400000D01*
X196387405Y-94362611D01*
X196383366Y-94354500D01*
X196292367Y-94171747D01*
X196292363Y-94171741D01*
X196265721Y-94136462D01*
X196163872Y-94001593D01*
X196154393Y-93992952D01*
X196104361Y-93947341D01*
X196006302Y-93857948D01*
X195825019Y-93745702D01*
X195626198Y-93668679D01*
X195534149Y-93651472D01*
X195416613Y-93629500D01*
X195416610Y-93629500D01*
X195203390Y-93629500D01*
X195203386Y-93629500D01*
X195046670Y-93658796D01*
X194993802Y-93668679D01*
X194993800Y-93668679D01*
X194993798Y-93668680D01*
X194794986Y-93745700D01*
X194794981Y-93745702D01*
X194794976Y-93745704D01*
X194794976Y-93745705D01*
X194613700Y-93857946D01*
X194456130Y-94001590D01*
X194327636Y-94171741D01*
X194327632Y-94171747D01*
X194232596Y-94362606D01*
X194232593Y-94362616D01*
X194174243Y-94567690D01*
X194174242Y-94567696D01*
X194154571Y-94779996D01*
X194154571Y-94780003D01*
X191711979Y-94780003D01*
X190622174Y-93690197D01*
X190600782Y-93644321D01*
X190600500Y-93637871D01*
X190600500Y-93562230D01*
X190617813Y-93514664D01*
X190622174Y-93509904D01*
X190857784Y-93274294D01*
X191097826Y-93034252D01*
X191097825Y-93034251D01*
X191119491Y-93012586D01*
X191119502Y-93012575D01*
X191129816Y-93002262D01*
X191152789Y-92965698D01*
X191155172Y-92962340D01*
X191182091Y-92928587D01*
X191200820Y-92889694D01*
X191202814Y-92886084D01*
X191225789Y-92849522D01*
X191240048Y-92808769D01*
X191241631Y-92804947D01*
X191260359Y-92766061D01*
X191269965Y-92723972D01*
X191271108Y-92720006D01*
X191285368Y-92679255D01*
X191290201Y-92636357D01*
X191290894Y-92632275D01*
X191300500Y-92590195D01*
X191300500Y-92409806D01*
X191300500Y-91924498D01*
X191317813Y-91876933D01*
X191361650Y-91851623D01*
X191374500Y-91850499D01*
X191494863Y-91850499D01*
X191494864Y-91850499D01*
X191519991Y-91847585D01*
X191622765Y-91802206D01*
X191702206Y-91722765D01*
X191736935Y-91644109D01*
X191771986Y-91607590D01*
X191804630Y-91600000D01*
X194223928Y-91600000D01*
X194271494Y-91617313D01*
X194296804Y-91661150D01*
X194290170Y-91706983D01*
X194232597Y-91822606D01*
X194232595Y-91822611D01*
X194232593Y-91822616D01*
X194174243Y-92027690D01*
X194174242Y-92027696D01*
X194154571Y-92239996D01*
X194154571Y-92240003D01*
X194174242Y-92452303D01*
X194174243Y-92452309D01*
X194232593Y-92657383D01*
X194232596Y-92657393D01*
X194327632Y-92848252D01*
X194327636Y-92848258D01*
X194360023Y-92891145D01*
X194456128Y-93018407D01*
X194613698Y-93162052D01*
X194794981Y-93274298D01*
X194993802Y-93351321D01*
X195203390Y-93390500D01*
X195416610Y-93390500D01*
X195626198Y-93351321D01*
X195825019Y-93274298D01*
X196006302Y-93162052D01*
X196163872Y-93018407D01*
X196292366Y-92848255D01*
X196387405Y-92657389D01*
X196445756Y-92452310D01*
X196449695Y-92409806D01*
X196465429Y-92240003D01*
X196465429Y-92239996D01*
X196445757Y-92027696D01*
X196445756Y-92027690D01*
X196409901Y-91901676D01*
X196387405Y-91822611D01*
X196329829Y-91706983D01*
X196324126Y-91656688D01*
X196352086Y-91614492D01*
X196396072Y-91600000D01*
X196763928Y-91600000D01*
X196811494Y-91617313D01*
X196836804Y-91661150D01*
X196830170Y-91706983D01*
X196772597Y-91822606D01*
X196772595Y-91822611D01*
X196772593Y-91822616D01*
X196714243Y-92027690D01*
X196714242Y-92027696D01*
X196694571Y-92239996D01*
X196694571Y-92240003D01*
X196714242Y-92452303D01*
X196714243Y-92452309D01*
X196772593Y-92657383D01*
X196772596Y-92657393D01*
X196867632Y-92848252D01*
X196867636Y-92848258D01*
X196900023Y-92891145D01*
X196996128Y-93018407D01*
X197153698Y-93162052D01*
X197334981Y-93274298D01*
X197533802Y-93351321D01*
X197743390Y-93390500D01*
X197956610Y-93390500D01*
X198166198Y-93351321D01*
X198365019Y-93274298D01*
X198546302Y-93162052D01*
X198703872Y-93018407D01*
X198832366Y-92848255D01*
X198927405Y-92657389D01*
X198985756Y-92452310D01*
X198989695Y-92409806D01*
X199005429Y-92240003D01*
X199005429Y-92239996D01*
X198985757Y-92027696D01*
X198985756Y-92027690D01*
X198949901Y-91901676D01*
X198927405Y-91822611D01*
X198869829Y-91706983D01*
X198864126Y-91656688D01*
X198892086Y-91614492D01*
X198936072Y-91600000D01*
X200925500Y-91600000D01*
X200973066Y-91617313D01*
X200998376Y-91661150D01*
X200999500Y-91674000D01*
X200999500Y-103798781D01*
X200999421Y-103801201D01*
X200994017Y-103883647D01*
X200980903Y-104066995D01*
X200980286Y-104071578D01*
X200956847Y-104189419D01*
X200925171Y-104335029D01*
X200924052Y-104339060D01*
X200883195Y-104459424D01*
X200833402Y-104592920D01*
X200831918Y-104596357D01*
X200774421Y-104712951D01*
X200707296Y-104835883D01*
X200705585Y-104838708D01*
X200633093Y-104947199D01*
X200631949Y-104948816D01*
X200549160Y-105059409D01*
X200547358Y-105061633D01*
X200460992Y-105160114D01*
X200459336Y-105161882D01*
X200361882Y-105259336D01*
X200360114Y-105260992D01*
X200261633Y-105347358D01*
X200259409Y-105349160D01*
X200148816Y-105431949D01*
X200147199Y-105433093D01*
X200038708Y-105505585D01*
X200035883Y-105507296D01*
X199912951Y-105574421D01*
X199796357Y-105631918D01*
X199792920Y-105633402D01*
X199659424Y-105683195D01*
X199539060Y-105724052D01*
X199535029Y-105725171D01*
X199389419Y-105756847D01*
X199271578Y-105780286D01*
X199266995Y-105780903D01*
X199083648Y-105794017D01*
X199001202Y-105799421D01*
X198998782Y-105799500D01*
X169001218Y-105799500D01*
X168998798Y-105799421D01*
X168916352Y-105794017D01*
X168733003Y-105780903D01*
X168728420Y-105780286D01*
X168610580Y-105756847D01*
X168464969Y-105725171D01*
X168460937Y-105724052D01*
X168378920Y-105696211D01*
X168340575Y-105683195D01*
X168314345Y-105673411D01*
X168207078Y-105633402D01*
X168203641Y-105631918D01*
X168087048Y-105574421D01*
X167997478Y-105525513D01*
X167964108Y-105507292D01*
X167961290Y-105505585D01*
X167852799Y-105433093D01*
X167851182Y-105431949D01*
X167740589Y-105349160D01*
X167738373Y-105347364D01*
X167639884Y-105260992D01*
X167638116Y-105259336D01*
X167540662Y-105161882D01*
X167539006Y-105160114D01*
X167522346Y-105141117D01*
X167452630Y-105061620D01*
X167450838Y-105059409D01*
X167368049Y-104948816D01*
X167366905Y-104947199D01*
X167294413Y-104838708D01*
X167292703Y-104835883D01*
X167242050Y-104743118D01*
X167225578Y-104712951D01*
X167168080Y-104596357D01*
X167166596Y-104592920D01*
X167162050Y-104580732D01*
X167116805Y-104459424D01*
X167075941Y-104339045D01*
X167074832Y-104335047D01*
X167043157Y-104189441D01*
X167019710Y-104071565D01*
X167019097Y-104067022D01*
X167005988Y-103883743D01*
X167000579Y-103801201D01*
X167000500Y-103798783D01*
X167000500Y-99860003D01*
X168754571Y-99860003D01*
X168774242Y-100072303D01*
X168774243Y-100072309D01*
X168832593Y-100277383D01*
X168832596Y-100277393D01*
X168927632Y-100468252D01*
X168927634Y-100468255D01*
X169056128Y-100638407D01*
X169213698Y-100782052D01*
X169394981Y-100894298D01*
X169593802Y-100971321D01*
X169803390Y-101010500D01*
X170016610Y-101010500D01*
X170226198Y-100971321D01*
X170425019Y-100894298D01*
X170606302Y-100782052D01*
X170763872Y-100638407D01*
X170892366Y-100468255D01*
X170987405Y-100277389D01*
X171045756Y-100072310D01*
X171048602Y-100041603D01*
X171065429Y-99860003D01*
X171065429Y-99859996D01*
X171045757Y-99647696D01*
X171045756Y-99647690D01*
X170987406Y-99442616D01*
X170987405Y-99442611D01*
X170985766Y-99439320D01*
X170892367Y-99251747D01*
X170892363Y-99251741D01*
X170888842Y-99247079D01*
X170763872Y-99081593D01*
X170606302Y-98937948D01*
X170425019Y-98825702D01*
X170226198Y-98748679D01*
X170134149Y-98731472D01*
X170016613Y-98709500D01*
X170016610Y-98709500D01*
X169803390Y-98709500D01*
X169803386Y-98709500D01*
X169646670Y-98738796D01*
X169593802Y-98748679D01*
X169593800Y-98748679D01*
X169593798Y-98748680D01*
X169394986Y-98825700D01*
X169394981Y-98825702D01*
X169394976Y-98825704D01*
X169394976Y-98825705D01*
X169213700Y-98937946D01*
X169056130Y-99081590D01*
X168927636Y-99251741D01*
X168927632Y-99251747D01*
X168832596Y-99442606D01*
X168832593Y-99442616D01*
X168774243Y-99647690D01*
X168774242Y-99647696D01*
X168754571Y-99859996D01*
X168754571Y-99860003D01*
X167000500Y-99860003D01*
X167000500Y-89700003D01*
X168754571Y-89700003D01*
X168774242Y-89912303D01*
X168774243Y-89912309D01*
X168832593Y-90117383D01*
X168832596Y-90117393D01*
X168927632Y-90308252D01*
X168927634Y-90308255D01*
X169056128Y-90478407D01*
X169213698Y-90622052D01*
X169394981Y-90734298D01*
X169593802Y-90811321D01*
X169803390Y-90850500D01*
X170016610Y-90850500D01*
X170226198Y-90811321D01*
X170425019Y-90734298D01*
X170606302Y-90622052D01*
X170763872Y-90478407D01*
X170892366Y-90308255D01*
X170987405Y-90117389D01*
X171045756Y-89912310D01*
X171056946Y-89791554D01*
X171065429Y-89700003D01*
X171065429Y-89699996D01*
X171045757Y-89487696D01*
X171045756Y-89487690D01*
X170987406Y-89282616D01*
X170987405Y-89282611D01*
X170972369Y-89252415D01*
X170892367Y-89091747D01*
X170892363Y-89091741D01*
X170888842Y-89087079D01*
X170763872Y-88921593D01*
X170606302Y-88777948D01*
X170425019Y-88665702D01*
X170226198Y-88588679D01*
X170134149Y-88571472D01*
X170016613Y-88549500D01*
X170016610Y-88549500D01*
X169803390Y-88549500D01*
X169803386Y-88549500D01*
X169667395Y-88574922D01*
X169593802Y-88588679D01*
X169593800Y-88588679D01*
X169593798Y-88588680D01*
X169394986Y-88665700D01*
X169394981Y-88665702D01*
X169394976Y-88665704D01*
X169394976Y-88665705D01*
X169213700Y-88777946D01*
X169056130Y-88921590D01*
X168927636Y-89091741D01*
X168927632Y-89091747D01*
X168832596Y-89282606D01*
X168832593Y-89282616D01*
X168774243Y-89487690D01*
X168774242Y-89487696D01*
X168754571Y-89699996D01*
X168754571Y-89700003D01*
X167000500Y-89700003D01*
X167000500Y-87160003D01*
X168754571Y-87160003D01*
X168774242Y-87372303D01*
X168774243Y-87372309D01*
X168832593Y-87577383D01*
X168832596Y-87577393D01*
X168927632Y-87768252D01*
X168927634Y-87768255D01*
X169056128Y-87938407D01*
X169213698Y-88082052D01*
X169394981Y-88194298D01*
X169593802Y-88271321D01*
X169803390Y-88310500D01*
X170016610Y-88310500D01*
X170226198Y-88271321D01*
X170425019Y-88194298D01*
X170606302Y-88082052D01*
X170763872Y-87938407D01*
X170892366Y-87768255D01*
X170987405Y-87577389D01*
X171045756Y-87372310D01*
X171052389Y-87300734D01*
X171065429Y-87160003D01*
X171294571Y-87160003D01*
X171314242Y-87372303D01*
X171314243Y-87372309D01*
X171372593Y-87577383D01*
X171372596Y-87577393D01*
X171467632Y-87768252D01*
X171467634Y-87768255D01*
X171596128Y-87938407D01*
X171753698Y-88082052D01*
X171934981Y-88194298D01*
X172133802Y-88271321D01*
X172343390Y-88310500D01*
X172556610Y-88310500D01*
X172766198Y-88271321D01*
X172965019Y-88194298D01*
X173146302Y-88082052D01*
X173303872Y-87938407D01*
X173432366Y-87768255D01*
X173468232Y-87696223D01*
X173504930Y-87661363D01*
X173529191Y-87655399D01*
X173547483Y-87654091D01*
X173557031Y-87650529D01*
X173572361Y-87646616D01*
X173582457Y-87645165D01*
X173630471Y-87623236D01*
X173632868Y-87622243D01*
X173682331Y-87603796D01*
X173690498Y-87597681D01*
X173704102Y-87589610D01*
X173713373Y-87585377D01*
X173753260Y-87550813D01*
X173755300Y-87549171D01*
X173768593Y-87539221D01*
X173780346Y-87527466D01*
X173782242Y-87525700D01*
X173822143Y-87491128D01*
X173827655Y-87482549D01*
X173837577Y-87470235D01*
X174550639Y-86757174D01*
X174596517Y-86735782D01*
X174602966Y-86735500D01*
X175591914Y-86735500D01*
X175635854Y-86749959D01*
X175675832Y-86779463D01*
X175687119Y-86787794D01*
X175815295Y-86832644D01*
X175815301Y-86832646D01*
X175845734Y-86835500D01*
X175845741Y-86835500D01*
X177604258Y-86835500D01*
X177604266Y-86835500D01*
X177634699Y-86832646D01*
X177762882Y-86787793D01*
X177872150Y-86707150D01*
X177952793Y-86597882D01*
X177997646Y-86469699D01*
X178000500Y-86439266D01*
X178000500Y-86030734D01*
X177997646Y-86000301D01*
X177952793Y-85872118D01*
X177950729Y-85869321D01*
X177872153Y-85762853D01*
X177872146Y-85762846D01*
X177762883Y-85682207D01*
X177762880Y-85682205D01*
X177727561Y-85669847D01*
X177688381Y-85637796D01*
X177678971Y-85588060D01*
X177703732Y-85543910D01*
X177727561Y-85530153D01*
X177762880Y-85517794D01*
X177762883Y-85517792D01*
X177766851Y-85514864D01*
X177872150Y-85437150D01*
X177952793Y-85327882D01*
X177997646Y-85199699D01*
X178000500Y-85169266D01*
X178000500Y-84760734D01*
X177997646Y-84730301D01*
X177952793Y-84602118D01*
X177952792Y-84602116D01*
X177872153Y-84492853D01*
X177872146Y-84492846D01*
X177762883Y-84412207D01*
X177762880Y-84412205D01*
X177727561Y-84399847D01*
X177688381Y-84367796D01*
X177678971Y-84318060D01*
X177703732Y-84273910D01*
X177727561Y-84260153D01*
X177762880Y-84247794D01*
X177762883Y-84247792D01*
X177772386Y-84240779D01*
X177872150Y-84167150D01*
X177952793Y-84057882D01*
X177997646Y-83929699D01*
X178000500Y-83899266D01*
X178000500Y-83490734D01*
X177997646Y-83460301D01*
X177979654Y-83408884D01*
X177952793Y-83332118D01*
X177952792Y-83332116D01*
X177872153Y-83222853D01*
X177872146Y-83222846D01*
X177762883Y-83142207D01*
X177762881Y-83142206D01*
X177634704Y-83097355D01*
X177634705Y-83097355D01*
X177634700Y-83097354D01*
X177634699Y-83097354D01*
X177604266Y-83094500D01*
X175845734Y-83094500D01*
X175815301Y-83097354D01*
X175815299Y-83097354D01*
X175815295Y-83097355D01*
X175687118Y-83142206D01*
X175687116Y-83142207D01*
X175577853Y-83222846D01*
X175577846Y-83222853D01*
X175497207Y-83332116D01*
X175497206Y-83332118D01*
X175452355Y-83460295D01*
X175452354Y-83460299D01*
X175452354Y-83460301D01*
X175449500Y-83490734D01*
X175449500Y-83899266D01*
X175452354Y-83929699D01*
X175452354Y-83929701D01*
X175452355Y-83929704D01*
X175497206Y-84057881D01*
X175497207Y-84057883D01*
X175577846Y-84167146D01*
X175577853Y-84167153D01*
X175687116Y-84247792D01*
X175687118Y-84247793D01*
X175722439Y-84260153D01*
X175761618Y-84292204D01*
X175771028Y-84341941D01*
X175746267Y-84386090D01*
X175722439Y-84399847D01*
X175687119Y-84412205D01*
X175657577Y-84434009D01*
X175635854Y-84450040D01*
X175591914Y-84464500D01*
X174582966Y-84464500D01*
X174535400Y-84447187D01*
X174530640Y-84442826D01*
X174397581Y-84309767D01*
X174387654Y-84297448D01*
X174382143Y-84288872D01*
X174357973Y-84267929D01*
X174342267Y-84254319D01*
X174340333Y-84252519D01*
X174328594Y-84240780D01*
X174315309Y-84230835D01*
X174313253Y-84229178D01*
X174273376Y-84194625D01*
X174273371Y-84194622D01*
X174264098Y-84190387D01*
X174250499Y-84182318D01*
X174242330Y-84176203D01*
X174192900Y-84157767D01*
X174190460Y-84156756D01*
X174142464Y-84134837D01*
X174142458Y-84134835D01*
X174142457Y-84134835D01*
X174142454Y-84134834D01*
X174142452Y-84134834D01*
X174132356Y-84133382D01*
X174117034Y-84129471D01*
X174107485Y-84125909D01*
X174107476Y-84125907D01*
X174054859Y-84122144D01*
X174052235Y-84121862D01*
X174035811Y-84119501D01*
X174035803Y-84119500D01*
X174035799Y-84119500D01*
X174035792Y-84119500D01*
X174019195Y-84119500D01*
X174016575Y-84119406D01*
X173978150Y-84116658D01*
X173963931Y-84115641D01*
X173963924Y-84115641D01*
X173953961Y-84117809D01*
X173938231Y-84119500D01*
X173674499Y-84119500D01*
X173626933Y-84102187D01*
X173601623Y-84058350D01*
X173600499Y-84045500D01*
X173600499Y-83725136D01*
X173597585Y-83700013D01*
X173597585Y-83700011D01*
X173597585Y-83700009D01*
X173552206Y-83597235D01*
X173472765Y-83517794D01*
X173369991Y-83472415D01*
X173369990Y-83472414D01*
X173369988Y-83472414D01*
X173348659Y-83469940D01*
X173344865Y-83469500D01*
X173344864Y-83469500D01*
X171555136Y-83469500D01*
X171530013Y-83472414D01*
X171530007Y-83472415D01*
X171427234Y-83517794D01*
X171347794Y-83597234D01*
X171302414Y-83700011D01*
X171299500Y-83725135D01*
X171299500Y-85514863D01*
X171302414Y-85539986D01*
X171302415Y-85539992D01*
X171323639Y-85588060D01*
X171347794Y-85642765D01*
X171427235Y-85722206D01*
X171530009Y-85767585D01*
X171555135Y-85770500D01*
X173344864Y-85770499D01*
X173369991Y-85767585D01*
X173472765Y-85722206D01*
X173552206Y-85642765D01*
X173597585Y-85539991D01*
X173600500Y-85514865D01*
X173600500Y-85194500D01*
X173617813Y-85146934D01*
X173661650Y-85121624D01*
X173674500Y-85120500D01*
X173762034Y-85120500D01*
X173809600Y-85137813D01*
X173814360Y-85142174D01*
X173947418Y-85275232D01*
X173957344Y-85287550D01*
X173962857Y-85296128D01*
X174002740Y-85330687D01*
X174004665Y-85332479D01*
X174016408Y-85344222D01*
X174029695Y-85354168D01*
X174031754Y-85355827D01*
X174071627Y-85390377D01*
X174079051Y-85393767D01*
X174080900Y-85394612D01*
X174094501Y-85402682D01*
X174102670Y-85408797D01*
X174152110Y-85427236D01*
X174154543Y-85428243D01*
X174202543Y-85450165D01*
X174212639Y-85451616D01*
X174227960Y-85455526D01*
X174237517Y-85459091D01*
X174290149Y-85462855D01*
X174292744Y-85463133D01*
X174309201Y-85465500D01*
X174325805Y-85465500D01*
X174328424Y-85465593D01*
X174381073Y-85469359D01*
X174391038Y-85467191D01*
X174406769Y-85465500D01*
X175591914Y-85465500D01*
X175635854Y-85479959D01*
X175675832Y-85509463D01*
X175687119Y-85517794D01*
X175722439Y-85530153D01*
X175761618Y-85562204D01*
X175771028Y-85611941D01*
X175746267Y-85656090D01*
X175722439Y-85669847D01*
X175687119Y-85682205D01*
X175657577Y-85704009D01*
X175635854Y-85720040D01*
X175591914Y-85734500D01*
X174426769Y-85734500D01*
X174411039Y-85732809D01*
X174401075Y-85730641D01*
X174401068Y-85730641D01*
X174384418Y-85731832D01*
X174348424Y-85734406D01*
X174345805Y-85734500D01*
X174329201Y-85734500D01*
X174323655Y-85735297D01*
X174312763Y-85736862D01*
X174310139Y-85737144D01*
X174257520Y-85740908D01*
X174257518Y-85740908D01*
X174247959Y-85744473D01*
X174232643Y-85748382D01*
X174222549Y-85749834D01*
X174222546Y-85749834D01*
X174222543Y-85749835D01*
X174222542Y-85749835D01*
X174222539Y-85749836D01*
X174174548Y-85771752D01*
X174172109Y-85772762D01*
X174122668Y-85791204D01*
X174114499Y-85797319D01*
X174100901Y-85805387D01*
X174091628Y-85809622D01*
X174091626Y-85809623D01*
X174051756Y-85844170D01*
X174049701Y-85845826D01*
X174036408Y-85855777D01*
X174024661Y-85867523D01*
X174022730Y-85869321D01*
X173982855Y-85903873D01*
X173977341Y-85912453D01*
X173967417Y-85924767D01*
X173452945Y-86439239D01*
X173407069Y-86460631D01*
X173358174Y-86447530D01*
X173341565Y-86431507D01*
X173303871Y-86381592D01*
X173303872Y-86381592D01*
X173213045Y-86298793D01*
X173146302Y-86237948D01*
X172965019Y-86125702D01*
X172766198Y-86048679D01*
X172670201Y-86030734D01*
X172556613Y-86009500D01*
X172556610Y-86009500D01*
X172343390Y-86009500D01*
X172343386Y-86009500D01*
X172186669Y-86038796D01*
X172133802Y-86048679D01*
X172133800Y-86048679D01*
X172133798Y-86048680D01*
X171934986Y-86125700D01*
X171934981Y-86125702D01*
X171934976Y-86125704D01*
X171934976Y-86125705D01*
X171753700Y-86237946D01*
X171596130Y-86381590D01*
X171467636Y-86551741D01*
X171467632Y-86551747D01*
X171372596Y-86742606D01*
X171372593Y-86742616D01*
X171314243Y-86947690D01*
X171314242Y-86947696D01*
X171294571Y-87159996D01*
X171294571Y-87160003D01*
X171065429Y-87160003D01*
X171065429Y-87159996D01*
X171045757Y-86947696D01*
X171045756Y-86947690D01*
X171033467Y-86904500D01*
X170987405Y-86742611D01*
X170983864Y-86735500D01*
X170892367Y-86551747D01*
X170892363Y-86551741D01*
X170852912Y-86499500D01*
X170763872Y-86381593D01*
X170606302Y-86237948D01*
X170425019Y-86125702D01*
X170226198Y-86048679D01*
X170130201Y-86030734D01*
X170016613Y-86009500D01*
X170016610Y-86009500D01*
X169803390Y-86009500D01*
X169803386Y-86009500D01*
X169646669Y-86038796D01*
X169593802Y-86048679D01*
X169593800Y-86048679D01*
X169593798Y-86048680D01*
X169394986Y-86125700D01*
X169394981Y-86125702D01*
X169394976Y-86125704D01*
X169394976Y-86125705D01*
X169213700Y-86237946D01*
X169056130Y-86381590D01*
X168927636Y-86551741D01*
X168927632Y-86551747D01*
X168832596Y-86742606D01*
X168832593Y-86742616D01*
X168774243Y-86947690D01*
X168774242Y-86947696D01*
X168754571Y-87159996D01*
X168754571Y-87160003D01*
X167000500Y-87160003D01*
X167000500Y-83801217D01*
X167000579Y-83798797D01*
X167005982Y-83716359D01*
X167007151Y-83700011D01*
X167019097Y-83532973D01*
X167019709Y-83528438D01*
X167043155Y-83410567D01*
X167074834Y-83264943D01*
X167075938Y-83260963D01*
X167116813Y-83140551D01*
X167166603Y-83007060D01*
X167168074Y-83003653D01*
X167225577Y-82887048D01*
X167227034Y-82884380D01*
X167292720Y-82764085D01*
X167294400Y-82761311D01*
X167366922Y-82652774D01*
X167368031Y-82651206D01*
X167450854Y-82540568D01*
X167452608Y-82538403D01*
X167539035Y-82439852D01*
X167540632Y-82438147D01*
X167638147Y-82340632D01*
X167639852Y-82339035D01*
X167738403Y-82252608D01*
X167740568Y-82250854D01*
X167851206Y-82168031D01*
X167852774Y-82166922D01*
X167961311Y-82094400D01*
X167964085Y-82092720D01*
X168087037Y-82025583D01*
X168203653Y-81968074D01*
X168207060Y-81966603D01*
X168340551Y-81916813D01*
X168460963Y-81875938D01*
X168464943Y-81874834D01*
X168610567Y-81843155D01*
X168728438Y-81819709D01*
X168732973Y-81819097D01*
X168916208Y-81805991D01*
X168991274Y-81801071D01*
X168998797Y-81800579D01*
X169001217Y-81800500D01*
X178926000Y-81800500D01*
X178973566Y-81817813D01*
G37*
%TD.AperFunction*%
%TD*%
%TA.AperFunction,Conductor*%
%TO.N,+3V3*%
G36*
X199001203Y-81800579D02*
G01*
X199010704Y-81801201D01*
X199083743Y-81805988D01*
X199267022Y-81819097D01*
X199271565Y-81819710D01*
X199389441Y-81843157D01*
X199535047Y-81874832D01*
X199539045Y-81875941D01*
X199659429Y-81916806D01*
X199792925Y-81966598D01*
X199796357Y-81968080D01*
X199912951Y-82025578D01*
X199966934Y-82055054D01*
X200035894Y-82092709D01*
X200038708Y-82094413D01*
X200147199Y-82166905D01*
X200148816Y-82168049D01*
X200259409Y-82250838D01*
X200261620Y-82252630D01*
X200360114Y-82339006D01*
X200361882Y-82340662D01*
X200459336Y-82438116D01*
X200460992Y-82439884D01*
X200547364Y-82538373D01*
X200549160Y-82540589D01*
X200631949Y-82651182D01*
X200633093Y-82652799D01*
X200705585Y-82761290D01*
X200707296Y-82764115D01*
X200774421Y-82887048D01*
X200831918Y-83003641D01*
X200833402Y-83007078D01*
X200883192Y-83140568D01*
X200883749Y-83142207D01*
X200924052Y-83260937D01*
X200925171Y-83264969D01*
X200956847Y-83410580D01*
X200980286Y-83528420D01*
X200980903Y-83533003D01*
X200994017Y-83716352D01*
X200999421Y-83798798D01*
X200999500Y-83801218D01*
X200999500Y-90726000D01*
X200982187Y-90773566D01*
X200938350Y-90798876D01*
X200925500Y-90800000D01*
X198518989Y-90800000D01*
X198471423Y-90782687D01*
X198446113Y-90738850D01*
X198454903Y-90689000D01*
X198480033Y-90663084D01*
X198546302Y-90622052D01*
X198703872Y-90478407D01*
X198832366Y-90308255D01*
X198927405Y-90117389D01*
X198985756Y-89912310D01*
X198989006Y-89877245D01*
X199005429Y-89700003D01*
X199005429Y-89699996D01*
X198985757Y-89487696D01*
X198985756Y-89487690D01*
X198927406Y-89282616D01*
X198927405Y-89282611D01*
X198912369Y-89252415D01*
X198832367Y-89091747D01*
X198832363Y-89091741D01*
X198755491Y-88989947D01*
X198703872Y-88921593D01*
X198546302Y-88777948D01*
X198365019Y-88665702D01*
X198166198Y-88588679D01*
X198074149Y-88571472D01*
X197956613Y-88549500D01*
X197956610Y-88549500D01*
X197743390Y-88549500D01*
X197743386Y-88549500D01*
X197607395Y-88574922D01*
X197533802Y-88588679D01*
X197533800Y-88588679D01*
X197533798Y-88588680D01*
X197334986Y-88665700D01*
X197334981Y-88665702D01*
X197334976Y-88665704D01*
X197334976Y-88665705D01*
X197153700Y-88777946D01*
X196996130Y-88921590D01*
X196867636Y-89091741D01*
X196867632Y-89091747D01*
X196772596Y-89282606D01*
X196772593Y-89282616D01*
X196714243Y-89487690D01*
X196714242Y-89487696D01*
X196694571Y-89699996D01*
X196694571Y-89700003D01*
X196714242Y-89912303D01*
X196714243Y-89912309D01*
X196772593Y-90117383D01*
X196772596Y-90117393D01*
X196867632Y-90308252D01*
X196867634Y-90308255D01*
X196996128Y-90478407D01*
X197153698Y-90622052D01*
X197153700Y-90622053D01*
X197219967Y-90663084D01*
X197251295Y-90702844D01*
X197249736Y-90753439D01*
X197216020Y-90791195D01*
X197181011Y-90800000D01*
X195978989Y-90800000D01*
X195931423Y-90782687D01*
X195906113Y-90738850D01*
X195914903Y-90689000D01*
X195940033Y-90663084D01*
X196006302Y-90622052D01*
X196163872Y-90478407D01*
X196292366Y-90308255D01*
X196387405Y-90117389D01*
X196445756Y-89912310D01*
X196449006Y-89877245D01*
X196465429Y-89700003D01*
X196465429Y-89699996D01*
X196445757Y-89487696D01*
X196445756Y-89487690D01*
X196387406Y-89282616D01*
X196387405Y-89282611D01*
X196372369Y-89252415D01*
X196292367Y-89091747D01*
X196292363Y-89091741D01*
X196215491Y-88989947D01*
X196163872Y-88921593D01*
X196006302Y-88777948D01*
X195825019Y-88665702D01*
X195626198Y-88588679D01*
X195534149Y-88571472D01*
X195416613Y-88549500D01*
X195416610Y-88549500D01*
X195203390Y-88549500D01*
X195203386Y-88549500D01*
X195067395Y-88574922D01*
X194993802Y-88588679D01*
X194993800Y-88588679D01*
X194993798Y-88588680D01*
X194794986Y-88665700D01*
X194794981Y-88665702D01*
X194794976Y-88665704D01*
X194794976Y-88665705D01*
X194613700Y-88777946D01*
X194456130Y-88921590D01*
X194327636Y-89091741D01*
X194327632Y-89091747D01*
X194232596Y-89282606D01*
X194232593Y-89282616D01*
X194174243Y-89487690D01*
X194174242Y-89487696D01*
X194154571Y-89699996D01*
X194154571Y-89700003D01*
X194174242Y-89912303D01*
X194174243Y-89912309D01*
X194232593Y-90117383D01*
X194232596Y-90117393D01*
X194327632Y-90308252D01*
X194327634Y-90308255D01*
X194456128Y-90478407D01*
X194613698Y-90622052D01*
X194613700Y-90622053D01*
X194679967Y-90663084D01*
X194711295Y-90702844D01*
X194709736Y-90753439D01*
X194676020Y-90791195D01*
X194641011Y-90800000D01*
X191824500Y-90800000D01*
X191776934Y-90782687D01*
X191751624Y-90738850D01*
X191750500Y-90726000D01*
X191750499Y-89505136D01*
X191748476Y-89487696D01*
X191747585Y-89480009D01*
X191702206Y-89377235D01*
X191622765Y-89297794D01*
X191519991Y-89252415D01*
X191519990Y-89252414D01*
X191519988Y-89252414D01*
X191498659Y-89249940D01*
X191494865Y-89249500D01*
X191494864Y-89249500D01*
X189905136Y-89249500D01*
X189880013Y-89252414D01*
X189880007Y-89252415D01*
X189777234Y-89297794D01*
X189697794Y-89377234D01*
X189652414Y-89480011D01*
X189651523Y-89487696D01*
X189649500Y-89505135D01*
X189649500Y-90549999D01*
X189649501Y-90726000D01*
X189632188Y-90773566D01*
X189588351Y-90798876D01*
X189575501Y-90800000D01*
X187224499Y-90800000D01*
X187176933Y-90782687D01*
X187151623Y-90738850D01*
X187150499Y-90726000D01*
X187150499Y-90603434D01*
X187150677Y-90599805D01*
X187150689Y-90599675D01*
X187155583Y-90550000D01*
X187150677Y-90500191D01*
X187150499Y-90496563D01*
X187150499Y-89505136D01*
X187148476Y-89487696D01*
X187147585Y-89480009D01*
X187102206Y-89377235D01*
X187022765Y-89297794D01*
X186919991Y-89252415D01*
X186919990Y-89252414D01*
X186919988Y-89252414D01*
X186898659Y-89249940D01*
X186894865Y-89249500D01*
X186894864Y-89249500D01*
X185305136Y-89249500D01*
X185280013Y-89252414D01*
X185280007Y-89252415D01*
X185177234Y-89297794D01*
X185097794Y-89377234D01*
X185052414Y-89480011D01*
X185049500Y-89505135D01*
X185049500Y-90084215D01*
X185032187Y-90131781D01*
X185027826Y-90136541D01*
X184794963Y-90369404D01*
X184792271Y-90371844D01*
X184753591Y-90403588D01*
X184753589Y-90403590D01*
X184633435Y-90550000D01*
X184622317Y-90563546D01*
X184524771Y-90746038D01*
X184524766Y-90746050D01*
X184524332Y-90747482D01*
X184523978Y-90747953D01*
X184523380Y-90749398D01*
X184523009Y-90749244D01*
X184493957Y-90787974D01*
X184453519Y-90800000D01*
X180074000Y-90800000D01*
X180026434Y-90782687D01*
X180001124Y-90738850D01*
X180000000Y-90726000D01*
X180000000Y-89936208D01*
X180017313Y-89888642D01*
X180061150Y-89863332D01*
X180111000Y-89872122D01*
X180118713Y-89877244D01*
X180165025Y-89912364D01*
X180299410Y-89965359D01*
X180373713Y-89974282D01*
X180383855Y-89975500D01*
X180383856Y-89975500D01*
X180916145Y-89975500D01*
X180925198Y-89974412D01*
X181000590Y-89965359D01*
X181134975Y-89912364D01*
X181250078Y-89825078D01*
X181337364Y-89709975D01*
X181390359Y-89575590D01*
X181400500Y-89491144D01*
X181400500Y-88908856D01*
X181390359Y-88824410D01*
X181347148Y-88714835D01*
X181337365Y-88690027D01*
X181337364Y-88690026D01*
X181337364Y-88690025D01*
X181250078Y-88574922D01*
X181134975Y-88487636D01*
X181134974Y-88487635D01*
X181134972Y-88487634D01*
X181000590Y-88434641D01*
X180916145Y-88424500D01*
X180916144Y-88424500D01*
X180383856Y-88424500D01*
X180383855Y-88424500D01*
X180299409Y-88434641D01*
X180165025Y-88487635D01*
X180118713Y-88522755D01*
X180070351Y-88537701D01*
X180023696Y-88518064D01*
X180000579Y-88473031D01*
X180000000Y-88463791D01*
X180000000Y-88329916D01*
X180017313Y-88282350D01*
X180047763Y-88260723D01*
X180050217Y-88259791D01*
X180050225Y-88259790D01*
X180200852Y-88180734D01*
X180328183Y-88067929D01*
X180335407Y-88057462D01*
X180376676Y-88028152D01*
X180396308Y-88025500D01*
X180569013Y-88025500D01*
X180612954Y-88039959D01*
X180637118Y-88057793D01*
X180637120Y-88057793D01*
X180637122Y-88057795D01*
X180765295Y-88102644D01*
X180765301Y-88102646D01*
X180795734Y-88105500D01*
X180795741Y-88105500D01*
X182554258Y-88105500D01*
X182554266Y-88105500D01*
X182584699Y-88102646D01*
X182712882Y-88057793D01*
X182822150Y-87977150D01*
X182902793Y-87867882D01*
X182947646Y-87739699D01*
X182950500Y-87709266D01*
X182950500Y-87300734D01*
X182947646Y-87270301D01*
X182909051Y-87160003D01*
X194154571Y-87160003D01*
X194174242Y-87372303D01*
X194174243Y-87372309D01*
X194232593Y-87577383D01*
X194232596Y-87577393D01*
X194327632Y-87768252D01*
X194327634Y-87768255D01*
X194456128Y-87938407D01*
X194613698Y-88082052D01*
X194794981Y-88194298D01*
X194993802Y-88271321D01*
X195203390Y-88310500D01*
X195416610Y-88310500D01*
X195626198Y-88271321D01*
X195825019Y-88194298D01*
X196006302Y-88082052D01*
X196163872Y-87938407D01*
X196292366Y-87768255D01*
X196387405Y-87577389D01*
X196445756Y-87372310D01*
X196452389Y-87300734D01*
X196465429Y-87160003D01*
X196694571Y-87160003D01*
X196714242Y-87372303D01*
X196714243Y-87372309D01*
X196772593Y-87577383D01*
X196772596Y-87577393D01*
X196867632Y-87768252D01*
X196867634Y-87768255D01*
X196996128Y-87938407D01*
X197153698Y-88082052D01*
X197334981Y-88194298D01*
X197533802Y-88271321D01*
X197743390Y-88310500D01*
X197956610Y-88310500D01*
X198166198Y-88271321D01*
X198365019Y-88194298D01*
X198546302Y-88082052D01*
X198703872Y-87938407D01*
X198832366Y-87768255D01*
X198927405Y-87577389D01*
X198985756Y-87372310D01*
X198992389Y-87300734D01*
X199005429Y-87160003D01*
X199005429Y-87159996D01*
X198985757Y-86947696D01*
X198985756Y-86947690D01*
X198973467Y-86904500D01*
X198927405Y-86742611D01*
X198923864Y-86735500D01*
X198832367Y-86551747D01*
X198832363Y-86551741D01*
X198747425Y-86439266D01*
X198703872Y-86381593D01*
X198546302Y-86237948D01*
X198365019Y-86125702D01*
X198166198Y-86048679D01*
X198070201Y-86030734D01*
X197956613Y-86009500D01*
X197956610Y-86009500D01*
X197743390Y-86009500D01*
X197743386Y-86009500D01*
X197586670Y-86038796D01*
X197533802Y-86048679D01*
X197533800Y-86048679D01*
X197533798Y-86048680D01*
X197334986Y-86125700D01*
X197334981Y-86125702D01*
X197334976Y-86125704D01*
X197334976Y-86125705D01*
X197153700Y-86237946D01*
X196996130Y-86381590D01*
X196867636Y-86551741D01*
X196867632Y-86551747D01*
X196772596Y-86742606D01*
X196772593Y-86742616D01*
X196714243Y-86947690D01*
X196714242Y-86947696D01*
X196694571Y-87159996D01*
X196694571Y-87160003D01*
X196465429Y-87160003D01*
X196465429Y-87159996D01*
X196445757Y-86947696D01*
X196445756Y-86947690D01*
X196433467Y-86904500D01*
X196387405Y-86742611D01*
X196383864Y-86735500D01*
X196292367Y-86551747D01*
X196292363Y-86551741D01*
X196207425Y-86439266D01*
X196163872Y-86381593D01*
X196006302Y-86237948D01*
X195825019Y-86125702D01*
X195626198Y-86048679D01*
X195530201Y-86030734D01*
X195416613Y-86009500D01*
X195416610Y-86009500D01*
X195203390Y-86009500D01*
X195203386Y-86009500D01*
X195046669Y-86038796D01*
X194993802Y-86048679D01*
X194993800Y-86048679D01*
X194993798Y-86048680D01*
X194794986Y-86125700D01*
X194794981Y-86125702D01*
X194794976Y-86125704D01*
X194794976Y-86125705D01*
X194613700Y-86237946D01*
X194456130Y-86381590D01*
X194327636Y-86551741D01*
X194327632Y-86551747D01*
X194232596Y-86742606D01*
X194232593Y-86742616D01*
X194174243Y-86947690D01*
X194174242Y-86947696D01*
X194154571Y-87159996D01*
X194154571Y-87160003D01*
X182909051Y-87160003D01*
X182902793Y-87142118D01*
X182897749Y-87135283D01*
X182822153Y-87032853D01*
X182822146Y-87032846D01*
X182712883Y-86952207D01*
X182712880Y-86952205D01*
X182677561Y-86939847D01*
X182638381Y-86907796D01*
X182628971Y-86858060D01*
X182653732Y-86813910D01*
X182677561Y-86800153D01*
X182712880Y-86787794D01*
X182712883Y-86787792D01*
X182774109Y-86742606D01*
X182822150Y-86707150D01*
X182902793Y-86597882D01*
X182947646Y-86469699D01*
X182950500Y-86439266D01*
X182950500Y-86030734D01*
X182947646Y-86000301D01*
X182902793Y-85872118D01*
X182902792Y-85872116D01*
X182822153Y-85762853D01*
X182822146Y-85762846D01*
X182712883Y-85682207D01*
X182712881Y-85682206D01*
X182584704Y-85637355D01*
X182584705Y-85637355D01*
X182584700Y-85637354D01*
X182584699Y-85637354D01*
X182554266Y-85634500D01*
X180795734Y-85634500D01*
X180765301Y-85637354D01*
X180765299Y-85637354D01*
X180765295Y-85637355D01*
X180637119Y-85682205D01*
X180607577Y-85704009D01*
X180585854Y-85720040D01*
X180541914Y-85734500D01*
X180074000Y-85734500D01*
X180026434Y-85717187D01*
X180001124Y-85673350D01*
X180000000Y-85660500D01*
X180000000Y-85514863D01*
X196699500Y-85514863D01*
X196702414Y-85539986D01*
X196702415Y-85539991D01*
X196747794Y-85642765D01*
X196827235Y-85722206D01*
X196930009Y-85767585D01*
X196955135Y-85770500D01*
X198744864Y-85770499D01*
X198769991Y-85767585D01*
X198872765Y-85722206D01*
X198952206Y-85642765D01*
X198997585Y-85539991D01*
X199000500Y-85514865D01*
X199000499Y-83725136D01*
X198997585Y-83700009D01*
X198952206Y-83597235D01*
X198872765Y-83517794D01*
X198769991Y-83472415D01*
X198769990Y-83472414D01*
X198769988Y-83472414D01*
X198748659Y-83469940D01*
X198744865Y-83469500D01*
X198744864Y-83469500D01*
X196955136Y-83469500D01*
X196930013Y-83472414D01*
X196930007Y-83472415D01*
X196827234Y-83517794D01*
X196747794Y-83597234D01*
X196702414Y-83700011D01*
X196699500Y-83725135D01*
X196699500Y-85514863D01*
X180000000Y-85514863D01*
X180000000Y-84529916D01*
X180017313Y-84482350D01*
X180047763Y-84460723D01*
X180050217Y-84459791D01*
X180050225Y-84459790D01*
X180200852Y-84380734D01*
X180328183Y-84267929D01*
X180335407Y-84257462D01*
X180376676Y-84228152D01*
X180396308Y-84225500D01*
X180582562Y-84225500D01*
X180626505Y-84239960D01*
X180637119Y-84247794D01*
X180765295Y-84292644D01*
X180765301Y-84292646D01*
X180795734Y-84295500D01*
X180795741Y-84295500D01*
X182554258Y-84295500D01*
X182554266Y-84295500D01*
X182584699Y-84292646D01*
X182712882Y-84247793D01*
X182822150Y-84167150D01*
X182902793Y-84057882D01*
X182947646Y-83929699D01*
X182950500Y-83899266D01*
X182950500Y-83490734D01*
X182947646Y-83460301D01*
X182929654Y-83408884D01*
X182902793Y-83332118D01*
X182902792Y-83332116D01*
X182822153Y-83222853D01*
X182822146Y-83222846D01*
X182712883Y-83142207D01*
X182712881Y-83142206D01*
X182584704Y-83097355D01*
X182584705Y-83097355D01*
X182584700Y-83097354D01*
X182584699Y-83097354D01*
X182554266Y-83094500D01*
X180795734Y-83094500D01*
X180765301Y-83097354D01*
X180765299Y-83097354D01*
X180765295Y-83097355D01*
X180637118Y-83142206D01*
X180637116Y-83142207D01*
X180527853Y-83222846D01*
X180527849Y-83222850D01*
X180447276Y-83332024D01*
X180405101Y-83360015D01*
X180354800Y-83354347D01*
X180332044Y-83334632D01*
X180331153Y-83335423D01*
X180328184Y-83332072D01*
X180200856Y-83219269D01*
X180200853Y-83219267D01*
X180200852Y-83219266D01*
X180050225Y-83140210D01*
X180050224Y-83140209D01*
X180050217Y-83140206D01*
X180047754Y-83139272D01*
X180046692Y-83138356D01*
X180046261Y-83138130D01*
X180046313Y-83138029D01*
X180009420Y-83106214D01*
X180000000Y-83070083D01*
X180000000Y-81874500D01*
X180017313Y-81826934D01*
X180061150Y-81801624D01*
X180074000Y-81800500D01*
X198998783Y-81800500D01*
X199001203Y-81800579D01*
G37*
%TD.AperFunction*%
%TD*%
M02*
