%TF.GenerationSoftware,KiCad,Pcbnew,7.0.7-2.fc38*%
%TF.CreationDate,2023-11-16T23:21:00-08:00*%
%TF.ProjectId,TinySparrow,54696e79-5370-4617-9272-6f772e6b6963,rev?*%
%TF.SameCoordinates,Original*%
%TF.FileFunction,Soldermask,Top*%
%TF.FilePolarity,Negative*%
%FSLAX46Y46*%
G04 Gerber Fmt 4.6, Leading zero omitted, Abs format (unit mm)*
G04 Created by KiCad (PCBNEW 7.0.7-2.fc38) date 2023-11-16 23:21:00*
%MOMM*%
%LPD*%
G01*
G04 APERTURE LIST*
G04 Aperture macros list*
%AMRoundRect*
0 Rectangle with rounded corners*
0 $1 Rounding radius*
0 $2 $3 $4 $5 $6 $7 $8 $9 X,Y pos of 4 corners*
0 Add a 4 corners polygon primitive as box body*
4,1,4,$2,$3,$4,$5,$6,$7,$8,$9,$2,$3,0*
0 Add four circle primitives for the rounded corners*
1,1,$1+$1,$2,$3*
1,1,$1+$1,$4,$5*
1,1,$1+$1,$6,$7*
1,1,$1+$1,$8,$9*
0 Add four rect primitives between the rounded corners*
20,1,$1+$1,$2,$3,$4,$5,0*
20,1,$1+$1,$4,$5,$6,$7,0*
20,1,$1+$1,$6,$7,$8,$9,0*
20,1,$1+$1,$8,$9,$2,$3,0*%
%AMRotRect*
0 Rectangle, with rotation*
0 The origin of the aperture is its center*
0 $1 length*
0 $2 width*
0 $3 Rotation angle, in degrees counterclockwise*
0 Add horizontal line*
21,1,$1,$2,0,0,$3*%
G04 Aperture macros list end*
%ADD10RoundRect,0.250000X0.250000X0.475000X-0.250000X0.475000X-0.250000X-0.475000X0.250000X-0.475000X0*%
%ADD11RoundRect,0.062500X-0.291682X-0.380070X0.380070X0.291682X0.291682X0.380070X-0.380070X-0.291682X0*%
%ADD12RoundRect,0.062500X0.291682X-0.380070X0.380070X-0.291682X-0.291682X0.380070X-0.380070X0.291682X0*%
%ADD13RotRect,4.100000X4.100000X45.000000*%
%ADD14R,2.000000X2.000000*%
%ADD15RoundRect,0.225000X0.225000X0.250000X-0.225000X0.250000X-0.225000X-0.250000X0.225000X-0.250000X0*%
%ADD16RoundRect,0.225000X-0.250000X0.225000X-0.250000X-0.225000X0.250000X-0.225000X0.250000X0.225000X0*%
%ADD17RoundRect,0.225000X0.250000X-0.225000X0.250000X0.225000X-0.250000X0.225000X-0.250000X-0.225000X0*%
%ADD18RoundRect,0.225000X-0.225000X-0.250000X0.225000X-0.250000X0.225000X0.250000X-0.225000X0.250000X0*%
%ADD19R,1.500000X2.000000*%
%ADD20R,3.800000X2.000000*%
%ADD21R,1.700000X1.700000*%
%ADD22O,1.700000X1.700000*%
%ADD23RoundRect,0.150000X0.825000X0.150000X-0.825000X0.150000X-0.825000X-0.150000X0.825000X-0.150000X0*%
G04 APERTURE END LIST*
D10*
%TO.C,C6*%
X187400000Y-93200000D03*
X185500000Y-93200000D03*
%TD*%
D11*
%TO.C,U1*%
X177748107Y-99360938D03*
X178101660Y-99714491D03*
X178455214Y-100068045D03*
X178808767Y-100421598D03*
X179162321Y-100775151D03*
X179515874Y-101128705D03*
X179869427Y-101482258D03*
X180222981Y-101835812D03*
X180576534Y-102189365D03*
D12*
X181760938Y-102189365D03*
X182114491Y-101835812D03*
X182468045Y-101482258D03*
X182821598Y-101128705D03*
X183175151Y-100775151D03*
X183528705Y-100421598D03*
X183882258Y-100068045D03*
X184235812Y-99714491D03*
X184589365Y-99360938D03*
D11*
X184589365Y-98176534D03*
X184235812Y-97822981D03*
X183882258Y-97469427D03*
X183528705Y-97115874D03*
X183175151Y-96762321D03*
X182821598Y-96408767D03*
X182468045Y-96055214D03*
X182114491Y-95701660D03*
X181760938Y-95348107D03*
D12*
X180576534Y-95348107D03*
X180222981Y-95701660D03*
X179869427Y-96055214D03*
X179515874Y-96408767D03*
X179162321Y-96762321D03*
X178808767Y-97115874D03*
X178455214Y-97469427D03*
X178101660Y-97822981D03*
X177748107Y-98176534D03*
D13*
X181168736Y-98768736D03*
%TD*%
D14*
%TO.C,D1*%
X191600000Y-97800102D03*
X191600000Y-102199898D03*
%TD*%
D15*
%TO.C,C5*%
X182200000Y-89200000D03*
X180650000Y-89200000D03*
%TD*%
%TO.C,C2*%
X182000000Y-104800000D03*
X180450000Y-104800000D03*
%TD*%
D16*
%TO.C,C4*%
X175200000Y-98825000D03*
X175200000Y-100375000D03*
%TD*%
D17*
%TO.C,C3*%
X187400000Y-99550000D03*
X187400000Y-98000000D03*
%TD*%
D10*
%TO.C,C7*%
X191700000Y-93200000D03*
X189800000Y-93200000D03*
%TD*%
D18*
%TO.C,C1*%
X180450000Y-92600000D03*
X182000000Y-92600000D03*
%TD*%
D19*
%TO.C,U2*%
X186100000Y-90550000D03*
X188400000Y-90550000D03*
D20*
X188400000Y-84250000D03*
D19*
X190700000Y-90550000D03*
%TD*%
D21*
%TO.C,J1*%
X172450000Y-84620000D03*
D22*
X169910000Y-84620000D03*
X172450000Y-87160000D03*
X169910000Y-87160000D03*
X172450000Y-89700000D03*
X169910000Y-89700000D03*
X172450000Y-92240000D03*
X169910000Y-92240000D03*
X172450000Y-94780000D03*
X169910000Y-94780000D03*
X172450000Y-97320000D03*
X169910000Y-97320000D03*
X172450000Y-99860000D03*
X169910000Y-99860000D03*
X172450000Y-102400000D03*
X169910000Y-102400000D03*
%TD*%
D23*
%TO.C,U3*%
X181675000Y-87505000D03*
X181675000Y-86235000D03*
X181675000Y-84965000D03*
X181675000Y-83695000D03*
X176725000Y-83695000D03*
X176725000Y-84965000D03*
X176725000Y-86235000D03*
X176725000Y-87505000D03*
%TD*%
D21*
%TO.C,J2*%
X197850000Y-84620000D03*
D22*
X195310000Y-84620000D03*
X197850000Y-87160000D03*
X195310000Y-87160000D03*
X197850000Y-89700000D03*
X195310000Y-89700000D03*
X197850000Y-92240000D03*
X195310000Y-92240000D03*
X197850000Y-94780000D03*
X195310000Y-94780000D03*
X197850000Y-97320000D03*
X195310000Y-97320000D03*
X197850000Y-99860000D03*
X195310000Y-99860000D03*
X197850000Y-102400000D03*
X195310000Y-102400000D03*
%TD*%
M02*
