%TF.GenerationSoftware,KiCad,Pcbnew,7.0.7-2.fc38*%
%TF.CreationDate,2023-11-16T23:21:04-08:00*%
%TF.ProjectId,TinySparrow,54696e79-5370-4617-9272-6f772e6b6963,rev?*%
%TF.SameCoordinates,Original*%
%TF.FileFunction,Drillmap*%
%TF.FilePolarity,Positive*%
%FSLAX45Y45*%
G04 Gerber Fmt 4.5, Leading zero omitted, Abs format (unit mm)*
G04 Created by KiCad (PCBNEW 7.0.7-2.fc38) date 2023-11-16 23:21:04*
%MOMM*%
%LPD*%
G01*
G04 APERTURE LIST*
%ADD10C,0.100000*%
%ADD11C,0.200000*%
G04 APERTURE END LIST*
D10*
X16900000Y-8180000D02*
G75*
G03*
X16700000Y-8380000I0J-200000D01*
G01*
X16900000Y-8180000D02*
X19900000Y-8180000D01*
X16700000Y-10380000D02*
X16700000Y-8380000D01*
X16900000Y-10580000D02*
X19900000Y-10580000D01*
X19900000Y-10580000D02*
G75*
G03*
X20100000Y-10380000I0J200000D01*
G01*
X20100000Y-10380000D02*
X20100000Y-8380000D01*
X20100000Y-8380000D02*
G75*
G03*
X19900000Y-8180000I-200000J0D01*
G01*
X16700000Y-10380000D02*
G75*
G03*
X16900000Y-10580000I200000J0D01*
G01*
D11*
X16955777Y-10896484D02*
X16955777Y-10696484D01*
X16955777Y-10696484D02*
X17003396Y-10696484D01*
X17003396Y-10696484D02*
X17031967Y-10706008D01*
X17031967Y-10706008D02*
X17051015Y-10725055D01*
X17051015Y-10725055D02*
X17060539Y-10744103D01*
X17060539Y-10744103D02*
X17070063Y-10782198D01*
X17070063Y-10782198D02*
X17070063Y-10810770D01*
X17070063Y-10810770D02*
X17060539Y-10848865D01*
X17060539Y-10848865D02*
X17051015Y-10867912D01*
X17051015Y-10867912D02*
X17031967Y-10886960D01*
X17031967Y-10886960D02*
X17003396Y-10896484D01*
X17003396Y-10896484D02*
X16955777Y-10896484D01*
X17155777Y-10896484D02*
X17155777Y-10763150D01*
X17155777Y-10801246D02*
X17165301Y-10782198D01*
X17165301Y-10782198D02*
X17174824Y-10772674D01*
X17174824Y-10772674D02*
X17193872Y-10763150D01*
X17193872Y-10763150D02*
X17212920Y-10763150D01*
X17279586Y-10896484D02*
X17279586Y-10763150D01*
X17279586Y-10696484D02*
X17270063Y-10706008D01*
X17270063Y-10706008D02*
X17279586Y-10715531D01*
X17279586Y-10715531D02*
X17289110Y-10706008D01*
X17289110Y-10706008D02*
X17279586Y-10696484D01*
X17279586Y-10696484D02*
X17279586Y-10715531D01*
X17403396Y-10896484D02*
X17384348Y-10886960D01*
X17384348Y-10886960D02*
X17374824Y-10867912D01*
X17374824Y-10867912D02*
X17374824Y-10696484D01*
X17508158Y-10896484D02*
X17489110Y-10886960D01*
X17489110Y-10886960D02*
X17479586Y-10867912D01*
X17479586Y-10867912D02*
X17479586Y-10696484D01*
X17736729Y-10896484D02*
X17736729Y-10696484D01*
X17736729Y-10696484D02*
X17803396Y-10839341D01*
X17803396Y-10839341D02*
X17870063Y-10696484D01*
X17870063Y-10696484D02*
X17870063Y-10896484D01*
X18051015Y-10896484D02*
X18051015Y-10791722D01*
X18051015Y-10791722D02*
X18041491Y-10772674D01*
X18041491Y-10772674D02*
X18022444Y-10763150D01*
X18022444Y-10763150D02*
X17984348Y-10763150D01*
X17984348Y-10763150D02*
X17965301Y-10772674D01*
X18051015Y-10886960D02*
X18031967Y-10896484D01*
X18031967Y-10896484D02*
X17984348Y-10896484D01*
X17984348Y-10896484D02*
X17965301Y-10886960D01*
X17965301Y-10886960D02*
X17955777Y-10867912D01*
X17955777Y-10867912D02*
X17955777Y-10848865D01*
X17955777Y-10848865D02*
X17965301Y-10829817D01*
X17965301Y-10829817D02*
X17984348Y-10820293D01*
X17984348Y-10820293D02*
X18031967Y-10820293D01*
X18031967Y-10820293D02*
X18051015Y-10810770D01*
X18146253Y-10763150D02*
X18146253Y-10963150D01*
X18146253Y-10772674D02*
X18165301Y-10763150D01*
X18165301Y-10763150D02*
X18203396Y-10763150D01*
X18203396Y-10763150D02*
X18222444Y-10772674D01*
X18222444Y-10772674D02*
X18231967Y-10782198D01*
X18231967Y-10782198D02*
X18241491Y-10801246D01*
X18241491Y-10801246D02*
X18241491Y-10858389D01*
X18241491Y-10858389D02*
X18231967Y-10877436D01*
X18231967Y-10877436D02*
X18222444Y-10886960D01*
X18222444Y-10886960D02*
X18203396Y-10896484D01*
X18203396Y-10896484D02*
X18165301Y-10896484D01*
X18165301Y-10896484D02*
X18146253Y-10886960D01*
X18327205Y-10877436D02*
X18336729Y-10886960D01*
X18336729Y-10886960D02*
X18327205Y-10896484D01*
X18327205Y-10896484D02*
X18317682Y-10886960D01*
X18317682Y-10886960D02*
X18327205Y-10877436D01*
X18327205Y-10877436D02*
X18327205Y-10896484D01*
X18327205Y-10772674D02*
X18336729Y-10782198D01*
X18336729Y-10782198D02*
X18327205Y-10791722D01*
X18327205Y-10791722D02*
X18317682Y-10782198D01*
X18317682Y-10782198D02*
X18327205Y-10772674D01*
X18327205Y-10772674D02*
X18327205Y-10791722D01*
M02*
