M48
; DRILL file {KiCad 7.0.7-2.fc38} date Thu Nov 16 23:21:04 2023
; FORMAT={-:-/ absolute / metric / decimal}
; #@! TF.CreationDate,2023-11-16T23:21:04-08:00
; #@! TF.GenerationSoftware,Kicad,Pcbnew,7.0.7-2.fc38
; #@! TF.FileFunction,Plated,1,6,PTH
FMAT,2
METRIC
; #@! TA.AperFunction,Plated,PTH,ViaDrill
T1C0.400
; #@! TA.AperFunction,Plated,PTH,ComponentDrill
T2C1.000
%
G90
G05
T1
X169.2Y-105.2
X170.2Y-105.2
X171.2Y-105.2
X172.2Y-105.2
X174.4Y-101.4
X175.0Y-89.2
X175.0Y-90.2
X175.0Y-91.2
X175.6Y-104.0
X176.0Y-89.2
X176.0Y-90.2
X176.0Y-91.2
X176.4Y-96.524
X176.6Y-98.8
X177.0Y-89.2
X177.0Y-90.2
X177.0Y-91.2
X178.2Y-103.4
X178.4Y-104.8
X179.2Y-103.4
X179.8Y-83.8
X179.8Y-87.6
X180.2Y-98.8
X180.2Y-103.4
X181.2Y-97.8
X181.2Y-98.8
X181.2Y-99.8
X182.0Y-90.8
X182.2Y-98.8
X183.2Y-94.4
X183.388Y-104.648
X183.8Y-92.6
X184.2Y-84.0
X184.2Y-85.0
X184.2Y-94.6
X184.388Y-104.648
X185.2Y-95.263
X185.42Y-104.648
X186.0Y-97.2
X186.418Y-104.599
X187.0Y-87.2
X187.0Y-88.2
X187.4Y-97.0
X188.0Y-87.2
X188.0Y-88.2
X188.158Y-102.541
X188.214Y-101.092
X188.8Y-97.0
X188.812Y-95.988
X189.0Y-87.2
X189.0Y-88.2
X189.153Y-102.632
X189.214Y-101.092
X190.0Y-87.2
X190.0Y-88.2
X200.4Y-95.2
X200.4Y-96.2
X200.4Y-97.2
X200.4Y-98.2
X200.4Y-99.2
X200.4Y-100.2
X200.4Y-101.2
X200.4Y-102.2
T2
X169.91Y-84.62
X169.91Y-87.16
X169.91Y-89.7
X169.91Y-92.24
X169.91Y-94.78
X169.91Y-97.32
X169.91Y-99.86
X169.91Y-102.4
X172.45Y-84.62
X172.45Y-87.16
X172.45Y-89.7
X172.45Y-92.24
X172.45Y-94.78
X172.45Y-97.32
X172.45Y-99.86
X172.45Y-102.4
X195.31Y-84.62
X195.31Y-87.16
X195.31Y-89.7
X195.31Y-92.24
X195.31Y-94.78
X195.31Y-97.32
X195.31Y-99.86
X195.31Y-102.4
X197.85Y-84.62
X197.85Y-87.16
X197.85Y-89.7
X197.85Y-92.24
X197.85Y-94.78
X197.85Y-97.32
X197.85Y-99.86
X197.85Y-102.4
T0
M30
