%TF.GenerationSoftware,KiCad,Pcbnew,7.0.7-2.fc38*%
%TF.CreationDate,2023-11-16T23:20:59-08:00*%
%TF.ProjectId,TinySparrow,54696e79-5370-4617-9272-6f772e6b6963,rev?*%
%TF.SameCoordinates,Original*%
%TF.FileFunction,Legend,Top*%
%TF.FilePolarity,Positive*%
%FSLAX46Y46*%
G04 Gerber Fmt 4.6, Leading zero omitted, Abs format (unit mm)*
G04 Created by KiCad (PCBNEW 7.0.7-2.fc38) date 2023-11-16 23:20:59*
%MOMM*%
%LPD*%
G01*
G04 APERTURE LIST*
%ADD10C,0.150000*%
%ADD11C,0.175000*%
%ADD12C,0.120000*%
%ADD13C,0.152400*%
%ADD14C,0.059995*%
G04 APERTURE END LIST*
D10*
G36*
X190665980Y-104987394D02*
G01*
X190666472Y-104997988D01*
X190667948Y-105007899D01*
X190670408Y-105017126D01*
X190673852Y-105025670D01*
X190678280Y-105033530D01*
X190683693Y-105040707D01*
X190690089Y-105047200D01*
X190697469Y-105053010D01*
X190705833Y-105058136D01*
X190715182Y-105062579D01*
X190725514Y-105066338D01*
X190736830Y-105069414D01*
X190749131Y-105071806D01*
X190762415Y-105073515D01*
X190776684Y-105074540D01*
X190791936Y-105074882D01*
X190807188Y-105074575D01*
X190821457Y-105073655D01*
X190834741Y-105072123D01*
X190847042Y-105069977D01*
X190858358Y-105067218D01*
X190868690Y-105063846D01*
X190878039Y-105059861D01*
X190886403Y-105055263D01*
X190893783Y-105050052D01*
X190903009Y-105041085D01*
X190910020Y-105030739D01*
X190914817Y-105019014D01*
X190916785Y-105010431D01*
X190917769Y-105001234D01*
X190917892Y-104996406D01*
X190917219Y-104986154D01*
X190915199Y-104976389D01*
X190911833Y-104967112D01*
X190907121Y-104958323D01*
X190901062Y-104950021D01*
X190893657Y-104942207D01*
X190884906Y-104934881D01*
X190877458Y-104929707D01*
X190874808Y-104928043D01*
X190866567Y-104923133D01*
X190858002Y-104918378D01*
X190849112Y-104913777D01*
X190839898Y-104909331D01*
X190830359Y-104905039D01*
X190820495Y-104900902D01*
X190810307Y-104896920D01*
X190799795Y-104893092D01*
X190788957Y-104889418D01*
X190777795Y-104885899D01*
X190770174Y-104883639D01*
X190758675Y-104880253D01*
X190747175Y-104876769D01*
X190735676Y-104873189D01*
X190724177Y-104869513D01*
X190712678Y-104865739D01*
X190701178Y-104861870D01*
X190689679Y-104857903D01*
X190678180Y-104853840D01*
X190666681Y-104849681D01*
X190655181Y-104845424D01*
X190647515Y-104842533D01*
X190636176Y-104837891D01*
X190625158Y-104832786D01*
X190614461Y-104827216D01*
X190604084Y-104821183D01*
X190594028Y-104814687D01*
X190584292Y-104807726D01*
X190574878Y-104800302D01*
X190565784Y-104792415D01*
X190557011Y-104784063D01*
X190548558Y-104775248D01*
X190543101Y-104769114D01*
X190535402Y-104759500D01*
X190528459Y-104749454D01*
X190522274Y-104738975D01*
X190516847Y-104728063D01*
X190512177Y-104716718D01*
X190508264Y-104704941D01*
X190505108Y-104692730D01*
X190502710Y-104680087D01*
X190501069Y-104667012D01*
X190500396Y-104658054D01*
X190500059Y-104648904D01*
X190500017Y-104644257D01*
X190500416Y-104624701D01*
X190501615Y-104605766D01*
X190503612Y-104587452D01*
X190506409Y-104569759D01*
X190510004Y-104552687D01*
X190514399Y-104536235D01*
X190519592Y-104520404D01*
X190525585Y-104505194D01*
X190532376Y-104490605D01*
X190539966Y-104476637D01*
X190548356Y-104463289D01*
X190557544Y-104450563D01*
X190567532Y-104438457D01*
X190578318Y-104426972D01*
X190589903Y-104416107D01*
X190602288Y-104405864D01*
X190615471Y-104396241D01*
X190629453Y-104387239D01*
X190644234Y-104378858D01*
X190659815Y-104371098D01*
X190676194Y-104363959D01*
X190693372Y-104357440D01*
X190711350Y-104351542D01*
X190730126Y-104346265D01*
X190749701Y-104341609D01*
X190770075Y-104337574D01*
X190791248Y-104334160D01*
X190813221Y-104331366D01*
X190835992Y-104329193D01*
X190859562Y-104327641D01*
X190883931Y-104326710D01*
X190909099Y-104326399D01*
X190918357Y-104326455D01*
X190927472Y-104326620D01*
X190936445Y-104326896D01*
X190945277Y-104327282D01*
X190962513Y-104328385D01*
X190979180Y-104329930D01*
X190995279Y-104331916D01*
X191010810Y-104334344D01*
X191025772Y-104337213D01*
X191040166Y-104340523D01*
X191053991Y-104344274D01*
X191067248Y-104348467D01*
X191079937Y-104353101D01*
X191092057Y-104358177D01*
X191103609Y-104363694D01*
X191114592Y-104369652D01*
X191125007Y-104376052D01*
X191134853Y-104382893D01*
X191144143Y-104390098D01*
X191152833Y-104397645D01*
X191160925Y-104405533D01*
X191168417Y-104413764D01*
X191175309Y-104422336D01*
X191181602Y-104431249D01*
X191187296Y-104440505D01*
X191192390Y-104450102D01*
X191196886Y-104460041D01*
X191200781Y-104470322D01*
X191204078Y-104480945D01*
X191206775Y-104491909D01*
X191208873Y-104503215D01*
X191210371Y-104514863D01*
X191211270Y-104526852D01*
X191211570Y-104539184D01*
X191211422Y-104548313D01*
X191210979Y-104557346D01*
X191210240Y-104566283D01*
X191209207Y-104575124D01*
X191207877Y-104583869D01*
X191206253Y-104592517D01*
X191203807Y-104603193D01*
X191202117Y-104609526D01*
X191199148Y-104619495D01*
X191196145Y-104628519D01*
X191192500Y-104638102D01*
X191188809Y-104646325D01*
X191184444Y-104654199D01*
X191182554Y-104657006D01*
X191172442Y-104672174D01*
X190948227Y-104672174D01*
X190954770Y-104664631D01*
X190960441Y-104656622D01*
X190965239Y-104648145D01*
X190969165Y-104639201D01*
X190972218Y-104629790D01*
X190974399Y-104619912D01*
X190975708Y-104609567D01*
X190976144Y-104598755D01*
X190975723Y-104588773D01*
X190974461Y-104579435D01*
X190972357Y-104570741D01*
X190967624Y-104558907D01*
X190960997Y-104548523D01*
X190952477Y-104539587D01*
X190942063Y-104532101D01*
X190934069Y-104527915D01*
X190925234Y-104524373D01*
X190915556Y-104521475D01*
X190905038Y-104519221D01*
X190893678Y-104517611D01*
X190881476Y-104516645D01*
X190868433Y-104516323D01*
X190852036Y-104516659D01*
X190836697Y-104517669D01*
X190822415Y-104519352D01*
X190809192Y-104521708D01*
X190797026Y-104524738D01*
X190785918Y-104528440D01*
X190775869Y-104532816D01*
X190766877Y-104537865D01*
X190758943Y-104543587D01*
X190752066Y-104549982D01*
X190746248Y-104557051D01*
X190741488Y-104564793D01*
X190737785Y-104573208D01*
X190735140Y-104582296D01*
X190733554Y-104592057D01*
X190733025Y-104602491D01*
X190733698Y-104612984D01*
X190735717Y-104622921D01*
X190739083Y-104632301D01*
X190743796Y-104641125D01*
X190749854Y-104649392D01*
X190757260Y-104657103D01*
X190766011Y-104664257D01*
X190773458Y-104669258D01*
X190776109Y-104670855D01*
X190784348Y-104675502D01*
X190792907Y-104679964D01*
X190801787Y-104684240D01*
X190810988Y-104688331D01*
X190820510Y-104692236D01*
X190830352Y-104695956D01*
X190840515Y-104699490D01*
X190850998Y-104702839D01*
X190861803Y-104706002D01*
X190872928Y-104708980D01*
X190880523Y-104710862D01*
X190892028Y-104713644D01*
X190903545Y-104716550D01*
X190915073Y-104719579D01*
X190926613Y-104722732D01*
X190938164Y-104726009D01*
X190949727Y-104729409D01*
X190961302Y-104732933D01*
X190972888Y-104736581D01*
X190984486Y-104740352D01*
X190996095Y-104744247D01*
X191003841Y-104746912D01*
X191015335Y-104751203D01*
X191026489Y-104755995D01*
X191037303Y-104761290D01*
X191047777Y-104767087D01*
X191057911Y-104773387D01*
X191067705Y-104780189D01*
X191077159Y-104787493D01*
X191086273Y-104795300D01*
X191095047Y-104803609D01*
X191103481Y-104812420D01*
X191108914Y-104818573D01*
X191116614Y-104828192D01*
X191123556Y-104838336D01*
X191129741Y-104849006D01*
X191135169Y-104860201D01*
X191139839Y-104871922D01*
X191143752Y-104884168D01*
X191146908Y-104896940D01*
X191148591Y-104905747D01*
X191149937Y-104914787D01*
X191150947Y-104924060D01*
X191151620Y-104933567D01*
X191151957Y-104943308D01*
X191151999Y-104948266D01*
X191151905Y-104958228D01*
X191151623Y-104968029D01*
X191151153Y-104977669D01*
X191150494Y-104987146D01*
X191149648Y-104996463D01*
X191148614Y-105005618D01*
X191147392Y-105014612D01*
X191145981Y-105023444D01*
X191144383Y-105032115D01*
X191140622Y-105048972D01*
X191136109Y-105065184D01*
X191130843Y-105080750D01*
X191124826Y-105095670D01*
X191118056Y-105109944D01*
X191110534Y-105123573D01*
X191102260Y-105136556D01*
X191093234Y-105148893D01*
X191083455Y-105160585D01*
X191072925Y-105171631D01*
X191061642Y-105182031D01*
X191055718Y-105186989D01*
X191043305Y-105196412D01*
X191030078Y-105205227D01*
X191016040Y-105213434D01*
X191001190Y-105221033D01*
X190985527Y-105228025D01*
X190969051Y-105234408D01*
X190960509Y-105237372D01*
X190951764Y-105240183D01*
X190942815Y-105242843D01*
X190933664Y-105245351D01*
X190924309Y-105247707D01*
X190914752Y-105249910D01*
X190904991Y-105251962D01*
X190895027Y-105253862D01*
X190884861Y-105255610D01*
X190874491Y-105257206D01*
X190863918Y-105258649D01*
X190853142Y-105259941D01*
X190842163Y-105261081D01*
X190830980Y-105262069D01*
X190819595Y-105262905D01*
X190808007Y-105263589D01*
X190796215Y-105264121D01*
X190784221Y-105264501D01*
X190772023Y-105264729D01*
X190759623Y-105264805D01*
X190747244Y-105264735D01*
X190735113Y-105264527D01*
X190723229Y-105264181D01*
X190711592Y-105263695D01*
X190700203Y-105263071D01*
X190689061Y-105262309D01*
X190678166Y-105261407D01*
X190667519Y-105260367D01*
X190657119Y-105259188D01*
X190646966Y-105257871D01*
X190637060Y-105256415D01*
X190627402Y-105254820D01*
X190617991Y-105253087D01*
X190608827Y-105251215D01*
X190599911Y-105249204D01*
X190591242Y-105247054D01*
X190574645Y-105242340D01*
X190559038Y-105237070D01*
X190544420Y-105231246D01*
X190530792Y-105224867D01*
X190518152Y-105217933D01*
X190506502Y-105210444D01*
X190495840Y-105202401D01*
X190486168Y-105193803D01*
X190479567Y-105186996D01*
X190473391Y-105179872D01*
X190467642Y-105172433D01*
X190462318Y-105164677D01*
X190457420Y-105156606D01*
X190452948Y-105148219D01*
X190448902Y-105139515D01*
X190445282Y-105130496D01*
X190442088Y-105121160D01*
X190439320Y-105111509D01*
X190436977Y-105101541D01*
X190435061Y-105091258D01*
X190433570Y-105080659D01*
X190432505Y-105069743D01*
X190431866Y-105058512D01*
X190431653Y-105046965D01*
X190431774Y-105038017D01*
X190432134Y-105028871D01*
X190432735Y-105019525D01*
X190433577Y-105009980D01*
X190434659Y-105000236D01*
X190435981Y-104990293D01*
X190437544Y-104980150D01*
X190439347Y-104969808D01*
X190443084Y-104949365D01*
X190671036Y-104949365D01*
X190668398Y-104964752D01*
X190666924Y-104973810D01*
X190666096Y-104982854D01*
X190665980Y-104987394D01*
G37*
G36*
X191795918Y-104335476D02*
G01*
X191813162Y-104335990D01*
X191829761Y-104337017D01*
X191845717Y-104338557D01*
X191861029Y-104340611D01*
X191875697Y-104343178D01*
X191889720Y-104346259D01*
X191903100Y-104349854D01*
X191915836Y-104353961D01*
X191927928Y-104358583D01*
X191939375Y-104363718D01*
X191950179Y-104369366D01*
X191960339Y-104375528D01*
X191969855Y-104382203D01*
X191978726Y-104389392D01*
X191986954Y-104397094D01*
X191990826Y-104401138D01*
X191998762Y-104410902D01*
X192005917Y-104421153D01*
X192012291Y-104431891D01*
X192017885Y-104443116D01*
X192022698Y-104454828D01*
X192026731Y-104467027D01*
X192029983Y-104479712D01*
X192031717Y-104488440D01*
X192033105Y-104497383D01*
X192034146Y-104506544D01*
X192034840Y-104515920D01*
X192035186Y-104525513D01*
X192035230Y-104530391D01*
X192035052Y-104540450D01*
X192034519Y-104550680D01*
X192033630Y-104561079D01*
X192032618Y-104569875D01*
X192031359Y-104578789D01*
X192030174Y-104586005D01*
X192004675Y-104729107D01*
X192002024Y-104742096D01*
X191998798Y-104754795D01*
X191994997Y-104767203D01*
X191990620Y-104779322D01*
X191985668Y-104791150D01*
X191980141Y-104802688D01*
X191974039Y-104813935D01*
X191967361Y-104824893D01*
X191960108Y-104835560D01*
X191952279Y-104845937D01*
X191943875Y-104856024D01*
X191934896Y-104865820D01*
X191925342Y-104875327D01*
X191915212Y-104884543D01*
X191904507Y-104893469D01*
X191893227Y-104902104D01*
X191881528Y-104910303D01*
X191869511Y-104917972D01*
X191857176Y-104925113D01*
X191844523Y-104931725D01*
X191831553Y-104937808D01*
X191818265Y-104943361D01*
X191804660Y-104948386D01*
X191790737Y-104952882D01*
X191776496Y-104956849D01*
X191761937Y-104960287D01*
X191747061Y-104963197D01*
X191731866Y-104965577D01*
X191716355Y-104967428D01*
X191700525Y-104968750D01*
X191684378Y-104969544D01*
X191667913Y-104969808D01*
X191517337Y-104969808D01*
X191467878Y-105247000D01*
X191239926Y-105247000D01*
X191323736Y-104772191D01*
X191551409Y-104772191D01*
X191664176Y-104772191D01*
X191676804Y-104771831D01*
X191688751Y-104770749D01*
X191700016Y-104768946D01*
X191710599Y-104766421D01*
X191720500Y-104763175D01*
X191729720Y-104759208D01*
X191738257Y-104754520D01*
X191746113Y-104749110D01*
X191753288Y-104742980D01*
X191759780Y-104736127D01*
X191765591Y-104728554D01*
X191770719Y-104720259D01*
X191775166Y-104711243D01*
X191778932Y-104701506D01*
X191782015Y-104691047D01*
X191784417Y-104679868D01*
X191793429Y-104627771D01*
X191794903Y-104618281D01*
X191795611Y-104608719D01*
X191795845Y-104598829D01*
X191795847Y-104597655D01*
X191794652Y-104587860D01*
X191791645Y-104578905D01*
X191787611Y-104570946D01*
X191782233Y-104562723D01*
X191776723Y-104555670D01*
X191770043Y-104549084D01*
X191761817Y-104543614D01*
X191752045Y-104539261D01*
X191743115Y-104536582D01*
X191733196Y-104534617D01*
X191722287Y-104533367D01*
X191713457Y-104532898D01*
X191707260Y-104532809D01*
X191593175Y-104532809D01*
X191551409Y-104772191D01*
X191323736Y-104772191D01*
X191400833Y-104335412D01*
X191787055Y-104335412D01*
X191795918Y-104335476D01*
G37*
G36*
X192717327Y-105247000D02*
G01*
X192476845Y-105247000D01*
X192484539Y-105048284D01*
X192273073Y-105048284D01*
X192210865Y-105247000D01*
X191969064Y-105247000D01*
X192100635Y-104878584D01*
X192324951Y-104878584D01*
X192490694Y-104878584D01*
X192504762Y-104556989D01*
X192424968Y-104556989D01*
X192324951Y-104878584D01*
X192100635Y-104878584D01*
X192294616Y-104335412D01*
X192712271Y-104335412D01*
X192717327Y-105247000D01*
G37*
G36*
X193370120Y-104335474D02*
G01*
X193387518Y-104335968D01*
X193404262Y-104336958D01*
X193420352Y-104338441D01*
X193435787Y-104340420D01*
X193450568Y-104342893D01*
X193464695Y-104345860D01*
X193478168Y-104349322D01*
X193490986Y-104353279D01*
X193503150Y-104357730D01*
X193514659Y-104362676D01*
X193525514Y-104368117D01*
X193535715Y-104374052D01*
X193545262Y-104380482D01*
X193554154Y-104387406D01*
X193562392Y-104394825D01*
X193566266Y-104398720D01*
X193574437Y-104407968D01*
X193581804Y-104417661D01*
X193588368Y-104427798D01*
X193594128Y-104438380D01*
X193599084Y-104449406D01*
X193603237Y-104460876D01*
X193606586Y-104472791D01*
X193609131Y-104485150D01*
X193610872Y-104497953D01*
X193611586Y-104506735D01*
X193611944Y-104515715D01*
X193611988Y-104520279D01*
X193611811Y-104529852D01*
X193611277Y-104539610D01*
X193610389Y-104549553D01*
X193609144Y-104559682D01*
X193607545Y-104569996D01*
X193606933Y-104573475D01*
X193589127Y-104672174D01*
X193587145Y-104682328D01*
X193584988Y-104692236D01*
X193582659Y-104701898D01*
X193580156Y-104711315D01*
X193577479Y-104720487D01*
X193574629Y-104729413D01*
X193571606Y-104738093D01*
X193568409Y-104746528D01*
X193565039Y-104754717D01*
X193559658Y-104766540D01*
X193553888Y-104777811D01*
X193547726Y-104788529D01*
X193541175Y-104798694D01*
X193536591Y-104805164D01*
X193529512Y-104814389D01*
X193522291Y-104823103D01*
X193514927Y-104831308D01*
X193507420Y-104839003D01*
X193499770Y-104846187D01*
X193491977Y-104852861D01*
X193484041Y-104859026D01*
X193475962Y-104864680D01*
X193467740Y-104869824D01*
X193459375Y-104874459D01*
X193453719Y-104877265D01*
X193568904Y-105247000D01*
X193313035Y-105247000D01*
X193206863Y-104906501D01*
X193128387Y-104906501D01*
X193076290Y-105247000D01*
X192833171Y-105247000D01*
X192920318Y-104753287D01*
X193153667Y-104753287D01*
X193242254Y-104753287D01*
X193254490Y-104753003D01*
X193266058Y-104752151D01*
X193276958Y-104750731D01*
X193287189Y-104748743D01*
X193296752Y-104746187D01*
X193305646Y-104743063D01*
X193313872Y-104739371D01*
X193323800Y-104733565D01*
X193332539Y-104726748D01*
X193338314Y-104720974D01*
X193345166Y-104712569D01*
X193351105Y-104703512D01*
X193356130Y-104693802D01*
X193360241Y-104683440D01*
X193363439Y-104672425D01*
X193365237Y-104663735D01*
X193366522Y-104654679D01*
X193367293Y-104645255D01*
X193367550Y-104635464D01*
X193367213Y-104623033D01*
X193366204Y-104611404D01*
X193364521Y-104600578D01*
X193362165Y-104590553D01*
X193359135Y-104581330D01*
X193355433Y-104572909D01*
X193348617Y-104561781D01*
X193340286Y-104552458D01*
X193330440Y-104544939D01*
X193319080Y-104539225D01*
X193310665Y-104536418D01*
X193301577Y-104534413D01*
X193291816Y-104533210D01*
X193281381Y-104532809D01*
X193186420Y-104532809D01*
X193153667Y-104753287D01*
X192920318Y-104753287D01*
X192994078Y-104335412D01*
X193361175Y-104335412D01*
X193370120Y-104335474D01*
G37*
G36*
X194196638Y-104335474D02*
G01*
X194214036Y-104335968D01*
X194230780Y-104336958D01*
X194246870Y-104338441D01*
X194262305Y-104340420D01*
X194277086Y-104342893D01*
X194291213Y-104345860D01*
X194304685Y-104349322D01*
X194317504Y-104353279D01*
X194329667Y-104357730D01*
X194341177Y-104362676D01*
X194352032Y-104368117D01*
X194362233Y-104374052D01*
X194371780Y-104380482D01*
X194380672Y-104387406D01*
X194388910Y-104394825D01*
X194392784Y-104398720D01*
X194400955Y-104407968D01*
X194408322Y-104417661D01*
X194414886Y-104427798D01*
X194420646Y-104438380D01*
X194425602Y-104449406D01*
X194429755Y-104460876D01*
X194433103Y-104472791D01*
X194435648Y-104485150D01*
X194437390Y-104497953D01*
X194438104Y-104506735D01*
X194438461Y-104515715D01*
X194438506Y-104520279D01*
X194438328Y-104529852D01*
X194437795Y-104539610D01*
X194436906Y-104549553D01*
X194435662Y-104559682D01*
X194434063Y-104569996D01*
X194433450Y-104573475D01*
X194415645Y-104672174D01*
X194413662Y-104682328D01*
X194411506Y-104692236D01*
X194409177Y-104701898D01*
X194406674Y-104711315D01*
X194403997Y-104720487D01*
X194401147Y-104729413D01*
X194398124Y-104738093D01*
X194394927Y-104746528D01*
X194391557Y-104754717D01*
X194386176Y-104766540D01*
X194380405Y-104777811D01*
X194374244Y-104788529D01*
X194367693Y-104798694D01*
X194363108Y-104805164D01*
X194356030Y-104814389D01*
X194348809Y-104823103D01*
X194341445Y-104831308D01*
X194333938Y-104839003D01*
X194326288Y-104846187D01*
X194318495Y-104852861D01*
X194310559Y-104859026D01*
X194302480Y-104864680D01*
X194294258Y-104869824D01*
X194285893Y-104874459D01*
X194280237Y-104877265D01*
X194395422Y-105247000D01*
X194139553Y-105247000D01*
X194033381Y-104906501D01*
X193954905Y-104906501D01*
X193902808Y-105247000D01*
X193659689Y-105247000D01*
X193746836Y-104753287D01*
X193980184Y-104753287D01*
X194068771Y-104753287D01*
X194081008Y-104753003D01*
X194092576Y-104752151D01*
X194103476Y-104750731D01*
X194113707Y-104748743D01*
X194123270Y-104746187D01*
X194132164Y-104743063D01*
X194140390Y-104739371D01*
X194150318Y-104733565D01*
X194159057Y-104726748D01*
X194164832Y-104720974D01*
X194171684Y-104712569D01*
X194177623Y-104703512D01*
X194182648Y-104693802D01*
X194186759Y-104683440D01*
X194189957Y-104672425D01*
X194191755Y-104663735D01*
X194193040Y-104654679D01*
X194193811Y-104645255D01*
X194194068Y-104635464D01*
X194193731Y-104623033D01*
X194192721Y-104611404D01*
X194191039Y-104600578D01*
X194188682Y-104590553D01*
X194185653Y-104581330D01*
X194181950Y-104572909D01*
X194175134Y-104561781D01*
X194166804Y-104552458D01*
X194156958Y-104544939D01*
X194145598Y-104539225D01*
X194137183Y-104536418D01*
X194128095Y-104534413D01*
X194118334Y-104533210D01*
X194107899Y-104532809D01*
X194012937Y-104532809D01*
X193980184Y-104753287D01*
X193746836Y-104753287D01*
X193820596Y-104335412D01*
X194187693Y-104335412D01*
X194196638Y-104335474D01*
G37*
G36*
X194990557Y-104326643D02*
G01*
X195008733Y-104327374D01*
X195026312Y-104328592D01*
X195043296Y-104330298D01*
X195059683Y-104332491D01*
X195075475Y-104335171D01*
X195090671Y-104338338D01*
X195105271Y-104341993D01*
X195119275Y-104346135D01*
X195132683Y-104350764D01*
X195145495Y-104355881D01*
X195157711Y-104361484D01*
X195169332Y-104367576D01*
X195180356Y-104374154D01*
X195190784Y-104381220D01*
X195200617Y-104388773D01*
X195209854Y-104396813D01*
X195218495Y-104405341D01*
X195226539Y-104414356D01*
X195233988Y-104423858D01*
X195240841Y-104433847D01*
X195247098Y-104444324D01*
X195252760Y-104455288D01*
X195257825Y-104466740D01*
X195262294Y-104478678D01*
X195266168Y-104491104D01*
X195269445Y-104504018D01*
X195272127Y-104517418D01*
X195274213Y-104531306D01*
X195275702Y-104545681D01*
X195276596Y-104560544D01*
X195276894Y-104575893D01*
X195276757Y-104586434D01*
X195276345Y-104597175D01*
X195275658Y-104608114D01*
X195274696Y-104619253D01*
X195273459Y-104630590D01*
X195271948Y-104642128D01*
X195270634Y-104650911D01*
X195269166Y-104659807D01*
X195268101Y-104665799D01*
X195223698Y-104919030D01*
X195221733Y-104929946D01*
X195219629Y-104940683D01*
X195217386Y-104951242D01*
X195215005Y-104961623D01*
X195212485Y-104971826D01*
X195209826Y-104981851D01*
X195207029Y-104991698D01*
X195204093Y-105001366D01*
X195201018Y-105010856D01*
X195197805Y-105020168D01*
X195194453Y-105029302D01*
X195190962Y-105038258D01*
X195187333Y-105047035D01*
X195183565Y-105055635D01*
X195179658Y-105064056D01*
X195175613Y-105072299D01*
X195171429Y-105080364D01*
X195167106Y-105088250D01*
X195162645Y-105095959D01*
X195158044Y-105103489D01*
X195148428Y-105118015D01*
X195138257Y-105131828D01*
X195127532Y-105144929D01*
X195116251Y-105157317D01*
X195104416Y-105168992D01*
X195092027Y-105179955D01*
X195079039Y-105190230D01*
X195065408Y-105199842D01*
X195051135Y-105208791D01*
X195036220Y-105217077D01*
X195020663Y-105224700D01*
X195004463Y-105231660D01*
X194996123Y-105234892D01*
X194987621Y-105237958D01*
X194978960Y-105240858D01*
X194970137Y-105243592D01*
X194961154Y-105246161D01*
X194952011Y-105248564D01*
X194942707Y-105250801D01*
X194933242Y-105252873D01*
X194923617Y-105254779D01*
X194913831Y-105256519D01*
X194903885Y-105258093D01*
X194893778Y-105259502D01*
X194883510Y-105260745D01*
X194873082Y-105261822D01*
X194862494Y-105262733D01*
X194851744Y-105263479D01*
X194840835Y-105264059D01*
X194829764Y-105264473D01*
X194818533Y-105264722D01*
X194807142Y-105264805D01*
X194795779Y-105264722D01*
X194784634Y-105264473D01*
X194773706Y-105264059D01*
X194762996Y-105263479D01*
X194752504Y-105262733D01*
X194742229Y-105261822D01*
X194732172Y-105260745D01*
X194722333Y-105259502D01*
X194712712Y-105258093D01*
X194703308Y-105256519D01*
X194694121Y-105254779D01*
X194685153Y-105252873D01*
X194676402Y-105250801D01*
X194667869Y-105248564D01*
X194651455Y-105243592D01*
X194635913Y-105237958D01*
X194621241Y-105231660D01*
X194607439Y-105224700D01*
X194594509Y-105217077D01*
X194582449Y-105208791D01*
X194571259Y-105199842D01*
X194560941Y-105190230D01*
X194551493Y-105179955D01*
X194545504Y-105172500D01*
X194539901Y-105164698D01*
X194534684Y-105156549D01*
X194529854Y-105148054D01*
X194525411Y-105139211D01*
X194521354Y-105130022D01*
X194517683Y-105120485D01*
X194514398Y-105110602D01*
X194511500Y-105100372D01*
X194508989Y-105089795D01*
X194506864Y-105078871D01*
X194505125Y-105067600D01*
X194503772Y-105055982D01*
X194502806Y-105044018D01*
X194502227Y-105031706D01*
X194502034Y-105019048D01*
X194502192Y-105007531D01*
X194502518Y-104998709D01*
X194503021Y-104989728D01*
X194503703Y-104980589D01*
X194503765Y-104979920D01*
X194735041Y-104979920D01*
X194735457Y-104990647D01*
X194736704Y-105000682D01*
X194738782Y-105010026D01*
X194741691Y-105018677D01*
X194745431Y-105026636D01*
X194752600Y-105037276D01*
X194761639Y-105046360D01*
X194772549Y-105053887D01*
X194780861Y-105058039D01*
X194790004Y-105061499D01*
X194799978Y-105064268D01*
X194810783Y-105066344D01*
X194822420Y-105067728D01*
X194834888Y-105068420D01*
X194841434Y-105068507D01*
X194853080Y-105068217D01*
X194864278Y-105067348D01*
X194875027Y-105065899D01*
X194885329Y-105063870D01*
X194895182Y-105061262D01*
X194904587Y-105058074D01*
X194913543Y-105054307D01*
X194922052Y-105049960D01*
X194930112Y-105045033D01*
X194937724Y-105039527D01*
X194942550Y-105035534D01*
X194949481Y-105028863D01*
X194956015Y-105021214D01*
X194962150Y-105012588D01*
X194967888Y-105002984D01*
X194973227Y-104992402D01*
X194978168Y-104980843D01*
X194981242Y-104972594D01*
X194984138Y-104963910D01*
X194986857Y-104954792D01*
X194989400Y-104945239D01*
X194991765Y-104935252D01*
X194993954Y-104924830D01*
X194995966Y-104913974D01*
X195038831Y-104670855D01*
X195040175Y-104661553D01*
X195041242Y-104652607D01*
X195042134Y-104642618D01*
X195042648Y-104633114D01*
X195042787Y-104625353D01*
X195042381Y-104612922D01*
X195041163Y-104601293D01*
X195039132Y-104590466D01*
X195036289Y-104580441D01*
X195032634Y-104571218D01*
X195028166Y-104562797D01*
X195022886Y-104555178D01*
X195016794Y-104548361D01*
X195009889Y-104542346D01*
X195002172Y-104537133D01*
X194993643Y-104532722D01*
X194984302Y-104529113D01*
X194974148Y-104526306D01*
X194963182Y-104524301D01*
X194951404Y-104523098D01*
X194938813Y-104522697D01*
X194922930Y-104523585D01*
X194907867Y-104525589D01*
X194893625Y-104528710D01*
X194880204Y-104532946D01*
X194867604Y-104538299D01*
X194855825Y-104544768D01*
X194844867Y-104552354D01*
X194834729Y-104561056D01*
X194825413Y-104570874D01*
X194816917Y-104581808D01*
X194809242Y-104593858D01*
X194802388Y-104607025D01*
X194796355Y-104621308D01*
X194791143Y-104636708D01*
X194786752Y-104653223D01*
X194784864Y-104661900D01*
X194783182Y-104670855D01*
X194740097Y-104913974D01*
X194738641Y-104923931D01*
X194737431Y-104934016D01*
X194736468Y-104944229D01*
X194735752Y-104954572D01*
X194735283Y-104965044D01*
X194735061Y-104975644D01*
X194735041Y-104979920D01*
X194503765Y-104979920D01*
X194504562Y-104971292D01*
X194505598Y-104961836D01*
X194506813Y-104952222D01*
X194508205Y-104942449D01*
X194509775Y-104932518D01*
X194511523Y-104922429D01*
X194512145Y-104919030D01*
X194556549Y-104665799D01*
X194560561Y-104644918D01*
X194565152Y-104624700D01*
X194570321Y-104605145D01*
X194576068Y-104586252D01*
X194582393Y-104568023D01*
X194589297Y-104550456D01*
X194596780Y-104533553D01*
X194604840Y-104517312D01*
X194613479Y-104501734D01*
X194622696Y-104486819D01*
X194632492Y-104472567D01*
X194642865Y-104458977D01*
X194653817Y-104446051D01*
X194665348Y-104433788D01*
X194677456Y-104422187D01*
X194690143Y-104411249D01*
X194703409Y-104400975D01*
X194717252Y-104391363D01*
X194731674Y-104382414D01*
X194746675Y-104374127D01*
X194762253Y-104366504D01*
X194778410Y-104359544D01*
X194795145Y-104353246D01*
X194812459Y-104347612D01*
X194830351Y-104342640D01*
X194848821Y-104338331D01*
X194867869Y-104334685D01*
X194887496Y-104331702D01*
X194907701Y-104329382D01*
X194928484Y-104327725D01*
X194949846Y-104326731D01*
X194971786Y-104326399D01*
X194990557Y-104326643D01*
G37*
G36*
X196133527Y-104335412D02*
G01*
X196111985Y-105025422D01*
X196141001Y-105025422D01*
X196361479Y-104335412D01*
X196609434Y-104335412D01*
X196296852Y-105247000D01*
X195917006Y-105247000D01*
X195951078Y-104663381D01*
X195781378Y-105247000D01*
X195401531Y-105247000D01*
X195410544Y-104335412D01*
X195658719Y-104335412D01*
X195635858Y-105025422D01*
X195665094Y-105025422D01*
X195886671Y-104335412D01*
X196133527Y-104335412D01*
G37*
G36*
X196826175Y-105264805D02*
G01*
X196809974Y-105264627D01*
X196794286Y-105264092D01*
X196779113Y-105263201D01*
X196764454Y-105261954D01*
X196750310Y-105260350D01*
X196736680Y-105258391D01*
X196723564Y-105256074D01*
X196710963Y-105253402D01*
X196698876Y-105250373D01*
X196687303Y-105246987D01*
X196676245Y-105243246D01*
X196665701Y-105239148D01*
X196655671Y-105234694D01*
X196646156Y-105229883D01*
X196637155Y-105224716D01*
X196628668Y-105219192D01*
X196620696Y-105213313D01*
X196613238Y-105207077D01*
X196606295Y-105200484D01*
X196599865Y-105193536D01*
X196593950Y-105186230D01*
X196588550Y-105178569D01*
X196583664Y-105170551D01*
X196579292Y-105162177D01*
X196575434Y-105153447D01*
X196572091Y-105144360D01*
X196569262Y-105134917D01*
X196566947Y-105125117D01*
X196565147Y-105114961D01*
X196563861Y-105104449D01*
X196563090Y-105093580D01*
X196562833Y-105082355D01*
X196563010Y-105072744D01*
X196563544Y-105062871D01*
X196564432Y-105052734D01*
X196565677Y-105042335D01*
X196566985Y-105033468D01*
X196567889Y-105028060D01*
X196594487Y-104870890D01*
X196597289Y-104855918D01*
X196600642Y-104841393D01*
X196604543Y-104827314D01*
X196608995Y-104813682D01*
X196613995Y-104800496D01*
X196619546Y-104787757D01*
X196625646Y-104775465D01*
X196632295Y-104763618D01*
X196639494Y-104752219D01*
X196647243Y-104741266D01*
X196655541Y-104730759D01*
X196664389Y-104720699D01*
X196673786Y-104711085D01*
X196683733Y-104701918D01*
X196694229Y-104693198D01*
X196705275Y-104684923D01*
X196716786Y-104677092D01*
X196728679Y-104669756D01*
X196740953Y-104662914D01*
X196753608Y-104656567D01*
X196766644Y-104650714D01*
X196780062Y-104645356D01*
X196793860Y-104640493D01*
X196808040Y-104636124D01*
X196822602Y-104632249D01*
X196837544Y-104628870D01*
X196852868Y-104625985D01*
X196868573Y-104623594D01*
X196884659Y-104621698D01*
X196901127Y-104620297D01*
X196917975Y-104619390D01*
X196935205Y-104618978D01*
X196951786Y-104619161D01*
X196967840Y-104619710D01*
X196983368Y-104620626D01*
X196998369Y-104621908D01*
X197012844Y-104623556D01*
X197026792Y-104625570D01*
X197040215Y-104627950D01*
X197053111Y-104630697D01*
X197065480Y-104633810D01*
X197077323Y-104637289D01*
X197088640Y-104641134D01*
X197099430Y-104645346D01*
X197109695Y-104649924D01*
X197119432Y-104654868D01*
X197128644Y-104660178D01*
X197137329Y-104665854D01*
X197145487Y-104671897D01*
X197153119Y-104678306D01*
X197160225Y-104685081D01*
X197166805Y-104692222D01*
X197172858Y-104699730D01*
X197178385Y-104707603D01*
X197183385Y-104715843D01*
X197187859Y-104724450D01*
X197191807Y-104733422D01*
X197195228Y-104742761D01*
X197198123Y-104752465D01*
X197200492Y-104762537D01*
X197202334Y-104772974D01*
X197203650Y-104783777D01*
X197204440Y-104794947D01*
X197204703Y-104806483D01*
X197204555Y-104816468D01*
X197204112Y-104826198D01*
X197203374Y-104835674D01*
X197202340Y-104844896D01*
X197201011Y-104853864D01*
X197199386Y-104862578D01*
X197196940Y-104873113D01*
X197195251Y-104879243D01*
X197192281Y-104888826D01*
X197189279Y-104897378D01*
X197185634Y-104906281D01*
X197181323Y-104914792D01*
X197176318Y-104922046D01*
X197175687Y-104922767D01*
X197165575Y-104935517D01*
X196950373Y-104935517D01*
X196957792Y-104928383D01*
X196964221Y-104920940D01*
X196969662Y-104913188D01*
X196974113Y-104905127D01*
X196977575Y-104896756D01*
X196980048Y-104888077D01*
X196981532Y-104879088D01*
X196982027Y-104869791D01*
X196981426Y-104857534D01*
X196979623Y-104846483D01*
X196976619Y-104836638D01*
X196972413Y-104827998D01*
X196967005Y-104820564D01*
X196960396Y-104814335D01*
X196952585Y-104809312D01*
X196943572Y-104805494D01*
X196933358Y-104802882D01*
X196921942Y-104801475D01*
X196913663Y-104801207D01*
X196903675Y-104801585D01*
X196894044Y-104802719D01*
X196884771Y-104804608D01*
X196875854Y-104807252D01*
X196867295Y-104810653D01*
X196859093Y-104814809D01*
X196851248Y-104819720D01*
X196843761Y-104825387D01*
X196836823Y-104831776D01*
X196830517Y-104838961D01*
X196824843Y-104846943D01*
X196819801Y-104855722D01*
X196815391Y-104865298D01*
X196811612Y-104875671D01*
X196808466Y-104886841D01*
X196806521Y-104895741D01*
X196805952Y-104898807D01*
X196789466Y-104991131D01*
X196787992Y-105000507D01*
X196787199Y-105009513D01*
X196787048Y-105015311D01*
X196787782Y-105027292D01*
X196789984Y-105038095D01*
X196793655Y-105047720D01*
X196798794Y-105056166D01*
X196805402Y-105063434D01*
X196813477Y-105069523D01*
X196823021Y-105074433D01*
X196834034Y-105078165D01*
X196846515Y-105080719D01*
X196855651Y-105081766D01*
X196865440Y-105082290D01*
X196870579Y-105082355D01*
X196880839Y-105081737D01*
X196890682Y-105079882D01*
X196900107Y-105076791D01*
X196909116Y-105072464D01*
X196917707Y-105066899D01*
X196920478Y-105064770D01*
X196928154Y-105057962D01*
X196934532Y-105050890D01*
X196939612Y-105043557D01*
X196943898Y-105034668D01*
X196946416Y-105025422D01*
X197156782Y-105028060D01*
X197153931Y-105042626D01*
X197150597Y-105056729D01*
X197146780Y-105070369D01*
X197142481Y-105083547D01*
X197137699Y-105096263D01*
X197132434Y-105108516D01*
X197126687Y-105120307D01*
X197120457Y-105131636D01*
X197113745Y-105142502D01*
X197106550Y-105152906D01*
X197098873Y-105162847D01*
X197090713Y-105172326D01*
X197082071Y-105181343D01*
X197072946Y-105189897D01*
X197063338Y-105197989D01*
X197053248Y-105205619D01*
X197042675Y-105212786D01*
X197031620Y-105219490D01*
X197020082Y-105225733D01*
X197008061Y-105231513D01*
X196995558Y-105236830D01*
X196982573Y-105241685D01*
X196969105Y-105246078D01*
X196955154Y-105250008D01*
X196940721Y-105253476D01*
X196925805Y-105256482D01*
X196910406Y-105259025D01*
X196894525Y-105261106D01*
X196878162Y-105262724D01*
X196861315Y-105263880D01*
X196843987Y-105264574D01*
X196826175Y-105264805D01*
G37*
G36*
X197658751Y-104620529D02*
G01*
X197675056Y-104621228D01*
X197690838Y-104622391D01*
X197706095Y-104624020D01*
X197720829Y-104626114D01*
X197735039Y-104628674D01*
X197748726Y-104631699D01*
X197761888Y-104635189D01*
X197774527Y-104639145D01*
X197786642Y-104643567D01*
X197798233Y-104648453D01*
X197809300Y-104653805D01*
X197819844Y-104659623D01*
X197829863Y-104665906D01*
X197839359Y-104672654D01*
X197848332Y-104679868D01*
X197854933Y-104685864D01*
X197861109Y-104692147D01*
X197869573Y-104702109D01*
X197877080Y-104712716D01*
X197883628Y-104723968D01*
X197889218Y-104735866D01*
X197892412Y-104744157D01*
X197895181Y-104752734D01*
X197897523Y-104761598D01*
X197899439Y-104770749D01*
X197900930Y-104780186D01*
X197901995Y-104789911D01*
X197902634Y-104799922D01*
X197902847Y-104810220D01*
X197902691Y-104819062D01*
X197902224Y-104828140D01*
X197901446Y-104837455D01*
X197900357Y-104847005D01*
X197898956Y-104856792D01*
X197897244Y-104866815D01*
X197896472Y-104870890D01*
X197869874Y-105019048D01*
X197866602Y-105035530D01*
X197862833Y-105051399D01*
X197858565Y-105066655D01*
X197853800Y-105081298D01*
X197848536Y-105095327D01*
X197842774Y-105108744D01*
X197836515Y-105121548D01*
X197829757Y-105133738D01*
X197822501Y-105145315D01*
X197814748Y-105156280D01*
X197806496Y-105166631D01*
X197797746Y-105176369D01*
X197788498Y-105185494D01*
X197778752Y-105194006D01*
X197768508Y-105201905D01*
X197757766Y-105209191D01*
X197746545Y-105215925D01*
X197734861Y-105222225D01*
X197722715Y-105228091D01*
X197710107Y-105233522D01*
X197697037Y-105238518D01*
X197683506Y-105243081D01*
X197669512Y-105247208D01*
X197655056Y-105250901D01*
X197640139Y-105254160D01*
X197624759Y-105256984D01*
X197608917Y-105259374D01*
X197592614Y-105261329D01*
X197575849Y-105262850D01*
X197558621Y-105263936D01*
X197549834Y-105264316D01*
X197540932Y-105264588D01*
X197531914Y-105264750D01*
X197522780Y-105264805D01*
X197513680Y-105264750D01*
X197504732Y-105264587D01*
X197495938Y-105264314D01*
X197478809Y-105263442D01*
X197462294Y-105262133D01*
X197446391Y-105260388D01*
X197431102Y-105258207D01*
X197416425Y-105255590D01*
X197402362Y-105252537D01*
X197388912Y-105249047D01*
X197376075Y-105245121D01*
X197363851Y-105240759D01*
X197352240Y-105235961D01*
X197341242Y-105230726D01*
X197330858Y-105225056D01*
X197321086Y-105218949D01*
X197311927Y-105212406D01*
X197307578Y-105208971D01*
X197298543Y-105200773D01*
X197290396Y-105191840D01*
X197283138Y-105182174D01*
X197276769Y-105171773D01*
X197271289Y-105160639D01*
X197266697Y-105148770D01*
X197262994Y-105136167D01*
X197261019Y-105127357D01*
X197259439Y-105118221D01*
X197258254Y-105108758D01*
X197257464Y-105098969D01*
X197257069Y-105088854D01*
X197257020Y-105083674D01*
X197257175Y-105074388D01*
X197257642Y-105064801D01*
X197258420Y-105054913D01*
X197259510Y-105044725D01*
X197260911Y-105034237D01*
X197262589Y-105023664D01*
X197481015Y-105023664D01*
X197482045Y-105033652D01*
X197484637Y-105042729D01*
X197488807Y-105052123D01*
X197493637Y-105060425D01*
X197497501Y-105066089D01*
X197504549Y-105073783D01*
X197511745Y-105078979D01*
X197520143Y-105083070D01*
X197529742Y-105086055D01*
X197540544Y-105087934D01*
X197550052Y-105088642D01*
X197555094Y-105088730D01*
X197565212Y-105088287D01*
X197574905Y-105086958D01*
X197584172Y-105084742D01*
X197593012Y-105081641D01*
X197601427Y-105077653D01*
X197609416Y-105072780D01*
X197616980Y-105067020D01*
X197624117Y-105060374D01*
X197630780Y-105053041D01*
X197636811Y-105045330D01*
X197642211Y-105037241D01*
X197646978Y-105028775D01*
X197651113Y-105019930D01*
X197654617Y-105010708D01*
X197657488Y-105001108D01*
X197659727Y-104991131D01*
X197675994Y-104896169D01*
X197677496Y-104886724D01*
X197678261Y-104877759D01*
X197678591Y-104868857D01*
X197678632Y-104864076D01*
X197677843Y-104855220D01*
X197675476Y-104845965D01*
X197672192Y-104837715D01*
X197667748Y-104829170D01*
X197662145Y-104820332D01*
X197656392Y-104813366D01*
X197649437Y-104807580D01*
X197641280Y-104802976D01*
X197631920Y-104799552D01*
X197621359Y-104797309D01*
X197612044Y-104796364D01*
X197604553Y-104796152D01*
X197594482Y-104796578D01*
X197584824Y-104797855D01*
X197575578Y-104799985D01*
X197566744Y-104802966D01*
X197558322Y-104806799D01*
X197550313Y-104811484D01*
X197542715Y-104817021D01*
X197535530Y-104823409D01*
X197528870Y-104830509D01*
X197522849Y-104838178D01*
X197517467Y-104846418D01*
X197512724Y-104855228D01*
X197508619Y-104864608D01*
X197505154Y-104874558D01*
X197502327Y-104885079D01*
X197500139Y-104896169D01*
X197483653Y-104991131D01*
X197482151Y-105000727D01*
X197481386Y-105009815D01*
X197481056Y-105018828D01*
X197481015Y-105023664D01*
X197262589Y-105023664D01*
X197262623Y-105023447D01*
X197263394Y-105019048D01*
X197289993Y-104870890D01*
X197293011Y-104855473D01*
X197296545Y-104840545D01*
X197300593Y-104826106D01*
X197305157Y-104812157D01*
X197310235Y-104798698D01*
X197315827Y-104785727D01*
X197321935Y-104773247D01*
X197328557Y-104761255D01*
X197335694Y-104749754D01*
X197343346Y-104738741D01*
X197351512Y-104728218D01*
X197360194Y-104718185D01*
X197369390Y-104708641D01*
X197379101Y-104699586D01*
X197389326Y-104691021D01*
X197400067Y-104682945D01*
X197411322Y-104675359D01*
X197423092Y-104668262D01*
X197435377Y-104661654D01*
X197448176Y-104655536D01*
X197461490Y-104649908D01*
X197475319Y-104644769D01*
X197489663Y-104640119D01*
X197504522Y-104635959D01*
X197519895Y-104632288D01*
X197535783Y-104629107D01*
X197552186Y-104626415D01*
X197569104Y-104624212D01*
X197586536Y-104622499D01*
X197604483Y-104621276D01*
X197622945Y-104620541D01*
X197641922Y-104620297D01*
X197658751Y-104620529D01*
G37*
G36*
X198587801Y-104767136D02*
G01*
X198587575Y-104777865D01*
X198586895Y-104788513D01*
X198585761Y-104799078D01*
X198584174Y-104809561D01*
X198582134Y-104819961D01*
X198579641Y-104830278D01*
X198576694Y-104840514D01*
X198573293Y-104850667D01*
X198569673Y-104860445D01*
X198566067Y-104869557D01*
X198562474Y-104878003D01*
X198558003Y-104887623D01*
X198553553Y-104896203D01*
X198548241Y-104905123D01*
X198544717Y-104910237D01*
X198530868Y-104927823D01*
X198339626Y-104927823D01*
X198347045Y-104920349D01*
X198353475Y-104912436D01*
X198358915Y-104904083D01*
X198363367Y-104895290D01*
X198366829Y-104886057D01*
X198369302Y-104876385D01*
X198370785Y-104866274D01*
X198371280Y-104855722D01*
X198370586Y-104846120D01*
X198368503Y-104837318D01*
X198364423Y-104828237D01*
X198358529Y-104820199D01*
X198356772Y-104818353D01*
X198349909Y-104812700D01*
X198342016Y-104808436D01*
X198333091Y-104805560D01*
X198323136Y-104804072D01*
X198316985Y-104803845D01*
X198306392Y-104804518D01*
X198296157Y-104806538D01*
X198286279Y-104809904D01*
X198276758Y-104814616D01*
X198267594Y-104820675D01*
X198258788Y-104828080D01*
X198252417Y-104834518D01*
X198246248Y-104841712D01*
X198242247Y-104846930D01*
X198171245Y-105247000D01*
X197956043Y-105247000D01*
X198063754Y-104637882D01*
X198263789Y-104637882D01*
X198248621Y-104722732D01*
X198257753Y-104710328D01*
X198267124Y-104698724D01*
X198276733Y-104687920D01*
X198286581Y-104677917D01*
X198296668Y-104668714D01*
X198306993Y-104660311D01*
X198317558Y-104652708D01*
X198328360Y-104645906D01*
X198339402Y-104639904D01*
X198350682Y-104634702D01*
X198362201Y-104630300D01*
X198373959Y-104626699D01*
X198385955Y-104623898D01*
X198398191Y-104621897D01*
X198410664Y-104620697D01*
X198423377Y-104620297D01*
X198433493Y-104620450D01*
X198443288Y-104620912D01*
X198452761Y-104621680D01*
X198461914Y-104622756D01*
X198470745Y-104624139D01*
X198483390Y-104626791D01*
X198495313Y-104630134D01*
X198506512Y-104634168D01*
X198516990Y-104638895D01*
X198526744Y-104644313D01*
X198535776Y-104650422D01*
X198544086Y-104657224D01*
X198546695Y-104659644D01*
X198554041Y-104667238D01*
X198560665Y-104675345D01*
X198566566Y-104683966D01*
X198571744Y-104693101D01*
X198576200Y-104702750D01*
X198579933Y-104712913D01*
X198582944Y-104723590D01*
X198585232Y-104734781D01*
X198586798Y-104746486D01*
X198587641Y-104758704D01*
X198587801Y-104767136D01*
G37*
G36*
X199012544Y-104619166D02*
G01*
X199027708Y-104619730D01*
X199042375Y-104620670D01*
X199056544Y-104621987D01*
X199070216Y-104623679D01*
X199083391Y-104625748D01*
X199096069Y-104628192D01*
X199108249Y-104631013D01*
X199119933Y-104634210D01*
X199131119Y-104637783D01*
X199141808Y-104641732D01*
X199152000Y-104646057D01*
X199161695Y-104650758D01*
X199170892Y-104655835D01*
X199179593Y-104661289D01*
X199187796Y-104667118D01*
X199195502Y-104673324D01*
X199202711Y-104679905D01*
X199209423Y-104686863D01*
X199215637Y-104694197D01*
X199221355Y-104701907D01*
X199226575Y-104709993D01*
X199231298Y-104718455D01*
X199235524Y-104727293D01*
X199239253Y-104736508D01*
X199242485Y-104746098D01*
X199245219Y-104756065D01*
X199247456Y-104766407D01*
X199249196Y-104777126D01*
X199250439Y-104788221D01*
X199251185Y-104799692D01*
X199251434Y-104811539D01*
X199251256Y-104822111D01*
X199250836Y-104831204D01*
X199250170Y-104840555D01*
X199249256Y-104850163D01*
X199248096Y-104860030D01*
X199246689Y-104870153D01*
X199246378Y-104872209D01*
X199231210Y-104962115D01*
X198844989Y-104962115D01*
X198839933Y-104991131D01*
X198838658Y-105000469D01*
X198837855Y-105009249D01*
X198837518Y-105018262D01*
X198837515Y-105019048D01*
X198838238Y-105031501D01*
X198840405Y-105042729D01*
X198844018Y-105052732D01*
X198849076Y-105061510D01*
X198855579Y-105069064D01*
X198863528Y-105075392D01*
X198872921Y-105080496D01*
X198883760Y-105084375D01*
X198896043Y-105087029D01*
X198905035Y-105088118D01*
X198914669Y-105088662D01*
X198919727Y-105088730D01*
X198928992Y-105088269D01*
X198937828Y-105086884D01*
X198947864Y-105084004D01*
X198957282Y-105079795D01*
X198966082Y-105074256D01*
X198971605Y-105069826D01*
X198979057Y-105062438D01*
X198985257Y-105054617D01*
X198990206Y-105046364D01*
X198993902Y-105037677D01*
X198996347Y-105028558D01*
X198996884Y-105025422D01*
X199207250Y-105028060D01*
X199204398Y-105042626D01*
X199201064Y-105056729D01*
X199197247Y-105070369D01*
X199192948Y-105083547D01*
X199188166Y-105096263D01*
X199182902Y-105108516D01*
X199177155Y-105120307D01*
X199170925Y-105131636D01*
X199164213Y-105142502D01*
X199157018Y-105152906D01*
X199149341Y-105162847D01*
X199141181Y-105172326D01*
X199132538Y-105181343D01*
X199123413Y-105189897D01*
X199113806Y-105197989D01*
X199103715Y-105205619D01*
X199093143Y-105212786D01*
X199082087Y-105219490D01*
X199070549Y-105225733D01*
X199058529Y-105231513D01*
X199046026Y-105236830D01*
X199033040Y-105241685D01*
X199019572Y-105246078D01*
X199005621Y-105250008D01*
X198991188Y-105253476D01*
X198976272Y-105256482D01*
X198960874Y-105259025D01*
X198944993Y-105261106D01*
X198928629Y-105262724D01*
X198911783Y-105263880D01*
X198894454Y-105264574D01*
X198876643Y-105264805D01*
X198860441Y-105264627D01*
X198844754Y-105264092D01*
X198829581Y-105263201D01*
X198814922Y-105261954D01*
X198800778Y-105260350D01*
X198787148Y-105258391D01*
X198774032Y-105256074D01*
X198761431Y-105253402D01*
X198749343Y-105250373D01*
X198737771Y-105246987D01*
X198726712Y-105243246D01*
X198716168Y-105239148D01*
X198706139Y-105234694D01*
X198696624Y-105229883D01*
X198687623Y-105224716D01*
X198679136Y-105219192D01*
X198671164Y-105213313D01*
X198663706Y-105207077D01*
X198656762Y-105200484D01*
X198650333Y-105193536D01*
X198644418Y-105186230D01*
X198639017Y-105178569D01*
X198634131Y-105170551D01*
X198629759Y-105162177D01*
X198625902Y-105153447D01*
X198622558Y-105144360D01*
X198619730Y-105134917D01*
X198617415Y-105125117D01*
X198615615Y-105114961D01*
X198614329Y-105104449D01*
X198613557Y-105093580D01*
X198613300Y-105082355D01*
X198613478Y-105072744D01*
X198614011Y-105062871D01*
X198614900Y-105052734D01*
X198616144Y-105042335D01*
X198617453Y-105033468D01*
X198618356Y-105028060D01*
X198642573Y-104884958D01*
X198857739Y-104884958D01*
X199028538Y-104884958D01*
X199030508Y-104875691D01*
X199031994Y-104866740D01*
X199033100Y-104856896D01*
X199033574Y-104847465D01*
X199033593Y-104845171D01*
X199032563Y-104835911D01*
X199029472Y-104826596D01*
X199025076Y-104818401D01*
X199019103Y-104810163D01*
X199017107Y-104807802D01*
X199010304Y-104801303D01*
X199002094Y-104796148D01*
X198992478Y-104792338D01*
X198983390Y-104790191D01*
X198973325Y-104788977D01*
X198964570Y-104788678D01*
X198955657Y-104789056D01*
X198944796Y-104790590D01*
X198934247Y-104793306D01*
X198924008Y-104797202D01*
X198916041Y-104801169D01*
X198908274Y-104805892D01*
X198900706Y-104811370D01*
X198898845Y-104812858D01*
X198891711Y-104819226D01*
X198885147Y-104826349D01*
X198879154Y-104834228D01*
X198873730Y-104842863D01*
X198868877Y-104852253D01*
X198864594Y-104862399D01*
X198860881Y-104873301D01*
X198858471Y-104881973D01*
X198857739Y-104884958D01*
X198642573Y-104884958D01*
X198644954Y-104870890D01*
X198647917Y-104855916D01*
X198651418Y-104841383D01*
X198655459Y-104827291D01*
X198660039Y-104813641D01*
X198665159Y-104800432D01*
X198670817Y-104787665D01*
X198677015Y-104775338D01*
X198683752Y-104763454D01*
X198691028Y-104752010D01*
X198698844Y-104741008D01*
X198707199Y-104730447D01*
X198716093Y-104720328D01*
X198725526Y-104710650D01*
X198735499Y-104701413D01*
X198746011Y-104692618D01*
X198757062Y-104684264D01*
X198768612Y-104676358D01*
X198780620Y-104668963D01*
X198793087Y-104662077D01*
X198806012Y-104655701D01*
X198819396Y-104649836D01*
X198833239Y-104644480D01*
X198847540Y-104639635D01*
X198862300Y-104635299D01*
X198877518Y-104631474D01*
X198893195Y-104628159D01*
X198909330Y-104625353D01*
X198925923Y-104623058D01*
X198942976Y-104621273D01*
X198960487Y-104619998D01*
X198969414Y-104619552D01*
X198978456Y-104619233D01*
X198987612Y-104619042D01*
X198996884Y-104618978D01*
X199012544Y-104619166D01*
G37*
D11*
X200138566Y-92518202D02*
X200138566Y-92284869D01*
X200505233Y-92184869D02*
X200505233Y-92518202D01*
X200505233Y-92518202D02*
X199805233Y-92518202D01*
X199805233Y-92518202D02*
X199805233Y-92184869D01*
X200438566Y-91484869D02*
X200471900Y-91518202D01*
X200471900Y-91518202D02*
X200505233Y-91618202D01*
X200505233Y-91618202D02*
X200505233Y-91684869D01*
X200505233Y-91684869D02*
X200471900Y-91784869D01*
X200471900Y-91784869D02*
X200405233Y-91851536D01*
X200405233Y-91851536D02*
X200338566Y-91884869D01*
X200338566Y-91884869D02*
X200205233Y-91918202D01*
X200205233Y-91918202D02*
X200105233Y-91918202D01*
X200105233Y-91918202D02*
X199971900Y-91884869D01*
X199971900Y-91884869D02*
X199905233Y-91851536D01*
X199905233Y-91851536D02*
X199838566Y-91784869D01*
X199838566Y-91784869D02*
X199805233Y-91684869D01*
X199805233Y-91684869D02*
X199805233Y-91618202D01*
X199805233Y-91618202D02*
X199838566Y-91518202D01*
X199838566Y-91518202D02*
X199871900Y-91484869D01*
X199805233Y-91184869D02*
X200371900Y-91184869D01*
X200371900Y-91184869D02*
X200438566Y-91151536D01*
X200438566Y-91151536D02*
X200471900Y-91118202D01*
X200471900Y-91118202D02*
X200505233Y-91051536D01*
X200505233Y-91051536D02*
X200505233Y-90918202D01*
X200505233Y-90918202D02*
X200471900Y-90851536D01*
X200471900Y-90851536D02*
X200438566Y-90818202D01*
X200438566Y-90818202D02*
X200371900Y-90784869D01*
X200371900Y-90784869D02*
X199805233Y-90784869D01*
X200438566Y-89518203D02*
X200471900Y-89551536D01*
X200471900Y-89551536D02*
X200505233Y-89651536D01*
X200505233Y-89651536D02*
X200505233Y-89718203D01*
X200505233Y-89718203D02*
X200471900Y-89818203D01*
X200471900Y-89818203D02*
X200405233Y-89884870D01*
X200405233Y-89884870D02*
X200338566Y-89918203D01*
X200338566Y-89918203D02*
X200205233Y-89951536D01*
X200205233Y-89951536D02*
X200105233Y-89951536D01*
X200105233Y-89951536D02*
X199971900Y-89918203D01*
X199971900Y-89918203D02*
X199905233Y-89884870D01*
X199905233Y-89884870D02*
X199838566Y-89818203D01*
X199838566Y-89818203D02*
X199805233Y-89718203D01*
X199805233Y-89718203D02*
X199805233Y-89651536D01*
X199805233Y-89651536D02*
X199838566Y-89551536D01*
X199838566Y-89551536D02*
X199871900Y-89518203D01*
X200505233Y-89118203D02*
X200471900Y-89184870D01*
X200471900Y-89184870D02*
X200438566Y-89218203D01*
X200438566Y-89218203D02*
X200371900Y-89251536D01*
X200371900Y-89251536D02*
X200171900Y-89251536D01*
X200171900Y-89251536D02*
X200105233Y-89218203D01*
X200105233Y-89218203D02*
X200071900Y-89184870D01*
X200071900Y-89184870D02*
X200038566Y-89118203D01*
X200038566Y-89118203D02*
X200038566Y-89018203D01*
X200038566Y-89018203D02*
X200071900Y-88951536D01*
X200071900Y-88951536D02*
X200105233Y-88918203D01*
X200105233Y-88918203D02*
X200171900Y-88884870D01*
X200171900Y-88884870D02*
X200371900Y-88884870D01*
X200371900Y-88884870D02*
X200438566Y-88918203D01*
X200438566Y-88918203D02*
X200471900Y-88951536D01*
X200471900Y-88951536D02*
X200505233Y-89018203D01*
X200505233Y-89018203D02*
X200505233Y-89118203D01*
X200505233Y-88584870D02*
X200038566Y-88584870D01*
X200171900Y-88584870D02*
X200105233Y-88551537D01*
X200105233Y-88551537D02*
X200071900Y-88518203D01*
X200071900Y-88518203D02*
X200038566Y-88451537D01*
X200038566Y-88451537D02*
X200038566Y-88384870D01*
X200471900Y-87884870D02*
X200505233Y-87951537D01*
X200505233Y-87951537D02*
X200505233Y-88084870D01*
X200505233Y-88084870D02*
X200471900Y-88151537D01*
X200471900Y-88151537D02*
X200405233Y-88184870D01*
X200405233Y-88184870D02*
X200138566Y-88184870D01*
X200138566Y-88184870D02*
X200071900Y-88151537D01*
X200071900Y-88151537D02*
X200038566Y-88084870D01*
X200038566Y-88084870D02*
X200038566Y-87951537D01*
X200038566Y-87951537D02*
X200071900Y-87884870D01*
X200071900Y-87884870D02*
X200138566Y-87851537D01*
X200138566Y-87851537D02*
X200205233Y-87851537D01*
X200205233Y-87851537D02*
X200271900Y-88184870D01*
X200138566Y-86784871D02*
X200171900Y-86684871D01*
X200171900Y-86684871D02*
X200205233Y-86651537D01*
X200205233Y-86651537D02*
X200271900Y-86618204D01*
X200271900Y-86618204D02*
X200371900Y-86618204D01*
X200371900Y-86618204D02*
X200438566Y-86651537D01*
X200438566Y-86651537D02*
X200471900Y-86684871D01*
X200471900Y-86684871D02*
X200505233Y-86751537D01*
X200505233Y-86751537D02*
X200505233Y-87018204D01*
X200505233Y-87018204D02*
X199805233Y-87018204D01*
X199805233Y-87018204D02*
X199805233Y-86784871D01*
X199805233Y-86784871D02*
X199838566Y-86718204D01*
X199838566Y-86718204D02*
X199871900Y-86684871D01*
X199871900Y-86684871D02*
X199938566Y-86651537D01*
X199938566Y-86651537D02*
X200005233Y-86651537D01*
X200005233Y-86651537D02*
X200071900Y-86684871D01*
X200071900Y-86684871D02*
X200105233Y-86718204D01*
X200105233Y-86718204D02*
X200138566Y-86784871D01*
X200138566Y-86784871D02*
X200138566Y-87018204D01*
X200505233Y-86218204D02*
X200471900Y-86284871D01*
X200471900Y-86284871D02*
X200438566Y-86318204D01*
X200438566Y-86318204D02*
X200371900Y-86351537D01*
X200371900Y-86351537D02*
X200171900Y-86351537D01*
X200171900Y-86351537D02*
X200105233Y-86318204D01*
X200105233Y-86318204D02*
X200071900Y-86284871D01*
X200071900Y-86284871D02*
X200038566Y-86218204D01*
X200038566Y-86218204D02*
X200038566Y-86118204D01*
X200038566Y-86118204D02*
X200071900Y-86051537D01*
X200071900Y-86051537D02*
X200105233Y-86018204D01*
X200105233Y-86018204D02*
X200171900Y-85984871D01*
X200171900Y-85984871D02*
X200371900Y-85984871D01*
X200371900Y-85984871D02*
X200438566Y-86018204D01*
X200438566Y-86018204D02*
X200471900Y-86051537D01*
X200471900Y-86051537D02*
X200505233Y-86118204D01*
X200505233Y-86118204D02*
X200505233Y-86218204D01*
X200505233Y-85384871D02*
X200138566Y-85384871D01*
X200138566Y-85384871D02*
X200071900Y-85418204D01*
X200071900Y-85418204D02*
X200038566Y-85484871D01*
X200038566Y-85484871D02*
X200038566Y-85618204D01*
X200038566Y-85618204D02*
X200071900Y-85684871D01*
X200471900Y-85384871D02*
X200505233Y-85451538D01*
X200505233Y-85451538D02*
X200505233Y-85618204D01*
X200505233Y-85618204D02*
X200471900Y-85684871D01*
X200471900Y-85684871D02*
X200405233Y-85718204D01*
X200405233Y-85718204D02*
X200338566Y-85718204D01*
X200338566Y-85718204D02*
X200271900Y-85684871D01*
X200271900Y-85684871D02*
X200238566Y-85618204D01*
X200238566Y-85618204D02*
X200238566Y-85451538D01*
X200238566Y-85451538D02*
X200205233Y-85384871D01*
X200505233Y-85051538D02*
X200038566Y-85051538D01*
X200171900Y-85051538D02*
X200105233Y-85018205D01*
X200105233Y-85018205D02*
X200071900Y-84984871D01*
X200071900Y-84984871D02*
X200038566Y-84918205D01*
X200038566Y-84918205D02*
X200038566Y-84851538D01*
X200505233Y-84318205D02*
X199805233Y-84318205D01*
X200471900Y-84318205D02*
X200505233Y-84384872D01*
X200505233Y-84384872D02*
X200505233Y-84518205D01*
X200505233Y-84518205D02*
X200471900Y-84584872D01*
X200471900Y-84584872D02*
X200438566Y-84618205D01*
X200438566Y-84618205D02*
X200371900Y-84651538D01*
X200371900Y-84651538D02*
X200171900Y-84651538D01*
X200171900Y-84651538D02*
X200105233Y-84618205D01*
X200105233Y-84618205D02*
X200071900Y-84584872D01*
X200071900Y-84584872D02*
X200038566Y-84518205D01*
X200038566Y-84518205D02*
X200038566Y-84384872D01*
X200038566Y-84384872D02*
X200071900Y-84318205D01*
D10*
X178289160Y-93694295D02*
X178289160Y-94341914D01*
X178289160Y-94341914D02*
X178327255Y-94418104D01*
X178327255Y-94418104D02*
X178365350Y-94456200D01*
X178365350Y-94456200D02*
X178441541Y-94494295D01*
X178441541Y-94494295D02*
X178593922Y-94494295D01*
X178593922Y-94494295D02*
X178670112Y-94456200D01*
X178670112Y-94456200D02*
X178708207Y-94418104D01*
X178708207Y-94418104D02*
X178746303Y-94341914D01*
X178746303Y-94341914D02*
X178746303Y-93694295D01*
X179546302Y-94494295D02*
X179089159Y-94494295D01*
X179317731Y-94494295D02*
X179317731Y-93694295D01*
X179317731Y-93694295D02*
X179241540Y-93808580D01*
X179241540Y-93808580D02*
X179165350Y-93884771D01*
X179165350Y-93884771D02*
X179089159Y-93922866D01*
X187466667Y-95286104D02*
X187428571Y-95324200D01*
X187428571Y-95324200D02*
X187314286Y-95362295D01*
X187314286Y-95362295D02*
X187238095Y-95362295D01*
X187238095Y-95362295D02*
X187123809Y-95324200D01*
X187123809Y-95324200D02*
X187047619Y-95248009D01*
X187047619Y-95248009D02*
X187009524Y-95171819D01*
X187009524Y-95171819D02*
X186971428Y-95019438D01*
X186971428Y-95019438D02*
X186971428Y-94905152D01*
X186971428Y-94905152D02*
X187009524Y-94752771D01*
X187009524Y-94752771D02*
X187047619Y-94676580D01*
X187047619Y-94676580D02*
X187123809Y-94600390D01*
X187123809Y-94600390D02*
X187238095Y-94562295D01*
X187238095Y-94562295D02*
X187314286Y-94562295D01*
X187314286Y-94562295D02*
X187428571Y-94600390D01*
X187428571Y-94600390D02*
X187466667Y-94638485D01*
X188152381Y-94562295D02*
X188000000Y-94562295D01*
X188000000Y-94562295D02*
X187923809Y-94600390D01*
X187923809Y-94600390D02*
X187885714Y-94638485D01*
X187885714Y-94638485D02*
X187809524Y-94752771D01*
X187809524Y-94752771D02*
X187771428Y-94905152D01*
X187771428Y-94905152D02*
X187771428Y-95209914D01*
X187771428Y-95209914D02*
X187809524Y-95286104D01*
X187809524Y-95286104D02*
X187847619Y-95324200D01*
X187847619Y-95324200D02*
X187923809Y-95362295D01*
X187923809Y-95362295D02*
X188076190Y-95362295D01*
X188076190Y-95362295D02*
X188152381Y-95324200D01*
X188152381Y-95324200D02*
X188190476Y-95286104D01*
X188190476Y-95286104D02*
X188228571Y-95209914D01*
X188228571Y-95209914D02*
X188228571Y-95019438D01*
X188228571Y-95019438D02*
X188190476Y-94943247D01*
X188190476Y-94943247D02*
X188152381Y-94905152D01*
X188152381Y-94905152D02*
X188076190Y-94867057D01*
X188076190Y-94867057D02*
X187923809Y-94867057D01*
X187923809Y-94867057D02*
X187847619Y-94905152D01*
X187847619Y-94905152D02*
X187809524Y-94943247D01*
X187809524Y-94943247D02*
X187771428Y-95019438D01*
X191809524Y-96162295D02*
X191809524Y-95362295D01*
X191809524Y-95362295D02*
X192000000Y-95362295D01*
X192000000Y-95362295D02*
X192114286Y-95400390D01*
X192114286Y-95400390D02*
X192190476Y-95476580D01*
X192190476Y-95476580D02*
X192228571Y-95552771D01*
X192228571Y-95552771D02*
X192266667Y-95705152D01*
X192266667Y-95705152D02*
X192266667Y-95819438D01*
X192266667Y-95819438D02*
X192228571Y-95971819D01*
X192228571Y-95971819D02*
X192190476Y-96048009D01*
X192190476Y-96048009D02*
X192114286Y-96124200D01*
X192114286Y-96124200D02*
X192000000Y-96162295D01*
X192000000Y-96162295D02*
X191809524Y-96162295D01*
X193028571Y-96162295D02*
X192571428Y-96162295D01*
X192800000Y-96162295D02*
X192800000Y-95362295D01*
X192800000Y-95362295D02*
X192723809Y-95476580D01*
X192723809Y-95476580D02*
X192647619Y-95552771D01*
X192647619Y-95552771D02*
X192571428Y-95590866D01*
X178666667Y-89486104D02*
X178628571Y-89524200D01*
X178628571Y-89524200D02*
X178514286Y-89562295D01*
X178514286Y-89562295D02*
X178438095Y-89562295D01*
X178438095Y-89562295D02*
X178323809Y-89524200D01*
X178323809Y-89524200D02*
X178247619Y-89448009D01*
X178247619Y-89448009D02*
X178209524Y-89371819D01*
X178209524Y-89371819D02*
X178171428Y-89219438D01*
X178171428Y-89219438D02*
X178171428Y-89105152D01*
X178171428Y-89105152D02*
X178209524Y-88952771D01*
X178209524Y-88952771D02*
X178247619Y-88876580D01*
X178247619Y-88876580D02*
X178323809Y-88800390D01*
X178323809Y-88800390D02*
X178438095Y-88762295D01*
X178438095Y-88762295D02*
X178514286Y-88762295D01*
X178514286Y-88762295D02*
X178628571Y-88800390D01*
X178628571Y-88800390D02*
X178666667Y-88838485D01*
X179390476Y-88762295D02*
X179009524Y-88762295D01*
X179009524Y-88762295D02*
X178971428Y-89143247D01*
X178971428Y-89143247D02*
X179009524Y-89105152D01*
X179009524Y-89105152D02*
X179085714Y-89067057D01*
X179085714Y-89067057D02*
X179276190Y-89067057D01*
X179276190Y-89067057D02*
X179352381Y-89105152D01*
X179352381Y-89105152D02*
X179390476Y-89143247D01*
X179390476Y-89143247D02*
X179428571Y-89219438D01*
X179428571Y-89219438D02*
X179428571Y-89409914D01*
X179428571Y-89409914D02*
X179390476Y-89486104D01*
X179390476Y-89486104D02*
X179352381Y-89524200D01*
X179352381Y-89524200D02*
X179276190Y-89562295D01*
X179276190Y-89562295D02*
X179085714Y-89562295D01*
X179085714Y-89562295D02*
X179009524Y-89524200D01*
X179009524Y-89524200D02*
X178971428Y-89486104D01*
X178666667Y-105086104D02*
X178628571Y-105124200D01*
X178628571Y-105124200D02*
X178514286Y-105162295D01*
X178514286Y-105162295D02*
X178438095Y-105162295D01*
X178438095Y-105162295D02*
X178323809Y-105124200D01*
X178323809Y-105124200D02*
X178247619Y-105048009D01*
X178247619Y-105048009D02*
X178209524Y-104971819D01*
X178209524Y-104971819D02*
X178171428Y-104819438D01*
X178171428Y-104819438D02*
X178171428Y-104705152D01*
X178171428Y-104705152D02*
X178209524Y-104552771D01*
X178209524Y-104552771D02*
X178247619Y-104476580D01*
X178247619Y-104476580D02*
X178323809Y-104400390D01*
X178323809Y-104400390D02*
X178438095Y-104362295D01*
X178438095Y-104362295D02*
X178514286Y-104362295D01*
X178514286Y-104362295D02*
X178628571Y-104400390D01*
X178628571Y-104400390D02*
X178666667Y-104438485D01*
X178971428Y-104438485D02*
X179009524Y-104400390D01*
X179009524Y-104400390D02*
X179085714Y-104362295D01*
X179085714Y-104362295D02*
X179276190Y-104362295D01*
X179276190Y-104362295D02*
X179352381Y-104400390D01*
X179352381Y-104400390D02*
X179390476Y-104438485D01*
X179390476Y-104438485D02*
X179428571Y-104514676D01*
X179428571Y-104514676D02*
X179428571Y-104590866D01*
X179428571Y-104590866D02*
X179390476Y-104705152D01*
X179390476Y-104705152D02*
X178933333Y-105162295D01*
X178933333Y-105162295D02*
X179428571Y-105162295D01*
X175066667Y-102286104D02*
X175028571Y-102324200D01*
X175028571Y-102324200D02*
X174914286Y-102362295D01*
X174914286Y-102362295D02*
X174838095Y-102362295D01*
X174838095Y-102362295D02*
X174723809Y-102324200D01*
X174723809Y-102324200D02*
X174647619Y-102248009D01*
X174647619Y-102248009D02*
X174609524Y-102171819D01*
X174609524Y-102171819D02*
X174571428Y-102019438D01*
X174571428Y-102019438D02*
X174571428Y-101905152D01*
X174571428Y-101905152D02*
X174609524Y-101752771D01*
X174609524Y-101752771D02*
X174647619Y-101676580D01*
X174647619Y-101676580D02*
X174723809Y-101600390D01*
X174723809Y-101600390D02*
X174838095Y-101562295D01*
X174838095Y-101562295D02*
X174914286Y-101562295D01*
X174914286Y-101562295D02*
X175028571Y-101600390D01*
X175028571Y-101600390D02*
X175066667Y-101638485D01*
X175752381Y-101828961D02*
X175752381Y-102362295D01*
X175561905Y-101524200D02*
X175371428Y-102095628D01*
X175371428Y-102095628D02*
X175866667Y-102095628D01*
X187266667Y-101286104D02*
X187228571Y-101324200D01*
X187228571Y-101324200D02*
X187114286Y-101362295D01*
X187114286Y-101362295D02*
X187038095Y-101362295D01*
X187038095Y-101362295D02*
X186923809Y-101324200D01*
X186923809Y-101324200D02*
X186847619Y-101248009D01*
X186847619Y-101248009D02*
X186809524Y-101171819D01*
X186809524Y-101171819D02*
X186771428Y-101019438D01*
X186771428Y-101019438D02*
X186771428Y-100905152D01*
X186771428Y-100905152D02*
X186809524Y-100752771D01*
X186809524Y-100752771D02*
X186847619Y-100676580D01*
X186847619Y-100676580D02*
X186923809Y-100600390D01*
X186923809Y-100600390D02*
X187038095Y-100562295D01*
X187038095Y-100562295D02*
X187114286Y-100562295D01*
X187114286Y-100562295D02*
X187228571Y-100600390D01*
X187228571Y-100600390D02*
X187266667Y-100638485D01*
X187533333Y-100562295D02*
X188028571Y-100562295D01*
X188028571Y-100562295D02*
X187761905Y-100867057D01*
X187761905Y-100867057D02*
X187876190Y-100867057D01*
X187876190Y-100867057D02*
X187952381Y-100905152D01*
X187952381Y-100905152D02*
X187990476Y-100943247D01*
X187990476Y-100943247D02*
X188028571Y-101019438D01*
X188028571Y-101019438D02*
X188028571Y-101209914D01*
X188028571Y-101209914D02*
X187990476Y-101286104D01*
X187990476Y-101286104D02*
X187952381Y-101324200D01*
X187952381Y-101324200D02*
X187876190Y-101362295D01*
X187876190Y-101362295D02*
X187647619Y-101362295D01*
X187647619Y-101362295D02*
X187571428Y-101324200D01*
X187571428Y-101324200D02*
X187533333Y-101286104D01*
X189666667Y-95286104D02*
X189628571Y-95324200D01*
X189628571Y-95324200D02*
X189514286Y-95362295D01*
X189514286Y-95362295D02*
X189438095Y-95362295D01*
X189438095Y-95362295D02*
X189323809Y-95324200D01*
X189323809Y-95324200D02*
X189247619Y-95248009D01*
X189247619Y-95248009D02*
X189209524Y-95171819D01*
X189209524Y-95171819D02*
X189171428Y-95019438D01*
X189171428Y-95019438D02*
X189171428Y-94905152D01*
X189171428Y-94905152D02*
X189209524Y-94752771D01*
X189209524Y-94752771D02*
X189247619Y-94676580D01*
X189247619Y-94676580D02*
X189323809Y-94600390D01*
X189323809Y-94600390D02*
X189438095Y-94562295D01*
X189438095Y-94562295D02*
X189514286Y-94562295D01*
X189514286Y-94562295D02*
X189628571Y-94600390D01*
X189628571Y-94600390D02*
X189666667Y-94638485D01*
X189933333Y-94562295D02*
X190466667Y-94562295D01*
X190466667Y-94562295D02*
X190123809Y-95362295D01*
X181091667Y-91456104D02*
X181053571Y-91494200D01*
X181053571Y-91494200D02*
X180939286Y-91532295D01*
X180939286Y-91532295D02*
X180863095Y-91532295D01*
X180863095Y-91532295D02*
X180748809Y-91494200D01*
X180748809Y-91494200D02*
X180672619Y-91418009D01*
X180672619Y-91418009D02*
X180634524Y-91341819D01*
X180634524Y-91341819D02*
X180596428Y-91189438D01*
X180596428Y-91189438D02*
X180596428Y-91075152D01*
X180596428Y-91075152D02*
X180634524Y-90922771D01*
X180634524Y-90922771D02*
X180672619Y-90846580D01*
X180672619Y-90846580D02*
X180748809Y-90770390D01*
X180748809Y-90770390D02*
X180863095Y-90732295D01*
X180863095Y-90732295D02*
X180939286Y-90732295D01*
X180939286Y-90732295D02*
X181053571Y-90770390D01*
X181053571Y-90770390D02*
X181091667Y-90808485D01*
X181853571Y-91532295D02*
X181396428Y-91532295D01*
X181625000Y-91532295D02*
X181625000Y-90732295D01*
X181625000Y-90732295D02*
X181548809Y-90846580D01*
X181548809Y-90846580D02*
X181472619Y-90922771D01*
X181472619Y-90922771D02*
X181396428Y-90960866D01*
X191190476Y-84162295D02*
X191190476Y-84809914D01*
X191190476Y-84809914D02*
X191228571Y-84886104D01*
X191228571Y-84886104D02*
X191266666Y-84924200D01*
X191266666Y-84924200D02*
X191342857Y-84962295D01*
X191342857Y-84962295D02*
X191495238Y-84962295D01*
X191495238Y-84962295D02*
X191571428Y-84924200D01*
X191571428Y-84924200D02*
X191609523Y-84886104D01*
X191609523Y-84886104D02*
X191647619Y-84809914D01*
X191647619Y-84809914D02*
X191647619Y-84162295D01*
X191990475Y-84238485D02*
X192028571Y-84200390D01*
X192028571Y-84200390D02*
X192104761Y-84162295D01*
X192104761Y-84162295D02*
X192295237Y-84162295D01*
X192295237Y-84162295D02*
X192371428Y-84200390D01*
X192371428Y-84200390D02*
X192409523Y-84238485D01*
X192409523Y-84238485D02*
X192447618Y-84314676D01*
X192447618Y-84314676D02*
X192447618Y-84390866D01*
X192447618Y-84390866D02*
X192409523Y-84505152D01*
X192409523Y-84505152D02*
X191952380Y-84962295D01*
X191952380Y-84962295D02*
X192447618Y-84962295D01*
X168966666Y-82216033D02*
X168966666Y-82716033D01*
X168966666Y-82716033D02*
X168933333Y-82816033D01*
X168933333Y-82816033D02*
X168866666Y-82882700D01*
X168866666Y-82882700D02*
X168766666Y-82916033D01*
X168766666Y-82916033D02*
X168700000Y-82916033D01*
X169666666Y-82916033D02*
X169266666Y-82916033D01*
X169466666Y-82916033D02*
X169466666Y-82216033D01*
X169466666Y-82216033D02*
X169399999Y-82316033D01*
X169399999Y-82316033D02*
X169333333Y-82382700D01*
X169333333Y-82382700D02*
X169266666Y-82416033D01*
X183390476Y-82562295D02*
X183390476Y-83209914D01*
X183390476Y-83209914D02*
X183428571Y-83286104D01*
X183428571Y-83286104D02*
X183466666Y-83324200D01*
X183466666Y-83324200D02*
X183542857Y-83362295D01*
X183542857Y-83362295D02*
X183695238Y-83362295D01*
X183695238Y-83362295D02*
X183771428Y-83324200D01*
X183771428Y-83324200D02*
X183809523Y-83286104D01*
X183809523Y-83286104D02*
X183847619Y-83209914D01*
X183847619Y-83209914D02*
X183847619Y-82562295D01*
X184152380Y-82562295D02*
X184647618Y-82562295D01*
X184647618Y-82562295D02*
X184380952Y-82867057D01*
X184380952Y-82867057D02*
X184495237Y-82867057D01*
X184495237Y-82867057D02*
X184571428Y-82905152D01*
X184571428Y-82905152D02*
X184609523Y-82943247D01*
X184609523Y-82943247D02*
X184647618Y-83019438D01*
X184647618Y-83019438D02*
X184647618Y-83209914D01*
X184647618Y-83209914D02*
X184609523Y-83286104D01*
X184609523Y-83286104D02*
X184571428Y-83324200D01*
X184571428Y-83324200D02*
X184495237Y-83362295D01*
X184495237Y-83362295D02*
X184266666Y-83362295D01*
X184266666Y-83362295D02*
X184190475Y-83324200D01*
X184190475Y-83324200D02*
X184152380Y-83286104D01*
X198366666Y-82216033D02*
X198366666Y-82716033D01*
X198366666Y-82716033D02*
X198333333Y-82816033D01*
X198333333Y-82816033D02*
X198266666Y-82882700D01*
X198266666Y-82882700D02*
X198166666Y-82916033D01*
X198166666Y-82916033D02*
X198100000Y-82916033D01*
X198666666Y-82282700D02*
X198699999Y-82249366D01*
X198699999Y-82249366D02*
X198766666Y-82216033D01*
X198766666Y-82216033D02*
X198933333Y-82216033D01*
X198933333Y-82216033D02*
X198999999Y-82249366D01*
X198999999Y-82249366D02*
X199033333Y-82282700D01*
X199033333Y-82282700D02*
X199066666Y-82349366D01*
X199066666Y-82349366D02*
X199066666Y-82416033D01*
X199066666Y-82416033D02*
X199033333Y-82516033D01*
X199033333Y-82516033D02*
X198633333Y-82916033D01*
X198633333Y-82916033D02*
X199066666Y-82916033D01*
D12*
%TO.C,C6*%
X186711252Y-93935000D02*
X186188748Y-93935000D01*
X186711252Y-92465000D02*
X186188748Y-92465000D01*
%TO.C,U1*%
X181168736Y-103166940D02*
X180656084Y-102654288D01*
X177283184Y-98256084D02*
X176770532Y-98768736D01*
X181681388Y-102654288D02*
X181168736Y-103166940D01*
X180656084Y-94883184D02*
X181168736Y-94370532D01*
X185054288Y-99281388D02*
X185566940Y-98768736D01*
X181168736Y-94370532D02*
X181681388Y-94883184D01*
X185566940Y-98768736D02*
X185054288Y-98256084D01*
D13*
%TO.C,D1*%
X193026213Y-97403810D02*
X193026213Y-102596190D01*
X190173787Y-97403810D02*
X190173787Y-102596190D01*
X193026213Y-99116078D02*
X190173787Y-99116078D01*
X190424384Y-102593294D02*
X190185166Y-102599975D01*
X193026213Y-102596190D02*
X192786995Y-102602870D01*
D14*
X190329997Y-97394971D02*
G75*
G03*
X190329997Y-97394971I-29972J0D01*
G01*
D12*
%TO.C,C5*%
X181565580Y-89710000D02*
X181284420Y-89710000D01*
X181565580Y-88690000D02*
X181284420Y-88690000D01*
%TO.C,C2*%
X181365580Y-105310000D02*
X181084420Y-105310000D01*
X181365580Y-104290000D02*
X181084420Y-104290000D01*
%TO.C,C4*%
X175710000Y-99459420D02*
X175710000Y-99740580D01*
X174690000Y-99459420D02*
X174690000Y-99740580D01*
%TO.C,C3*%
X186890000Y-98915580D02*
X186890000Y-98634420D01*
X187910000Y-98915580D02*
X187910000Y-98634420D01*
%TO.C,C7*%
X191011252Y-93935000D02*
X190488748Y-93935000D01*
X191011252Y-92465000D02*
X190488748Y-92465000D01*
%TO.C,C1*%
X181084420Y-92090000D02*
X181365580Y-92090000D01*
X181084420Y-93110000D02*
X181365580Y-93110000D01*
%TO.C,U2*%
X184990000Y-91500000D02*
X184990000Y-85490000D01*
X191810000Y-89250000D02*
X191810000Y-85490000D01*
X184990000Y-85490000D02*
X186250000Y-85490000D01*
X191810000Y-85490000D02*
X190550000Y-85490000D01*
%TO.C,J1*%
X168580000Y-83290000D02*
X168580000Y-103730000D01*
X168580000Y-83290000D02*
X171180000Y-83290000D01*
X168580000Y-103730000D02*
X173780000Y-103730000D01*
X171180000Y-83290000D02*
X171180000Y-85890000D01*
X171180000Y-85890000D02*
X173780000Y-85890000D01*
X172450000Y-83290000D02*
X173780000Y-83290000D01*
X173780000Y-83290000D02*
X173780000Y-84620000D01*
X173780000Y-85890000D02*
X173780000Y-103730000D01*
%TO.C,U3*%
X179200000Y-88160000D02*
X182650000Y-88160000D01*
X179200000Y-88160000D02*
X177250000Y-88160000D01*
X179200000Y-83040000D02*
X181150000Y-83040000D01*
X179200000Y-83040000D02*
X177250000Y-83040000D01*
%TO.C,J2*%
X193980000Y-83290000D02*
X193980000Y-103730000D01*
X193980000Y-83290000D02*
X196580000Y-83290000D01*
X193980000Y-103730000D02*
X199180000Y-103730000D01*
X196580000Y-83290000D02*
X196580000Y-85890000D01*
X196580000Y-85890000D02*
X199180000Y-85890000D01*
X197850000Y-83290000D02*
X199180000Y-83290000D01*
X199180000Y-83290000D02*
X199180000Y-84620000D01*
X199180000Y-85890000D02*
X199180000Y-103730000D01*
%TD*%
M02*
